M48
;DRILL file {KiCad 4.0.7-e2-6376~58~ubuntu16.04.1} date Thu Jun 21 09:33:07 2018
;FORMAT={-:-/ absolute / metric / decimal}
FMAT,2
METRIC,TZ
T1C0.400
T2C0.500
T3C0.762
T4C0.800
%
G90
G05
M71
T1
X116.84Y-112.014
X121.666Y-112.776
X121.666Y-114.3
X128.016Y-108.712
X128.016Y-116.586
X140.716Y-107.188
X145.542Y-106.934
X161.29Y-113.386
X161.29Y-114.402
X161.29Y-115.418
T2
X112.649Y-75.565
X112.649Y-77.597
X112.649Y-79.629
X112.649Y-93.726
X114.427Y-95.504
X114.681Y-75.565
X116.713Y-75.565
X118.745Y-75.565
X120.777Y-75.565
X122.809Y-75.565
X129.667Y-95.504
X131.572Y-95.504
X133.62Y-79.478
X133.62Y-81.478
X133.62Y-83.478
X133.62Y-85.478
X133.62Y-87.478
X133.62Y-89.478
X133.62Y-91.478
X133.62Y-93.478
X133.62Y-95.478
X139.43Y-80.131
X139.43Y-82.131
X139.43Y-84.131
X139.43Y-86.131
X139.43Y-88.131
X139.43Y-90.131
X139.43Y-92.131
X139.43Y-94.131
X139.43Y-96.131
X139.446Y-78.13
X161.43Y-80.131
X161.43Y-82.131
X161.43Y-84.131
X161.43Y-86.131
X161.43Y-88.131
X161.43Y-90.131
X161.43Y-92.131
X161.43Y-94.131
X161.43Y-96.131
X161.442Y-78.08
T3
X106.553Y-85.725
X106.553Y-92.456
X106.807Y-102.108
X106.807Y-108.839
X107.061Y-117.475
X113.792Y-117.475
T4
X104.14Y-75.502
X104.14Y-77.502
X104.14Y-79.502
X114.808Y-72.39
X116.808Y-72.39
X118.808Y-72.39
X120.174Y-119.888
X120.808Y-72.39
X122.174Y-119.888
X122.808Y-72.39
X125.476Y-119.888
X126.08Y-72.39
X127.476Y-119.888
X128.08Y-72.39
X130.08Y-72.39
X130.81Y-119.888
X132.08Y-72.39
X132.81Y-119.888
X163.576Y-106.934
X163.576Y-108.934
X163.576Y-110.934
X163.576Y-112.934
X163.576Y-114.934
X163.576Y-116.934
X163.576Y-118.934
T0
M30
