%FSLAX45Y45*%
G04 Gerber Fmt 4.5, Leading zero omitted, Abs format (unit mm)*
G04 Created by KiCad (PCBNEW 4.0.7-e2-6376~58~ubuntu16.04.1) date Thu Jun 21 09:33:08 2018*
%MOMM*%
%LPD*%
G01*
G04 APERTURE LIST*
%ADD10C,0.127000*%
%ADD11C,0.150000*%
%ADD12C,0.200000*%
%ADD13C,0.300000*%
G04 APERTURE END LIST*
D10*
D11*
X10210800Y-7061200D02*
X10210800Y-12192000D01*
X16560800Y-7061200D02*
X10210800Y-7061200D01*
X16560800Y-12192000D02*
X16560800Y-7061200D01*
X10210800Y-12192000D02*
X16560800Y-12192000D01*
D12*
X11664000Y-11181400D02*
X11704000Y-11221400D01*
X11704000Y-11181400D02*
X11664000Y-11221400D01*
X12146600Y-11257600D02*
X12186600Y-11297600D01*
X12186600Y-11257600D02*
X12146600Y-11297600D01*
X12146600Y-11410000D02*
X12186600Y-11450000D01*
X12186600Y-11410000D02*
X12146600Y-11450000D01*
X12781600Y-10851200D02*
X12821600Y-10891200D01*
X12821600Y-10851200D02*
X12781600Y-10891200D01*
X12781600Y-11638600D02*
X12821600Y-11678600D01*
X12821600Y-11638600D02*
X12781600Y-11678600D01*
X14051600Y-10698800D02*
X14091600Y-10738800D01*
X14091600Y-10698800D02*
X14051600Y-10738800D01*
X14534200Y-10673400D02*
X14574200Y-10713400D01*
X14574200Y-10673400D02*
X14534200Y-10713400D01*
X16109000Y-11318560D02*
X16149000Y-11358560D01*
X16149000Y-11318560D02*
X16109000Y-11358560D01*
X16109000Y-11420160D02*
X16149000Y-11460160D01*
X16149000Y-11420160D02*
X16109000Y-11460160D01*
X16109000Y-11521760D02*
X16149000Y-11561760D01*
X16149000Y-11521760D02*
X16109000Y-11561760D01*
X11289900Y-7556500D02*
G75*
G03X11289900Y-7556500I-25000J0D01*
G01*
X11289900Y-7759700D02*
G75*
G03X11289900Y-7759700I-25000J0D01*
G01*
X11289900Y-7962900D02*
G75*
G03X11289900Y-7962900I-25000J0D01*
G01*
X11289900Y-9372600D02*
G75*
G03X11289900Y-9372600I-25000J0D01*
G01*
X11467700Y-9550400D02*
G75*
G03X11467700Y-9550400I-25000J0D01*
G01*
X11493100Y-7556500D02*
G75*
G03X11493100Y-7556500I-25000J0D01*
G01*
X11696300Y-7556500D02*
G75*
G03X11696300Y-7556500I-25000J0D01*
G01*
X11899500Y-7556500D02*
G75*
G03X11899500Y-7556500I-25000J0D01*
G01*
X12102700Y-7556500D02*
G75*
G03X12102700Y-7556500I-25000J0D01*
G01*
X12305900Y-7556500D02*
G75*
G03X12305900Y-7556500I-25000J0D01*
G01*
X12991700Y-9550400D02*
G75*
G03X12991700Y-9550400I-25000J0D01*
G01*
X13182200Y-9550400D02*
G75*
G03X13182200Y-9550400I-25000J0D01*
G01*
X13387000Y-7947800D02*
G75*
G03X13387000Y-7947800I-25000J0D01*
G01*
X13387000Y-8147800D02*
G75*
G03X13387000Y-8147800I-25000J0D01*
G01*
X13387000Y-8347800D02*
G75*
G03X13387000Y-8347800I-25000J0D01*
G01*
X13387000Y-8547800D02*
G75*
G03X13387000Y-8547800I-25000J0D01*
G01*
X13387000Y-8747800D02*
G75*
G03X13387000Y-8747800I-25000J0D01*
G01*
X13387000Y-8947800D02*
G75*
G03X13387000Y-8947800I-25000J0D01*
G01*
X13387000Y-9147800D02*
G75*
G03X13387000Y-9147800I-25000J0D01*
G01*
X13387000Y-9347800D02*
G75*
G03X13387000Y-9347800I-25000J0D01*
G01*
X13387000Y-9547800D02*
G75*
G03X13387000Y-9547800I-25000J0D01*
G01*
X13968000Y-8013100D02*
G75*
G03X13968000Y-8013100I-25000J0D01*
G01*
X13968000Y-8213100D02*
G75*
G03X13968000Y-8213100I-25000J0D01*
G01*
X13968000Y-8413100D02*
G75*
G03X13968000Y-8413100I-25000J0D01*
G01*
X13968000Y-8613100D02*
G75*
G03X13968000Y-8613100I-25000J0D01*
G01*
X13968000Y-8813100D02*
G75*
G03X13968000Y-8813100I-25000J0D01*
G01*
X13968000Y-9013100D02*
G75*
G03X13968000Y-9013100I-25000J0D01*
G01*
X13968000Y-9213100D02*
G75*
G03X13968000Y-9213100I-25000J0D01*
G01*
X13968000Y-9413100D02*
G75*
G03X13968000Y-9413100I-25000J0D01*
G01*
X13968000Y-9613100D02*
G75*
G03X13968000Y-9613100I-25000J0D01*
G01*
X13969600Y-7813040D02*
G75*
G03X13969600Y-7813040I-25000J0D01*
G01*
X16168000Y-8013100D02*
G75*
G03X16168000Y-8013100I-25000J0D01*
G01*
X16168000Y-8213100D02*
G75*
G03X16168000Y-8213100I-25000J0D01*
G01*
X16168000Y-8413100D02*
G75*
G03X16168000Y-8413100I-25000J0D01*
G01*
X16168000Y-8613100D02*
G75*
G03X16168000Y-8613100I-25000J0D01*
G01*
X16168000Y-8813100D02*
G75*
G03X16168000Y-8813100I-25000J0D01*
G01*
X16168000Y-9013100D02*
G75*
G03X16168000Y-9013100I-25000J0D01*
G01*
X16168000Y-9213100D02*
G75*
G03X16168000Y-9213100I-25000J0D01*
G01*
X16168000Y-9413100D02*
G75*
G03X16168000Y-9413100I-25000J0D01*
G01*
X16168000Y-9613100D02*
G75*
G03X16168000Y-9613100I-25000J0D01*
G01*
X16169240Y-7807960D02*
G75*
G03X16169240Y-7807960I-25000J0D01*
G01*
X10655300Y-8534400D02*
X10655300Y-8610600D01*
X10617200Y-8572500D02*
X10693400Y-8572500D01*
X10655300Y-9207500D02*
X10655300Y-9283700D01*
X10617200Y-9245600D02*
X10693400Y-9245600D01*
X10680700Y-10172700D02*
X10680700Y-10248900D01*
X10642600Y-10210800D02*
X10718800Y-10210800D01*
X10680700Y-10845800D02*
X10680700Y-10922000D01*
X10642600Y-10883900D02*
X10718800Y-10883900D01*
X10706100Y-11709400D02*
X10706100Y-11785600D01*
X10668000Y-11747500D02*
X10744200Y-11747500D01*
X11379200Y-11709400D02*
X11379200Y-11785600D01*
X11341100Y-11747500D02*
X11417300Y-11747500D01*
X10442285Y-7578484D02*
X10442285Y-7521915D01*
X10385716Y-7521915D01*
X10385716Y-7578484D01*
X10442285Y-7578484D01*
X10442285Y-7778484D02*
X10442285Y-7721915D01*
X10385716Y-7721915D01*
X10385716Y-7778484D01*
X10442285Y-7778484D01*
X10442285Y-7978484D02*
X10442285Y-7921915D01*
X10385716Y-7921915D01*
X10385716Y-7978484D01*
X10442285Y-7978484D01*
X11509084Y-7267284D02*
X11509084Y-7210715D01*
X11452515Y-7210715D01*
X11452515Y-7267284D01*
X11509084Y-7267284D01*
X11709084Y-7267284D02*
X11709084Y-7210715D01*
X11652515Y-7210715D01*
X11652515Y-7267284D01*
X11709084Y-7267284D01*
X11909084Y-7267284D02*
X11909084Y-7210715D01*
X11852515Y-7210715D01*
X11852515Y-7267284D01*
X11909084Y-7267284D01*
X12045684Y-12017084D02*
X12045684Y-11960515D01*
X11989115Y-11960515D01*
X11989115Y-12017084D01*
X12045684Y-12017084D01*
X12109084Y-7267284D02*
X12109084Y-7210715D01*
X12052515Y-7210715D01*
X12052515Y-7267284D01*
X12109084Y-7267284D01*
X12245684Y-12017084D02*
X12245684Y-11960515D01*
X12189115Y-11960515D01*
X12189115Y-12017084D01*
X12245684Y-12017084D01*
X12309084Y-7267284D02*
X12309084Y-7210715D01*
X12252515Y-7210715D01*
X12252515Y-7267284D01*
X12309084Y-7267284D01*
X12575884Y-12017084D02*
X12575884Y-11960515D01*
X12519315Y-11960515D01*
X12519315Y-12017084D01*
X12575884Y-12017084D01*
X12636284Y-7267284D02*
X12636284Y-7210715D01*
X12579715Y-7210715D01*
X12579715Y-7267284D01*
X12636284Y-7267284D01*
X12775884Y-12017084D02*
X12775884Y-11960515D01*
X12719315Y-11960515D01*
X12719315Y-12017084D01*
X12775884Y-12017084D01*
X12836284Y-7267284D02*
X12836284Y-7210715D01*
X12779715Y-7210715D01*
X12779715Y-7267284D01*
X12836284Y-7267284D01*
X13036284Y-7267284D02*
X13036284Y-7210715D01*
X12979715Y-7210715D01*
X12979715Y-7267284D01*
X13036284Y-7267284D01*
X13109284Y-12017084D02*
X13109284Y-11960515D01*
X13052715Y-11960515D01*
X13052715Y-12017084D01*
X13109284Y-12017084D01*
X13236284Y-7267284D02*
X13236284Y-7210715D01*
X13179715Y-7210715D01*
X13179715Y-7267284D01*
X13236284Y-7267284D01*
X13309284Y-12017084D02*
X13309284Y-11960515D01*
X13252715Y-11960515D01*
X13252715Y-12017084D01*
X13309284Y-12017084D01*
X16385884Y-10721685D02*
X16385884Y-10665116D01*
X16329315Y-10665116D01*
X16329315Y-10721685D01*
X16385884Y-10721685D01*
X16385884Y-10921685D02*
X16385884Y-10865116D01*
X16329315Y-10865116D01*
X16329315Y-10921685D01*
X16385884Y-10921685D01*
X16385884Y-11121685D02*
X16385884Y-11065116D01*
X16329315Y-11065116D01*
X16329315Y-11121685D01*
X16385884Y-11121685D01*
X16385884Y-11321684D02*
X16385884Y-11265115D01*
X16329315Y-11265115D01*
X16329315Y-11321684D01*
X16385884Y-11321684D01*
X16385884Y-11521684D02*
X16385884Y-11465115D01*
X16329315Y-11465115D01*
X16329315Y-11521684D01*
X16385884Y-11521684D01*
X16385884Y-11721684D02*
X16385884Y-11665115D01*
X16329315Y-11665115D01*
X16329315Y-11721684D01*
X16385884Y-11721684D01*
X16385884Y-11921684D02*
X16385884Y-11865115D01*
X16329315Y-11865115D01*
X16329315Y-11921684D01*
X16385884Y-11921684D01*
D13*
X10474729Y-12665214D02*
X10474729Y-12365214D01*
X10546157Y-12365214D01*
X10589014Y-12379500D01*
X10617586Y-12408071D01*
X10631871Y-12436643D01*
X10646157Y-12493786D01*
X10646157Y-12536643D01*
X10631871Y-12593786D01*
X10617586Y-12622357D01*
X10589014Y-12650929D01*
X10546157Y-12665214D01*
X10474729Y-12665214D01*
X10774729Y-12665214D02*
X10774729Y-12465214D01*
X10774729Y-12522357D02*
X10789014Y-12493786D01*
X10803300Y-12479500D01*
X10831871Y-12465214D01*
X10860443Y-12465214D01*
X10960443Y-12665214D02*
X10960443Y-12465214D01*
X10960443Y-12365214D02*
X10946157Y-12379500D01*
X10960443Y-12393786D01*
X10974729Y-12379500D01*
X10960443Y-12365214D01*
X10960443Y-12393786D01*
X11146157Y-12665214D02*
X11117586Y-12650929D01*
X11103300Y-12622357D01*
X11103300Y-12365214D01*
X11303300Y-12665214D02*
X11274728Y-12650929D01*
X11260443Y-12622357D01*
X11260443Y-12365214D01*
X11646157Y-12665214D02*
X11646157Y-12365214D01*
X11746157Y-12579500D01*
X11846157Y-12365214D01*
X11846157Y-12665214D01*
X12117586Y-12665214D02*
X12117586Y-12508071D01*
X12103300Y-12479500D01*
X12074728Y-12465214D01*
X12017586Y-12465214D01*
X11989014Y-12479500D01*
X12117586Y-12650929D02*
X12089014Y-12665214D01*
X12017586Y-12665214D01*
X11989014Y-12650929D01*
X11974728Y-12622357D01*
X11974728Y-12593786D01*
X11989014Y-12565214D01*
X12017586Y-12550929D01*
X12089014Y-12550929D01*
X12117586Y-12536643D01*
X12260443Y-12465214D02*
X12260443Y-12765214D01*
X12260443Y-12479500D02*
X12289014Y-12465214D01*
X12346157Y-12465214D01*
X12374728Y-12479500D01*
X12389014Y-12493786D01*
X12403300Y-12522357D01*
X12403300Y-12608071D01*
X12389014Y-12636643D01*
X12374728Y-12650929D01*
X12346157Y-12665214D01*
X12289014Y-12665214D01*
X12260443Y-12650929D01*
X12531871Y-12636643D02*
X12546157Y-12650929D01*
X12531871Y-12665214D01*
X12517586Y-12650929D01*
X12531871Y-12636643D01*
X12531871Y-12665214D01*
X12531871Y-12479500D02*
X12546157Y-12493786D01*
X12531871Y-12508071D01*
X12517586Y-12493786D01*
X12531871Y-12479500D01*
X12531871Y-12508071D01*
X10163300Y-13139500D02*
X10203300Y-13179500D01*
X10203300Y-13139500D02*
X10163300Y-13179500D01*
X10531871Y-12995214D02*
X10560443Y-12995214D01*
X10589014Y-13009500D01*
X10603300Y-13023786D01*
X10617586Y-13052357D01*
X10631871Y-13109500D01*
X10631871Y-13180929D01*
X10617586Y-13238071D01*
X10603300Y-13266643D01*
X10589014Y-13280929D01*
X10560443Y-13295214D01*
X10531871Y-13295214D01*
X10503300Y-13280929D01*
X10489014Y-13266643D01*
X10474729Y-13238071D01*
X10460443Y-13180929D01*
X10460443Y-13109500D01*
X10474729Y-13052357D01*
X10489014Y-13023786D01*
X10503300Y-13009500D01*
X10531871Y-12995214D01*
X10760443Y-13266643D02*
X10774729Y-13280929D01*
X10760443Y-13295214D01*
X10746157Y-13280929D01*
X10760443Y-13266643D01*
X10760443Y-13295214D01*
X11031871Y-13095214D02*
X11031871Y-13295214D01*
X10960443Y-12980929D02*
X10889014Y-13195214D01*
X11074728Y-13195214D01*
X11246157Y-12995214D02*
X11274728Y-12995214D01*
X11303300Y-13009500D01*
X11317586Y-13023786D01*
X11331871Y-13052357D01*
X11346157Y-13109500D01*
X11346157Y-13180929D01*
X11331871Y-13238071D01*
X11317586Y-13266643D01*
X11303300Y-13280929D01*
X11274728Y-13295214D01*
X11246157Y-13295214D01*
X11217586Y-13280929D01*
X11203300Y-13266643D01*
X11189014Y-13238071D01*
X11174729Y-13180929D01*
X11174729Y-13109500D01*
X11189014Y-13052357D01*
X11203300Y-13023786D01*
X11217586Y-13009500D01*
X11246157Y-12995214D01*
X11474728Y-13295214D02*
X11474728Y-13095214D01*
X11474728Y-13123786D02*
X11489014Y-13109500D01*
X11517586Y-13095214D01*
X11560443Y-13095214D01*
X11589014Y-13109500D01*
X11603300Y-13138071D01*
X11603300Y-13295214D01*
X11603300Y-13138071D02*
X11617586Y-13109500D01*
X11646157Y-13095214D01*
X11689014Y-13095214D01*
X11717586Y-13109500D01*
X11731871Y-13138071D01*
X11731871Y-13295214D01*
X11874728Y-13295214D02*
X11874728Y-13095214D01*
X11874728Y-13123786D02*
X11889014Y-13109500D01*
X11917586Y-13095214D01*
X11960443Y-13095214D01*
X11989014Y-13109500D01*
X12003300Y-13138071D01*
X12003300Y-13295214D01*
X12003300Y-13138071D02*
X12017586Y-13109500D01*
X12046157Y-13095214D01*
X12089014Y-13095214D01*
X12117586Y-13109500D01*
X12131871Y-13138071D01*
X12131871Y-13295214D01*
X12717586Y-12980929D02*
X12460443Y-13366643D01*
X13103300Y-12995214D02*
X13131871Y-12995214D01*
X13160443Y-13009500D01*
X13174728Y-13023786D01*
X13189014Y-13052357D01*
X13203300Y-13109500D01*
X13203300Y-13180929D01*
X13189014Y-13238071D01*
X13174728Y-13266643D01*
X13160443Y-13280929D01*
X13131871Y-13295214D01*
X13103300Y-13295214D01*
X13074728Y-13280929D01*
X13060443Y-13266643D01*
X13046157Y-13238071D01*
X13031871Y-13180929D01*
X13031871Y-13109500D01*
X13046157Y-13052357D01*
X13060443Y-13023786D01*
X13074728Y-13009500D01*
X13103300Y-12995214D01*
X13331871Y-13266643D02*
X13346157Y-13280929D01*
X13331871Y-13295214D01*
X13317586Y-13280929D01*
X13331871Y-13266643D01*
X13331871Y-13295214D01*
X13531871Y-12995214D02*
X13560443Y-12995214D01*
X13589014Y-13009500D01*
X13603300Y-13023786D01*
X13617585Y-13052357D01*
X13631871Y-13109500D01*
X13631871Y-13180929D01*
X13617585Y-13238071D01*
X13603300Y-13266643D01*
X13589014Y-13280929D01*
X13560443Y-13295214D01*
X13531871Y-13295214D01*
X13503300Y-13280929D01*
X13489014Y-13266643D01*
X13474728Y-13238071D01*
X13460443Y-13180929D01*
X13460443Y-13109500D01*
X13474728Y-13052357D01*
X13489014Y-13023786D01*
X13503300Y-13009500D01*
X13531871Y-12995214D01*
X13917585Y-13295214D02*
X13746157Y-13295214D01*
X13831871Y-13295214D02*
X13831871Y-12995214D01*
X13803300Y-13038071D01*
X13774728Y-13066643D01*
X13746157Y-13080929D01*
X14174728Y-12995214D02*
X14117585Y-12995214D01*
X14089014Y-13009500D01*
X14074728Y-13023786D01*
X14046157Y-13066643D01*
X14031871Y-13123786D01*
X14031871Y-13238071D01*
X14046157Y-13266643D01*
X14060443Y-13280929D01*
X14089014Y-13295214D01*
X14146157Y-13295214D01*
X14174728Y-13280929D01*
X14189014Y-13266643D01*
X14203300Y-13238071D01*
X14203300Y-13166643D01*
X14189014Y-13138071D01*
X14174728Y-13123786D01*
X14146157Y-13109500D01*
X14089014Y-13109500D01*
X14060443Y-13123786D01*
X14046157Y-13138071D01*
X14031871Y-13166643D01*
X14317586Y-12995214D02*
X14317586Y-13052357D01*
X14431871Y-12995214D02*
X14431871Y-13052357D01*
X14874728Y-13409500D02*
X14860443Y-13395214D01*
X14831871Y-13352357D01*
X14817585Y-13323786D01*
X14803300Y-13280929D01*
X14789014Y-13209500D01*
X14789014Y-13152357D01*
X14803300Y-13080929D01*
X14817585Y-13038071D01*
X14831871Y-13009500D01*
X14860443Y-12966643D01*
X14874728Y-12952357D01*
X15146157Y-13295214D02*
X14974728Y-13295214D01*
X15060443Y-13295214D02*
X15060443Y-12995214D01*
X15031871Y-13038071D01*
X15003300Y-13066643D01*
X14974728Y-13080929D01*
X15331871Y-12995214D02*
X15360443Y-12995214D01*
X15389014Y-13009500D01*
X15403300Y-13023786D01*
X15417585Y-13052357D01*
X15431871Y-13109500D01*
X15431871Y-13180929D01*
X15417585Y-13238071D01*
X15403300Y-13266643D01*
X15389014Y-13280929D01*
X15360443Y-13295214D01*
X15331871Y-13295214D01*
X15303300Y-13280929D01*
X15289014Y-13266643D01*
X15274728Y-13238071D01*
X15260443Y-13180929D01*
X15260443Y-13109500D01*
X15274728Y-13052357D01*
X15289014Y-13023786D01*
X15303300Y-13009500D01*
X15331871Y-12995214D01*
X15789014Y-13295214D02*
X15789014Y-12995214D01*
X15917585Y-13295214D02*
X15917585Y-13138071D01*
X15903300Y-13109500D01*
X15874728Y-13095214D01*
X15831871Y-13095214D01*
X15803300Y-13109500D01*
X15789014Y-13123786D01*
X16103300Y-13295214D02*
X16074728Y-13280929D01*
X16060443Y-13266643D01*
X16046157Y-13238071D01*
X16046157Y-13152357D01*
X16060443Y-13123786D01*
X16074728Y-13109500D01*
X16103300Y-13095214D01*
X16146157Y-13095214D01*
X16174728Y-13109500D01*
X16189014Y-13123786D01*
X16203300Y-13152357D01*
X16203300Y-13238071D01*
X16189014Y-13266643D01*
X16174728Y-13280929D01*
X16146157Y-13295214D01*
X16103300Y-13295214D01*
X16374728Y-13295214D02*
X16346157Y-13280929D01*
X16331871Y-13252357D01*
X16331871Y-12995214D01*
X16603300Y-13280929D02*
X16574728Y-13295214D01*
X16517586Y-13295214D01*
X16489014Y-13280929D01*
X16474728Y-13252357D01*
X16474728Y-13138071D01*
X16489014Y-13109500D01*
X16517586Y-13095214D01*
X16574728Y-13095214D01*
X16603300Y-13109500D01*
X16617586Y-13138071D01*
X16617586Y-13166643D01*
X16474728Y-13195214D01*
X16731871Y-13280929D02*
X16760443Y-13295214D01*
X16817586Y-13295214D01*
X16846157Y-13280929D01*
X16860443Y-13252357D01*
X16860443Y-13238071D01*
X16846157Y-13209500D01*
X16817586Y-13195214D01*
X16774728Y-13195214D01*
X16746157Y-13180929D01*
X16731871Y-13152357D01*
X16731871Y-13138071D01*
X16746157Y-13109500D01*
X16774728Y-13095214D01*
X16817586Y-13095214D01*
X16846157Y-13109500D01*
X16960443Y-13409500D02*
X16974729Y-13395214D01*
X17003300Y-13352357D01*
X17017586Y-13323786D01*
X17031871Y-13280929D01*
X17046157Y-13209500D01*
X17046157Y-13152357D01*
X17031871Y-13080929D01*
X17017586Y-13038071D01*
X17003300Y-13009500D01*
X16974729Y-12966643D01*
X16960443Y-12952357D01*
X10203300Y-13555500D02*
G75*
G03X10203300Y-13555500I-25000J0D01*
G01*
X10531871Y-13391214D02*
X10560443Y-13391214D01*
X10589014Y-13405500D01*
X10603300Y-13419786D01*
X10617586Y-13448357D01*
X10631871Y-13505500D01*
X10631871Y-13576929D01*
X10617586Y-13634071D01*
X10603300Y-13662643D01*
X10589014Y-13676929D01*
X10560443Y-13691214D01*
X10531871Y-13691214D01*
X10503300Y-13676929D01*
X10489014Y-13662643D01*
X10474729Y-13634071D01*
X10460443Y-13576929D01*
X10460443Y-13505500D01*
X10474729Y-13448357D01*
X10489014Y-13419786D01*
X10503300Y-13405500D01*
X10531871Y-13391214D01*
X10760443Y-13662643D02*
X10774729Y-13676929D01*
X10760443Y-13691214D01*
X10746157Y-13676929D01*
X10760443Y-13662643D01*
X10760443Y-13691214D01*
X11046157Y-13391214D02*
X10903300Y-13391214D01*
X10889014Y-13534071D01*
X10903300Y-13519786D01*
X10931871Y-13505500D01*
X11003300Y-13505500D01*
X11031871Y-13519786D01*
X11046157Y-13534071D01*
X11060443Y-13562643D01*
X11060443Y-13634071D01*
X11046157Y-13662643D01*
X11031871Y-13676929D01*
X11003300Y-13691214D01*
X10931871Y-13691214D01*
X10903300Y-13676929D01*
X10889014Y-13662643D01*
X11246157Y-13391214D02*
X11274728Y-13391214D01*
X11303300Y-13405500D01*
X11317586Y-13419786D01*
X11331871Y-13448357D01*
X11346157Y-13505500D01*
X11346157Y-13576929D01*
X11331871Y-13634071D01*
X11317586Y-13662643D01*
X11303300Y-13676929D01*
X11274728Y-13691214D01*
X11246157Y-13691214D01*
X11217586Y-13676929D01*
X11203300Y-13662643D01*
X11189014Y-13634071D01*
X11174729Y-13576929D01*
X11174729Y-13505500D01*
X11189014Y-13448357D01*
X11203300Y-13419786D01*
X11217586Y-13405500D01*
X11246157Y-13391214D01*
X11474728Y-13691214D02*
X11474728Y-13491214D01*
X11474728Y-13519786D02*
X11489014Y-13505500D01*
X11517586Y-13491214D01*
X11560443Y-13491214D01*
X11589014Y-13505500D01*
X11603300Y-13534071D01*
X11603300Y-13691214D01*
X11603300Y-13534071D02*
X11617586Y-13505500D01*
X11646157Y-13491214D01*
X11689014Y-13491214D01*
X11717586Y-13505500D01*
X11731871Y-13534071D01*
X11731871Y-13691214D01*
X11874728Y-13691214D02*
X11874728Y-13491214D01*
X11874728Y-13519786D02*
X11889014Y-13505500D01*
X11917586Y-13491214D01*
X11960443Y-13491214D01*
X11989014Y-13505500D01*
X12003300Y-13534071D01*
X12003300Y-13691214D01*
X12003300Y-13534071D02*
X12017586Y-13505500D01*
X12046157Y-13491214D01*
X12089014Y-13491214D01*
X12117586Y-13505500D01*
X12131871Y-13534071D01*
X12131871Y-13691214D01*
X12717586Y-13376929D02*
X12460443Y-13762643D01*
X13103300Y-13391214D02*
X13131871Y-13391214D01*
X13160443Y-13405500D01*
X13174728Y-13419786D01*
X13189014Y-13448357D01*
X13203300Y-13505500D01*
X13203300Y-13576929D01*
X13189014Y-13634071D01*
X13174728Y-13662643D01*
X13160443Y-13676929D01*
X13131871Y-13691214D01*
X13103300Y-13691214D01*
X13074728Y-13676929D01*
X13060443Y-13662643D01*
X13046157Y-13634071D01*
X13031871Y-13576929D01*
X13031871Y-13505500D01*
X13046157Y-13448357D01*
X13060443Y-13419786D01*
X13074728Y-13405500D01*
X13103300Y-13391214D01*
X13331871Y-13662643D02*
X13346157Y-13676929D01*
X13331871Y-13691214D01*
X13317586Y-13676929D01*
X13331871Y-13662643D01*
X13331871Y-13691214D01*
X13531871Y-13391214D02*
X13560443Y-13391214D01*
X13589014Y-13405500D01*
X13603300Y-13419786D01*
X13617585Y-13448357D01*
X13631871Y-13505500D01*
X13631871Y-13576929D01*
X13617585Y-13634071D01*
X13603300Y-13662643D01*
X13589014Y-13676929D01*
X13560443Y-13691214D01*
X13531871Y-13691214D01*
X13503300Y-13676929D01*
X13489014Y-13662643D01*
X13474728Y-13634071D01*
X13460443Y-13576929D01*
X13460443Y-13505500D01*
X13474728Y-13448357D01*
X13489014Y-13419786D01*
X13503300Y-13405500D01*
X13531871Y-13391214D01*
X13746157Y-13419786D02*
X13760443Y-13405500D01*
X13789014Y-13391214D01*
X13860443Y-13391214D01*
X13889014Y-13405500D01*
X13903300Y-13419786D01*
X13917585Y-13448357D01*
X13917585Y-13476929D01*
X13903300Y-13519786D01*
X13731871Y-13691214D01*
X13917585Y-13691214D01*
X14103300Y-13391214D02*
X14131871Y-13391214D01*
X14160443Y-13405500D01*
X14174728Y-13419786D01*
X14189014Y-13448357D01*
X14203300Y-13505500D01*
X14203300Y-13576929D01*
X14189014Y-13634071D01*
X14174728Y-13662643D01*
X14160443Y-13676929D01*
X14131871Y-13691214D01*
X14103300Y-13691214D01*
X14074728Y-13676929D01*
X14060443Y-13662643D01*
X14046157Y-13634071D01*
X14031871Y-13576929D01*
X14031871Y-13505500D01*
X14046157Y-13448357D01*
X14060443Y-13419786D01*
X14074728Y-13405500D01*
X14103300Y-13391214D01*
X14317586Y-13391214D02*
X14317586Y-13448357D01*
X14431871Y-13391214D02*
X14431871Y-13448357D01*
X14874728Y-13805500D02*
X14860443Y-13791214D01*
X14831871Y-13748357D01*
X14817585Y-13719786D01*
X14803300Y-13676929D01*
X14789014Y-13605500D01*
X14789014Y-13548357D01*
X14803300Y-13476929D01*
X14817585Y-13434071D01*
X14831871Y-13405500D01*
X14860443Y-13362643D01*
X14874728Y-13348357D01*
X15117585Y-13491214D02*
X15117585Y-13691214D01*
X15046157Y-13376929D02*
X14974728Y-13591214D01*
X15160443Y-13591214D01*
X15431871Y-13691214D02*
X15260443Y-13691214D01*
X15346157Y-13691214D02*
X15346157Y-13391214D01*
X15317585Y-13434071D01*
X15289014Y-13462643D01*
X15260443Y-13476929D01*
X15789014Y-13691214D02*
X15789014Y-13391214D01*
X15917585Y-13691214D02*
X15917585Y-13534071D01*
X15903300Y-13505500D01*
X15874728Y-13491214D01*
X15831871Y-13491214D01*
X15803300Y-13505500D01*
X15789014Y-13519786D01*
X16103300Y-13691214D02*
X16074728Y-13676929D01*
X16060443Y-13662643D01*
X16046157Y-13634071D01*
X16046157Y-13548357D01*
X16060443Y-13519786D01*
X16074728Y-13505500D01*
X16103300Y-13491214D01*
X16146157Y-13491214D01*
X16174728Y-13505500D01*
X16189014Y-13519786D01*
X16203300Y-13548357D01*
X16203300Y-13634071D01*
X16189014Y-13662643D01*
X16174728Y-13676929D01*
X16146157Y-13691214D01*
X16103300Y-13691214D01*
X16374728Y-13691214D02*
X16346157Y-13676929D01*
X16331871Y-13648357D01*
X16331871Y-13391214D01*
X16603300Y-13676929D02*
X16574728Y-13691214D01*
X16517586Y-13691214D01*
X16489014Y-13676929D01*
X16474728Y-13648357D01*
X16474728Y-13534071D01*
X16489014Y-13505500D01*
X16517586Y-13491214D01*
X16574728Y-13491214D01*
X16603300Y-13505500D01*
X16617586Y-13534071D01*
X16617586Y-13562643D01*
X16474728Y-13591214D01*
X16731871Y-13676929D02*
X16760443Y-13691214D01*
X16817586Y-13691214D01*
X16846157Y-13676929D01*
X16860443Y-13648357D01*
X16860443Y-13634071D01*
X16846157Y-13605500D01*
X16817586Y-13591214D01*
X16774728Y-13591214D01*
X16746157Y-13576929D01*
X16731871Y-13548357D01*
X16731871Y-13534071D01*
X16746157Y-13505500D01*
X16774728Y-13491214D01*
X16817586Y-13491214D01*
X16846157Y-13505500D01*
X16960443Y-13805500D02*
X16974729Y-13791214D01*
X17003300Y-13748357D01*
X17017586Y-13719786D01*
X17031871Y-13676929D01*
X17046157Y-13605500D01*
X17046157Y-13548357D01*
X17031871Y-13476929D01*
X17017586Y-13434071D01*
X17003300Y-13405500D01*
X16974729Y-13362643D01*
X16960443Y-13348357D01*
X10165200Y-13913400D02*
X10165200Y-13989600D01*
X10127100Y-13951500D02*
X10203300Y-13951500D01*
X10531871Y-13787214D02*
X10560443Y-13787214D01*
X10589014Y-13801500D01*
X10603300Y-13815786D01*
X10617586Y-13844357D01*
X10631871Y-13901500D01*
X10631871Y-13972929D01*
X10617586Y-14030071D01*
X10603300Y-14058643D01*
X10589014Y-14072929D01*
X10560443Y-14087214D01*
X10531871Y-14087214D01*
X10503300Y-14072929D01*
X10489014Y-14058643D01*
X10474729Y-14030071D01*
X10460443Y-13972929D01*
X10460443Y-13901500D01*
X10474729Y-13844357D01*
X10489014Y-13815786D01*
X10503300Y-13801500D01*
X10531871Y-13787214D01*
X10760443Y-14058643D02*
X10774729Y-14072929D01*
X10760443Y-14087214D01*
X10746157Y-14072929D01*
X10760443Y-14058643D01*
X10760443Y-14087214D01*
X10874728Y-13787214D02*
X11074728Y-13787214D01*
X10946157Y-14087214D01*
X11317586Y-13787214D02*
X11260443Y-13787214D01*
X11231871Y-13801500D01*
X11217586Y-13815786D01*
X11189014Y-13858643D01*
X11174729Y-13915786D01*
X11174729Y-14030071D01*
X11189014Y-14058643D01*
X11203300Y-14072929D01*
X11231871Y-14087214D01*
X11289014Y-14087214D01*
X11317586Y-14072929D01*
X11331871Y-14058643D01*
X11346157Y-14030071D01*
X11346157Y-13958643D01*
X11331871Y-13930071D01*
X11317586Y-13915786D01*
X11289014Y-13901500D01*
X11231871Y-13901500D01*
X11203300Y-13915786D01*
X11189014Y-13930071D01*
X11174729Y-13958643D01*
X11474728Y-14087214D02*
X11474728Y-13887214D01*
X11474728Y-13915786D02*
X11489014Y-13901500D01*
X11517586Y-13887214D01*
X11560443Y-13887214D01*
X11589014Y-13901500D01*
X11603300Y-13930071D01*
X11603300Y-14087214D01*
X11603300Y-13930071D02*
X11617586Y-13901500D01*
X11646157Y-13887214D01*
X11689014Y-13887214D01*
X11717586Y-13901500D01*
X11731871Y-13930071D01*
X11731871Y-14087214D01*
X11874728Y-14087214D02*
X11874728Y-13887214D01*
X11874728Y-13915786D02*
X11889014Y-13901500D01*
X11917586Y-13887214D01*
X11960443Y-13887214D01*
X11989014Y-13901500D01*
X12003300Y-13930071D01*
X12003300Y-14087214D01*
X12003300Y-13930071D02*
X12017586Y-13901500D01*
X12046157Y-13887214D01*
X12089014Y-13887214D01*
X12117586Y-13901500D01*
X12131871Y-13930071D01*
X12131871Y-14087214D01*
X12717586Y-13772929D02*
X12460443Y-14158643D01*
X13103300Y-13787214D02*
X13131871Y-13787214D01*
X13160443Y-13801500D01*
X13174728Y-13815786D01*
X13189014Y-13844357D01*
X13203300Y-13901500D01*
X13203300Y-13972929D01*
X13189014Y-14030071D01*
X13174728Y-14058643D01*
X13160443Y-14072929D01*
X13131871Y-14087214D01*
X13103300Y-14087214D01*
X13074728Y-14072929D01*
X13060443Y-14058643D01*
X13046157Y-14030071D01*
X13031871Y-13972929D01*
X13031871Y-13901500D01*
X13046157Y-13844357D01*
X13060443Y-13815786D01*
X13074728Y-13801500D01*
X13103300Y-13787214D01*
X13331871Y-14058643D02*
X13346157Y-14072929D01*
X13331871Y-14087214D01*
X13317586Y-14072929D01*
X13331871Y-14058643D01*
X13331871Y-14087214D01*
X13531871Y-13787214D02*
X13560443Y-13787214D01*
X13589014Y-13801500D01*
X13603300Y-13815786D01*
X13617585Y-13844357D01*
X13631871Y-13901500D01*
X13631871Y-13972929D01*
X13617585Y-14030071D01*
X13603300Y-14058643D01*
X13589014Y-14072929D01*
X13560443Y-14087214D01*
X13531871Y-14087214D01*
X13503300Y-14072929D01*
X13489014Y-14058643D01*
X13474728Y-14030071D01*
X13460443Y-13972929D01*
X13460443Y-13901500D01*
X13474728Y-13844357D01*
X13489014Y-13815786D01*
X13503300Y-13801500D01*
X13531871Y-13787214D01*
X13731871Y-13787214D02*
X13917585Y-13787214D01*
X13817585Y-13901500D01*
X13860443Y-13901500D01*
X13889014Y-13915786D01*
X13903300Y-13930071D01*
X13917585Y-13958643D01*
X13917585Y-14030071D01*
X13903300Y-14058643D01*
X13889014Y-14072929D01*
X13860443Y-14087214D01*
X13774728Y-14087214D01*
X13746157Y-14072929D01*
X13731871Y-14058643D01*
X14103300Y-13787214D02*
X14131871Y-13787214D01*
X14160443Y-13801500D01*
X14174728Y-13815786D01*
X14189014Y-13844357D01*
X14203300Y-13901500D01*
X14203300Y-13972929D01*
X14189014Y-14030071D01*
X14174728Y-14058643D01*
X14160443Y-14072929D01*
X14131871Y-14087214D01*
X14103300Y-14087214D01*
X14074728Y-14072929D01*
X14060443Y-14058643D01*
X14046157Y-14030071D01*
X14031871Y-13972929D01*
X14031871Y-13901500D01*
X14046157Y-13844357D01*
X14060443Y-13815786D01*
X14074728Y-13801500D01*
X14103300Y-13787214D01*
X14317586Y-13787214D02*
X14317586Y-13844357D01*
X14431871Y-13787214D02*
X14431871Y-13844357D01*
X14874728Y-14201500D02*
X14860443Y-14187214D01*
X14831871Y-14144357D01*
X14817585Y-14115786D01*
X14803300Y-14072929D01*
X14789014Y-14001500D01*
X14789014Y-13944357D01*
X14803300Y-13872929D01*
X14817585Y-13830071D01*
X14831871Y-13801500D01*
X14860443Y-13758643D01*
X14874728Y-13744357D01*
X15117585Y-13787214D02*
X15060443Y-13787214D01*
X15031871Y-13801500D01*
X15017585Y-13815786D01*
X14989014Y-13858643D01*
X14974728Y-13915786D01*
X14974728Y-14030071D01*
X14989014Y-14058643D01*
X15003300Y-14072929D01*
X15031871Y-14087214D01*
X15089014Y-14087214D01*
X15117585Y-14072929D01*
X15131871Y-14058643D01*
X15146157Y-14030071D01*
X15146157Y-13958643D01*
X15131871Y-13930071D01*
X15117585Y-13915786D01*
X15089014Y-13901500D01*
X15031871Y-13901500D01*
X15003300Y-13915786D01*
X14989014Y-13930071D01*
X14974728Y-13958643D01*
X15503300Y-14087214D02*
X15503300Y-13787214D01*
X15631871Y-14087214D02*
X15631871Y-13930071D01*
X15617585Y-13901500D01*
X15589014Y-13887214D01*
X15546157Y-13887214D01*
X15517585Y-13901500D01*
X15503300Y-13915786D01*
X15817585Y-14087214D02*
X15789014Y-14072929D01*
X15774728Y-14058643D01*
X15760443Y-14030071D01*
X15760443Y-13944357D01*
X15774728Y-13915786D01*
X15789014Y-13901500D01*
X15817585Y-13887214D01*
X15860443Y-13887214D01*
X15889014Y-13901500D01*
X15903300Y-13915786D01*
X15917585Y-13944357D01*
X15917585Y-14030071D01*
X15903300Y-14058643D01*
X15889014Y-14072929D01*
X15860443Y-14087214D01*
X15817585Y-14087214D01*
X16089014Y-14087214D02*
X16060443Y-14072929D01*
X16046157Y-14044357D01*
X16046157Y-13787214D01*
X16317586Y-14072929D02*
X16289014Y-14087214D01*
X16231871Y-14087214D01*
X16203300Y-14072929D01*
X16189014Y-14044357D01*
X16189014Y-13930071D01*
X16203300Y-13901500D01*
X16231871Y-13887214D01*
X16289014Y-13887214D01*
X16317586Y-13901500D01*
X16331871Y-13930071D01*
X16331871Y-13958643D01*
X16189014Y-13987214D01*
X16446157Y-14072929D02*
X16474728Y-14087214D01*
X16531871Y-14087214D01*
X16560443Y-14072929D01*
X16574728Y-14044357D01*
X16574728Y-14030071D01*
X16560443Y-14001500D01*
X16531871Y-13987214D01*
X16489014Y-13987214D01*
X16460443Y-13972929D01*
X16446157Y-13944357D01*
X16446157Y-13930071D01*
X16460443Y-13901500D01*
X16489014Y-13887214D01*
X16531871Y-13887214D01*
X16560443Y-13901500D01*
X16674728Y-14201500D02*
X16689014Y-14187214D01*
X16717586Y-14144357D01*
X16731871Y-14115786D01*
X16746157Y-14072929D01*
X16760443Y-14001500D01*
X16760443Y-13944357D01*
X16746157Y-13872929D01*
X16731871Y-13830071D01*
X16717586Y-13801500D01*
X16689014Y-13758643D01*
X16674728Y-13744357D01*
X10191584Y-14375785D02*
X10191584Y-14319216D01*
X10135015Y-14319216D01*
X10135015Y-14375785D01*
X10191584Y-14375785D01*
X10531871Y-14183214D02*
X10560443Y-14183214D01*
X10589014Y-14197500D01*
X10603300Y-14211786D01*
X10617586Y-14240357D01*
X10631871Y-14297500D01*
X10631871Y-14368929D01*
X10617586Y-14426071D01*
X10603300Y-14454643D01*
X10589014Y-14468929D01*
X10560443Y-14483214D01*
X10531871Y-14483214D01*
X10503300Y-14468929D01*
X10489014Y-14454643D01*
X10474729Y-14426071D01*
X10460443Y-14368929D01*
X10460443Y-14297500D01*
X10474729Y-14240357D01*
X10489014Y-14211786D01*
X10503300Y-14197500D01*
X10531871Y-14183214D01*
X10760443Y-14454643D02*
X10774729Y-14468929D01*
X10760443Y-14483214D01*
X10746157Y-14468929D01*
X10760443Y-14454643D01*
X10760443Y-14483214D01*
X10946157Y-14311786D02*
X10917586Y-14297500D01*
X10903300Y-14283214D01*
X10889014Y-14254643D01*
X10889014Y-14240357D01*
X10903300Y-14211786D01*
X10917586Y-14197500D01*
X10946157Y-14183214D01*
X11003300Y-14183214D01*
X11031871Y-14197500D01*
X11046157Y-14211786D01*
X11060443Y-14240357D01*
X11060443Y-14254643D01*
X11046157Y-14283214D01*
X11031871Y-14297500D01*
X11003300Y-14311786D01*
X10946157Y-14311786D01*
X10917586Y-14326071D01*
X10903300Y-14340357D01*
X10889014Y-14368929D01*
X10889014Y-14426071D01*
X10903300Y-14454643D01*
X10917586Y-14468929D01*
X10946157Y-14483214D01*
X11003300Y-14483214D01*
X11031871Y-14468929D01*
X11046157Y-14454643D01*
X11060443Y-14426071D01*
X11060443Y-14368929D01*
X11046157Y-14340357D01*
X11031871Y-14326071D01*
X11003300Y-14311786D01*
X11246157Y-14183214D02*
X11274728Y-14183214D01*
X11303300Y-14197500D01*
X11317586Y-14211786D01*
X11331871Y-14240357D01*
X11346157Y-14297500D01*
X11346157Y-14368929D01*
X11331871Y-14426071D01*
X11317586Y-14454643D01*
X11303300Y-14468929D01*
X11274728Y-14483214D01*
X11246157Y-14483214D01*
X11217586Y-14468929D01*
X11203300Y-14454643D01*
X11189014Y-14426071D01*
X11174729Y-14368929D01*
X11174729Y-14297500D01*
X11189014Y-14240357D01*
X11203300Y-14211786D01*
X11217586Y-14197500D01*
X11246157Y-14183214D01*
X11474728Y-14483214D02*
X11474728Y-14283214D01*
X11474728Y-14311786D02*
X11489014Y-14297500D01*
X11517586Y-14283214D01*
X11560443Y-14283214D01*
X11589014Y-14297500D01*
X11603300Y-14326071D01*
X11603300Y-14483214D01*
X11603300Y-14326071D02*
X11617586Y-14297500D01*
X11646157Y-14283214D01*
X11689014Y-14283214D01*
X11717586Y-14297500D01*
X11731871Y-14326071D01*
X11731871Y-14483214D01*
X11874728Y-14483214D02*
X11874728Y-14283214D01*
X11874728Y-14311786D02*
X11889014Y-14297500D01*
X11917586Y-14283214D01*
X11960443Y-14283214D01*
X11989014Y-14297500D01*
X12003300Y-14326071D01*
X12003300Y-14483214D01*
X12003300Y-14326071D02*
X12017586Y-14297500D01*
X12046157Y-14283214D01*
X12089014Y-14283214D01*
X12117586Y-14297500D01*
X12131871Y-14326071D01*
X12131871Y-14483214D01*
X12717586Y-14168929D02*
X12460443Y-14554643D01*
X13103300Y-14183214D02*
X13131871Y-14183214D01*
X13160443Y-14197500D01*
X13174728Y-14211786D01*
X13189014Y-14240357D01*
X13203300Y-14297500D01*
X13203300Y-14368929D01*
X13189014Y-14426071D01*
X13174728Y-14454643D01*
X13160443Y-14468929D01*
X13131871Y-14483214D01*
X13103300Y-14483214D01*
X13074728Y-14468929D01*
X13060443Y-14454643D01*
X13046157Y-14426071D01*
X13031871Y-14368929D01*
X13031871Y-14297500D01*
X13046157Y-14240357D01*
X13060443Y-14211786D01*
X13074728Y-14197500D01*
X13103300Y-14183214D01*
X13331871Y-14454643D02*
X13346157Y-14468929D01*
X13331871Y-14483214D01*
X13317586Y-14468929D01*
X13331871Y-14454643D01*
X13331871Y-14483214D01*
X13531871Y-14183214D02*
X13560443Y-14183214D01*
X13589014Y-14197500D01*
X13603300Y-14211786D01*
X13617585Y-14240357D01*
X13631871Y-14297500D01*
X13631871Y-14368929D01*
X13617585Y-14426071D01*
X13603300Y-14454643D01*
X13589014Y-14468929D01*
X13560443Y-14483214D01*
X13531871Y-14483214D01*
X13503300Y-14468929D01*
X13489014Y-14454643D01*
X13474728Y-14426071D01*
X13460443Y-14368929D01*
X13460443Y-14297500D01*
X13474728Y-14240357D01*
X13489014Y-14211786D01*
X13503300Y-14197500D01*
X13531871Y-14183214D01*
X13731871Y-14183214D02*
X13917585Y-14183214D01*
X13817585Y-14297500D01*
X13860443Y-14297500D01*
X13889014Y-14311786D01*
X13903300Y-14326071D01*
X13917585Y-14354643D01*
X13917585Y-14426071D01*
X13903300Y-14454643D01*
X13889014Y-14468929D01*
X13860443Y-14483214D01*
X13774728Y-14483214D01*
X13746157Y-14468929D01*
X13731871Y-14454643D01*
X14203300Y-14483214D02*
X14031871Y-14483214D01*
X14117585Y-14483214D02*
X14117585Y-14183214D01*
X14089014Y-14226071D01*
X14060443Y-14254643D01*
X14031871Y-14268929D01*
X14317586Y-14183214D02*
X14317586Y-14240357D01*
X14431871Y-14183214D02*
X14431871Y-14240357D01*
X14874728Y-14597500D02*
X14860443Y-14583214D01*
X14831871Y-14540357D01*
X14817585Y-14511786D01*
X14803300Y-14468929D01*
X14789014Y-14397500D01*
X14789014Y-14340357D01*
X14803300Y-14268929D01*
X14817585Y-14226071D01*
X14831871Y-14197500D01*
X14860443Y-14154643D01*
X14874728Y-14140357D01*
X14974728Y-14211786D02*
X14989014Y-14197500D01*
X15017585Y-14183214D01*
X15089014Y-14183214D01*
X15117585Y-14197500D01*
X15131871Y-14211786D01*
X15146157Y-14240357D01*
X15146157Y-14268929D01*
X15131871Y-14311786D01*
X14960443Y-14483214D01*
X15146157Y-14483214D01*
X15417585Y-14183214D02*
X15274728Y-14183214D01*
X15260443Y-14326071D01*
X15274728Y-14311786D01*
X15303300Y-14297500D01*
X15374728Y-14297500D01*
X15403300Y-14311786D01*
X15417585Y-14326071D01*
X15431871Y-14354643D01*
X15431871Y-14426071D01*
X15417585Y-14454643D01*
X15403300Y-14468929D01*
X15374728Y-14483214D01*
X15303300Y-14483214D01*
X15274728Y-14468929D01*
X15260443Y-14454643D01*
X15789014Y-14483214D02*
X15789014Y-14183214D01*
X15917585Y-14483214D02*
X15917585Y-14326071D01*
X15903300Y-14297500D01*
X15874728Y-14283214D01*
X15831871Y-14283214D01*
X15803300Y-14297500D01*
X15789014Y-14311786D01*
X16103300Y-14483214D02*
X16074728Y-14468929D01*
X16060443Y-14454643D01*
X16046157Y-14426071D01*
X16046157Y-14340357D01*
X16060443Y-14311786D01*
X16074728Y-14297500D01*
X16103300Y-14283214D01*
X16146157Y-14283214D01*
X16174728Y-14297500D01*
X16189014Y-14311786D01*
X16203300Y-14340357D01*
X16203300Y-14426071D01*
X16189014Y-14454643D01*
X16174728Y-14468929D01*
X16146157Y-14483214D01*
X16103300Y-14483214D01*
X16374728Y-14483214D02*
X16346157Y-14468929D01*
X16331871Y-14440357D01*
X16331871Y-14183214D01*
X16603300Y-14468929D02*
X16574728Y-14483214D01*
X16517586Y-14483214D01*
X16489014Y-14468929D01*
X16474728Y-14440357D01*
X16474728Y-14326071D01*
X16489014Y-14297500D01*
X16517586Y-14283214D01*
X16574728Y-14283214D01*
X16603300Y-14297500D01*
X16617586Y-14326071D01*
X16617586Y-14354643D01*
X16474728Y-14383214D01*
X16731871Y-14468929D02*
X16760443Y-14483214D01*
X16817586Y-14483214D01*
X16846157Y-14468929D01*
X16860443Y-14440357D01*
X16860443Y-14426071D01*
X16846157Y-14397500D01*
X16817586Y-14383214D01*
X16774728Y-14383214D01*
X16746157Y-14368929D01*
X16731871Y-14340357D01*
X16731871Y-14326071D01*
X16746157Y-14297500D01*
X16774728Y-14283214D01*
X16817586Y-14283214D01*
X16846157Y-14297500D01*
X16960443Y-14597500D02*
X16974729Y-14583214D01*
X17003300Y-14540357D01*
X17017586Y-14511786D01*
X17031871Y-14468929D01*
X17046157Y-14397500D01*
X17046157Y-14340357D01*
X17031871Y-14268929D01*
X17017586Y-14226071D01*
X17003300Y-14197500D01*
X16974729Y-14154643D01*
X16960443Y-14140357D01*
M02*
