G04 #@! TF.GenerationSoftware,KiCad,Pcbnew,5.0.0-rc3-unknown-3e22e5c~65~ubuntu16.04.1*
G04 #@! TF.CreationDate,2018-07-11T23:18:04-04:00*
G04 #@! TF.ProjectId,Phoenix_schema_new,50686F656E69785F736368656D615F6E,rev?*
G04 #@! TF.SameCoordinates,Original*
G04 #@! TF.FileFunction,Profile,NP*
%FSLAX46Y46*%
G04 Gerber Fmt 4.6, Leading zero omitted, Abs format (unit mm)*
G04 Created by KiCad (PCBNEW 5.0.0-rc3-unknown-3e22e5c~65~ubuntu16.04.1) date Wed Jul 11 23:18:04 2018*
%MOMM*%
%LPD*%
G01*
G04 APERTURE LIST*
%ADD10C,0.150000*%
G04 APERTURE END LIST*
D10*
X161798000Y-130302000D02*
G75*
G03X165608000Y-125984000I-254000J4064000D01*
G01*
X157480000Y-124206000D02*
X157480000Y-126492000D01*
X157480000Y-124206000D02*
G75*
G03X155194000Y-121920000I-2286000J0D01*
G01*
X165608000Y-125984000D02*
X165608000Y-121920000D01*
X157480000Y-126492000D02*
G75*
G03X161798000Y-130302000I4064000J254000D01*
G01*
X113030000Y-121920000D02*
X155194000Y-121920000D01*
X111252000Y-70612000D02*
X156718000Y-70612000D01*
X110236000Y-124206000D02*
X110236000Y-125984000D01*
X113030000Y-121920000D02*
G75*
G03X110236000Y-124206000I-254000J-2540000D01*
G01*
X158496000Y-66040000D02*
X158496000Y-68834000D01*
X156718000Y-70612000D02*
G75*
G03X158496000Y-68834000I0J1778000D01*
G01*
X109220000Y-66548000D02*
X109220000Y-68580000D01*
X109220000Y-68580000D02*
G75*
G03X111252000Y-70612000I2032000J0D01*
G01*
X102108000Y-121920000D02*
X102108000Y-126492000D01*
X102108000Y-126492000D02*
G75*
G03X106426000Y-130302000I4064000J254000D01*
G01*
X106426000Y-130302000D02*
G75*
G03X110236000Y-125984000I-254000J4064000D01*
G01*
X165608000Y-66548000D02*
X165608000Y-70612000D01*
X162306000Y-62738000D02*
G75*
G03X158496000Y-66040000I-254000J-3556000D01*
G01*
X165608000Y-66548000D02*
G75*
G03X162306000Y-62738000I-3556000J254000D01*
G01*
X102108000Y-66548000D02*
X102108000Y-70612000D01*
X109220000Y-66548000D02*
G75*
G03X105664000Y-62992000I-3556000J0D01*
G01*
X105664000Y-62992000D02*
G75*
G03X102108000Y-66548000I0J-3556000D01*
G01*
X102108000Y-70612000D02*
X102108000Y-121920000D01*
X165608000Y-121920000D02*
X165608000Y-70612000D01*
M02*
