G04 #@! TF.FileFunction,Soldermask,Top*
%FSLAX46Y46*%
G04 Gerber Fmt 4.6, Leading zero omitted, Abs format (unit mm)*
G04 Created by KiCad (PCBNEW 4.0.7-e2-6376~58~ubuntu16.04.1) date Thu Jun 21 09:26:38 2018*
%MOMM*%
%LPD*%
G01*
G04 APERTURE LIST*
%ADD10C,0.100000*%
%ADD11C,1.924000*%
%ADD12R,1.408000X1.408000*%
%ADD13C,1.408000*%
%ADD14C,1.200000*%
%ADD15R,1.750000X1.750000*%
%ADD16O,1.750000X1.750000*%
%ADD17R,1.365200X3.905200*%
%ADD18R,6.953200X8.858200*%
%ADD19R,1.460000X2.320000*%
%ADD20R,9.490000X8.520000*%
G04 APERTURE END LIST*
D10*
D11*
X106553000Y-85725000D03*
X106553000Y-92456000D03*
D12*
X133620000Y-95478000D03*
D13*
X133620000Y-93478000D03*
X133620000Y-91478000D03*
X133620000Y-89478000D03*
X133620000Y-87478000D03*
X133620000Y-85478000D03*
X133620000Y-83478000D03*
X133620000Y-81478000D03*
X133620000Y-79478000D03*
X131572000Y-95504000D03*
X129667000Y-95504000D03*
X112649000Y-75565000D03*
X112649000Y-77597000D03*
X112649000Y-79629000D03*
X114681000Y-75565000D03*
X116713000Y-75565000D03*
X118745000Y-75565000D03*
X120777000Y-75565000D03*
X122809000Y-75565000D03*
X114427000Y-95504000D03*
X112649000Y-93726000D03*
D14*
X161290000Y-113385600D03*
X161290000Y-114401600D03*
X161290000Y-115417600D03*
D11*
X106807000Y-108839000D03*
X106807000Y-102108000D03*
D15*
X132080000Y-72390000D03*
D16*
X130080000Y-72390000D03*
X128080000Y-72390000D03*
X126080000Y-72390000D03*
D15*
X122174000Y-119888000D03*
D16*
X120174000Y-119888000D03*
D15*
X125476000Y-119888000D03*
D16*
X127476000Y-119888000D03*
D15*
X130810000Y-119888000D03*
D16*
X132810000Y-119888000D03*
D11*
X107061000Y-117475000D03*
X113792000Y-117475000D03*
D15*
X163576000Y-106934000D03*
D16*
X163576000Y-108934000D03*
X163576000Y-110934000D03*
X163576000Y-112934000D03*
X163576000Y-114934000D03*
X163576000Y-116934000D03*
X163576000Y-118934000D03*
D12*
X139446000Y-78130400D03*
D13*
X139430000Y-80131000D03*
X139430000Y-82131000D03*
X139430000Y-84131000D03*
X139430000Y-86131000D03*
X139430000Y-88131000D03*
X139430000Y-90131000D03*
X139430000Y-92131000D03*
X139430000Y-94131000D03*
X139430000Y-96131000D03*
X161442400Y-78079600D03*
X161430000Y-80131000D03*
X161430000Y-82131000D03*
X161430000Y-84131000D03*
X161430000Y-86131000D03*
X161430000Y-88131000D03*
X161430000Y-90131000D03*
X161430000Y-92131000D03*
X161430000Y-94131000D03*
X161430000Y-96131000D03*
D17*
X124612400Y-113449100D03*
X126314200Y-113449100D03*
X128016000Y-113449100D03*
X129717800Y-113449100D03*
X131419600Y-113449100D03*
D18*
X128016000Y-101650800D03*
D19*
X113400000Y-108372000D03*
X115120000Y-108372000D03*
X116840000Y-108372000D03*
X118560000Y-108372000D03*
X120280000Y-108372000D03*
D20*
X116840000Y-101992000D03*
D15*
X104140000Y-79502000D03*
D16*
X104140000Y-77502000D03*
X104140000Y-75502000D03*
D15*
X114808000Y-72390000D03*
D16*
X116808000Y-72390000D03*
X118808000Y-72390000D03*
X120808000Y-72390000D03*
X122808000Y-72390000D03*
M02*
