%FSLAX45Y45*%
G04 Gerber Fmt 4.5, Leading zero omitted, Abs format (unit mm)*
G04 Created by KiCad (PCBNEW 5.0.0-rc3-unknown-3e22e5c~65~ubuntu16.04.1) date Wed Jul 11 23:21:29 2018*
%MOMM*%
%LPD*%
G01*
G04 APERTURE LIST*
%ADD10C,0.150000*%
%ADD11C,0.200000*%
%ADD12C,0.300000*%
G04 APERTURE END LIST*
D10*
X16179800Y-13030200D02*
G75*
G03X16560800Y-12598400I-25400J406400D01*
G01*
X15748000Y-12420600D02*
X15748000Y-12649200D01*
X15748000Y-12420600D02*
G75*
G03X15519400Y-12192000I-228600J0D01*
G01*
X16560800Y-12598400D02*
X16560800Y-12192000D01*
X15748000Y-12649200D02*
G75*
G03X16179800Y-13030200I406400J25400D01*
G01*
X11303000Y-12192000D02*
X15519400Y-12192000D01*
X11125200Y-7061200D02*
X15671800Y-7061200D01*
X11023600Y-12420600D02*
X11023600Y-12598400D01*
X11303000Y-12192000D02*
G75*
G03X11023600Y-12420600I-25400J-254000D01*
G01*
X15849600Y-6604000D02*
X15849600Y-6883400D01*
X15671800Y-7061200D02*
G75*
G03X15849600Y-6883400I0J177800D01*
G01*
X10922000Y-6654800D02*
X10922000Y-6858000D01*
X10922000Y-6858000D02*
G75*
G03X11125200Y-7061200I203200J0D01*
G01*
X10210800Y-12192000D02*
X10210800Y-12649200D01*
X10210800Y-12649200D02*
G75*
G03X10642600Y-13030200I406400J25400D01*
G01*
X10642600Y-13030200D02*
G75*
G03X11023600Y-12598400I-25400J406400D01*
G01*
X16560800Y-6654800D02*
X16560800Y-7061200D01*
X16230600Y-6273800D02*
G75*
G03X15849600Y-6604000I-25400J-355600D01*
G01*
X16560800Y-6654800D02*
G75*
G03X16230600Y-6273800I-355600J25400D01*
G01*
X10210800Y-6654800D02*
X10210800Y-7061200D01*
X10922000Y-6654800D02*
G75*
G03X10566400Y-6299200I-355600J0D01*
G01*
X10566400Y-6299200D02*
G75*
G03X10210800Y-6654800I0J-355600D01*
G01*
X10210800Y-7061200D02*
X10210800Y-12192000D01*
X16560800Y-12192000D02*
X16560800Y-7061200D01*
D11*
X11664000Y-11181400D02*
X11704000Y-11221400D01*
X11704000Y-11181400D02*
X11664000Y-11221400D01*
X12146600Y-11257600D02*
X12186600Y-11297600D01*
X12186600Y-11257600D02*
X12146600Y-11297600D01*
X12146600Y-11410000D02*
X12186600Y-11450000D01*
X12186600Y-11410000D02*
X12146600Y-11450000D01*
X12781600Y-10851200D02*
X12821600Y-10891200D01*
X12821600Y-10851200D02*
X12781600Y-10891200D01*
X12781600Y-11638600D02*
X12821600Y-11678600D01*
X12821600Y-11638600D02*
X12781600Y-11678600D01*
X14051600Y-10698800D02*
X14091600Y-10738800D01*
X14091600Y-10698800D02*
X14051600Y-10738800D01*
X14534200Y-10673400D02*
X14574200Y-10713400D01*
X14574200Y-10673400D02*
X14534200Y-10713400D01*
X16109000Y-11318560D02*
X16149000Y-11358560D01*
X16149000Y-11318560D02*
X16109000Y-11358560D01*
X16109000Y-11420160D02*
X16149000Y-11460160D01*
X16149000Y-11420160D02*
X16109000Y-11460160D01*
X16109000Y-11521760D02*
X16149000Y-11561760D01*
X16149000Y-11521760D02*
X16109000Y-11561760D01*
X10718800Y-10210800D02*
G75*
G03X10718800Y-10210800I-38100J0D01*
G01*
X10718800Y-10883900D02*
G75*
G03X10718800Y-10883900I-38100J0D01*
G01*
X10744200Y-11747500D02*
G75*
G03X10744200Y-11747500I-38100J0D01*
G01*
X11417300Y-11747500D02*
G75*
G03X11417300Y-11747500I-38100J0D01*
G01*
X10693400Y-8572500D02*
G75*
G03X10693400Y-8572500I-38100J0D01*
G01*
X10693400Y-9245600D02*
G75*
G03X10693400Y-9245600I-38100J0D01*
G01*
X11285220Y-7487920D02*
G75*
G03X11285220Y-7487920I-38100J0D01*
G01*
X11285220Y-7691120D02*
G75*
G03X11285220Y-7691120I-38100J0D01*
G01*
X11285220Y-7881620D02*
G75*
G03X11285220Y-7881620I-38100J0D01*
G01*
X11285220Y-9405620D02*
G75*
G03X11285220Y-9405620I-38100J0D01*
G01*
X11463020Y-9583420D02*
G75*
G03X11463020Y-9583420I-38100J0D01*
G01*
X11487820Y-7486320D02*
G75*
G03X11487820Y-7486320I-38100J0D01*
G01*
X11687820Y-7486320D02*
G75*
G03X11687820Y-7486320I-38100J0D01*
G01*
X11887820Y-7486320D02*
G75*
G03X11887820Y-7486320I-38100J0D01*
G01*
X12087820Y-7486320D02*
G75*
G03X12087820Y-7486320I-38100J0D01*
G01*
X12287820Y-7486320D02*
G75*
G03X12287820Y-7486320I-38100J0D01*
G01*
X12872720Y-9583420D02*
G75*
G03X12872720Y-9583420I-38100J0D01*
G01*
X13075920Y-9583420D02*
G75*
G03X13075920Y-9583420I-38100J0D01*
G01*
X13278948Y-7966720D02*
G75*
G03X13278948Y-7966720I-38100J0D01*
G01*
X13278948Y-8166720D02*
G75*
G03X13278948Y-8166720I-38100J0D01*
G01*
X13278948Y-8366720D02*
G75*
G03X13278948Y-8366720I-38100J0D01*
G01*
X13278948Y-8566720D02*
G75*
G03X13278948Y-8566720I-38100J0D01*
G01*
X13279120Y-8770620D02*
G75*
G03X13279120Y-8770620I-38100J0D01*
G01*
X13279120Y-8973820D02*
G75*
G03X13279120Y-8973820I-38100J0D01*
G01*
X13279120Y-9177020D02*
G75*
G03X13279120Y-9177020I-38100J0D01*
G01*
X13279120Y-9380220D02*
G75*
G03X13279120Y-9380220I-38100J0D01*
G01*
X13279120Y-9583420D02*
G75*
G03X13279120Y-9583420I-38100J0D01*
G01*
X13981100Y-8013100D02*
G75*
G03X13981100Y-8013100I-38100J0D01*
G01*
X13981100Y-8213100D02*
G75*
G03X13981100Y-8213100I-38100J0D01*
G01*
X13981100Y-8413100D02*
G75*
G03X13981100Y-8413100I-38100J0D01*
G01*
X13981100Y-8613100D02*
G75*
G03X13981100Y-8613100I-38100J0D01*
G01*
X13981100Y-8813100D02*
G75*
G03X13981100Y-8813100I-38100J0D01*
G01*
X13981100Y-9013100D02*
G75*
G03X13981100Y-9013100I-38100J0D01*
G01*
X13981100Y-9213100D02*
G75*
G03X13981100Y-9213100I-38100J0D01*
G01*
X13981100Y-9413100D02*
G75*
G03X13981100Y-9413100I-38100J0D01*
G01*
X13981100Y-9613100D02*
G75*
G03X13981100Y-9613100I-38100J0D01*
G01*
X13982700Y-7813040D02*
G75*
G03X13982700Y-7813040I-38100J0D01*
G01*
X16181100Y-8013100D02*
G75*
G03X16181100Y-8013100I-38100J0D01*
G01*
X16181100Y-8213100D02*
G75*
G03X16181100Y-8213100I-38100J0D01*
G01*
X16181100Y-8413100D02*
G75*
G03X16181100Y-8413100I-38100J0D01*
G01*
X16181100Y-8613100D02*
G75*
G03X16181100Y-8613100I-38100J0D01*
G01*
X16181100Y-8813100D02*
G75*
G03X16181100Y-8813100I-38100J0D01*
G01*
X16181100Y-9013100D02*
G75*
G03X16181100Y-9013100I-38100J0D01*
G01*
X16181100Y-9213100D02*
G75*
G03X16181100Y-9213100I-38100J0D01*
G01*
X16181100Y-9413100D02*
G75*
G03X16181100Y-9413100I-38100J0D01*
G01*
X16181100Y-9613100D02*
G75*
G03X16181100Y-9613100I-38100J0D01*
G01*
X16182340Y-7807960D02*
G75*
G03X16182340Y-7807960I-38100J0D01*
G01*
X13081000Y-11948800D02*
X13081000Y-12028800D01*
X13041000Y-11988800D02*
X13121000Y-11988800D01*
X13281000Y-11948800D02*
X13281000Y-12028800D01*
X13241000Y-11988800D02*
X13321000Y-11988800D01*
X12547600Y-11948800D02*
X12547600Y-12028800D01*
X12507600Y-11988800D02*
X12587600Y-11988800D01*
X12747600Y-11948800D02*
X12747600Y-12028800D01*
X12707600Y-11988800D02*
X12787600Y-11988800D01*
X16357600Y-10653400D02*
X16357600Y-10733400D01*
X16317600Y-10693400D02*
X16397600Y-10693400D01*
X16357600Y-10853400D02*
X16357600Y-10933400D01*
X16317600Y-10893400D02*
X16397600Y-10893400D01*
X16357600Y-11053400D02*
X16357600Y-11133400D01*
X16317600Y-11093400D02*
X16397600Y-11093400D01*
X16357600Y-11253400D02*
X16357600Y-11333400D01*
X16317600Y-11293400D02*
X16397600Y-11293400D01*
X16357600Y-11453400D02*
X16357600Y-11533400D01*
X16317600Y-11493400D02*
X16397600Y-11493400D01*
X16357600Y-11653400D02*
X16357600Y-11733400D01*
X16317600Y-11693400D02*
X16397600Y-11693400D01*
X16357600Y-11853400D02*
X16357600Y-11933400D01*
X16317600Y-11893400D02*
X16397600Y-11893400D01*
X10414000Y-7434000D02*
X10414000Y-7514000D01*
X10374000Y-7474000D02*
X10454000Y-7474000D01*
X10414000Y-7634000D02*
X10414000Y-7714000D01*
X10374000Y-7674000D02*
X10454000Y-7674000D01*
X10414000Y-7834000D02*
X10414000Y-7914000D01*
X10374000Y-7874000D02*
X10454000Y-7874000D01*
X12017400Y-11948800D02*
X12017400Y-12028800D01*
X11977400Y-11988800D02*
X12057400Y-11988800D01*
X12217400Y-11948800D02*
X12217400Y-12028800D01*
X12177400Y-11988800D02*
X12257400Y-11988800D01*
X11430000Y-7173600D02*
X11430000Y-7253600D01*
X11390000Y-7213600D02*
X11470000Y-7213600D01*
X11630000Y-7173600D02*
X11630000Y-7253600D01*
X11590000Y-7213600D02*
X11670000Y-7213600D01*
X11830000Y-7173600D02*
X11830000Y-7253600D01*
X11790000Y-7213600D02*
X11870000Y-7213600D01*
X12030000Y-7173600D02*
X12030000Y-7253600D01*
X11990000Y-7213600D02*
X12070000Y-7213600D01*
X12230000Y-7173600D02*
X12230000Y-7253600D01*
X12190000Y-7213600D02*
X12270000Y-7213600D01*
X12500000Y-7173600D02*
X12500000Y-7253600D01*
X12460000Y-7213600D02*
X12540000Y-7213600D01*
X12700000Y-7173600D02*
X12700000Y-7253600D01*
X12660000Y-7213600D02*
X12740000Y-7213600D01*
X12900000Y-7173600D02*
X12900000Y-7253600D01*
X12860000Y-7213600D02*
X12940000Y-7213600D01*
X13100000Y-7173600D02*
X13100000Y-7253600D01*
X13060000Y-7213600D02*
X13140000Y-7213600D01*
D12*
X10489728Y-13504207D02*
X10489728Y-13204207D01*
X10561157Y-13204207D01*
X10604014Y-13218493D01*
X10632586Y-13247064D01*
X10646871Y-13275636D01*
X10661157Y-13332779D01*
X10661157Y-13375636D01*
X10646871Y-13432779D01*
X10632586Y-13461350D01*
X10604014Y-13489922D01*
X10561157Y-13504207D01*
X10489728Y-13504207D01*
X10789728Y-13504207D02*
X10789728Y-13304207D01*
X10789728Y-13361350D02*
X10804014Y-13332779D01*
X10818300Y-13318493D01*
X10846871Y-13304207D01*
X10875443Y-13304207D01*
X10975443Y-13504207D02*
X10975443Y-13304207D01*
X10975443Y-13204207D02*
X10961157Y-13218493D01*
X10975443Y-13232779D01*
X10989728Y-13218493D01*
X10975443Y-13204207D01*
X10975443Y-13232779D01*
X11161157Y-13504207D02*
X11132586Y-13489922D01*
X11118300Y-13461350D01*
X11118300Y-13204207D01*
X11318300Y-13504207D02*
X11289728Y-13489922D01*
X11275443Y-13461350D01*
X11275443Y-13204207D01*
X11661157Y-13504207D02*
X11661157Y-13204207D01*
X11761157Y-13418493D01*
X11861157Y-13204207D01*
X11861157Y-13504207D01*
X12132586Y-13504207D02*
X12132586Y-13347064D01*
X12118300Y-13318493D01*
X12089728Y-13304207D01*
X12032586Y-13304207D01*
X12004014Y-13318493D01*
X12132586Y-13489922D02*
X12104014Y-13504207D01*
X12032586Y-13504207D01*
X12004014Y-13489922D01*
X11989728Y-13461350D01*
X11989728Y-13432779D01*
X12004014Y-13404207D01*
X12032586Y-13389922D01*
X12104014Y-13389922D01*
X12132586Y-13375636D01*
X12275443Y-13304207D02*
X12275443Y-13604207D01*
X12275443Y-13318493D02*
X12304014Y-13304207D01*
X12361157Y-13304207D01*
X12389728Y-13318493D01*
X12404014Y-13332779D01*
X12418300Y-13361350D01*
X12418300Y-13447064D01*
X12404014Y-13475636D01*
X12389728Y-13489922D01*
X12361157Y-13504207D01*
X12304014Y-13504207D01*
X12275443Y-13489922D01*
X12546871Y-13475636D02*
X12561157Y-13489922D01*
X12546871Y-13504207D01*
X12532586Y-13489922D01*
X12546871Y-13475636D01*
X12546871Y-13504207D01*
X12546871Y-13318493D02*
X12561157Y-13332779D01*
X12546871Y-13347064D01*
X12532586Y-13332779D01*
X12546871Y-13318493D01*
X12546871Y-13347064D01*
X10163300Y-13978493D02*
X10203300Y-14018493D01*
X10203300Y-13978493D02*
X10163300Y-14018493D01*
X10546871Y-13834207D02*
X10575443Y-13834207D01*
X10604014Y-13848493D01*
X10618300Y-13862779D01*
X10632586Y-13891350D01*
X10646871Y-13948493D01*
X10646871Y-14019922D01*
X10632586Y-14077064D01*
X10618300Y-14105636D01*
X10604014Y-14119922D01*
X10575443Y-14134207D01*
X10546871Y-14134207D01*
X10518300Y-14119922D01*
X10504014Y-14105636D01*
X10489728Y-14077064D01*
X10475443Y-14019922D01*
X10475443Y-13948493D01*
X10489728Y-13891350D01*
X10504014Y-13862779D01*
X10518300Y-13848493D01*
X10546871Y-13834207D01*
X10775443Y-14105636D02*
X10789728Y-14119922D01*
X10775443Y-14134207D01*
X10761157Y-14119922D01*
X10775443Y-14105636D01*
X10775443Y-14134207D01*
X11046871Y-13934207D02*
X11046871Y-14134207D01*
X10975443Y-13819922D02*
X10904014Y-14034207D01*
X11089728Y-14034207D01*
X11261157Y-13834207D02*
X11289728Y-13834207D01*
X11318300Y-13848493D01*
X11332586Y-13862779D01*
X11346871Y-13891350D01*
X11361157Y-13948493D01*
X11361157Y-14019922D01*
X11346871Y-14077064D01*
X11332586Y-14105636D01*
X11318300Y-14119922D01*
X11289728Y-14134207D01*
X11261157Y-14134207D01*
X11232586Y-14119922D01*
X11218300Y-14105636D01*
X11204014Y-14077064D01*
X11189728Y-14019922D01*
X11189728Y-13948493D01*
X11204014Y-13891350D01*
X11218300Y-13862779D01*
X11232586Y-13848493D01*
X11261157Y-13834207D01*
X11489728Y-14134207D02*
X11489728Y-13934207D01*
X11489728Y-13962779D02*
X11504014Y-13948493D01*
X11532586Y-13934207D01*
X11575443Y-13934207D01*
X11604014Y-13948493D01*
X11618300Y-13977064D01*
X11618300Y-14134207D01*
X11618300Y-13977064D02*
X11632586Y-13948493D01*
X11661157Y-13934207D01*
X11704014Y-13934207D01*
X11732586Y-13948493D01*
X11746871Y-13977064D01*
X11746871Y-14134207D01*
X11889728Y-14134207D02*
X11889728Y-13934207D01*
X11889728Y-13962779D02*
X11904014Y-13948493D01*
X11932586Y-13934207D01*
X11975443Y-13934207D01*
X12004014Y-13948493D01*
X12018300Y-13977064D01*
X12018300Y-14134207D01*
X12018300Y-13977064D02*
X12032586Y-13948493D01*
X12061157Y-13934207D01*
X12104014Y-13934207D01*
X12132586Y-13948493D01*
X12146871Y-13977064D01*
X12146871Y-14134207D01*
X12732586Y-13819922D02*
X12475443Y-14205636D01*
X13118300Y-13834207D02*
X13146871Y-13834207D01*
X13175443Y-13848493D01*
X13189728Y-13862779D01*
X13204014Y-13891350D01*
X13218300Y-13948493D01*
X13218300Y-14019922D01*
X13204014Y-14077064D01*
X13189728Y-14105636D01*
X13175443Y-14119922D01*
X13146871Y-14134207D01*
X13118300Y-14134207D01*
X13089728Y-14119922D01*
X13075443Y-14105636D01*
X13061157Y-14077064D01*
X13046871Y-14019922D01*
X13046871Y-13948493D01*
X13061157Y-13891350D01*
X13075443Y-13862779D01*
X13089728Y-13848493D01*
X13118300Y-13834207D01*
X13346871Y-14105636D02*
X13361157Y-14119922D01*
X13346871Y-14134207D01*
X13332586Y-14119922D01*
X13346871Y-14105636D01*
X13346871Y-14134207D01*
X13546871Y-13834207D02*
X13575443Y-13834207D01*
X13604014Y-13848493D01*
X13618300Y-13862779D01*
X13632586Y-13891350D01*
X13646871Y-13948493D01*
X13646871Y-14019922D01*
X13632586Y-14077064D01*
X13618300Y-14105636D01*
X13604014Y-14119922D01*
X13575443Y-14134207D01*
X13546871Y-14134207D01*
X13518300Y-14119922D01*
X13504014Y-14105636D01*
X13489728Y-14077064D01*
X13475443Y-14019922D01*
X13475443Y-13948493D01*
X13489728Y-13891350D01*
X13504014Y-13862779D01*
X13518300Y-13848493D01*
X13546871Y-13834207D01*
X13932586Y-14134207D02*
X13761157Y-14134207D01*
X13846871Y-14134207D02*
X13846871Y-13834207D01*
X13818300Y-13877064D01*
X13789728Y-13905636D01*
X13761157Y-13919922D01*
X14189728Y-13834207D02*
X14132586Y-13834207D01*
X14104014Y-13848493D01*
X14089728Y-13862779D01*
X14061157Y-13905636D01*
X14046871Y-13962779D01*
X14046871Y-14077064D01*
X14061157Y-14105636D01*
X14075443Y-14119922D01*
X14104014Y-14134207D01*
X14161157Y-14134207D01*
X14189728Y-14119922D01*
X14204014Y-14105636D01*
X14218300Y-14077064D01*
X14218300Y-14005636D01*
X14204014Y-13977064D01*
X14189728Y-13962779D01*
X14161157Y-13948493D01*
X14104014Y-13948493D01*
X14075443Y-13962779D01*
X14061157Y-13977064D01*
X14046871Y-14005636D01*
X14332586Y-13834207D02*
X14332586Y-13891350D01*
X14446871Y-13834207D02*
X14446871Y-13891350D01*
X14889728Y-14248493D02*
X14875443Y-14234207D01*
X14846871Y-14191350D01*
X14832586Y-14162779D01*
X14818300Y-14119922D01*
X14804014Y-14048493D01*
X14804014Y-13991350D01*
X14818300Y-13919922D01*
X14832586Y-13877064D01*
X14846871Y-13848493D01*
X14875443Y-13805636D01*
X14889728Y-13791350D01*
X15161157Y-14134207D02*
X14989728Y-14134207D01*
X15075443Y-14134207D02*
X15075443Y-13834207D01*
X15046871Y-13877064D01*
X15018300Y-13905636D01*
X14989728Y-13919922D01*
X15346871Y-13834207D02*
X15375443Y-13834207D01*
X15404014Y-13848493D01*
X15418300Y-13862779D01*
X15432586Y-13891350D01*
X15446871Y-13948493D01*
X15446871Y-14019922D01*
X15432586Y-14077064D01*
X15418300Y-14105636D01*
X15404014Y-14119922D01*
X15375443Y-14134207D01*
X15346871Y-14134207D01*
X15318300Y-14119922D01*
X15304014Y-14105636D01*
X15289728Y-14077064D01*
X15275443Y-14019922D01*
X15275443Y-13948493D01*
X15289728Y-13891350D01*
X15304014Y-13862779D01*
X15318300Y-13848493D01*
X15346871Y-13834207D01*
X15804014Y-14134207D02*
X15804014Y-13834207D01*
X15932586Y-14134207D02*
X15932586Y-13977064D01*
X15918300Y-13948493D01*
X15889728Y-13934207D01*
X15846871Y-13934207D01*
X15818300Y-13948493D01*
X15804014Y-13962779D01*
X16118300Y-14134207D02*
X16089728Y-14119922D01*
X16075443Y-14105636D01*
X16061157Y-14077064D01*
X16061157Y-13991350D01*
X16075443Y-13962779D01*
X16089728Y-13948493D01*
X16118300Y-13934207D01*
X16161157Y-13934207D01*
X16189728Y-13948493D01*
X16204014Y-13962779D01*
X16218300Y-13991350D01*
X16218300Y-14077064D01*
X16204014Y-14105636D01*
X16189728Y-14119922D01*
X16161157Y-14134207D01*
X16118300Y-14134207D01*
X16389728Y-14134207D02*
X16361157Y-14119922D01*
X16346871Y-14091350D01*
X16346871Y-13834207D01*
X16618300Y-14119922D02*
X16589728Y-14134207D01*
X16532586Y-14134207D01*
X16504014Y-14119922D01*
X16489728Y-14091350D01*
X16489728Y-13977064D01*
X16504014Y-13948493D01*
X16532586Y-13934207D01*
X16589728Y-13934207D01*
X16618300Y-13948493D01*
X16632586Y-13977064D01*
X16632586Y-14005636D01*
X16489728Y-14034207D01*
X16746871Y-14119922D02*
X16775443Y-14134207D01*
X16832586Y-14134207D01*
X16861157Y-14119922D01*
X16875443Y-14091350D01*
X16875443Y-14077064D01*
X16861157Y-14048493D01*
X16832586Y-14034207D01*
X16789728Y-14034207D01*
X16761157Y-14019922D01*
X16746871Y-13991350D01*
X16746871Y-13977064D01*
X16761157Y-13948493D01*
X16789728Y-13934207D01*
X16832586Y-13934207D01*
X16861157Y-13948493D01*
X16975443Y-14248493D02*
X16989728Y-14234207D01*
X17018300Y-14191350D01*
X17032586Y-14162779D01*
X17046871Y-14119922D01*
X17061157Y-14048493D01*
X17061157Y-13991350D01*
X17046871Y-13919922D01*
X17032586Y-13877064D01*
X17018300Y-13848493D01*
X16989728Y-13805636D01*
X16975443Y-13791350D01*
X10203300Y-14394493D02*
G75*
G03X10203300Y-14394493I-38100J0D01*
G01*
X10546871Y-14230207D02*
X10575443Y-14230207D01*
X10604014Y-14244493D01*
X10618300Y-14258779D01*
X10632586Y-14287350D01*
X10646871Y-14344493D01*
X10646871Y-14415922D01*
X10632586Y-14473064D01*
X10618300Y-14501636D01*
X10604014Y-14515922D01*
X10575443Y-14530207D01*
X10546871Y-14530207D01*
X10518300Y-14515922D01*
X10504014Y-14501636D01*
X10489728Y-14473064D01*
X10475443Y-14415922D01*
X10475443Y-14344493D01*
X10489728Y-14287350D01*
X10504014Y-14258779D01*
X10518300Y-14244493D01*
X10546871Y-14230207D01*
X10775443Y-14501636D02*
X10789728Y-14515922D01*
X10775443Y-14530207D01*
X10761157Y-14515922D01*
X10775443Y-14501636D01*
X10775443Y-14530207D01*
X10889728Y-14230207D02*
X11089728Y-14230207D01*
X10961157Y-14530207D01*
X11332586Y-14230207D02*
X11275443Y-14230207D01*
X11246871Y-14244493D01*
X11232586Y-14258779D01*
X11204014Y-14301636D01*
X11189728Y-14358779D01*
X11189728Y-14473064D01*
X11204014Y-14501636D01*
X11218300Y-14515922D01*
X11246871Y-14530207D01*
X11304014Y-14530207D01*
X11332586Y-14515922D01*
X11346871Y-14501636D01*
X11361157Y-14473064D01*
X11361157Y-14401636D01*
X11346871Y-14373064D01*
X11332586Y-14358779D01*
X11304014Y-14344493D01*
X11246871Y-14344493D01*
X11218300Y-14358779D01*
X11204014Y-14373064D01*
X11189728Y-14401636D01*
X11489728Y-14530207D02*
X11489728Y-14330207D01*
X11489728Y-14358779D02*
X11504014Y-14344493D01*
X11532586Y-14330207D01*
X11575443Y-14330207D01*
X11604014Y-14344493D01*
X11618300Y-14373064D01*
X11618300Y-14530207D01*
X11618300Y-14373064D02*
X11632586Y-14344493D01*
X11661157Y-14330207D01*
X11704014Y-14330207D01*
X11732586Y-14344493D01*
X11746871Y-14373064D01*
X11746871Y-14530207D01*
X11889728Y-14530207D02*
X11889728Y-14330207D01*
X11889728Y-14358779D02*
X11904014Y-14344493D01*
X11932586Y-14330207D01*
X11975443Y-14330207D01*
X12004014Y-14344493D01*
X12018300Y-14373064D01*
X12018300Y-14530207D01*
X12018300Y-14373064D02*
X12032586Y-14344493D01*
X12061157Y-14330207D01*
X12104014Y-14330207D01*
X12132586Y-14344493D01*
X12146871Y-14373064D01*
X12146871Y-14530207D01*
X12732586Y-14215922D02*
X12475443Y-14601636D01*
X13118300Y-14230207D02*
X13146871Y-14230207D01*
X13175443Y-14244493D01*
X13189728Y-14258779D01*
X13204014Y-14287350D01*
X13218300Y-14344493D01*
X13218300Y-14415922D01*
X13204014Y-14473064D01*
X13189728Y-14501636D01*
X13175443Y-14515922D01*
X13146871Y-14530207D01*
X13118300Y-14530207D01*
X13089728Y-14515922D01*
X13075443Y-14501636D01*
X13061157Y-14473064D01*
X13046871Y-14415922D01*
X13046871Y-14344493D01*
X13061157Y-14287350D01*
X13075443Y-14258779D01*
X13089728Y-14244493D01*
X13118300Y-14230207D01*
X13346871Y-14501636D02*
X13361157Y-14515922D01*
X13346871Y-14530207D01*
X13332586Y-14515922D01*
X13346871Y-14501636D01*
X13346871Y-14530207D01*
X13546871Y-14230207D02*
X13575443Y-14230207D01*
X13604014Y-14244493D01*
X13618300Y-14258779D01*
X13632586Y-14287350D01*
X13646871Y-14344493D01*
X13646871Y-14415922D01*
X13632586Y-14473064D01*
X13618300Y-14501636D01*
X13604014Y-14515922D01*
X13575443Y-14530207D01*
X13546871Y-14530207D01*
X13518300Y-14515922D01*
X13504014Y-14501636D01*
X13489728Y-14473064D01*
X13475443Y-14415922D01*
X13475443Y-14344493D01*
X13489728Y-14287350D01*
X13504014Y-14258779D01*
X13518300Y-14244493D01*
X13546871Y-14230207D01*
X13746871Y-14230207D02*
X13932586Y-14230207D01*
X13832586Y-14344493D01*
X13875443Y-14344493D01*
X13904014Y-14358779D01*
X13918300Y-14373064D01*
X13932586Y-14401636D01*
X13932586Y-14473064D01*
X13918300Y-14501636D01*
X13904014Y-14515922D01*
X13875443Y-14530207D01*
X13789728Y-14530207D01*
X13761157Y-14515922D01*
X13746871Y-14501636D01*
X14118300Y-14230207D02*
X14146871Y-14230207D01*
X14175443Y-14244493D01*
X14189728Y-14258779D01*
X14204014Y-14287350D01*
X14218300Y-14344493D01*
X14218300Y-14415922D01*
X14204014Y-14473064D01*
X14189728Y-14501636D01*
X14175443Y-14515922D01*
X14146871Y-14530207D01*
X14118300Y-14530207D01*
X14089728Y-14515922D01*
X14075443Y-14501636D01*
X14061157Y-14473064D01*
X14046871Y-14415922D01*
X14046871Y-14344493D01*
X14061157Y-14287350D01*
X14075443Y-14258779D01*
X14089728Y-14244493D01*
X14118300Y-14230207D01*
X14332586Y-14230207D02*
X14332586Y-14287350D01*
X14446871Y-14230207D02*
X14446871Y-14287350D01*
X14889728Y-14644493D02*
X14875443Y-14630207D01*
X14846871Y-14587350D01*
X14832586Y-14558779D01*
X14818300Y-14515922D01*
X14804014Y-14444493D01*
X14804014Y-14387350D01*
X14818300Y-14315922D01*
X14832586Y-14273064D01*
X14846871Y-14244493D01*
X14875443Y-14201636D01*
X14889728Y-14187350D01*
X15132586Y-14330207D02*
X15132586Y-14530207D01*
X15061157Y-14215922D02*
X14989728Y-14430207D01*
X15175443Y-14430207D01*
X15261157Y-14230207D02*
X15461157Y-14230207D01*
X15332586Y-14530207D01*
X15804014Y-14530207D02*
X15804014Y-14230207D01*
X15932586Y-14530207D02*
X15932586Y-14373064D01*
X15918300Y-14344493D01*
X15889728Y-14330207D01*
X15846871Y-14330207D01*
X15818300Y-14344493D01*
X15804014Y-14358779D01*
X16118300Y-14530207D02*
X16089728Y-14515922D01*
X16075443Y-14501636D01*
X16061157Y-14473064D01*
X16061157Y-14387350D01*
X16075443Y-14358779D01*
X16089728Y-14344493D01*
X16118300Y-14330207D01*
X16161157Y-14330207D01*
X16189728Y-14344493D01*
X16204014Y-14358779D01*
X16218300Y-14387350D01*
X16218300Y-14473064D01*
X16204014Y-14501636D01*
X16189728Y-14515922D01*
X16161157Y-14530207D01*
X16118300Y-14530207D01*
X16389728Y-14530207D02*
X16361157Y-14515922D01*
X16346871Y-14487350D01*
X16346871Y-14230207D01*
X16618300Y-14515922D02*
X16589728Y-14530207D01*
X16532586Y-14530207D01*
X16504014Y-14515922D01*
X16489728Y-14487350D01*
X16489728Y-14373064D01*
X16504014Y-14344493D01*
X16532586Y-14330207D01*
X16589728Y-14330207D01*
X16618300Y-14344493D01*
X16632586Y-14373064D01*
X16632586Y-14401636D01*
X16489728Y-14430207D01*
X16746871Y-14515922D02*
X16775443Y-14530207D01*
X16832586Y-14530207D01*
X16861157Y-14515922D01*
X16875443Y-14487350D01*
X16875443Y-14473064D01*
X16861157Y-14444493D01*
X16832586Y-14430207D01*
X16789728Y-14430207D01*
X16761157Y-14415922D01*
X16746871Y-14387350D01*
X16746871Y-14373064D01*
X16761157Y-14344493D01*
X16789728Y-14330207D01*
X16832586Y-14330207D01*
X16861157Y-14344493D01*
X16975443Y-14644493D02*
X16989728Y-14630207D01*
X17018300Y-14587350D01*
X17032586Y-14558779D01*
X17046871Y-14515922D01*
X17061157Y-14444493D01*
X17061157Y-14387350D01*
X17046871Y-14315922D01*
X17032586Y-14273064D01*
X17018300Y-14244493D01*
X16989728Y-14201636D01*
X16975443Y-14187350D01*
X10163300Y-14750493D02*
X10163300Y-14830493D01*
X10123300Y-14790493D02*
X10203300Y-14790493D01*
X10546871Y-14626207D02*
X10575443Y-14626207D01*
X10604014Y-14640493D01*
X10618300Y-14654779D01*
X10632586Y-14683350D01*
X10646871Y-14740493D01*
X10646871Y-14811922D01*
X10632586Y-14869064D01*
X10618300Y-14897636D01*
X10604014Y-14911922D01*
X10575443Y-14926207D01*
X10546871Y-14926207D01*
X10518300Y-14911922D01*
X10504014Y-14897636D01*
X10489728Y-14869064D01*
X10475443Y-14811922D01*
X10475443Y-14740493D01*
X10489728Y-14683350D01*
X10504014Y-14654779D01*
X10518300Y-14640493D01*
X10546871Y-14626207D01*
X10775443Y-14897636D02*
X10789728Y-14911922D01*
X10775443Y-14926207D01*
X10761157Y-14911922D01*
X10775443Y-14897636D01*
X10775443Y-14926207D01*
X10961157Y-14754779D02*
X10932586Y-14740493D01*
X10918300Y-14726207D01*
X10904014Y-14697636D01*
X10904014Y-14683350D01*
X10918300Y-14654779D01*
X10932586Y-14640493D01*
X10961157Y-14626207D01*
X11018300Y-14626207D01*
X11046871Y-14640493D01*
X11061157Y-14654779D01*
X11075443Y-14683350D01*
X11075443Y-14697636D01*
X11061157Y-14726207D01*
X11046871Y-14740493D01*
X11018300Y-14754779D01*
X10961157Y-14754779D01*
X10932586Y-14769064D01*
X10918300Y-14783350D01*
X10904014Y-14811922D01*
X10904014Y-14869064D01*
X10918300Y-14897636D01*
X10932586Y-14911922D01*
X10961157Y-14926207D01*
X11018300Y-14926207D01*
X11046871Y-14911922D01*
X11061157Y-14897636D01*
X11075443Y-14869064D01*
X11075443Y-14811922D01*
X11061157Y-14783350D01*
X11046871Y-14769064D01*
X11018300Y-14754779D01*
X11261157Y-14626207D02*
X11289728Y-14626207D01*
X11318300Y-14640493D01*
X11332586Y-14654779D01*
X11346871Y-14683350D01*
X11361157Y-14740493D01*
X11361157Y-14811922D01*
X11346871Y-14869064D01*
X11332586Y-14897636D01*
X11318300Y-14911922D01*
X11289728Y-14926207D01*
X11261157Y-14926207D01*
X11232586Y-14911922D01*
X11218300Y-14897636D01*
X11204014Y-14869064D01*
X11189728Y-14811922D01*
X11189728Y-14740493D01*
X11204014Y-14683350D01*
X11218300Y-14654779D01*
X11232586Y-14640493D01*
X11261157Y-14626207D01*
X11489728Y-14926207D02*
X11489728Y-14726207D01*
X11489728Y-14754779D02*
X11504014Y-14740493D01*
X11532586Y-14726207D01*
X11575443Y-14726207D01*
X11604014Y-14740493D01*
X11618300Y-14769064D01*
X11618300Y-14926207D01*
X11618300Y-14769064D02*
X11632586Y-14740493D01*
X11661157Y-14726207D01*
X11704014Y-14726207D01*
X11732586Y-14740493D01*
X11746871Y-14769064D01*
X11746871Y-14926207D01*
X11889728Y-14926207D02*
X11889728Y-14726207D01*
X11889728Y-14754779D02*
X11904014Y-14740493D01*
X11932586Y-14726207D01*
X11975443Y-14726207D01*
X12004014Y-14740493D01*
X12018300Y-14769064D01*
X12018300Y-14926207D01*
X12018300Y-14769064D02*
X12032586Y-14740493D01*
X12061157Y-14726207D01*
X12104014Y-14726207D01*
X12132586Y-14740493D01*
X12146871Y-14769064D01*
X12146871Y-14926207D01*
X12732586Y-14611922D02*
X12475443Y-14997636D01*
X13118300Y-14626207D02*
X13146871Y-14626207D01*
X13175443Y-14640493D01*
X13189728Y-14654779D01*
X13204014Y-14683350D01*
X13218300Y-14740493D01*
X13218300Y-14811922D01*
X13204014Y-14869064D01*
X13189728Y-14897636D01*
X13175443Y-14911922D01*
X13146871Y-14926207D01*
X13118300Y-14926207D01*
X13089728Y-14911922D01*
X13075443Y-14897636D01*
X13061157Y-14869064D01*
X13046871Y-14811922D01*
X13046871Y-14740493D01*
X13061157Y-14683350D01*
X13075443Y-14654779D01*
X13089728Y-14640493D01*
X13118300Y-14626207D01*
X13346871Y-14897636D02*
X13361157Y-14911922D01*
X13346871Y-14926207D01*
X13332586Y-14911922D01*
X13346871Y-14897636D01*
X13346871Y-14926207D01*
X13546871Y-14626207D02*
X13575443Y-14626207D01*
X13604014Y-14640493D01*
X13618300Y-14654779D01*
X13632586Y-14683350D01*
X13646871Y-14740493D01*
X13646871Y-14811922D01*
X13632586Y-14869064D01*
X13618300Y-14897636D01*
X13604014Y-14911922D01*
X13575443Y-14926207D01*
X13546871Y-14926207D01*
X13518300Y-14911922D01*
X13504014Y-14897636D01*
X13489728Y-14869064D01*
X13475443Y-14811922D01*
X13475443Y-14740493D01*
X13489728Y-14683350D01*
X13504014Y-14654779D01*
X13518300Y-14640493D01*
X13546871Y-14626207D01*
X13746871Y-14626207D02*
X13932586Y-14626207D01*
X13832586Y-14740493D01*
X13875443Y-14740493D01*
X13904014Y-14754779D01*
X13918300Y-14769064D01*
X13932586Y-14797636D01*
X13932586Y-14869064D01*
X13918300Y-14897636D01*
X13904014Y-14911922D01*
X13875443Y-14926207D01*
X13789728Y-14926207D01*
X13761157Y-14911922D01*
X13746871Y-14897636D01*
X14218300Y-14926207D02*
X14046871Y-14926207D01*
X14132586Y-14926207D02*
X14132586Y-14626207D01*
X14104014Y-14669064D01*
X14075443Y-14697636D01*
X14046871Y-14711922D01*
X14332586Y-14626207D02*
X14332586Y-14683350D01*
X14446871Y-14626207D02*
X14446871Y-14683350D01*
X14889728Y-15040493D02*
X14875443Y-15026207D01*
X14846871Y-14983350D01*
X14832586Y-14954779D01*
X14818300Y-14911922D01*
X14804014Y-14840493D01*
X14804014Y-14783350D01*
X14818300Y-14711922D01*
X14832586Y-14669064D01*
X14846871Y-14640493D01*
X14875443Y-14597636D01*
X14889728Y-14583350D01*
X14989728Y-14654779D02*
X15004014Y-14640493D01*
X15032586Y-14626207D01*
X15104014Y-14626207D01*
X15132586Y-14640493D01*
X15146871Y-14654779D01*
X15161157Y-14683350D01*
X15161157Y-14711922D01*
X15146871Y-14754779D01*
X14975443Y-14926207D01*
X15161157Y-14926207D01*
X15432586Y-14626207D02*
X15289728Y-14626207D01*
X15275443Y-14769064D01*
X15289728Y-14754779D01*
X15318300Y-14740493D01*
X15389728Y-14740493D01*
X15418300Y-14754779D01*
X15432586Y-14769064D01*
X15446871Y-14797636D01*
X15446871Y-14869064D01*
X15432586Y-14897636D01*
X15418300Y-14911922D01*
X15389728Y-14926207D01*
X15318300Y-14926207D01*
X15289728Y-14911922D01*
X15275443Y-14897636D01*
X15804014Y-14926207D02*
X15804014Y-14626207D01*
X15932586Y-14926207D02*
X15932586Y-14769064D01*
X15918300Y-14740493D01*
X15889728Y-14726207D01*
X15846871Y-14726207D01*
X15818300Y-14740493D01*
X15804014Y-14754779D01*
X16118300Y-14926207D02*
X16089728Y-14911922D01*
X16075443Y-14897636D01*
X16061157Y-14869064D01*
X16061157Y-14783350D01*
X16075443Y-14754779D01*
X16089728Y-14740493D01*
X16118300Y-14726207D01*
X16161157Y-14726207D01*
X16189728Y-14740493D01*
X16204014Y-14754779D01*
X16218300Y-14783350D01*
X16218300Y-14869064D01*
X16204014Y-14897636D01*
X16189728Y-14911922D01*
X16161157Y-14926207D01*
X16118300Y-14926207D01*
X16389728Y-14926207D02*
X16361157Y-14911922D01*
X16346871Y-14883350D01*
X16346871Y-14626207D01*
X16618300Y-14911922D02*
X16589728Y-14926207D01*
X16532586Y-14926207D01*
X16504014Y-14911922D01*
X16489728Y-14883350D01*
X16489728Y-14769064D01*
X16504014Y-14740493D01*
X16532586Y-14726207D01*
X16589728Y-14726207D01*
X16618300Y-14740493D01*
X16632586Y-14769064D01*
X16632586Y-14797636D01*
X16489728Y-14826207D01*
X16746871Y-14911922D02*
X16775443Y-14926207D01*
X16832586Y-14926207D01*
X16861157Y-14911922D01*
X16875443Y-14883350D01*
X16875443Y-14869064D01*
X16861157Y-14840493D01*
X16832586Y-14826207D01*
X16789728Y-14826207D01*
X16761157Y-14811922D01*
X16746871Y-14783350D01*
X16746871Y-14769064D01*
X16761157Y-14740493D01*
X16789728Y-14726207D01*
X16832586Y-14726207D01*
X16861157Y-14740493D01*
X16975443Y-15040493D02*
X16989728Y-15026207D01*
X17018300Y-14983350D01*
X17032586Y-14954779D01*
X17046871Y-14911922D01*
X17061157Y-14840493D01*
X17061157Y-14783350D01*
X17046871Y-14711922D01*
X17032586Y-14669064D01*
X17018300Y-14640493D01*
X16989728Y-14597636D01*
X16975443Y-14583350D01*
M02*
