M48
;DRILL file {KiCad 5.0.0-rc3-unknown-3e22e5c~65~ubuntu16.04.1} date Wed Jul 11 23:21:28 2018
;FORMAT={-:-/ absolute / metric / decimal}
FMAT,2
METRIC,TZ
T1C0.400
T2C0.762
T3C0.800
%
G90
G05
M71
T1
X116.84Y-112.014
X121.666Y-112.776
X121.666Y-114.3
X128.016Y-108.712
X128.016Y-116.586
X140.716Y-107.188
X145.542Y-106.934
X161.29Y-113.386
X161.29Y-114.402
X161.29Y-115.418
T2
X106.807Y-102.108
X106.807Y-108.839
X107.061Y-117.475
X113.792Y-117.475
X106.553Y-85.725
X106.553Y-92.456
X112.471Y-74.879
X112.471Y-76.911
X112.471Y-78.816
X112.471Y-94.056
X114.249Y-95.834
X114.497Y-74.863
X116.497Y-74.863
X118.497Y-74.863
X120.497Y-74.863
X122.497Y-74.863
X128.346Y-95.834
X130.378Y-95.834
X132.408Y-79.667
X132.408Y-81.667
X132.408Y-83.667
X132.408Y-85.667
X132.41Y-87.706
X132.41Y-89.738
X132.41Y-91.77
X132.41Y-93.802
X132.41Y-95.834
X139.43Y-80.131
X139.43Y-82.131
X139.43Y-84.131
X139.43Y-86.131
X139.43Y-88.131
X139.43Y-90.131
X139.43Y-92.131
X139.43Y-94.131
X139.43Y-96.131
X139.446Y-78.13
X161.43Y-80.131
X161.43Y-82.131
X161.43Y-84.131
X161.43Y-86.131
X161.43Y-88.131
X161.43Y-90.131
X161.43Y-92.131
X161.43Y-94.131
X161.43Y-96.131
X161.442Y-78.08
T3
X130.81Y-119.888
X132.81Y-119.888
X125.476Y-119.888
X127.476Y-119.888
X163.576Y-106.934
X163.576Y-108.934
X163.576Y-110.934
X163.576Y-112.934
X163.576Y-114.934
X163.576Y-116.934
X163.576Y-118.934
X104.14Y-74.74
X104.14Y-76.74
X104.14Y-78.74
X120.174Y-119.888
X122.174Y-119.888
X114.3Y-72.136
X116.3Y-72.136
X118.3Y-72.136
X120.3Y-72.136
X122.3Y-72.136
X125.Y-72.136
X127.Y-72.136
X129.Y-72.136
X131.Y-72.136
T0
M30
