  0
SECTION
  2
HEADER
  9
$ANGBASE
  50
0.0
  9
$ANGDIR
  70
  1
  9
$MEASUREMENT
  70
0
  0
ENDSEC
  0
SECTION
  2
TABLES
  0
TABLE
  2
LTYPE
  70
4
  0
LTYPE
  5
40F
  2
CONTINUOUS
  70
0
  3
Solid line
  72
65
  73
0
  40
0.0
  0
LTYPE
  5
410
  2
DASHDOT
 70
0
  3
Dash Dot ____ _ ____ _
 72
65
 73
4
 40
2.0
 49
1.25
 49
-0.25
 49
0.25
 49
-0.25
  0
LTYPE
  5
411
  2
DASHED
 70
0
  3
Dashed __ __ __ __ __
 72
65
 73
2
 40
0.75
 49
0.5
 49
-0.25
  0
LTYPE
  5
43B
  2
DOTTED
 70
0
  3
Dotted .  .  .  .
 72
65
 73
2
 40
0.2
 49
0.0
 49
-0.2
  0
ENDTAB
  0
TABLE
  2
STYLE
  70
4
  0
STYLE
  2
KICAD
  70
0
  40
0
  41
1
  42
1
  50
0
  71
0
  3
isocp.shx
  0
STYLE
  2
KICADB
  70
0
  40
0
  41
1
  42
1
  50
0
  71
0
  3
isocp.shx
  0
STYLE
  2
KICADI
  70
0
  40
0
  41
1
  42
1
  50
15
  71
0
  3
isocp.shx
  0
STYLE
  2
KICADBI
  70
0
  40
0
  41
1
  42
1
  50
15
  71
0
  3
isocp.shx
  0
ENDTAB
  0
TABLE
  2
LAYER
  70
30
  0
LAYER
  2
BLACK
  70
0
  62
7
  6
CONTINUOUS
  0
LAYER
  2
GRAY1
  70
0
  62
251
  6
CONTINUOUS
  0
LAYER
  2
GRAY2
  70
0
  62
8
  6
CONTINUOUS
  0
LAYER
  2
GRAY3
  70
0
  62
9
  6
CONTINUOUS
  0
LAYER
  2
WHITE
  70
0
  62
7
  6
CONTINUOUS
  0
LAYER
  2
LYELLOW
  70
0
  62
51
  6
CONTINUOUS
  0
LAYER
  2
BLUE1
  70
0
  62
178
  6
CONTINUOUS
  0
LAYER
  2
GREEN1
  70
0
  62
98
  6
CONTINUOUS
  0
LAYER
  2
CYAN1
  70
0
  62
138
  6
CONTINUOUS
  0
LAYER
  2
RED1
  70
0
  62
18
  6
CONTINUOUS
  0
LAYER
  2
MAGENTA1
  70
0
  62
228
  6
CONTINUOUS
  0
LAYER
  2
BROWN1
  70
0
  62
58
  6
CONTINUOUS
  0
LAYER
  2
BLUE2
  70
0
  62
5
  6
CONTINUOUS
  0
LAYER
  2
GREEN2
  70
0
  62
3
  6
CONTINUOUS
  0
LAYER
  2
CYAN2
  70
0
  62
4
  6
CONTINUOUS
  0
LAYER
  2
RED2
  70
0
  62
1
  6
CONTINUOUS
  0
LAYER
  2
MAGENTA2
  70
0
  62
6
  6
CONTINUOUS
  0
LAYER
  2
BROWN2
  70
0
  62
54
  6
CONTINUOUS
  0
LAYER
  2
BLUE3
  70
0
  62
171
  6
CONTINUOUS
  0
LAYER
  2
GREEN3
  70
0
  62
91
  6
CONTINUOUS
  0
LAYER
  2
CYAN3
  70
0
  62
131
  6
CONTINUOUS
  0
LAYER
  2
RED3
  70
0
  62
11
  6
CONTINUOUS
  0
LAYER
  2
MAGENTA3
  70
0
  62
221
  6
CONTINUOUS
  0
LAYER
  2
YELLOW3
  70
0
  62
2
  6
CONTINUOUS
  0
LAYER
  2
BLUE4
  70
0
  62
5
  6
CONTINUOUS
  0
LAYER
  2
GREEN4
  70
0
  62
3
  6
CONTINUOUS
  0
LAYER
  2
CYAN4
  70
0
  62
4
  6
CONTINUOUS
  0
LAYER
  2
RED4
  70
0
  62
1
  6
CONTINUOUS
  0
LAYER
  2
MAGENTA4
  70
0
  62
6
  6
CONTINUOUS
  0
LAYER
  2
YELLOW4
  70
0
  62
2
  6
CONTINUOUS
  0
ENDTAB
  0
ENDSEC
  0
SECTION
  2
ENTITIES
0
ARC
8
BLACK
10
161.544
20
-126.238
40
4.07193
50
-86.4237
51
3.57633
0
LINE
8
BLACK
6
CONTINUOUS
10
157.48
20
-124.206
11
157.48
21
-126.492
0
ARC
8
BLACK
10
155.194
20
-124.206
40
2.286
50
-0
51
90
0
LINE
8
BLACK
6
CONTINUOUS
10
165.608
20
-125.984
11
165.608
21
-121.92
0
ARC
8
BLACK
10
161.544
20
-126.238
40
4.07193
50
-176.424
51
-86.4237
0
LINE
8
BLACK
6
CONTINUOUS
10
113.03
20
-121.92
11
155.194
21
-121.92
0
LINE
8
BLACK
6
CONTINUOUS
10
111.252
20
-70.612
11
156.718
21
-70.612
0
LINE
8
BLACK
6
CONTINUOUS
10
110.236
20
-124.206
11
110.236
21
-125.984
0
ARC
8
BLACK
10
112.776
20
-124.46
40
2.55267
50
84.2894
51
174.289
0
LINE
8
BLACK
6
CONTINUOUS
10
158.496
20
-66.04
11
158.496
21
-68.834
0
ARC
8
BLACK
10
156.718
20
-68.834
40
1.778
50
-90
51
-0
0
LINE
8
BLACK
6
CONTINUOUS
10
109.22
20
-66.548
11
109.22
21
-68.58
0
ARC
8
BLACK
10
111.252
20
-68.58
40
2.032
50
-180
51
-90
0
LINE
8
BLACK
6
CONTINUOUS
10
102.108
20
-121.92
11
102.108
21
-126.492
0
ARC
8
BLACK
10
106.172
20
-126.238
40
4.07193
50
-176.424
51
-86.4237
0
ARC
8
BLACK
10
106.172
20
-126.238
40
4.07193
50
-86.4237
51
3.57633
0
LINE
8
BLACK
6
CONTINUOUS
10
165.608
20
-66.548
11
165.608
21
-70.612
0
ARC
8
BLACK
10
162.052
20
-66.294
40
3.56506
50
85.9144
51
175.914
0
ARC
8
BLACK
10
162.052
20
-66.294
40
3.56506
50
-4.08562
51
85.9144
0
LINE
8
BLACK
6
CONTINUOUS
10
102.108
20
-66.548
11
102.108
21
-70.612
0
ARC
8
BLACK
10
105.664
20
-66.548
40
3.556
50
-0
51
90
0
ARC
8
BLACK
10
105.664
20
-66.548
40
3.556
50
90
51
180
0
LINE
8
BLACK
6
CONTINUOUS
10
102.108
20
-70.612
11
102.108
21
-121.92
0
LINE
8
BLACK
6
CONTINUOUS
10
165.608
20
-121.92
11
165.608
21
-70.612
0
LINE
8
BLACK
6
CONTINUOUS
10
116.64
20
-111.814
11
117.04
21
-112.214
0
LINE
8
BLACK
6
CONTINUOUS
10
117.04
20
-111.814
11
116.64
21
-112.214
0
LINE
8
BLACK
6
CONTINUOUS
10
120.196
20
-114.1
11
120.596
21
-114.5
0
LINE
8
BLACK
6
CONTINUOUS
10
120.596
20
-114.1
11
120.196
21
-114.5
0
LINE
8
BLACK
6
CONTINUOUS
10
120.196
20
-116.64
11
120.596
21
-117.04
0
LINE
8
BLACK
6
CONTINUOUS
10
120.596
20
-116.64
11
120.196
21
-117.04
0
LINE
8
BLACK
6
CONTINUOUS
10
127.816
20
-108.512
11
128.216
21
-108.912
0
LINE
8
BLACK
6
CONTINUOUS
10
128.216
20
-108.512
11
127.816
21
-108.912
0
LINE
8
BLACK
6
CONTINUOUS
10
127.816
20
-116.386
11
128.216
21
-116.786
0
LINE
8
BLACK
6
CONTINUOUS
10
128.216
20
-116.386
11
127.816
21
-116.786
0
CIRCLE
8
BLACK
10
164.541
20
-111.712
40
0.25
0
CIRCLE
8
BLACK
10
164.541
20
-112.928
40
0.25
0
CIRCLE
8
BLACK
10
164.541
20
-114.144
40
0.25
0
LINE
8
BLACK
6
CONTINUOUS
10
130.81
20
-119.488
11
130.81
21
-120.288
0
LINE
8
BLACK
6
CONTINUOUS
10
130.41
20
-119.888
11
131.21
21
-119.888
0
LINE
8
BLACK
6
CONTINUOUS
10
132.81
20
-119.488
11
132.81
21
-120.288
0
LINE
8
BLACK
6
CONTINUOUS
10
132.41
20
-119.888
11
133.21
21
-119.888
0
LINE
8
BLACK
6
CONTINUOUS
10
125
20
-71.736
11
125
21
-72.536
0
LINE
8
BLACK
6
CONTINUOUS
10
124.6
20
-72.136
11
125.4
21
-72.136
0
LINE
8
BLACK
6
CONTINUOUS
10
127
20
-71.736
11
127
21
-72.536
0
LINE
8
BLACK
6
CONTINUOUS
10
126.6
20
-72.136
11
127.4
21
-72.136
0
LINE
8
BLACK
6
CONTINUOUS
10
129
20
-71.736
11
129
21
-72.536
0
LINE
8
BLACK
6
CONTINUOUS
10
128.6
20
-72.136
11
129.4
21
-72.136
0
LINE
8
BLACK
6
CONTINUOUS
10
131
20
-71.736
11
131
21
-72.536
0
LINE
8
BLACK
6
CONTINUOUS
10
130.6
20
-72.136
11
131.4
21
-72.136
0
LINE
8
BLACK
6
CONTINUOUS
10
114.3
20
-71.736
11
114.3
21
-72.536
0
LINE
8
BLACK
6
CONTINUOUS
10
113.9
20
-72.136
11
114.7
21
-72.136
0
LINE
8
BLACK
6
CONTINUOUS
10
116.3
20
-71.736
11
116.3
21
-72.536
0
LINE
8
BLACK
6
CONTINUOUS
10
115.9
20
-72.136
11
116.7
21
-72.136
0
LINE
8
BLACK
6
CONTINUOUS
10
118.3
20
-71.736
11
118.3
21
-72.536
0
LINE
8
BLACK
6
CONTINUOUS
10
117.9
20
-72.136
11
118.7
21
-72.136
0
LINE
8
BLACK
6
CONTINUOUS
10
120.3
20
-71.736
11
120.3
21
-72.536
0
LINE
8
BLACK
6
CONTINUOUS
10
119.9
20
-72.136
11
120.7
21
-72.136
0
LINE
8
BLACK
6
CONTINUOUS
10
122.3
20
-71.736
11
122.3
21
-72.536
0
LINE
8
BLACK
6
CONTINUOUS
10
121.9
20
-72.136
11
122.7
21
-72.136
0
LINE
8
BLACK
6
CONTINUOUS
10
139.43
20
-79.731
11
139.43
21
-80.531
0
LINE
8
BLACK
6
CONTINUOUS
10
139.03
20
-80.131
11
139.83
21
-80.131
0
LINE
8
BLACK
6
CONTINUOUS
10
139.43
20
-81.731
11
139.43
21
-82.531
0
LINE
8
BLACK
6
CONTINUOUS
10
139.03
20
-82.131
11
139.83
21
-82.131
0
LINE
8
BLACK
6
CONTINUOUS
10
139.43
20
-83.731
11
139.43
21
-84.531
0
LINE
8
BLACK
6
CONTINUOUS
10
139.03
20
-84.131
11
139.83
21
-84.131
0
LINE
8
BLACK
6
CONTINUOUS
10
139.43
20
-85.731
11
139.43
21
-86.531
0
LINE
8
BLACK
6
CONTINUOUS
10
139.03
20
-86.131
11
139.83
21
-86.131
0
LINE
8
BLACK
6
CONTINUOUS
10
139.43
20
-87.731
11
139.43
21
-88.531
0
LINE
8
BLACK
6
CONTINUOUS
10
139.03
20
-88.131
11
139.83
21
-88.131
0
LINE
8
BLACK
6
CONTINUOUS
10
139.43
20
-89.731
11
139.43
21
-90.531
0
LINE
8
BLACK
6
CONTINUOUS
10
139.03
20
-90.131
11
139.83
21
-90.131
0
LINE
8
BLACK
6
CONTINUOUS
10
139.43
20
-91.731
11
139.43
21
-92.531
0
LINE
8
BLACK
6
CONTINUOUS
10
139.03
20
-92.131
11
139.83
21
-92.131
0
LINE
8
BLACK
6
CONTINUOUS
10
139.43
20
-93.731
11
139.43
21
-94.531
0
LINE
8
BLACK
6
CONTINUOUS
10
139.03
20
-94.131
11
139.83
21
-94.131
0
LINE
8
BLACK
6
CONTINUOUS
10
139.43
20
-95.731
11
139.43
21
-96.531
0
LINE
8
BLACK
6
CONTINUOUS
10
139.03
20
-96.131
11
139.83
21
-96.131
0
LINE
8
BLACK
6
CONTINUOUS
10
139.446
20
-77.7304
11
139.446
21
-78.5304
0
LINE
8
BLACK
6
CONTINUOUS
10
139.046
20
-78.1304
11
139.846
21
-78.1304
0
LINE
8
BLACK
6
CONTINUOUS
10
161.43
20
-79.731
11
161.43
21
-80.531
0
LINE
8
BLACK
6
CONTINUOUS
10
161.03
20
-80.131
11
161.83
21
-80.131
0
LINE
8
BLACK
6
CONTINUOUS
10
161.43
20
-81.731
11
161.43
21
-82.531
0
LINE
8
BLACK
6
CONTINUOUS
10
161.03
20
-82.131
11
161.83
21
-82.131
0
LINE
8
BLACK
6
CONTINUOUS
10
161.43
20
-83.731
11
161.43
21
-84.531
0
LINE
8
BLACK
6
CONTINUOUS
10
161.03
20
-84.131
11
161.83
21
-84.131
0
LINE
8
BLACK
6
CONTINUOUS
10
161.43
20
-85.731
11
161.43
21
-86.531
0
LINE
8
BLACK
6
CONTINUOUS
10
161.03
20
-86.131
11
161.83
21
-86.131
0
LINE
8
BLACK
6
CONTINUOUS
10
161.43
20
-87.731
11
161.43
21
-88.531
0
LINE
8
BLACK
6
CONTINUOUS
10
161.03
20
-88.131
11
161.83
21
-88.131
0
LINE
8
BLACK
6
CONTINUOUS
10
161.43
20
-89.731
11
161.43
21
-90.531
0
LINE
8
BLACK
6
CONTINUOUS
10
161.03
20
-90.131
11
161.83
21
-90.131
0
LINE
8
BLACK
6
CONTINUOUS
10
161.43
20
-91.731
11
161.43
21
-92.531
0
LINE
8
BLACK
6
CONTINUOUS
10
161.03
20
-92.131
11
161.83
21
-92.131
0
LINE
8
BLACK
6
CONTINUOUS
10
161.43
20
-93.731
11
161.43
21
-94.531
0
LINE
8
BLACK
6
CONTINUOUS
10
161.03
20
-94.131
11
161.83
21
-94.131
0
LINE
8
BLACK
6
CONTINUOUS
10
161.43
20
-95.731
11
161.43
21
-96.531
0
LINE
8
BLACK
6
CONTINUOUS
10
161.03
20
-96.131
11
161.83
21
-96.131
0
LINE
8
BLACK
6
CONTINUOUS
10
161.442
20
-77.6796
11
161.442
21
-78.4796
0
LINE
8
BLACK
6
CONTINUOUS
10
161.042
20
-78.0796
11
161.842
21
-78.0796
0
LINE
8
BLACK
6
CONTINUOUS
10
113.233
20
-74.4792
11
113.233
21
-75.2792
0
LINE
8
BLACK
6
CONTINUOUS
10
112.833
20
-74.8792
11
113.633
21
-74.8792
0
LINE
8
BLACK
6
CONTINUOUS
10
113.233
20
-76.5112
11
113.233
21
-77.3112
0
LINE
8
BLACK
6
CONTINUOUS
10
112.833
20
-76.9112
11
113.633
21
-76.9112
0
LINE
8
BLACK
6
CONTINUOUS
10
113.233
20
-78.4162
11
113.233
21
-79.2162
0
LINE
8
BLACK
6
CONTINUOUS
10
112.833
20
-78.8162
11
113.633
21
-78.8162
0
LINE
8
BLACK
6
CONTINUOUS
10
113.233
20
-93.6562
11
113.233
21
-94.4562
0
LINE
8
BLACK
6
CONTINUOUS
10
112.833
20
-94.0562
11
113.633
21
-94.0562
0
LINE
8
BLACK
6
CONTINUOUS
10
115.011
20
-95.4342
11
115.011
21
-96.2342
0
LINE
8
BLACK
6
CONTINUOUS
10
114.611
20
-95.8342
11
115.411
21
-95.8342
0
LINE
8
BLACK
6
CONTINUOUS
10
115.259
20
-74.4632
11
115.259
21
-75.2632
0
LINE
8
BLACK
6
CONTINUOUS
10
114.859
20
-74.8632
11
115.659
21
-74.8632
0
LINE
8
BLACK
6
CONTINUOUS
10
117.259
20
-74.4632
11
117.259
21
-75.2632
0
LINE
8
BLACK
6
CONTINUOUS
10
116.859
20
-74.8632
11
117.659
21
-74.8632
0
LINE
8
BLACK
6
CONTINUOUS
10
119.259
20
-74.4632
11
119.259
21
-75.2632
0
LINE
8
BLACK
6
CONTINUOUS
10
118.859
20
-74.8632
11
119.659
21
-74.8632
0
LINE
8
BLACK
6
CONTINUOUS
10
121.259
20
-74.4632
11
121.259
21
-75.2632
0
LINE
8
BLACK
6
CONTINUOUS
10
120.859
20
-74.8632
11
121.659
21
-74.8632
0
LINE
8
BLACK
6
CONTINUOUS
10
123.259
20
-74.4632
11
123.259
21
-75.2632
0
LINE
8
BLACK
6
CONTINUOUS
10
122.859
20
-74.8632
11
123.659
21
-74.8632
0
LINE
8
BLACK
6
CONTINUOUS
10
129.108
20
-95.4342
11
129.108
21
-96.2342
0
LINE
8
BLACK
6
CONTINUOUS
10
128.708
20
-95.8342
11
129.508
21
-95.8342
0
LINE
8
BLACK
6
CONTINUOUS
10
131.14
20
-95.4342
11
131.14
21
-96.2342
0
LINE
8
BLACK
6
CONTINUOUS
10
130.74
20
-95.8342
11
131.54
21
-95.8342
0
LINE
8
BLACK
6
CONTINUOUS
10
133.17
20
-79.2672
11
133.17
21
-80.0672
0
LINE
8
BLACK
6
CONTINUOUS
10
132.77
20
-79.6672
11
133.57
21
-79.6672
0
LINE
8
BLACK
6
CONTINUOUS
10
133.17
20
-81.2672
11
133.17
21
-82.0672
0
LINE
8
BLACK
6
CONTINUOUS
10
132.77
20
-81.6672
11
133.57
21
-81.6672
0
LINE
8
BLACK
6
CONTINUOUS
10
133.17
20
-83.2672
11
133.17
21
-84.0672
0
LINE
8
BLACK
6
CONTINUOUS
10
132.77
20
-83.6672
11
133.57
21
-83.6672
0
LINE
8
BLACK
6
CONTINUOUS
10
133.17
20
-85.2672
11
133.17
21
-86.0672
0
LINE
8
BLACK
6
CONTINUOUS
10
132.77
20
-85.6672
11
133.57
21
-85.6672
0
LINE
8
BLACK
6
CONTINUOUS
10
133.172
20
-87.3062
11
133.172
21
-88.1062
0
LINE
8
BLACK
6
CONTINUOUS
10
132.772
20
-87.7062
11
133.572
21
-87.7062
0
LINE
8
BLACK
6
CONTINUOUS
10
133.172
20
-89.3382
11
133.172
21
-90.1382
0
LINE
8
BLACK
6
CONTINUOUS
10
132.772
20
-89.7382
11
133.572
21
-89.7382
0
LINE
8
BLACK
6
CONTINUOUS
10
133.172
20
-91.3702
11
133.172
21
-92.1702
0
LINE
8
BLACK
6
CONTINUOUS
10
132.772
20
-91.7702
11
133.572
21
-91.7702
0
LINE
8
BLACK
6
CONTINUOUS
10
133.172
20
-93.4022
11
133.172
21
-94.2022
0
LINE
8
BLACK
6
CONTINUOUS
10
132.772
20
-93.8022
11
133.572
21
-93.8022
0
LINE
8
BLACK
6
CONTINUOUS
10
133.172
20
-95.4342
11
133.172
21
-96.2342
0
LINE
8
BLACK
6
CONTINUOUS
10
132.772
20
-95.8342
11
133.572
21
-95.8342
0
LINE
8
BLACK
6
CONTINUOUS
10
104.14
20
-74.34
11
104.14
21
-75.14
0
LINE
8
BLACK
6
CONTINUOUS
10
103.74
20
-74.74
11
104.54
21
-74.74
0
LINE
8
BLACK
6
CONTINUOUS
10
104.14
20
-76.34
11
104.14
21
-77.14
0
LINE
8
BLACK
6
CONTINUOUS
10
103.74
20
-76.74
11
104.54
21
-76.74
0
LINE
8
BLACK
6
CONTINUOUS
10
104.14
20
-78.34
11
104.14
21
-79.14
0
LINE
8
BLACK
6
CONTINUOUS
10
103.74
20
-78.74
11
104.54
21
-78.74
0
LINE
8
BLACK
6
CONTINUOUS
10
120.174
20
-119.488
11
120.174
21
-120.288
0
LINE
8
BLACK
6
CONTINUOUS
10
119.774
20
-119.888
11
120.574
21
-119.888
0
LINE
8
BLACK
6
CONTINUOUS
10
122.174
20
-119.488
11
122.174
21
-120.288
0
LINE
8
BLACK
6
CONTINUOUS
10
121.774
20
-119.888
11
122.574
21
-119.888
0
LINE
8
BLACK
6
CONTINUOUS
10
125.476
20
-119.488
11
125.476
21
-120.288
0
LINE
8
BLACK
6
CONTINUOUS
10
125.076
20
-119.888
11
125.876
21
-119.888
0
LINE
8
BLACK
6
CONTINUOUS
10
127.476
20
-119.488
11
127.476
21
-120.288
0
LINE
8
BLACK
6
CONTINUOUS
10
127.076
20
-119.888
11
127.876
21
-119.888
0
LINE
8
BLACK
6
CONTINUOUS
10
141.732
20
-119.488
11
141.732
21
-120.288
0
LINE
8
BLACK
6
CONTINUOUS
10
141.332
20
-119.888
11
142.132
21
-119.888
0
LINE
8
BLACK
6
CONTINUOUS
10
143.732
20
-119.488
11
143.732
21
-120.288
0
LINE
8
BLACK
6
CONTINUOUS
10
143.332
20
-119.888
11
144.132
21
-119.888
0
LINE
8
BLACK
6
CONTINUOUS
10
145.732
20
-119.488
11
145.732
21
-120.288
0
LINE
8
BLACK
6
CONTINUOUS
10
145.332
20
-119.888
11
146.132
21
-119.888
0
LINE
8
BLACK
6
CONTINUOUS
10
147.732
20
-119.488
11
147.732
21
-120.288
0
LINE
8
BLACK
6
CONTINUOUS
10
147.332
20
-119.888
11
148.132
21
-119.888
0
LINE
8
BLACK
6
CONTINUOUS
10
149.732
20
-119.488
11
149.732
21
-120.288
0
LINE
8
BLACK
6
CONTINUOUS
10
149.332
20
-119.888
11
150.132
21
-119.888
0
LINE
8
BLACK
6
CONTINUOUS
10
151.732
20
-119.488
11
151.732
21
-120.288
0
LINE
8
BLACK
6
CONTINUOUS
10
151.332
20
-119.888
11
152.132
21
-119.888
0
LINE
8
BLACK
6
CONTINUOUS
10
153.732
20
-119.488
11
153.732
21
-120.288
0
LINE
8
BLACK
6
CONTINUOUS
10
153.332
20
-119.888
11
154.132
21
-119.888
0
LINE
8
BLACK
6
CONTINUOUS
10
108.073
20
-87.2453
11
108.073
21
-84.2047
0
LINE
8
BLACK
6
CONTINUOUS
10
108.073
20
-84.2047
11
105.033
21
-84.2047
0
LINE
8
BLACK
6
CONTINUOUS
10
105.033
20
-84.2047
11
105.033
21
-87.2453
0
LINE
8
BLACK
6
CONTINUOUS
10
105.033
20
-87.2453
11
108.073
21
-87.2453
0
LINE
8
BLACK
6
CONTINUOUS
10
108.073
20
-93.9763
11
108.073
21
-90.9357
0
LINE
8
BLACK
6
CONTINUOUS
10
108.073
20
-90.9357
11
105.033
21
-90.9357
0
LINE
8
BLACK
6
CONTINUOUS
10
105.033
20
-90.9357
11
105.033
21
-93.9763
0
LINE
8
BLACK
6
CONTINUOUS
10
105.033
20
-93.9763
11
108.073
21
-93.9763
0
LINE
8
BLACK
6
CONTINUOUS
10
108.327
20
-103.628
11
108.327
21
-100.588
0
LINE
8
BLACK
6
CONTINUOUS
10
108.327
20
-100.588
11
105.287
21
-100.588
0
LINE
8
BLACK
6
CONTINUOUS
10
105.287
20
-100.588
11
105.287
21
-103.628
0
LINE
8
BLACK
6
CONTINUOUS
10
105.287
20
-103.628
11
108.327
21
-103.628
0
LINE
8
BLACK
6
CONTINUOUS
10
108.327
20
-110.359
11
108.327
21
-107.319
0
LINE
8
BLACK
6
CONTINUOUS
10
108.327
20
-107.319
11
105.287
21
-107.319
0
LINE
8
BLACK
6
CONTINUOUS
10
105.287
20
-107.319
11
105.287
21
-110.359
0
LINE
8
BLACK
6
CONTINUOUS
10
105.287
20
-110.359
11
108.327
21
-110.359
0
LINE
8
BLACK
6
CONTINUOUS
10
108.581
20
-118.995
11
108.581
21
-115.955
0
LINE
8
BLACK
6
CONTINUOUS
10
108.581
20
-115.955
11
105.541
21
-115.955
0
LINE
8
BLACK
6
CONTINUOUS
10
105.541
20
-115.955
11
105.541
21
-118.995
0
LINE
8
BLACK
6
CONTINUOUS
10
105.541
20
-118.995
11
108.581
21
-118.995
0
LINE
8
BLACK
6
CONTINUOUS
10
115.312
20
-118.995
11
115.312
21
-115.955
0
LINE
8
BLACK
6
CONTINUOUS
10
115.312
20
-115.955
11
112.272
21
-115.955
0
LINE
8
BLACK
6
CONTINUOUS
10
112.272
20
-115.955
11
112.272
21
-118.995
0
LINE
8
BLACK
6
CONTINUOUS
10
112.272
20
-118.995
11
115.312
21
-118.995
0
LINE
8
BLACK
6
CONTINUOUS
10
104.897
20
-135.042
11
104.897
21
-132.042
0
LINE
8
BLACK
6
CONTINUOUS
10
104.897
20
-132.042
11
105.612
21
-132.042
0
LINE
8
BLACK
6
CONTINUOUS
10
105.612
20
-132.042
11
106.04
21
-132.185
0
LINE
8
BLACK
6
CONTINUOUS
10
106.04
20
-132.185
11
106.326
21
-132.471
0
LINE
8
BLACK
6
CONTINUOUS
10
106.326
20
-132.471
11
106.469
21
-132.756
0
LINE
8
BLACK
6
CONTINUOUS
10
106.469
20
-132.756
11
106.612
21
-133.328
0
LINE
8
BLACK
6
CONTINUOUS
10
106.612
20
-133.328
11
106.612
21
-133.756
0
LINE
8
BLACK
6
CONTINUOUS
10
106.612
20
-133.756
11
106.469
21
-134.328
0
LINE
8
BLACK
6
CONTINUOUS
10
106.469
20
-134.328
11
106.326
21
-134.614
0
LINE
8
BLACK
6
CONTINUOUS
10
106.326
20
-134.614
11
106.04
21
-134.899
0
LINE
8
BLACK
6
CONTINUOUS
10
106.04
20
-134.899
11
105.612
21
-135.042
0
LINE
8
BLACK
6
CONTINUOUS
10
105.612
20
-135.042
11
104.897
21
-135.042
0
LINE
8
BLACK
6
CONTINUOUS
10
107.897
20
-135.042
11
107.897
21
-133.042
0
LINE
8
BLACK
6
CONTINUOUS
10
107.897
20
-133.614
11
108.04
21
-133.328
0
LINE
8
BLACK
6
CONTINUOUS
10
108.04
20
-133.328
11
108.183
21
-133.185
0
LINE
8
BLACK
6
CONTINUOUS
10
108.183
20
-133.185
11
108.469
21
-133.042
0
LINE
8
BLACK
6
CONTINUOUS
10
108.469
20
-133.042
11
108.754
21
-133.042
0
LINE
8
BLACK
6
CONTINUOUS
10
109.754
20
-135.042
11
109.754
21
-133.042
0
LINE
8
BLACK
6
CONTINUOUS
10
109.754
20
-132.042
11
109.612
21
-132.185
0
LINE
8
BLACK
6
CONTINUOUS
10
109.612
20
-132.185
11
109.754
21
-132.328
0
LINE
8
BLACK
6
CONTINUOUS
10
109.754
20
-132.328
11
109.897
21
-132.185
0
LINE
8
BLACK
6
CONTINUOUS
10
109.897
20
-132.185
11
109.754
21
-132.042
0
LINE
8
BLACK
6
CONTINUOUS
10
109.754
20
-132.042
11
109.754
21
-132.328
0
LINE
8
BLACK
6
CONTINUOUS
10
111.612
20
-135.042
11
111.326
21
-134.899
0
LINE
8
BLACK
6
CONTINUOUS
10
111.326
20
-134.899
11
111.183
21
-134.614
0
LINE
8
BLACK
6
CONTINUOUS
10
111.183
20
-134.614
11
111.183
21
-132.042
0
LINE
8
BLACK
6
CONTINUOUS
10
113.183
20
-135.042
11
112.897
21
-134.899
0
LINE
8
BLACK
6
CONTINUOUS
10
112.897
20
-134.899
11
112.754
21
-134.614
0
LINE
8
BLACK
6
CONTINUOUS
10
112.754
20
-134.614
11
112.754
21
-132.042
0
LINE
8
BLACK
6
CONTINUOUS
10
116.612
20
-135.042
11
116.612
21
-132.042
0
LINE
8
BLACK
6
CONTINUOUS
10
116.612
20
-132.042
11
117.612
21
-134.185
0
LINE
8
BLACK
6
CONTINUOUS
10
117.612
20
-134.185
11
118.612
21
-132.042
0
LINE
8
BLACK
6
CONTINUOUS
10
118.612
20
-132.042
11
118.612
21
-135.042
0
LINE
8
BLACK
6
CONTINUOUS
10
121.326
20
-135.042
11
121.326
21
-133.471
0
LINE
8
BLACK
6
CONTINUOUS
10
121.326
20
-133.471
11
121.183
21
-133.185
0
LINE
8
BLACK
6
CONTINUOUS
10
121.183
20
-133.185
11
120.897
21
-133.042
0
LINE
8
BLACK
6
CONTINUOUS
10
120.897
20
-133.042
11
120.326
21
-133.042
0
LINE
8
BLACK
6
CONTINUOUS
10
120.326
20
-133.042
11
120.04
21
-133.185
0
LINE
8
BLACK
6
CONTINUOUS
10
121.326
20
-134.899
11
121.04
21
-135.042
0
LINE
8
BLACK
6
CONTINUOUS
10
121.04
20
-135.042
11
120.326
21
-135.042
0
LINE
8
BLACK
6
CONTINUOUS
10
120.326
20
-135.042
11
120.04
21
-134.899
0
LINE
8
BLACK
6
CONTINUOUS
10
120.04
20
-134.899
11
119.897
21
-134.614
0
LINE
8
BLACK
6
CONTINUOUS
10
119.897
20
-134.614
11
119.897
21
-134.328
0
LINE
8
BLACK
6
CONTINUOUS
10
119.897
20
-134.328
11
120.04
21
-134.042
0
LINE
8
BLACK
6
CONTINUOUS
10
120.04
20
-134.042
11
120.326
21
-133.899
0
LINE
8
BLACK
6
CONTINUOUS
10
120.326
20
-133.899
11
121.04
21
-133.899
0
LINE
8
BLACK
6
CONTINUOUS
10
121.04
20
-133.899
11
121.326
21
-133.756
0
LINE
8
BLACK
6
CONTINUOUS
10
122.754
20
-133.042
11
122.754
21
-136.042
0
LINE
8
BLACK
6
CONTINUOUS
10
122.754
20
-133.185
11
123.04
21
-133.042
0
LINE
8
BLACK
6
CONTINUOUS
10
123.04
20
-133.042
11
123.612
21
-133.042
0
LINE
8
BLACK
6
CONTINUOUS
10
123.612
20
-133.042
11
123.897
21
-133.185
0
LINE
8
BLACK
6
CONTINUOUS
10
123.897
20
-133.185
11
124.04
21
-133.328
0
LINE
8
BLACK
6
CONTINUOUS
10
124.04
20
-133.328
11
124.183
21
-133.614
0
LINE
8
BLACK
6
CONTINUOUS
10
124.183
20
-133.614
11
124.183
21
-134.471
0
LINE
8
BLACK
6
CONTINUOUS
10
124.183
20
-134.471
11
124.04
21
-134.756
0
LINE
8
BLACK
6
CONTINUOUS
10
124.04
20
-134.756
11
123.897
21
-134.899
0
LINE
8
BLACK
6
CONTINUOUS
10
123.897
20
-134.899
11
123.612
21
-135.042
0
LINE
8
BLACK
6
CONTINUOUS
10
123.612
20
-135.042
11
123.04
21
-135.042
0
LINE
8
BLACK
6
CONTINUOUS
10
123.04
20
-135.042
11
122.754
21
-134.899
0
LINE
8
BLACK
6
CONTINUOUS
10
125.469
20
-134.756
11
125.612
21
-134.899
0
LINE
8
BLACK
6
CONTINUOUS
10
125.612
20
-134.899
11
125.469
21
-135.042
0
LINE
8
BLACK
6
CONTINUOUS
10
125.469
20
-135.042
11
125.326
21
-134.899
0
LINE
8
BLACK
6
CONTINUOUS
10
125.326
20
-134.899
11
125.469
21
-134.756
0
LINE
8
BLACK
6
CONTINUOUS
10
125.469
20
-134.756
11
125.469
21
-135.042
0
LINE
8
BLACK
6
CONTINUOUS
10
125.469
20
-133.185
11
125.612
21
-133.328
0
LINE
8
BLACK
6
CONTINUOUS
10
125.612
20
-133.328
11
125.469
21
-133.471
0
LINE
8
BLACK
6
CONTINUOUS
10
125.469
20
-133.471
11
125.326
21
-133.328
0
LINE
8
BLACK
6
CONTINUOUS
10
125.326
20
-133.328
11
125.469
21
-133.185
0
LINE
8
BLACK
6
CONTINUOUS
10
125.469
20
-133.185
11
125.469
21
-133.471
0
LINE
8
BLACK
6
CONTINUOUS
10
101.633
20
-139.785
11
102.033
21
-140.185
0
LINE
8
BLACK
6
CONTINUOUS
10
102.033
20
-139.785
11
101.633
21
-140.185
0
LINE
8
BLACK
6
CONTINUOUS
10
105.469
20
-138.342
11
105.754
21
-138.342
0
LINE
8
BLACK
6
CONTINUOUS
10
105.754
20
-138.342
11
106.04
21
-138.485
0
LINE
8
BLACK
6
CONTINUOUS
10
106.04
20
-138.485
11
106.183
21
-138.628
0
LINE
8
BLACK
6
CONTINUOUS
10
106.183
20
-138.628
11
106.326
21
-138.914
0
LINE
8
BLACK
6
CONTINUOUS
10
106.326
20
-138.914
11
106.469
21
-139.485
0
LINE
8
BLACK
6
CONTINUOUS
10
106.469
20
-139.485
11
106.469
21
-140.199
0
LINE
8
BLACK
6
CONTINUOUS
10
106.469
20
-140.199
11
106.326
21
-140.771
0
LINE
8
BLACK
6
CONTINUOUS
10
106.326
20
-140.771
11
106.183
21
-141.056
0
LINE
8
BLACK
6
CONTINUOUS
10
106.183
20
-141.056
11
106.04
21
-141.199
0
LINE
8
BLACK
6
CONTINUOUS
10
106.04
20
-141.199
11
105.754
21
-141.342
0
LINE
8
BLACK
6
CONTINUOUS
10
105.754
20
-141.342
11
105.469
21
-141.342
0
LINE
8
BLACK
6
CONTINUOUS
10
105.469
20
-141.342
11
105.183
21
-141.199
0
LINE
8
BLACK
6
CONTINUOUS
10
105.183
20
-141.199
11
105.04
21
-141.056
0
LINE
8
BLACK
6
CONTINUOUS
10
105.04
20
-141.056
11
104.897
21
-140.771
0
LINE
8
BLACK
6
CONTINUOUS
10
104.897
20
-140.771
11
104.754
21
-140.199
0
LINE
8
BLACK
6
CONTINUOUS
10
104.754
20
-140.199
11
104.754
21
-139.485
0
LINE
8
BLACK
6
CONTINUOUS
10
104.754
20
-139.485
11
104.897
21
-138.914
0
LINE
8
BLACK
6
CONTINUOUS
10
104.897
20
-138.914
11
105.04
21
-138.628
0
LINE
8
BLACK
6
CONTINUOUS
10
105.04
20
-138.628
11
105.183
21
-138.485
0
LINE
8
BLACK
6
CONTINUOUS
10
105.183
20
-138.485
11
105.469
21
-138.342
0
LINE
8
BLACK
6
CONTINUOUS
10
107.754
20
-141.056
11
107.897
21
-141.199
0
LINE
8
BLACK
6
CONTINUOUS
10
107.897
20
-141.199
11
107.754
21
-141.342
0
LINE
8
BLACK
6
CONTINUOUS
10
107.754
20
-141.342
11
107.612
21
-141.199
0
LINE
8
BLACK
6
CONTINUOUS
10
107.612
20
-141.199
11
107.754
21
-141.056
0
LINE
8
BLACK
6
CONTINUOUS
10
107.754
20
-141.056
11
107.754
21
-141.342
0
LINE
8
BLACK
6
CONTINUOUS
10
110.469
20
-139.342
11
110.469
21
-141.342
0
LINE
8
BLACK
6
CONTINUOUS
10
109.754
20
-138.199
11
109.04
21
-140.342
0
LINE
8
BLACK
6
CONTINUOUS
10
109.04
20
-140.342
11
110.897
21
-140.342
0
LINE
8
BLACK
6
CONTINUOUS
10
112.612
20
-138.342
11
112.897
21
-138.342
0
LINE
8
BLACK
6
CONTINUOUS
10
112.897
20
-138.342
11
113.183
21
-138.485
0
LINE
8
BLACK
6
CONTINUOUS
10
113.183
20
-138.485
11
113.326
21
-138.628
0
LINE
8
BLACK
6
CONTINUOUS
10
113.326
20
-138.628
11
113.469
21
-138.914
0
LINE
8
BLACK
6
CONTINUOUS
10
113.469
20
-138.914
11
113.612
21
-139.485
0
LINE
8
BLACK
6
CONTINUOUS
10
113.612
20
-139.485
11
113.612
21
-140.199
0
LINE
8
BLACK
6
CONTINUOUS
10
113.612
20
-140.199
11
113.469
21
-140.771
0
LINE
8
BLACK
6
CONTINUOUS
10
113.469
20
-140.771
11
113.326
21
-141.056
0
LINE
8
BLACK
6
CONTINUOUS
10
113.326
20
-141.056
11
113.183
21
-141.199
0
LINE
8
BLACK
6
CONTINUOUS
10
113.183
20
-141.199
11
112.897
21
-141.342
0
LINE
8
BLACK
6
CONTINUOUS
10
112.897
20
-141.342
11
112.612
21
-141.342
0
LINE
8
BLACK
6
CONTINUOUS
10
112.612
20
-141.342
11
112.326
21
-141.199
0
LINE
8
BLACK
6
CONTINUOUS
10
112.326
20
-141.199
11
112.183
21
-141.056
0
LINE
8
BLACK
6
CONTINUOUS
10
112.183
20
-141.056
11
112.04
21
-140.771
0
LINE
8
BLACK
6
CONTINUOUS
10
112.04
20
-140.771
11
111.897
21
-140.199
0
LINE
8
BLACK
6
CONTINUOUS
10
111.897
20
-140.199
11
111.897
21
-139.485
0
LINE
8
BLACK
6
CONTINUOUS
10
111.897
20
-139.485
11
112.04
21
-138.914
0
LINE
8
BLACK
6
CONTINUOUS
10
112.04
20
-138.914
11
112.183
21
-138.628
0
LINE
8
BLACK
6
CONTINUOUS
10
112.183
20
-138.628
11
112.326
21
-138.485
0
LINE
8
BLACK
6
CONTINUOUS
10
112.326
20
-138.485
11
112.612
21
-138.342
0
LINE
8
BLACK
6
CONTINUOUS
10
114.897
20
-141.342
11
114.897
21
-139.342
0
LINE
8
BLACK
6
CONTINUOUS
10
114.897
20
-139.628
11
115.04
21
-139.485
0
LINE
8
BLACK
6
CONTINUOUS
10
115.04
20
-139.485
11
115.326
21
-139.342
0
LINE
8
BLACK
6
CONTINUOUS
10
115.326
20
-139.342
11
115.754
21
-139.342
0
LINE
8
BLACK
6
CONTINUOUS
10
115.754
20
-139.342
11
116.04
21
-139.485
0
LINE
8
BLACK
6
CONTINUOUS
10
116.04
20
-139.485
11
116.183
21
-139.771
0
LINE
8
BLACK
6
CONTINUOUS
10
116.183
20
-139.771
11
116.183
21
-141.342
0
LINE
8
BLACK
6
CONTINUOUS
10
116.183
20
-139.771
11
116.326
21
-139.485
0
LINE
8
BLACK
6
CONTINUOUS
10
116.326
20
-139.485
11
116.612
21
-139.342
0
LINE
8
BLACK
6
CONTINUOUS
10
116.612
20
-139.342
11
117.04
21
-139.342
0
LINE
8
BLACK
6
CONTINUOUS
10
117.04
20
-139.342
11
117.326
21
-139.485
0
LINE
8
BLACK
6
CONTINUOUS
10
117.326
20
-139.485
11
117.469
21
-139.771
0
LINE
8
BLACK
6
CONTINUOUS
10
117.469
20
-139.771
11
117.469
21
-141.342
0
LINE
8
BLACK
6
CONTINUOUS
10
118.897
20
-141.342
11
118.897
21
-139.342
0
LINE
8
BLACK
6
CONTINUOUS
10
118.897
20
-139.628
11
119.04
21
-139.485
0
LINE
8
BLACK
6
CONTINUOUS
10
119.04
20
-139.485
11
119.326
21
-139.342
0
LINE
8
BLACK
6
CONTINUOUS
10
119.326
20
-139.342
11
119.754
21
-139.342
0
LINE
8
BLACK
6
CONTINUOUS
10
119.754
20
-139.342
11
120.04
21
-139.485
0
LINE
8
BLACK
6
CONTINUOUS
10
120.04
20
-139.485
11
120.183
21
-139.771
0
LINE
8
BLACK
6
CONTINUOUS
10
120.183
20
-139.771
11
120.183
21
-141.342
0
LINE
8
BLACK
6
CONTINUOUS
10
120.183
20
-139.771
11
120.326
21
-139.485
0
LINE
8
BLACK
6
CONTINUOUS
10
120.326
20
-139.485
11
120.612
21
-139.342
0
LINE
8
BLACK
6
CONTINUOUS
10
120.612
20
-139.342
11
121.04
21
-139.342
0
LINE
8
BLACK
6
CONTINUOUS
10
121.04
20
-139.342
11
121.326
21
-139.485
0
LINE
8
BLACK
6
CONTINUOUS
10
121.326
20
-139.485
11
121.469
21
-139.771
0
LINE
8
BLACK
6
CONTINUOUS
10
121.469
20
-139.771
11
121.469
21
-141.342
0
LINE
8
BLACK
6
CONTINUOUS
10
127.326
20
-138.199
11
124.754
21
-142.056
0
LINE
8
BLACK
6
CONTINUOUS
10
131.183
20
-138.342
11
131.469
21
-138.342
0
LINE
8
BLACK
6
CONTINUOUS
10
131.469
20
-138.342
11
131.754
21
-138.485
0
LINE
8
BLACK
6
CONTINUOUS
10
131.754
20
-138.485
11
131.897
21
-138.628
0
LINE
8
BLACK
6
CONTINUOUS
10
131.897
20
-138.628
11
132.04
21
-138.914
0
LINE
8
BLACK
6
CONTINUOUS
10
132.04
20
-138.914
11
132.183
21
-139.485
0
LINE
8
BLACK
6
CONTINUOUS
10
132.183
20
-139.485
11
132.183
21
-140.199
0
LINE
8
BLACK
6
CONTINUOUS
10
132.183
20
-140.199
11
132.04
21
-140.771
0
LINE
8
BLACK
6
CONTINUOUS
10
132.04
20
-140.771
11
131.897
21
-141.056
0
LINE
8
BLACK
6
CONTINUOUS
10
131.897
20
-141.056
11
131.754
21
-141.199
0
LINE
8
BLACK
6
CONTINUOUS
10
131.754
20
-141.199
11
131.469
21
-141.342
0
LINE
8
BLACK
6
CONTINUOUS
10
131.469
20
-141.342
11
131.183
21
-141.342
0
LINE
8
BLACK
6
CONTINUOUS
10
131.183
20
-141.342
11
130.897
21
-141.199
0
LINE
8
BLACK
6
CONTINUOUS
10
130.897
20
-141.199
11
130.754
21
-141.056
0
LINE
8
BLACK
6
CONTINUOUS
10
130.754
20
-141.056
11
130.612
21
-140.771
0
LINE
8
BLACK
6
CONTINUOUS
10
130.612
20
-140.771
11
130.469
21
-140.199
0
LINE
8
BLACK
6
CONTINUOUS
10
130.469
20
-140.199
11
130.469
21
-139.485
0
LINE
8
BLACK
6
CONTINUOUS
10
130.469
20
-139.485
11
130.612
21
-138.914
0
LINE
8
BLACK
6
CONTINUOUS
10
130.612
20
-138.914
11
130.754
21
-138.628
0
LINE
8
BLACK
6
CONTINUOUS
10
130.754
20
-138.628
11
130.897
21
-138.485
0
LINE
8
BLACK
6
CONTINUOUS
10
130.897
20
-138.485
11
131.183
21
-138.342
0
LINE
8
BLACK
6
CONTINUOUS
10
133.469
20
-141.056
11
133.612
21
-141.199
0
LINE
8
BLACK
6
CONTINUOUS
10
133.612
20
-141.199
11
133.469
21
-141.342
0
LINE
8
BLACK
6
CONTINUOUS
10
133.469
20
-141.342
11
133.326
21
-141.199
0
LINE
8
BLACK
6
CONTINUOUS
10
133.326
20
-141.199
11
133.469
21
-141.056
0
LINE
8
BLACK
6
CONTINUOUS
10
133.469
20
-141.056
11
133.469
21
-141.342
0
LINE
8
BLACK
6
CONTINUOUS
10
135.469
20
-138.342
11
135.754
21
-138.342
0
LINE
8
BLACK
6
CONTINUOUS
10
135.754
20
-138.342
11
136.04
21
-138.485
0
LINE
8
BLACK
6
CONTINUOUS
10
136.04
20
-138.485
11
136.183
21
-138.628
0
LINE
8
BLACK
6
CONTINUOUS
10
136.183
20
-138.628
11
136.326
21
-138.914
0
LINE
8
BLACK
6
CONTINUOUS
10
136.326
20
-138.914
11
136.469
21
-139.485
0
LINE
8
BLACK
6
CONTINUOUS
10
136.469
20
-139.485
11
136.469
21
-140.199
0
LINE
8
BLACK
6
CONTINUOUS
10
136.469
20
-140.199
11
136.326
21
-140.771
0
LINE
8
BLACK
6
CONTINUOUS
10
136.326
20
-140.771
11
136.183
21
-141.056
0
LINE
8
BLACK
6
CONTINUOUS
10
136.183
20
-141.056
11
136.04
21
-141.199
0
LINE
8
BLACK
6
CONTINUOUS
10
136.04
20
-141.199
11
135.754
21
-141.342
0
LINE
8
BLACK
6
CONTINUOUS
10
135.754
20
-141.342
11
135.469
21
-141.342
0
LINE
8
BLACK
6
CONTINUOUS
10
135.469
20
-141.342
11
135.183
21
-141.199
0
LINE
8
BLACK
6
CONTINUOUS
10
135.183
20
-141.199
11
135.04
21
-141.056
0
LINE
8
BLACK
6
CONTINUOUS
10
135.04
20
-141.056
11
134.897
21
-140.771
0
LINE
8
BLACK
6
CONTINUOUS
10
134.897
20
-140.771
11
134.754
21
-140.199
0
LINE
8
BLACK
6
CONTINUOUS
10
134.754
20
-140.199
11
134.754
21
-139.485
0
LINE
8
BLACK
6
CONTINUOUS
10
134.754
20
-139.485
11
134.897
21
-138.914
0
LINE
8
BLACK
6
CONTINUOUS
10
134.897
20
-138.914
11
135.04
21
-138.628
0
LINE
8
BLACK
6
CONTINUOUS
10
135.04
20
-138.628
11
135.183
21
-138.485
0
LINE
8
BLACK
6
CONTINUOUS
10
135.183
20
-138.485
11
135.469
21
-138.342
0
LINE
8
BLACK
6
CONTINUOUS
10
139.326
20
-141.342
11
137.612
21
-141.342
0
LINE
8
BLACK
6
CONTINUOUS
10
138.469
20
-141.342
11
138.469
21
-138.342
0
LINE
8
BLACK
6
CONTINUOUS
10
138.469
20
-138.342
11
138.183
21
-138.771
0
LINE
8
BLACK
6
CONTINUOUS
10
138.183
20
-138.771
11
137.897
21
-139.056
0
LINE
8
BLACK
6
CONTINUOUS
10
137.897
20
-139.056
11
137.612
21
-139.199
0
LINE
8
BLACK
6
CONTINUOUS
10
141.897
20
-138.342
11
141.326
21
-138.342
0
LINE
8
BLACK
6
CONTINUOUS
10
141.326
20
-138.342
11
141.04
21
-138.485
0
LINE
8
BLACK
6
CONTINUOUS
10
141.04
20
-138.485
11
140.897
21
-138.628
0
LINE
8
BLACK
6
CONTINUOUS
10
140.897
20
-138.628
11
140.612
21
-139.056
0
LINE
8
BLACK
6
CONTINUOUS
10
140.612
20
-139.056
11
140.469
21
-139.628
0
LINE
8
BLACK
6
CONTINUOUS
10
140.469
20
-139.628
11
140.469
21
-140.771
0
LINE
8
BLACK
6
CONTINUOUS
10
140.469
20
-140.771
11
140.612
21
-141.056
0
LINE
8
BLACK
6
CONTINUOUS
10
140.612
20
-141.056
11
140.754
21
-141.199
0
LINE
8
BLACK
6
CONTINUOUS
10
140.754
20
-141.199
11
141.04
21
-141.342
0
LINE
8
BLACK
6
CONTINUOUS
10
141.04
20
-141.342
11
141.612
21
-141.342
0
LINE
8
BLACK
6
CONTINUOUS
10
141.612
20
-141.342
11
141.897
21
-141.199
0
LINE
8
BLACK
6
CONTINUOUS
10
141.897
20
-141.199
11
142.04
21
-141.056
0
LINE
8
BLACK
6
CONTINUOUS
10
142.04
20
-141.056
11
142.183
21
-140.771
0
LINE
8
BLACK
6
CONTINUOUS
10
142.183
20
-140.771
11
142.183
21
-140.056
0
LINE
8
BLACK
6
CONTINUOUS
10
142.183
20
-140.056
11
142.04
21
-139.771
0
LINE
8
BLACK
6
CONTINUOUS
10
142.04
20
-139.771
11
141.897
21
-139.628
0
LINE
8
BLACK
6
CONTINUOUS
10
141.897
20
-139.628
11
141.612
21
-139.485
0
LINE
8
BLACK
6
CONTINUOUS
10
141.612
20
-139.485
11
141.04
21
-139.485
0
LINE
8
BLACK
6
CONTINUOUS
10
141.04
20
-139.485
11
140.754
21
-139.628
0
LINE
8
BLACK
6
CONTINUOUS
10
140.754
20
-139.628
11
140.612
21
-139.771
0
LINE
8
BLACK
6
CONTINUOUS
10
140.612
20
-139.771
11
140.469
21
-140.056
0
LINE
8
BLACK
6
CONTINUOUS
10
143.326
20
-138.342
11
143.326
21
-138.914
0
LINE
8
BLACK
6
CONTINUOUS
10
144.469
20
-138.342
11
144.469
21
-138.914
0
LINE
8
BLACK
6
CONTINUOUS
10
148.897
20
-142.485
11
148.754
21
-142.342
0
LINE
8
BLACK
6
CONTINUOUS
10
148.754
20
-142.342
11
148.469
21
-141.914
0
LINE
8
BLACK
6
CONTINUOUS
10
148.469
20
-141.914
11
148.326
21
-141.628
0
LINE
8
BLACK
6
CONTINUOUS
10
148.326
20
-141.628
11
148.183
21
-141.199
0
LINE
8
BLACK
6
CONTINUOUS
10
148.183
20
-141.199
11
148.04
21
-140.485
0
LINE
8
BLACK
6
CONTINUOUS
10
148.04
20
-140.485
11
148.04
21
-139.914
0
LINE
8
BLACK
6
CONTINUOUS
10
148.04
20
-139.914
11
148.183
21
-139.199
0
LINE
8
BLACK
6
CONTINUOUS
10
148.183
20
-139.199
11
148.326
21
-138.771
0
LINE
8
BLACK
6
CONTINUOUS
10
148.326
20
-138.771
11
148.469
21
-138.485
0
LINE
8
BLACK
6
CONTINUOUS
10
148.469
20
-138.485
11
148.754
21
-138.056
0
LINE
8
BLACK
6
CONTINUOUS
10
148.754
20
-138.056
11
148.897
21
-137.914
0
LINE
8
BLACK
6
CONTINUOUS
10
151.469
20
-138.342
11
150.04
21
-138.342
0
LINE
8
BLACK
6
CONTINUOUS
10
150.04
20
-138.342
11
149.897
21
-139.771
0
LINE
8
BLACK
6
CONTINUOUS
10
149.897
20
-139.771
11
150.04
21
-139.628
0
LINE
8
BLACK
6
CONTINUOUS
10
150.04
20
-139.628
11
150.326
21
-139.485
0
LINE
8
BLACK
6
CONTINUOUS
10
150.326
20
-139.485
11
151.04
21
-139.485
0
LINE
8
BLACK
6
CONTINUOUS
10
151.04
20
-139.485
11
151.326
21
-139.628
0
LINE
8
BLACK
6
CONTINUOUS
10
151.326
20
-139.628
11
151.469
21
-139.771
0
LINE
8
BLACK
6
CONTINUOUS
10
151.469
20
-139.771
11
151.612
21
-140.056
0
LINE
8
BLACK
6
CONTINUOUS
10
151.612
20
-140.056
11
151.612
21
-140.771
0
LINE
8
BLACK
6
CONTINUOUS
10
151.612
20
-140.771
11
151.469
21
-141.056
0
LINE
8
BLACK
6
CONTINUOUS
10
151.469
20
-141.056
11
151.326
21
-141.199
0
LINE
8
BLACK
6
CONTINUOUS
10
151.326
20
-141.199
11
151.04
21
-141.342
0
LINE
8
BLACK
6
CONTINUOUS
10
151.04
20
-141.342
11
150.326
21
-141.342
0
LINE
8
BLACK
6
CONTINUOUS
10
150.326
20
-141.342
11
150.04
21
-141.199
0
LINE
8
BLACK
6
CONTINUOUS
10
150.04
20
-141.199
11
149.897
21
-141.056
0
LINE
8
BLACK
6
CONTINUOUS
10
155.183
20
-141.342
11
155.183
21
-138.342
0
LINE
8
BLACK
6
CONTINUOUS
10
156.469
20
-141.342
11
156.469
21
-139.771
0
LINE
8
BLACK
6
CONTINUOUS
10
156.469
20
-139.771
11
156.326
21
-139.485
0
LINE
8
BLACK
6
CONTINUOUS
10
156.326
20
-139.485
11
156.04
21
-139.342
0
LINE
8
BLACK
6
CONTINUOUS
10
156.04
20
-139.342
11
155.612
21
-139.342
0
LINE
8
BLACK
6
CONTINUOUS
10
155.612
20
-139.342
11
155.326
21
-139.485
0
LINE
8
BLACK
6
CONTINUOUS
10
155.326
20
-139.485
11
155.183
21
-139.628
0
LINE
8
BLACK
6
CONTINUOUS
10
158.326
20
-141.342
11
158.04
21
-141.199
0
LINE
8
BLACK
6
CONTINUOUS
10
158.04
20
-141.199
11
157.897
21
-141.056
0
LINE
8
BLACK
6
CONTINUOUS
10
157.897
20
-141.056
11
157.754
21
-140.771
0
LINE
8
BLACK
6
CONTINUOUS
10
157.754
20
-140.771
11
157.754
21
-139.914
0
LINE
8
BLACK
6
CONTINUOUS
10
157.754
20
-139.914
11
157.897
21
-139.628
0
LINE
8
BLACK
6
CONTINUOUS
10
157.897
20
-139.628
11
158.04
21
-139.485
0
LINE
8
BLACK
6
CONTINUOUS
10
158.04
20
-139.485
11
158.326
21
-139.342
0
LINE
8
BLACK
6
CONTINUOUS
10
158.326
20
-139.342
11
158.754
21
-139.342
0
LINE
8
BLACK
6
CONTINUOUS
10
158.754
20
-139.342
11
159.04
21
-139.485
0
LINE
8
BLACK
6
CONTINUOUS
10
159.04
20
-139.485
11
159.183
21
-139.628
0
LINE
8
BLACK
6
CONTINUOUS
10
159.183
20
-139.628
11
159.326
21
-139.914
0
LINE
8
BLACK
6
CONTINUOUS
10
159.326
20
-139.914
11
159.326
21
-140.771
0
LINE
8
BLACK
6
CONTINUOUS
10
159.326
20
-140.771
11
159.183
21
-141.056
0
LINE
8
BLACK
6
CONTINUOUS
10
159.183
20
-141.056
11
159.04
21
-141.199
0
LINE
8
BLACK
6
CONTINUOUS
10
159.04
20
-141.199
11
158.754
21
-141.342
0
LINE
8
BLACK
6
CONTINUOUS
10
158.754
20
-141.342
11
158.326
21
-141.342
0
LINE
8
BLACK
6
CONTINUOUS
10
161.04
20
-141.342
11
160.754
21
-141.199
0
LINE
8
BLACK
6
CONTINUOUS
10
160.754
20
-141.199
11
160.612
21
-140.914
0
LINE
8
BLACK
6
CONTINUOUS
10
160.612
20
-140.914
11
160.612
21
-138.342
0
LINE
8
BLACK
6
CONTINUOUS
10
163.326
20
-141.199
11
163.04
21
-141.342
0
LINE
8
BLACK
6
CONTINUOUS
10
163.04
20
-141.342
11
162.469
21
-141.342
0
LINE
8
BLACK
6
CONTINUOUS
10
162.469
20
-141.342
11
162.183
21
-141.199
0
LINE
8
BLACK
6
CONTINUOUS
10
162.183
20
-141.199
11
162.04
21
-140.914
0
LINE
8
BLACK
6
CONTINUOUS
10
162.04
20
-140.914
11
162.04
21
-139.771
0
LINE
8
BLACK
6
CONTINUOUS
10
162.04
20
-139.771
11
162.183
21
-139.485
0
LINE
8
BLACK
6
CONTINUOUS
10
162.183
20
-139.485
11
162.469
21
-139.342
0
LINE
8
BLACK
6
CONTINUOUS
10
162.469
20
-139.342
11
163.04
21
-139.342
0
LINE
8
BLACK
6
CONTINUOUS
10
163.04
20
-139.342
11
163.326
21
-139.485
0
LINE
8
BLACK
6
CONTINUOUS
10
163.326
20
-139.485
11
163.469
21
-139.771
0
LINE
8
BLACK
6
CONTINUOUS
10
163.469
20
-139.771
11
163.469
21
-140.056
0
LINE
8
BLACK
6
CONTINUOUS
10
163.469
20
-140.056
11
162.04
21
-140.342
0
LINE
8
BLACK
6
CONTINUOUS
10
164.612
20
-141.199
11
164.897
21
-141.342
0
LINE
8
BLACK
6
CONTINUOUS
10
164.897
20
-141.342
11
165.469
21
-141.342
0
LINE
8
BLACK
6
CONTINUOUS
10
165.469
20
-141.342
11
165.754
21
-141.199
0
LINE
8
BLACK
6
CONTINUOUS
10
165.754
20
-141.199
11
165.897
21
-140.914
0
LINE
8
BLACK
6
CONTINUOUS
10
165.897
20
-140.914
11
165.897
21
-140.771
0
LINE
8
BLACK
6
CONTINUOUS
10
165.897
20
-140.771
11
165.754
21
-140.485
0
LINE
8
BLACK
6
CONTINUOUS
10
165.754
20
-140.485
11
165.469
21
-140.342
0
LINE
8
BLACK
6
CONTINUOUS
10
165.469
20
-140.342
11
165.04
21
-140.342
0
LINE
8
BLACK
6
CONTINUOUS
10
165.04
20
-140.342
11
164.754
21
-140.199
0
LINE
8
BLACK
6
CONTINUOUS
10
164.754
20
-140.199
11
164.612
21
-139.914
0
LINE
8
BLACK
6
CONTINUOUS
10
164.612
20
-139.914
11
164.612
21
-139.771
0
LINE
8
BLACK
6
CONTINUOUS
10
164.612
20
-139.771
11
164.754
21
-139.485
0
LINE
8
BLACK
6
CONTINUOUS
10
164.754
20
-139.485
11
165.04
21
-139.342
0
LINE
8
BLACK
6
CONTINUOUS
10
165.04
20
-139.342
11
165.469
21
-139.342
0
LINE
8
BLACK
6
CONTINUOUS
10
165.469
20
-139.342
11
165.754
21
-139.485
0
LINE
8
BLACK
6
CONTINUOUS
10
166.897
20
-142.485
11
167.04
21
-142.342
0
LINE
8
BLACK
6
CONTINUOUS
10
167.04
20
-142.342
11
167.326
21
-141.914
0
LINE
8
BLACK
6
CONTINUOUS
10
167.326
20
-141.914
11
167.469
21
-141.628
0
LINE
8
BLACK
6
CONTINUOUS
10
167.469
20
-141.628
11
167.612
21
-141.199
0
LINE
8
BLACK
6
CONTINUOUS
10
167.612
20
-141.199
11
167.754
21
-140.485
0
LINE
8
BLACK
6
CONTINUOUS
10
167.754
20
-140.485
11
167.754
21
-139.914
0
LINE
8
BLACK
6
CONTINUOUS
10
167.754
20
-139.914
11
167.612
21
-139.199
0
LINE
8
BLACK
6
CONTINUOUS
10
167.612
20
-139.199
11
167.469
21
-138.771
0
LINE
8
BLACK
6
CONTINUOUS
10
167.469
20
-138.771
11
167.326
21
-138.485
0
LINE
8
BLACK
6
CONTINUOUS
10
167.326
20
-138.485
11
167.04
21
-138.056
0
LINE
8
BLACK
6
CONTINUOUS
10
167.04
20
-138.056
11
166.897
21
-137.914
0
CIRCLE
8
BLACK
10
101.783
20
-143.945
40
0.25
0
LINE
8
BLACK
6
CONTINUOUS
10
105.469
20
-142.302
11
105.754
21
-142.302
0
LINE
8
BLACK
6
CONTINUOUS
10
105.754
20
-142.302
11
106.04
21
-142.445
0
LINE
8
BLACK
6
CONTINUOUS
10
106.04
20
-142.445
11
106.183
21
-142.588
0
LINE
8
BLACK
6
CONTINUOUS
10
106.183
20
-142.588
11
106.326
21
-142.874
0
LINE
8
BLACK
6
CONTINUOUS
10
106.326
20
-142.874
11
106.469
21
-143.445
0
LINE
8
BLACK
6
CONTINUOUS
10
106.469
20
-143.445
11
106.469
21
-144.159
0
LINE
8
BLACK
6
CONTINUOUS
10
106.469
20
-144.159
11
106.326
21
-144.731
0
LINE
8
BLACK
6
CONTINUOUS
10
106.326
20
-144.731
11
106.183
21
-145.016
0
LINE
8
BLACK
6
CONTINUOUS
10
106.183
20
-145.016
11
106.04
21
-145.159
0
LINE
8
BLACK
6
CONTINUOUS
10
106.04
20
-145.159
11
105.754
21
-145.302
0
LINE
8
BLACK
6
CONTINUOUS
10
105.754
20
-145.302
11
105.469
21
-145.302
0
LINE
8
BLACK
6
CONTINUOUS
10
105.469
20
-145.302
11
105.183
21
-145.159
0
LINE
8
BLACK
6
CONTINUOUS
10
105.183
20
-145.159
11
105.04
21
-145.016
0
LINE
8
BLACK
6
CONTINUOUS
10
105.04
20
-145.016
11
104.897
21
-144.731
0
LINE
8
BLACK
6
CONTINUOUS
10
104.897
20
-144.731
11
104.754
21
-144.159
0
LINE
8
BLACK
6
CONTINUOUS
10
104.754
20
-144.159
11
104.754
21
-143.445
0
LINE
8
BLACK
6
CONTINUOUS
10
104.754
20
-143.445
11
104.897
21
-142.874
0
LINE
8
BLACK
6
CONTINUOUS
10
104.897
20
-142.874
11
105.04
21
-142.588
0
LINE
8
BLACK
6
CONTINUOUS
10
105.04
20
-142.588
11
105.183
21
-142.445
0
LINE
8
BLACK
6
CONTINUOUS
10
105.183
20
-142.445
11
105.469
21
-142.302
0
LINE
8
BLACK
6
CONTINUOUS
10
107.754
20
-145.016
11
107.897
21
-145.159
0
LINE
8
BLACK
6
CONTINUOUS
10
107.897
20
-145.159
11
107.754
21
-145.302
0
LINE
8
BLACK
6
CONTINUOUS
10
107.754
20
-145.302
11
107.612
21
-145.159
0
LINE
8
BLACK
6
CONTINUOUS
10
107.612
20
-145.159
11
107.754
21
-145.016
0
LINE
8
BLACK
6
CONTINUOUS
10
107.754
20
-145.016
11
107.754
21
-145.302
0
LINE
8
BLACK
6
CONTINUOUS
10
110.612
20
-142.302
11
109.183
21
-142.302
0
LINE
8
BLACK
6
CONTINUOUS
10
109.183
20
-142.302
11
109.04
21
-143.731
0
LINE
8
BLACK
6
CONTINUOUS
10
109.04
20
-143.731
11
109.183
21
-143.588
0
LINE
8
BLACK
6
CONTINUOUS
10
109.183
20
-143.588
11
109.469
21
-143.445
0
LINE
8
BLACK
6
CONTINUOUS
10
109.469
20
-143.445
11
110.183
21
-143.445
0
LINE
8
BLACK
6
CONTINUOUS
10
110.183
20
-143.445
11
110.469
21
-143.588
0
LINE
8
BLACK
6
CONTINUOUS
10
110.469
20
-143.588
11
110.612
21
-143.731
0
LINE
8
BLACK
6
CONTINUOUS
10
110.612
20
-143.731
11
110.754
21
-144.016
0
LINE
8
BLACK
6
CONTINUOUS
10
110.754
20
-144.016
11
110.754
21
-144.731
0
LINE
8
BLACK
6
CONTINUOUS
10
110.754
20
-144.731
11
110.612
21
-145.016
0
LINE
8
BLACK
6
CONTINUOUS
10
110.612
20
-145.016
11
110.469
21
-145.159
0
LINE
8
BLACK
6
CONTINUOUS
10
110.469
20
-145.159
11
110.183
21
-145.302
0
LINE
8
BLACK
6
CONTINUOUS
10
110.183
20
-145.302
11
109.469
21
-145.302
0
LINE
8
BLACK
6
CONTINUOUS
10
109.469
20
-145.302
11
109.183
21
-145.159
0
LINE
8
BLACK
6
CONTINUOUS
10
109.183
20
-145.159
11
109.04
21
-145.016
0
LINE
8
BLACK
6
CONTINUOUS
10
112.612
20
-142.302
11
112.897
21
-142.302
0
LINE
8
BLACK
6
CONTINUOUS
10
112.897
20
-142.302
11
113.183
21
-142.445
0
LINE
8
BLACK
6
CONTINUOUS
10
113.183
20
-142.445
11
113.326
21
-142.588
0
LINE
8
BLACK
6
CONTINUOUS
10
113.326
20
-142.588
11
113.469
21
-142.874
0
LINE
8
BLACK
6
CONTINUOUS
10
113.469
20
-142.874
11
113.612
21
-143.445
0
LINE
8
BLACK
6
CONTINUOUS
10
113.612
20
-143.445
11
113.612
21
-144.159
0
LINE
8
BLACK
6
CONTINUOUS
10
113.612
20
-144.159
11
113.469
21
-144.731
0
LINE
8
BLACK
6
CONTINUOUS
10
113.469
20
-144.731
11
113.326
21
-145.016
0
LINE
8
BLACK
6
CONTINUOUS
10
113.326
20
-145.016
11
113.183
21
-145.159
0
LINE
8
BLACK
6
CONTINUOUS
10
113.183
20
-145.159
11
112.897
21
-145.302
0
LINE
8
BLACK
6
CONTINUOUS
10
112.897
20
-145.302
11
112.612
21
-145.302
0
LINE
8
BLACK
6
CONTINUOUS
10
112.612
20
-145.302
11
112.326
21
-145.159
0
LINE
8
BLACK
6
CONTINUOUS
10
112.326
20
-145.159
11
112.183
21
-145.016
0
LINE
8
BLACK
6
CONTINUOUS
10
112.183
20
-145.016
11
112.04
21
-144.731
0
LINE
8
BLACK
6
CONTINUOUS
10
112.04
20
-144.731
11
111.897
21
-144.159
0
LINE
8
BLACK
6
CONTINUOUS
10
111.897
20
-144.159
11
111.897
21
-143.445
0
LINE
8
BLACK
6
CONTINUOUS
10
111.897
20
-143.445
11
112.04
21
-142.874
0
LINE
8
BLACK
6
CONTINUOUS
10
112.04
20
-142.874
11
112.183
21
-142.588
0
LINE
8
BLACK
6
CONTINUOUS
10
112.183
20
-142.588
11
112.326
21
-142.445
0
LINE
8
BLACK
6
CONTINUOUS
10
112.326
20
-142.445
11
112.612
21
-142.302
0
LINE
8
BLACK
6
CONTINUOUS
10
114.897
20
-145.302
11
114.897
21
-143.302
0
LINE
8
BLACK
6
CONTINUOUS
10
114.897
20
-143.588
11
115.04
21
-143.445
0
LINE
8
BLACK
6
CONTINUOUS
10
115.04
20
-143.445
11
115.326
21
-143.302
0
LINE
8
BLACK
6
CONTINUOUS
10
115.326
20
-143.302
11
115.754
21
-143.302
0
LINE
8
BLACK
6
CONTINUOUS
10
115.754
20
-143.302
11
116.04
21
-143.445
0
LINE
8
BLACK
6
CONTINUOUS
10
116.04
20
-143.445
11
116.183
21
-143.731
0
LINE
8
BLACK
6
CONTINUOUS
10
116.183
20
-143.731
11
116.183
21
-145.302
0
LINE
8
BLACK
6
CONTINUOUS
10
116.183
20
-143.731
11
116.326
21
-143.445
0
LINE
8
BLACK
6
CONTINUOUS
10
116.326
20
-143.445
11
116.612
21
-143.302
0
LINE
8
BLACK
6
CONTINUOUS
10
116.612
20
-143.302
11
117.04
21
-143.302
0
LINE
8
BLACK
6
CONTINUOUS
10
117.04
20
-143.302
11
117.326
21
-143.445
0
LINE
8
BLACK
6
CONTINUOUS
10
117.326
20
-143.445
11
117.469
21
-143.731
0
LINE
8
BLACK
6
CONTINUOUS
10
117.469
20
-143.731
11
117.469
21
-145.302
0
LINE
8
BLACK
6
CONTINUOUS
10
118.897
20
-145.302
11
118.897
21
-143.302
0
LINE
8
BLACK
6
CONTINUOUS
10
118.897
20
-143.588
11
119.04
21
-143.445
0
LINE
8
BLACK
6
CONTINUOUS
10
119.04
20
-143.445
11
119.326
21
-143.302
0
LINE
8
BLACK
6
CONTINUOUS
10
119.326
20
-143.302
11
119.754
21
-143.302
0
LINE
8
BLACK
6
CONTINUOUS
10
119.754
20
-143.302
11
120.04
21
-143.445
0
LINE
8
BLACK
6
CONTINUOUS
10
120.04
20
-143.445
11
120.183
21
-143.731
0
LINE
8
BLACK
6
CONTINUOUS
10
120.183
20
-143.731
11
120.183
21
-145.302
0
LINE
8
BLACK
6
CONTINUOUS
10
120.183
20
-143.731
11
120.326
21
-143.445
0
LINE
8
BLACK
6
CONTINUOUS
10
120.326
20
-143.445
11
120.612
21
-143.302
0
LINE
8
BLACK
6
CONTINUOUS
10
120.612
20
-143.302
11
121.04
21
-143.302
0
LINE
8
BLACK
6
CONTINUOUS
10
121.04
20
-143.302
11
121.326
21
-143.445
0
LINE
8
BLACK
6
CONTINUOUS
10
121.326
20
-143.445
11
121.469
21
-143.731
0
LINE
8
BLACK
6
CONTINUOUS
10
121.469
20
-143.731
11
121.469
21
-145.302
0
LINE
8
BLACK
6
CONTINUOUS
10
127.326
20
-142.159
11
124.754
21
-146.016
0
LINE
8
BLACK
6
CONTINUOUS
10
131.183
20
-142.302
11
131.469
21
-142.302
0
LINE
8
BLACK
6
CONTINUOUS
10
131.469
20
-142.302
11
131.754
21
-142.445
0
LINE
8
BLACK
6
CONTINUOUS
10
131.754
20
-142.445
11
131.897
21
-142.588
0
LINE
8
BLACK
6
CONTINUOUS
10
131.897
20
-142.588
11
132.04
21
-142.874
0
LINE
8
BLACK
6
CONTINUOUS
10
132.04
20
-142.874
11
132.183
21
-143.445
0
LINE
8
BLACK
6
CONTINUOUS
10
132.183
20
-143.445
11
132.183
21
-144.159
0
LINE
8
BLACK
6
CONTINUOUS
10
132.183
20
-144.159
11
132.04
21
-144.731
0
LINE
8
BLACK
6
CONTINUOUS
10
132.04
20
-144.731
11
131.897
21
-145.016
0
LINE
8
BLACK
6
CONTINUOUS
10
131.897
20
-145.016
11
131.754
21
-145.159
0
LINE
8
BLACK
6
CONTINUOUS
10
131.754
20
-145.159
11
131.469
21
-145.302
0
LINE
8
BLACK
6
CONTINUOUS
10
131.469
20
-145.302
11
131.183
21
-145.302
0
LINE
8
BLACK
6
CONTINUOUS
10
131.183
20
-145.302
11
130.897
21
-145.159
0
LINE
8
BLACK
6
CONTINUOUS
10
130.897
20
-145.159
11
130.754
21
-145.016
0
LINE
8
BLACK
6
CONTINUOUS
10
130.754
20
-145.016
11
130.612
21
-144.731
0
LINE
8
BLACK
6
CONTINUOUS
10
130.612
20
-144.731
11
130.469
21
-144.159
0
LINE
8
BLACK
6
CONTINUOUS
10
130.469
20
-144.159
11
130.469
21
-143.445
0
LINE
8
BLACK
6
CONTINUOUS
10
130.469
20
-143.445
11
130.612
21
-142.874
0
LINE
8
BLACK
6
CONTINUOUS
10
130.612
20
-142.874
11
130.754
21
-142.588
0
LINE
8
BLACK
6
CONTINUOUS
10
130.754
20
-142.588
11
130.897
21
-142.445
0
LINE
8
BLACK
6
CONTINUOUS
10
130.897
20
-142.445
11
131.183
21
-142.302
0
LINE
8
BLACK
6
CONTINUOUS
10
133.469
20
-145.016
11
133.612
21
-145.159
0
LINE
8
BLACK
6
CONTINUOUS
10
133.612
20
-145.159
11
133.469
21
-145.302
0
LINE
8
BLACK
6
CONTINUOUS
10
133.469
20
-145.302
11
133.326
21
-145.159
0
LINE
8
BLACK
6
CONTINUOUS
10
133.326
20
-145.159
11
133.469
21
-145.016
0
LINE
8
BLACK
6
CONTINUOUS
10
133.469
20
-145.016
11
133.469
21
-145.302
0
LINE
8
BLACK
6
CONTINUOUS
10
135.469
20
-142.302
11
135.754
21
-142.302
0
LINE
8
BLACK
6
CONTINUOUS
10
135.754
20
-142.302
11
136.04
21
-142.445
0
LINE
8
BLACK
6
CONTINUOUS
10
136.04
20
-142.445
11
136.183
21
-142.588
0
LINE
8
BLACK
6
CONTINUOUS
10
136.183
20
-142.588
11
136.326
21
-142.874
0
LINE
8
BLACK
6
CONTINUOUS
10
136.326
20
-142.874
11
136.469
21
-143.445
0
LINE
8
BLACK
6
CONTINUOUS
10
136.469
20
-143.445
11
136.469
21
-144.159
0
LINE
8
BLACK
6
CONTINUOUS
10
136.469
20
-144.159
11
136.326
21
-144.731
0
LINE
8
BLACK
6
CONTINUOUS
10
136.326
20
-144.731
11
136.183
21
-145.016
0
LINE
8
BLACK
6
CONTINUOUS
10
136.183
20
-145.016
11
136.04
21
-145.159
0
LINE
8
BLACK
6
CONTINUOUS
10
136.04
20
-145.159
11
135.754
21
-145.302
0
LINE
8
BLACK
6
CONTINUOUS
10
135.754
20
-145.302
11
135.469
21
-145.302
0
LINE
8
BLACK
6
CONTINUOUS
10
135.469
20
-145.302
11
135.183
21
-145.159
0
LINE
8
BLACK
6
CONTINUOUS
10
135.183
20
-145.159
11
135.04
21
-145.016
0
LINE
8
BLACK
6
CONTINUOUS
10
135.04
20
-145.016
11
134.897
21
-144.731
0
LINE
8
BLACK
6
CONTINUOUS
10
134.897
20
-144.731
11
134.754
21
-144.159
0
LINE
8
BLACK
6
CONTINUOUS
10
134.754
20
-144.159
11
134.754
21
-143.445
0
LINE
8
BLACK
6
CONTINUOUS
10
134.754
20
-143.445
11
134.897
21
-142.874
0
LINE
8
BLACK
6
CONTINUOUS
10
134.897
20
-142.874
11
135.04
21
-142.588
0
LINE
8
BLACK
6
CONTINUOUS
10
135.04
20
-142.588
11
135.183
21
-142.445
0
LINE
8
BLACK
6
CONTINUOUS
10
135.183
20
-142.445
11
135.469
21
-142.302
0
LINE
8
BLACK
6
CONTINUOUS
10
137.612
20
-142.588
11
137.754
21
-142.445
0
LINE
8
BLACK
6
CONTINUOUS
10
137.754
20
-142.445
11
138.04
21
-142.302
0
LINE
8
BLACK
6
CONTINUOUS
10
138.04
20
-142.302
11
138.754
21
-142.302
0
LINE
8
BLACK
6
CONTINUOUS
10
138.754
20
-142.302
11
139.04
21
-142.445
0
LINE
8
BLACK
6
CONTINUOUS
10
139.04
20
-142.445
11
139.183
21
-142.588
0
LINE
8
BLACK
6
CONTINUOUS
10
139.183
20
-142.588
11
139.326
21
-142.874
0
LINE
8
BLACK
6
CONTINUOUS
10
139.326
20
-142.874
11
139.326
21
-143.159
0
LINE
8
BLACK
6
CONTINUOUS
10
139.326
20
-143.159
11
139.183
21
-143.588
0
LINE
8
BLACK
6
CONTINUOUS
10
139.183
20
-143.588
11
137.469
21
-145.302
0
LINE
8
BLACK
6
CONTINUOUS
10
137.469
20
-145.302
11
139.326
21
-145.302
0
LINE
8
BLACK
6
CONTINUOUS
10
141.183
20
-142.302
11
141.469
21
-142.302
0
LINE
8
BLACK
6
CONTINUOUS
10
141.469
20
-142.302
11
141.754
21
-142.445
0
LINE
8
BLACK
6
CONTINUOUS
10
141.754
20
-142.445
11
141.897
21
-142.588
0
LINE
8
BLACK
6
CONTINUOUS
10
141.897
20
-142.588
11
142.04
21
-142.874
0
LINE
8
BLACK
6
CONTINUOUS
10
142.04
20
-142.874
11
142.183
21
-143.445
0
LINE
8
BLACK
6
CONTINUOUS
10
142.183
20
-143.445
11
142.183
21
-144.159
0
LINE
8
BLACK
6
CONTINUOUS
10
142.183
20
-144.159
11
142.04
21
-144.731
0
LINE
8
BLACK
6
CONTINUOUS
10
142.04
20
-144.731
11
141.897
21
-145.016
0
LINE
8
BLACK
6
CONTINUOUS
10
141.897
20
-145.016
11
141.754
21
-145.159
0
LINE
8
BLACK
6
CONTINUOUS
10
141.754
20
-145.159
11
141.469
21
-145.302
0
LINE
8
BLACK
6
CONTINUOUS
10
141.469
20
-145.302
11
141.183
21
-145.302
0
LINE
8
BLACK
6
CONTINUOUS
10
141.183
20
-145.302
11
140.897
21
-145.159
0
LINE
8
BLACK
6
CONTINUOUS
10
140.897
20
-145.159
11
140.754
21
-145.016
0
LINE
8
BLACK
6
CONTINUOUS
10
140.754
20
-145.016
11
140.612
21
-144.731
0
LINE
8
BLACK
6
CONTINUOUS
10
140.612
20
-144.731
11
140.469
21
-144.159
0
LINE
8
BLACK
6
CONTINUOUS
10
140.469
20
-144.159
11
140.469
21
-143.445
0
LINE
8
BLACK
6
CONTINUOUS
10
140.469
20
-143.445
11
140.612
21
-142.874
0
LINE
8
BLACK
6
CONTINUOUS
10
140.612
20
-142.874
11
140.754
21
-142.588
0
LINE
8
BLACK
6
CONTINUOUS
10
140.754
20
-142.588
11
140.897
21
-142.445
0
LINE
8
BLACK
6
CONTINUOUS
10
140.897
20
-142.445
11
141.183
21
-142.302
0
LINE
8
BLACK
6
CONTINUOUS
10
143.326
20
-142.302
11
143.326
21
-142.874
0
LINE
8
BLACK
6
CONTINUOUS
10
144.469
20
-142.302
11
144.469
21
-142.874
0
LINE
8
BLACK
6
CONTINUOUS
10
148.897
20
-146.445
11
148.754
21
-146.302
0
LINE
8
BLACK
6
CONTINUOUS
10
148.754
20
-146.302
11
148.469
21
-145.874
0
LINE
8
BLACK
6
CONTINUOUS
10
148.469
20
-145.874
11
148.326
21
-145.588
0
LINE
8
BLACK
6
CONTINUOUS
10
148.326
20
-145.588
11
148.183
21
-145.159
0
LINE
8
BLACK
6
CONTINUOUS
10
148.183
20
-145.159
11
148.04
21
-144.445
0
LINE
8
BLACK
6
CONTINUOUS
10
148.04
20
-144.445
11
148.04
21
-143.874
0
LINE
8
BLACK
6
CONTINUOUS
10
148.04
20
-143.874
11
148.183
21
-143.159
0
LINE
8
BLACK
6
CONTINUOUS
10
148.183
20
-143.159
11
148.326
21
-142.731
0
LINE
8
BLACK
6
CONTINUOUS
10
148.326
20
-142.731
11
148.469
21
-142.445
0
LINE
8
BLACK
6
CONTINUOUS
10
148.469
20
-142.445
11
148.754
21
-142.016
0
LINE
8
BLACK
6
CONTINUOUS
10
148.754
20
-142.016
11
148.897
21
-141.874
0
LINE
8
BLACK
6
CONTINUOUS
10
149.754
20
-142.302
11
151.612
21
-142.302
0
LINE
8
BLACK
6
CONTINUOUS
10
151.612
20
-142.302
11
150.612
21
-143.445
0
LINE
8
BLACK
6
CONTINUOUS
10
150.612
20
-143.445
11
151.04
21
-143.445
0
LINE
8
BLACK
6
CONTINUOUS
10
151.04
20
-143.445
11
151.326
21
-143.588
0
LINE
8
BLACK
6
CONTINUOUS
10
151.326
20
-143.588
11
151.469
21
-143.731
0
LINE
8
BLACK
6
CONTINUOUS
10
151.469
20
-143.731
11
151.612
21
-144.016
0
LINE
8
BLACK
6
CONTINUOUS
10
151.612
20
-144.016
11
151.612
21
-144.731
0
LINE
8
BLACK
6
CONTINUOUS
10
151.612
20
-144.731
11
151.469
21
-145.016
0
LINE
8
BLACK
6
CONTINUOUS
10
151.469
20
-145.016
11
151.326
21
-145.159
0
LINE
8
BLACK
6
CONTINUOUS
10
151.326
20
-145.159
11
151.04
21
-145.302
0
LINE
8
BLACK
6
CONTINUOUS
10
151.04
20
-145.302
11
150.183
21
-145.302
0
LINE
8
BLACK
6
CONTINUOUS
10
150.183
20
-145.302
11
149.897
21
-145.159
0
LINE
8
BLACK
6
CONTINUOUS
10
149.897
20
-145.159
11
149.754
21
-145.016
0
LINE
8
BLACK
6
CONTINUOUS
10
155.183
20
-145.302
11
155.183
21
-142.302
0
LINE
8
BLACK
6
CONTINUOUS
10
156.469
20
-145.302
11
156.469
21
-143.731
0
LINE
8
BLACK
6
CONTINUOUS
10
156.469
20
-143.731
11
156.326
21
-143.445
0
LINE
8
BLACK
6
CONTINUOUS
10
156.326
20
-143.445
11
156.04
21
-143.302
0
LINE
8
BLACK
6
CONTINUOUS
10
156.04
20
-143.302
11
155.612
21
-143.302
0
LINE
8
BLACK
6
CONTINUOUS
10
155.612
20
-143.302
11
155.326
21
-143.445
0
LINE
8
BLACK
6
CONTINUOUS
10
155.326
20
-143.445
11
155.183
21
-143.588
0
LINE
8
BLACK
6
CONTINUOUS
10
158.326
20
-145.302
11
158.04
21
-145.159
0
LINE
8
BLACK
6
CONTINUOUS
10
158.04
20
-145.159
11
157.897
21
-145.016
0
LINE
8
BLACK
6
CONTINUOUS
10
157.897
20
-145.016
11
157.754
21
-144.731
0
LINE
8
BLACK
6
CONTINUOUS
10
157.754
20
-144.731
11
157.754
21
-143.874
0
LINE
8
BLACK
6
CONTINUOUS
10
157.754
20
-143.874
11
157.897
21
-143.588
0
LINE
8
BLACK
6
CONTINUOUS
10
157.897
20
-143.588
11
158.04
21
-143.445
0
LINE
8
BLACK
6
CONTINUOUS
10
158.04
20
-143.445
11
158.326
21
-143.302
0
LINE
8
BLACK
6
CONTINUOUS
10
158.326
20
-143.302
11
158.754
21
-143.302
0
LINE
8
BLACK
6
CONTINUOUS
10
158.754
20
-143.302
11
159.04
21
-143.445
0
LINE
8
BLACK
6
CONTINUOUS
10
159.04
20
-143.445
11
159.183
21
-143.588
0
LINE
8
BLACK
6
CONTINUOUS
10
159.183
20
-143.588
11
159.326
21
-143.874
0
LINE
8
BLACK
6
CONTINUOUS
10
159.326
20
-143.874
11
159.326
21
-144.731
0
LINE
8
BLACK
6
CONTINUOUS
10
159.326
20
-144.731
11
159.183
21
-145.016
0
LINE
8
BLACK
6
CONTINUOUS
10
159.183
20
-145.016
11
159.04
21
-145.159
0
LINE
8
BLACK
6
CONTINUOUS
10
159.04
20
-145.159
11
158.754
21
-145.302
0
LINE
8
BLACK
6
CONTINUOUS
10
158.754
20
-145.302
11
158.326
21
-145.302
0
LINE
8
BLACK
6
CONTINUOUS
10
161.04
20
-145.302
11
160.754
21
-145.159
0
LINE
8
BLACK
6
CONTINUOUS
10
160.754
20
-145.159
11
160.612
21
-144.874
0
LINE
8
BLACK
6
CONTINUOUS
10
160.612
20
-144.874
11
160.612
21
-142.302
0
LINE
8
BLACK
6
CONTINUOUS
10
163.326
20
-145.159
11
163.04
21
-145.302
0
LINE
8
BLACK
6
CONTINUOUS
10
163.04
20
-145.302
11
162.469
21
-145.302
0
LINE
8
BLACK
6
CONTINUOUS
10
162.469
20
-145.302
11
162.183
21
-145.159
0
LINE
8
BLACK
6
CONTINUOUS
10
162.183
20
-145.159
11
162.04
21
-144.874
0
LINE
8
BLACK
6
CONTINUOUS
10
162.04
20
-144.874
11
162.04
21
-143.731
0
LINE
8
BLACK
6
CONTINUOUS
10
162.04
20
-143.731
11
162.183
21
-143.445
0
LINE
8
BLACK
6
CONTINUOUS
10
162.183
20
-143.445
11
162.469
21
-143.302
0
LINE
8
BLACK
6
CONTINUOUS
10
162.469
20
-143.302
11
163.04
21
-143.302
0
LINE
8
BLACK
6
CONTINUOUS
10
163.04
20
-143.302
11
163.326
21
-143.445
0
LINE
8
BLACK
6
CONTINUOUS
10
163.326
20
-143.445
11
163.469
21
-143.731
0
LINE
8
BLACK
6
CONTINUOUS
10
163.469
20
-143.731
11
163.469
21
-144.016
0
LINE
8
BLACK
6
CONTINUOUS
10
163.469
20
-144.016
11
162.04
21
-144.302
0
LINE
8
BLACK
6
CONTINUOUS
10
164.612
20
-145.159
11
164.897
21
-145.302
0
LINE
8
BLACK
6
CONTINUOUS
10
164.897
20
-145.302
11
165.469
21
-145.302
0
LINE
8
BLACK
6
CONTINUOUS
10
165.469
20
-145.302
11
165.754
21
-145.159
0
LINE
8
BLACK
6
CONTINUOUS
10
165.754
20
-145.159
11
165.897
21
-144.874
0
LINE
8
BLACK
6
CONTINUOUS
10
165.897
20
-144.874
11
165.897
21
-144.731
0
LINE
8
BLACK
6
CONTINUOUS
10
165.897
20
-144.731
11
165.754
21
-144.445
0
LINE
8
BLACK
6
CONTINUOUS
10
165.754
20
-144.445
11
165.469
21
-144.302
0
LINE
8
BLACK
6
CONTINUOUS
10
165.469
20
-144.302
11
165.04
21
-144.302
0
LINE
8
BLACK
6
CONTINUOUS
10
165.04
20
-144.302
11
164.754
21
-144.159
0
LINE
8
BLACK
6
CONTINUOUS
10
164.754
20
-144.159
11
164.612
21
-143.874
0
LINE
8
BLACK
6
CONTINUOUS
10
164.612
20
-143.874
11
164.612
21
-143.731
0
LINE
8
BLACK
6
CONTINUOUS
10
164.612
20
-143.731
11
164.754
21
-143.445
0
LINE
8
BLACK
6
CONTINUOUS
10
164.754
20
-143.445
11
165.04
21
-143.302
0
LINE
8
BLACK
6
CONTINUOUS
10
165.04
20
-143.302
11
165.469
21
-143.302
0
LINE
8
BLACK
6
CONTINUOUS
10
165.469
20
-143.302
11
165.754
21
-143.445
0
LINE
8
BLACK
6
CONTINUOUS
10
166.897
20
-146.445
11
167.04
21
-146.302
0
LINE
8
BLACK
6
CONTINUOUS
10
167.04
20
-146.302
11
167.326
21
-145.874
0
LINE
8
BLACK
6
CONTINUOUS
10
167.326
20
-145.874
11
167.469
21
-145.588
0
LINE
8
BLACK
6
CONTINUOUS
10
167.469
20
-145.588
11
167.612
21
-145.159
0
LINE
8
BLACK
6
CONTINUOUS
10
167.612
20
-145.159
11
167.754
21
-144.445
0
LINE
8
BLACK
6
CONTINUOUS
10
167.754
20
-144.445
11
167.754
21
-143.874
0
LINE
8
BLACK
6
CONTINUOUS
10
167.754
20
-143.874
11
167.612
21
-143.159
0
LINE
8
BLACK
6
CONTINUOUS
10
167.612
20
-143.159
11
167.469
21
-142.731
0
LINE
8
BLACK
6
CONTINUOUS
10
167.469
20
-142.731
11
167.326
21
-142.445
0
LINE
8
BLACK
6
CONTINUOUS
10
167.326
20
-142.445
11
167.04
21
-142.016
0
LINE
8
BLACK
6
CONTINUOUS
10
167.04
20
-142.016
11
166.897
21
-141.874
0
LINE
8
BLACK
6
CONTINUOUS
10
101.633
20
-147.505
11
101.633
21
-148.305
0
LINE
8
BLACK
6
CONTINUOUS
10
101.233
20
-147.905
11
102.033
21
-147.905
0
LINE
8
BLACK
6
CONTINUOUS
10
105.469
20
-146.262
11
105.754
21
-146.262
0
LINE
8
BLACK
6
CONTINUOUS
10
105.754
20
-146.262
11
106.04
21
-146.405
0
LINE
8
BLACK
6
CONTINUOUS
10
106.04
20
-146.405
11
106.183
21
-146.548
0
LINE
8
BLACK
6
CONTINUOUS
10
106.183
20
-146.548
11
106.326
21
-146.834
0
LINE
8
BLACK
6
CONTINUOUS
10
106.326
20
-146.834
11
106.469
21
-147.405
0
LINE
8
BLACK
6
CONTINUOUS
10
106.469
20
-147.405
11
106.469
21
-148.119
0
LINE
8
BLACK
6
CONTINUOUS
10
106.469
20
-148.119
11
106.326
21
-148.691
0
LINE
8
BLACK
6
CONTINUOUS
10
106.326
20
-148.691
11
106.183
21
-148.976
0
LINE
8
BLACK
6
CONTINUOUS
10
106.183
20
-148.976
11
106.04
21
-149.119
0
LINE
8
BLACK
6
CONTINUOUS
10
106.04
20
-149.119
11
105.754
21
-149.262
0
LINE
8
BLACK
6
CONTINUOUS
10
105.754
20
-149.262
11
105.469
21
-149.262
0
LINE
8
BLACK
6
CONTINUOUS
10
105.469
20
-149.262
11
105.183
21
-149.119
0
LINE
8
BLACK
6
CONTINUOUS
10
105.183
20
-149.119
11
105.04
21
-148.976
0
LINE
8
BLACK
6
CONTINUOUS
10
105.04
20
-148.976
11
104.897
21
-148.691
0
LINE
8
BLACK
6
CONTINUOUS
10
104.897
20
-148.691
11
104.754
21
-148.119
0
LINE
8
BLACK
6
CONTINUOUS
10
104.754
20
-148.119
11
104.754
21
-147.405
0
LINE
8
BLACK
6
CONTINUOUS
10
104.754
20
-147.405
11
104.897
21
-146.834
0
LINE
8
BLACK
6
CONTINUOUS
10
104.897
20
-146.834
11
105.04
21
-146.548
0
LINE
8
BLACK
6
CONTINUOUS
10
105.04
20
-146.548
11
105.183
21
-146.405
0
LINE
8
BLACK
6
CONTINUOUS
10
105.183
20
-146.405
11
105.469
21
-146.262
0
LINE
8
BLACK
6
CONTINUOUS
10
107.754
20
-148.976
11
107.897
21
-149.119
0
LINE
8
BLACK
6
CONTINUOUS
10
107.897
20
-149.119
11
107.754
21
-149.262
0
LINE
8
BLACK
6
CONTINUOUS
10
107.754
20
-149.262
11
107.612
21
-149.119
0
LINE
8
BLACK
6
CONTINUOUS
10
107.612
20
-149.119
11
107.754
21
-148.976
0
LINE
8
BLACK
6
CONTINUOUS
10
107.754
20
-148.976
11
107.754
21
-149.262
0
LINE
8
BLACK
6
CONTINUOUS
10
109.612
20
-147.548
11
109.326
21
-147.405
0
LINE
8
BLACK
6
CONTINUOUS
10
109.326
20
-147.405
11
109.183
21
-147.262
0
LINE
8
BLACK
6
CONTINUOUS
10
109.183
20
-147.262
11
109.04
21
-146.976
0
LINE
8
BLACK
6
CONTINUOUS
10
109.04
20
-146.976
11
109.04
21
-146.834
0
LINE
8
BLACK
6
CONTINUOUS
10
109.04
20
-146.834
11
109.183
21
-146.548
0
LINE
8
BLACK
6
CONTINUOUS
10
109.183
20
-146.548
11
109.326
21
-146.405
0
LINE
8
BLACK
6
CONTINUOUS
10
109.326
20
-146.405
11
109.612
21
-146.262
0
LINE
8
BLACK
6
CONTINUOUS
10
109.612
20
-146.262
11
110.183
21
-146.262
0
LINE
8
BLACK
6
CONTINUOUS
10
110.183
20
-146.262
11
110.469
21
-146.405
0
LINE
8
BLACK
6
CONTINUOUS
10
110.469
20
-146.405
11
110.612
21
-146.548
0
LINE
8
BLACK
6
CONTINUOUS
10
110.612
20
-146.548
11
110.754
21
-146.834
0
LINE
8
BLACK
6
CONTINUOUS
10
110.754
20
-146.834
11
110.754
21
-146.976
0
LINE
8
BLACK
6
CONTINUOUS
10
110.754
20
-146.976
11
110.612
21
-147.262
0
LINE
8
BLACK
6
CONTINUOUS
10
110.612
20
-147.262
11
110.469
21
-147.405
0
LINE
8
BLACK
6
CONTINUOUS
10
110.469
20
-147.405
11
110.183
21
-147.548
0
LINE
8
BLACK
6
CONTINUOUS
10
110.183
20
-147.548
11
109.612
21
-147.548
0
LINE
8
BLACK
6
CONTINUOUS
10
109.612
20
-147.548
11
109.326
21
-147.691
0
LINE
8
BLACK
6
CONTINUOUS
10
109.326
20
-147.691
11
109.183
21
-147.834
0
LINE
8
BLACK
6
CONTINUOUS
10
109.183
20
-147.834
11
109.04
21
-148.119
0
LINE
8
BLACK
6
CONTINUOUS
10
109.04
20
-148.119
11
109.04
21
-148.691
0
LINE
8
BLACK
6
CONTINUOUS
10
109.04
20
-148.691
11
109.183
21
-148.976
0
LINE
8
BLACK
6
CONTINUOUS
10
109.183
20
-148.976
11
109.326
21
-149.119
0
LINE
8
BLACK
6
CONTINUOUS
10
109.326
20
-149.119
11
109.612
21
-149.262
0
LINE
8
BLACK
6
CONTINUOUS
10
109.612
20
-149.262
11
110.183
21
-149.262
0
LINE
8
BLACK
6
CONTINUOUS
10
110.183
20
-149.262
11
110.469
21
-149.119
0
LINE
8
BLACK
6
CONTINUOUS
10
110.469
20
-149.119
11
110.612
21
-148.976
0
LINE
8
BLACK
6
CONTINUOUS
10
110.612
20
-148.976
11
110.754
21
-148.691
0
LINE
8
BLACK
6
CONTINUOUS
10
110.754
20
-148.691
11
110.754
21
-148.119
0
LINE
8
BLACK
6
CONTINUOUS
10
110.754
20
-148.119
11
110.612
21
-147.834
0
LINE
8
BLACK
6
CONTINUOUS
10
110.612
20
-147.834
11
110.469
21
-147.691
0
LINE
8
BLACK
6
CONTINUOUS
10
110.469
20
-147.691
11
110.183
21
-147.548
0
LINE
8
BLACK
6
CONTINUOUS
10
112.612
20
-146.262
11
112.897
21
-146.262
0
LINE
8
BLACK
6
CONTINUOUS
10
112.897
20
-146.262
11
113.183
21
-146.405
0
LINE
8
BLACK
6
CONTINUOUS
10
113.183
20
-146.405
11
113.326
21
-146.548
0
LINE
8
BLACK
6
CONTINUOUS
10
113.326
20
-146.548
11
113.469
21
-146.834
0
LINE
8
BLACK
6
CONTINUOUS
10
113.469
20
-146.834
11
113.612
21
-147.405
0
LINE
8
BLACK
6
CONTINUOUS
10
113.612
20
-147.405
11
113.612
21
-148.119
0
LINE
8
BLACK
6
CONTINUOUS
10
113.612
20
-148.119
11
113.469
21
-148.691
0
LINE
8
BLACK
6
CONTINUOUS
10
113.469
20
-148.691
11
113.326
21
-148.976
0
LINE
8
BLACK
6
CONTINUOUS
10
113.326
20
-148.976
11
113.183
21
-149.119
0
LINE
8
BLACK
6
CONTINUOUS
10
113.183
20
-149.119
11
112.897
21
-149.262
0
LINE
8
BLACK
6
CONTINUOUS
10
112.897
20
-149.262
11
112.612
21
-149.262
0
LINE
8
BLACK
6
CONTINUOUS
10
112.612
20
-149.262
11
112.326
21
-149.119
0
LINE
8
BLACK
6
CONTINUOUS
10
112.326
20
-149.119
11
112.183
21
-148.976
0
LINE
8
BLACK
6
CONTINUOUS
10
112.183
20
-148.976
11
112.04
21
-148.691
0
LINE
8
BLACK
6
CONTINUOUS
10
112.04
20
-148.691
11
111.897
21
-148.119
0
LINE
8
BLACK
6
CONTINUOUS
10
111.897
20
-148.119
11
111.897
21
-147.405
0
LINE
8
BLACK
6
CONTINUOUS
10
111.897
20
-147.405
11
112.04
21
-146.834
0
LINE
8
BLACK
6
CONTINUOUS
10
112.04
20
-146.834
11
112.183
21
-146.548
0
LINE
8
BLACK
6
CONTINUOUS
10
112.183
20
-146.548
11
112.326
21
-146.405
0
LINE
8
BLACK
6
CONTINUOUS
10
112.326
20
-146.405
11
112.612
21
-146.262
0
LINE
8
BLACK
6
CONTINUOUS
10
114.897
20
-149.262
11
114.897
21
-147.262
0
LINE
8
BLACK
6
CONTINUOUS
10
114.897
20
-147.548
11
115.04
21
-147.405
0
LINE
8
BLACK
6
CONTINUOUS
10
115.04
20
-147.405
11
115.326
21
-147.262
0
LINE
8
BLACK
6
CONTINUOUS
10
115.326
20
-147.262
11
115.754
21
-147.262
0
LINE
8
BLACK
6
CONTINUOUS
10
115.754
20
-147.262
11
116.04
21
-147.405
0
LINE
8
BLACK
6
CONTINUOUS
10
116.04
20
-147.405
11
116.183
21
-147.691
0
LINE
8
BLACK
6
CONTINUOUS
10
116.183
20
-147.691
11
116.183
21
-149.262
0
LINE
8
BLACK
6
CONTINUOUS
10
116.183
20
-147.691
11
116.326
21
-147.405
0
LINE
8
BLACK
6
CONTINUOUS
10
116.326
20
-147.405
11
116.612
21
-147.262
0
LINE
8
BLACK
6
CONTINUOUS
10
116.612
20
-147.262
11
117.04
21
-147.262
0
LINE
8
BLACK
6
CONTINUOUS
10
117.04
20
-147.262
11
117.326
21
-147.405
0
LINE
8
BLACK
6
CONTINUOUS
10
117.326
20
-147.405
11
117.469
21
-147.691
0
LINE
8
BLACK
6
CONTINUOUS
10
117.469
20
-147.691
11
117.469
21
-149.262
0
LINE
8
BLACK
6
CONTINUOUS
10
118.897
20
-149.262
11
118.897
21
-147.262
0
LINE
8
BLACK
6
CONTINUOUS
10
118.897
20
-147.548
11
119.04
21
-147.405
0
LINE
8
BLACK
6
CONTINUOUS
10
119.04
20
-147.405
11
119.326
21
-147.262
0
LINE
8
BLACK
6
CONTINUOUS
10
119.326
20
-147.262
11
119.754
21
-147.262
0
LINE
8
BLACK
6
CONTINUOUS
10
119.754
20
-147.262
11
120.04
21
-147.405
0
LINE
8
BLACK
6
CONTINUOUS
10
120.04
20
-147.405
11
120.183
21
-147.691
0
LINE
8
BLACK
6
CONTINUOUS
10
120.183
20
-147.691
11
120.183
21
-149.262
0
LINE
8
BLACK
6
CONTINUOUS
10
120.183
20
-147.691
11
120.326
21
-147.405
0
LINE
8
BLACK
6
CONTINUOUS
10
120.326
20
-147.405
11
120.612
21
-147.262
0
LINE
8
BLACK
6
CONTINUOUS
10
120.612
20
-147.262
11
121.04
21
-147.262
0
LINE
8
BLACK
6
CONTINUOUS
10
121.04
20
-147.262
11
121.326
21
-147.405
0
LINE
8
BLACK
6
CONTINUOUS
10
121.326
20
-147.405
11
121.469
21
-147.691
0
LINE
8
BLACK
6
CONTINUOUS
10
121.469
20
-147.691
11
121.469
21
-149.262
0
LINE
8
BLACK
6
CONTINUOUS
10
127.326
20
-146.119
11
124.754
21
-149.976
0
LINE
8
BLACK
6
CONTINUOUS
10
131.183
20
-146.262
11
131.469
21
-146.262
0
LINE
8
BLACK
6
CONTINUOUS
10
131.469
20
-146.262
11
131.754
21
-146.405
0
LINE
8
BLACK
6
CONTINUOUS
10
131.754
20
-146.405
11
131.897
21
-146.548
0
LINE
8
BLACK
6
CONTINUOUS
10
131.897
20
-146.548
11
132.04
21
-146.834
0
LINE
8
BLACK
6
CONTINUOUS
10
132.04
20
-146.834
11
132.183
21
-147.405
0
LINE
8
BLACK
6
CONTINUOUS
10
132.183
20
-147.405
11
132.183
21
-148.119
0
LINE
8
BLACK
6
CONTINUOUS
10
132.183
20
-148.119
11
132.04
21
-148.691
0
LINE
8
BLACK
6
CONTINUOUS
10
132.04
20
-148.691
11
131.897
21
-148.976
0
LINE
8
BLACK
6
CONTINUOUS
10
131.897
20
-148.976
11
131.754
21
-149.119
0
LINE
8
BLACK
6
CONTINUOUS
10
131.754
20
-149.119
11
131.469
21
-149.262
0
LINE
8
BLACK
6
CONTINUOUS
10
131.469
20
-149.262
11
131.183
21
-149.262
0
LINE
8
BLACK
6
CONTINUOUS
10
131.183
20
-149.262
11
130.897
21
-149.119
0
LINE
8
BLACK
6
CONTINUOUS
10
130.897
20
-149.119
11
130.754
21
-148.976
0
LINE
8
BLACK
6
CONTINUOUS
10
130.754
20
-148.976
11
130.612
21
-148.691
0
LINE
8
BLACK
6
CONTINUOUS
10
130.612
20
-148.691
11
130.469
21
-148.119
0
LINE
8
BLACK
6
CONTINUOUS
10
130.469
20
-148.119
11
130.469
21
-147.405
0
LINE
8
BLACK
6
CONTINUOUS
10
130.469
20
-147.405
11
130.612
21
-146.834
0
LINE
8
BLACK
6
CONTINUOUS
10
130.612
20
-146.834
11
130.754
21
-146.548
0
LINE
8
BLACK
6
CONTINUOUS
10
130.754
20
-146.548
11
130.897
21
-146.405
0
LINE
8
BLACK
6
CONTINUOUS
10
130.897
20
-146.405
11
131.183
21
-146.262
0
LINE
8
BLACK
6
CONTINUOUS
10
133.469
20
-148.976
11
133.612
21
-149.119
0
LINE
8
BLACK
6
CONTINUOUS
10
133.612
20
-149.119
11
133.469
21
-149.262
0
LINE
8
BLACK
6
CONTINUOUS
10
133.469
20
-149.262
11
133.326
21
-149.119
0
LINE
8
BLACK
6
CONTINUOUS
10
133.326
20
-149.119
11
133.469
21
-148.976
0
LINE
8
BLACK
6
CONTINUOUS
10
133.469
20
-148.976
11
133.469
21
-149.262
0
LINE
8
BLACK
6
CONTINUOUS
10
135.469
20
-146.262
11
135.754
21
-146.262
0
LINE
8
BLACK
6
CONTINUOUS
10
135.754
20
-146.262
11
136.04
21
-146.405
0
LINE
8
BLACK
6
CONTINUOUS
10
136.04
20
-146.405
11
136.183
21
-146.548
0
LINE
8
BLACK
6
CONTINUOUS
10
136.183
20
-146.548
11
136.326
21
-146.834
0
LINE
8
BLACK
6
CONTINUOUS
10
136.326
20
-146.834
11
136.469
21
-147.405
0
LINE
8
BLACK
6
CONTINUOUS
10
136.469
20
-147.405
11
136.469
21
-148.119
0
LINE
8
BLACK
6
CONTINUOUS
10
136.469
20
-148.119
11
136.326
21
-148.691
0
LINE
8
BLACK
6
CONTINUOUS
10
136.326
20
-148.691
11
136.183
21
-148.976
0
LINE
8
BLACK
6
CONTINUOUS
10
136.183
20
-148.976
11
136.04
21
-149.119
0
LINE
8
BLACK
6
CONTINUOUS
10
136.04
20
-149.119
11
135.754
21
-149.262
0
LINE
8
BLACK
6
CONTINUOUS
10
135.754
20
-149.262
11
135.469
21
-149.262
0
LINE
8
BLACK
6
CONTINUOUS
10
135.469
20
-149.262
11
135.183
21
-149.119
0
LINE
8
BLACK
6
CONTINUOUS
10
135.183
20
-149.119
11
135.04
21
-148.976
0
LINE
8
BLACK
6
CONTINUOUS
10
135.04
20
-148.976
11
134.897
21
-148.691
0
LINE
8
BLACK
6
CONTINUOUS
10
134.897
20
-148.691
11
134.754
21
-148.119
0
LINE
8
BLACK
6
CONTINUOUS
10
134.754
20
-148.119
11
134.754
21
-147.405
0
LINE
8
BLACK
6
CONTINUOUS
10
134.754
20
-147.405
11
134.897
21
-146.834
0
LINE
8
BLACK
6
CONTINUOUS
10
134.897
20
-146.834
11
135.04
21
-146.548
0
LINE
8
BLACK
6
CONTINUOUS
10
135.04
20
-146.548
11
135.183
21
-146.405
0
LINE
8
BLACK
6
CONTINUOUS
10
135.183
20
-146.405
11
135.469
21
-146.262
0
LINE
8
BLACK
6
CONTINUOUS
10
137.469
20
-146.262
11
139.326
21
-146.262
0
LINE
8
BLACK
6
CONTINUOUS
10
139.326
20
-146.262
11
138.326
21
-147.405
0
LINE
8
BLACK
6
CONTINUOUS
10
138.326
20
-147.405
11
138.754
21
-147.405
0
LINE
8
BLACK
6
CONTINUOUS
10
138.754
20
-147.405
11
139.04
21
-147.548
0
LINE
8
BLACK
6
CONTINUOUS
10
139.04
20
-147.548
11
139.183
21
-147.691
0
LINE
8
BLACK
6
CONTINUOUS
10
139.183
20
-147.691
11
139.326
21
-147.976
0
LINE
8
BLACK
6
CONTINUOUS
10
139.326
20
-147.976
11
139.326
21
-148.691
0
LINE
8
BLACK
6
CONTINUOUS
10
139.326
20
-148.691
11
139.183
21
-148.976
0
LINE
8
BLACK
6
CONTINUOUS
10
139.183
20
-148.976
11
139.04
21
-149.119
0
LINE
8
BLACK
6
CONTINUOUS
10
139.04
20
-149.119
11
138.754
21
-149.262
0
LINE
8
BLACK
6
CONTINUOUS
10
138.754
20
-149.262
11
137.897
21
-149.262
0
LINE
8
BLACK
6
CONTINUOUS
10
137.897
20
-149.262
11
137.612
21
-149.119
0
LINE
8
BLACK
6
CONTINUOUS
10
137.612
20
-149.119
11
137.469
21
-148.976
0
LINE
8
BLACK
6
CONTINUOUS
10
142.183
20
-149.262
11
140.469
21
-149.262
0
LINE
8
BLACK
6
CONTINUOUS
10
141.326
20
-149.262
11
141.326
21
-146.262
0
LINE
8
BLACK
6
CONTINUOUS
10
141.326
20
-146.262
11
141.04
21
-146.691
0
LINE
8
BLACK
6
CONTINUOUS
10
141.04
20
-146.691
11
140.754
21
-146.976
0
LINE
8
BLACK
6
CONTINUOUS
10
140.754
20
-146.976
11
140.469
21
-147.119
0
LINE
8
BLACK
6
CONTINUOUS
10
143.326
20
-146.262
11
143.326
21
-146.834
0
LINE
8
BLACK
6
CONTINUOUS
10
144.469
20
-146.262
11
144.469
21
-146.834
0
LINE
8
BLACK
6
CONTINUOUS
10
148.897
20
-150.405
11
148.754
21
-150.262
0
LINE
8
BLACK
6
CONTINUOUS
10
148.754
20
-150.262
11
148.469
21
-149.834
0
LINE
8
BLACK
6
CONTINUOUS
10
148.469
20
-149.834
11
148.326
21
-149.548
0
LINE
8
BLACK
6
CONTINUOUS
10
148.326
20
-149.548
11
148.183
21
-149.119
0
LINE
8
BLACK
6
CONTINUOUS
10
148.183
20
-149.119
11
148.04
21
-148.405
0
LINE
8
BLACK
6
CONTINUOUS
10
148.04
20
-148.405
11
148.04
21
-147.834
0
LINE
8
BLACK
6
CONTINUOUS
10
148.04
20
-147.834
11
148.183
21
-147.119
0
LINE
8
BLACK
6
CONTINUOUS
10
148.183
20
-147.119
11
148.326
21
-146.691
0
LINE
8
BLACK
6
CONTINUOUS
10
148.326
20
-146.691
11
148.469
21
-146.405
0
LINE
8
BLACK
6
CONTINUOUS
10
148.469
20
-146.405
11
148.754
21
-145.976
0
LINE
8
BLACK
6
CONTINUOUS
10
148.754
20
-145.976
11
148.897
21
-145.834
0
LINE
8
BLACK
6
CONTINUOUS
10
151.326
20
-146.262
11
150.754
21
-146.262
0
LINE
8
BLACK
6
CONTINUOUS
10
150.754
20
-146.262
11
150.469
21
-146.405
0
LINE
8
BLACK
6
CONTINUOUS
10
150.469
20
-146.405
11
150.326
21
-146.548
0
LINE
8
BLACK
6
CONTINUOUS
10
150.326
20
-146.548
11
150.04
21
-146.976
0
LINE
8
BLACK
6
CONTINUOUS
10
150.04
20
-146.976
11
149.897
21
-147.548
0
LINE
8
BLACK
6
CONTINUOUS
10
149.897
20
-147.548
11
149.897
21
-148.691
0
LINE
8
BLACK
6
CONTINUOUS
10
149.897
20
-148.691
11
150.04
21
-148.976
0
LINE
8
BLACK
6
CONTINUOUS
10
150.04
20
-148.976
11
150.183
21
-149.119
0
LINE
8
BLACK
6
CONTINUOUS
10
150.183
20
-149.119
11
150.469
21
-149.262
0
LINE
8
BLACK
6
CONTINUOUS
10
150.469
20
-149.262
11
151.04
21
-149.262
0
LINE
8
BLACK
6
CONTINUOUS
10
151.04
20
-149.262
11
151.326
21
-149.119
0
LINE
8
BLACK
6
CONTINUOUS
10
151.326
20
-149.119
11
151.469
21
-148.976
0
LINE
8
BLACK
6
CONTINUOUS
10
151.469
20
-148.976
11
151.612
21
-148.691
0
LINE
8
BLACK
6
CONTINUOUS
10
151.612
20
-148.691
11
151.612
21
-147.976
0
LINE
8
BLACK
6
CONTINUOUS
10
151.612
20
-147.976
11
151.469
21
-147.691
0
LINE
8
BLACK
6
CONTINUOUS
10
151.469
20
-147.691
11
151.326
21
-147.548
0
LINE
8
BLACK
6
CONTINUOUS
10
151.326
20
-147.548
11
151.04
21
-147.405
0
LINE
8
BLACK
6
CONTINUOUS
10
151.04
20
-147.405
11
150.469
21
-147.405
0
LINE
8
BLACK
6
CONTINUOUS
10
150.469
20
-147.405
11
150.183
21
-147.548
0
LINE
8
BLACK
6
CONTINUOUS
10
150.183
20
-147.548
11
150.04
21
-147.691
0
LINE
8
BLACK
6
CONTINUOUS
10
150.04
20
-147.691
11
149.897
21
-147.976
0
LINE
8
BLACK
6
CONTINUOUS
10
154.183
20
-146.262
11
153.612
21
-146.262
0
LINE
8
BLACK
6
CONTINUOUS
10
153.612
20
-146.262
11
153.326
21
-146.405
0
LINE
8
BLACK
6
CONTINUOUS
10
153.326
20
-146.405
11
153.183
21
-146.548
0
LINE
8
BLACK
6
CONTINUOUS
10
153.183
20
-146.548
11
152.897
21
-146.976
0
LINE
8
BLACK
6
CONTINUOUS
10
152.897
20
-146.976
11
152.754
21
-147.548
0
LINE
8
BLACK
6
CONTINUOUS
10
152.754
20
-147.548
11
152.754
21
-148.691
0
LINE
8
BLACK
6
CONTINUOUS
10
152.754
20
-148.691
11
152.897
21
-148.976
0
LINE
8
BLACK
6
CONTINUOUS
10
152.897
20
-148.976
11
153.04
21
-149.119
0
LINE
8
BLACK
6
CONTINUOUS
10
153.04
20
-149.119
11
153.326
21
-149.262
0
LINE
8
BLACK
6
CONTINUOUS
10
153.326
20
-149.262
11
153.897
21
-149.262
0
LINE
8
BLACK
6
CONTINUOUS
10
153.897
20
-149.262
11
154.183
21
-149.119
0
LINE
8
BLACK
6
CONTINUOUS
10
154.183
20
-149.119
11
154.326
21
-148.976
0
LINE
8
BLACK
6
CONTINUOUS
10
154.326
20
-148.976
11
154.469
21
-148.691
0
LINE
8
BLACK
6
CONTINUOUS
10
154.469
20
-148.691
11
154.469
21
-147.976
0
LINE
8
BLACK
6
CONTINUOUS
10
154.469
20
-147.976
11
154.326
21
-147.691
0
LINE
8
BLACK
6
CONTINUOUS
10
154.326
20
-147.691
11
154.183
21
-147.548
0
LINE
8
BLACK
6
CONTINUOUS
10
154.183
20
-147.548
11
153.897
21
-147.405
0
LINE
8
BLACK
6
CONTINUOUS
10
153.897
20
-147.405
11
153.326
21
-147.405
0
LINE
8
BLACK
6
CONTINUOUS
10
153.326
20
-147.405
11
153.04
21
-147.548
0
LINE
8
BLACK
6
CONTINUOUS
10
153.04
20
-147.548
11
152.897
21
-147.691
0
LINE
8
BLACK
6
CONTINUOUS
10
152.897
20
-147.691
11
152.754
21
-147.976
0
LINE
8
BLACK
6
CONTINUOUS
10
158.04
20
-149.262
11
158.04
21
-146.262
0
LINE
8
BLACK
6
CONTINUOUS
10
159.326
20
-149.262
11
159.326
21
-147.691
0
LINE
8
BLACK
6
CONTINUOUS
10
159.326
20
-147.691
11
159.183
21
-147.405
0
LINE
8
BLACK
6
CONTINUOUS
10
159.183
20
-147.405
11
158.897
21
-147.262
0
LINE
8
BLACK
6
CONTINUOUS
10
158.897
20
-147.262
11
158.469
21
-147.262
0
LINE
8
BLACK
6
CONTINUOUS
10
158.469
20
-147.262
11
158.183
21
-147.405
0
LINE
8
BLACK
6
CONTINUOUS
10
158.183
20
-147.405
11
158.04
21
-147.548
0
LINE
8
BLACK
6
CONTINUOUS
10
161.183
20
-149.262
11
160.897
21
-149.119
0
LINE
8
BLACK
6
CONTINUOUS
10
160.897
20
-149.119
11
160.754
21
-148.976
0
LINE
8
BLACK
6
CONTINUOUS
10
160.754
20
-148.976
11
160.612
21
-148.691
0
LINE
8
BLACK
6
CONTINUOUS
10
160.612
20
-148.691
11
160.612
21
-147.834
0
LINE
8
BLACK
6
CONTINUOUS
10
160.612
20
-147.834
11
160.754
21
-147.548
0
LINE
8
BLACK
6
CONTINUOUS
10
160.754
20
-147.548
11
160.897
21
-147.405
0
LINE
8
BLACK
6
CONTINUOUS
10
160.897
20
-147.405
11
161.183
21
-147.262
0
LINE
8
BLACK
6
CONTINUOUS
10
161.183
20
-147.262
11
161.612
21
-147.262
0
LINE
8
BLACK
6
CONTINUOUS
10
161.612
20
-147.262
11
161.897
21
-147.405
0
LINE
8
BLACK
6
CONTINUOUS
10
161.897
20
-147.405
11
162.04
21
-147.548
0
LINE
8
BLACK
6
CONTINUOUS
10
162.04
20
-147.548
11
162.183
21
-147.834
0
LINE
8
BLACK
6
CONTINUOUS
10
162.183
20
-147.834
11
162.183
21
-148.691
0
LINE
8
BLACK
6
CONTINUOUS
10
162.183
20
-148.691
11
162.04
21
-148.976
0
LINE
8
BLACK
6
CONTINUOUS
10
162.04
20
-148.976
11
161.897
21
-149.119
0
LINE
8
BLACK
6
CONTINUOUS
10
161.897
20
-149.119
11
161.612
21
-149.262
0
LINE
8
BLACK
6
CONTINUOUS
10
161.612
20
-149.262
11
161.183
21
-149.262
0
LINE
8
BLACK
6
CONTINUOUS
10
163.897
20
-149.262
11
163.612
21
-149.119
0
LINE
8
BLACK
6
CONTINUOUS
10
163.612
20
-149.119
11
163.469
21
-148.834
0
LINE
8
BLACK
6
CONTINUOUS
10
163.469
20
-148.834
11
163.469
21
-146.262
0
LINE
8
BLACK
6
CONTINUOUS
10
166.183
20
-149.119
11
165.897
21
-149.262
0
LINE
8
BLACK
6
CONTINUOUS
10
165.897
20
-149.262
11
165.326
21
-149.262
0
LINE
8
BLACK
6
CONTINUOUS
10
165.326
20
-149.262
11
165.04
21
-149.119
0
LINE
8
BLACK
6
CONTINUOUS
10
165.04
20
-149.119
11
164.897
21
-148.834
0
LINE
8
BLACK
6
CONTINUOUS
10
164.897
20
-148.834
11
164.897
21
-147.691
0
LINE
8
BLACK
6
CONTINUOUS
10
164.897
20
-147.691
11
165.04
21
-147.405
0
LINE
8
BLACK
6
CONTINUOUS
10
165.04
20
-147.405
11
165.326
21
-147.262
0
LINE
8
BLACK
6
CONTINUOUS
10
165.326
20
-147.262
11
165.897
21
-147.262
0
LINE
8
BLACK
6
CONTINUOUS
10
165.897
20
-147.262
11
166.183
21
-147.405
0
LINE
8
BLACK
6
CONTINUOUS
10
166.183
20
-147.405
11
166.326
21
-147.691
0
LINE
8
BLACK
6
CONTINUOUS
10
166.326
20
-147.691
11
166.326
21
-147.976
0
LINE
8
BLACK
6
CONTINUOUS
10
166.326
20
-147.976
11
164.897
21
-148.262
0
LINE
8
BLACK
6
CONTINUOUS
10
167.469
20
-149.119
11
167.754
21
-149.262
0
LINE
8
BLACK
6
CONTINUOUS
10
167.754
20
-149.262
11
168.326
21
-149.262
0
LINE
8
BLACK
6
CONTINUOUS
10
168.326
20
-149.262
11
168.612
21
-149.119
0
LINE
8
BLACK
6
CONTINUOUS
10
168.612
20
-149.119
11
168.754
21
-148.834
0
LINE
8
BLACK
6
CONTINUOUS
10
168.754
20
-148.834
11
168.754
21
-148.691
0
LINE
8
BLACK
6
CONTINUOUS
10
168.754
20
-148.691
11
168.612
21
-148.405
0
LINE
8
BLACK
6
CONTINUOUS
10
168.612
20
-148.405
11
168.326
21
-148.262
0
LINE
8
BLACK
6
CONTINUOUS
10
168.326
20
-148.262
11
167.897
21
-148.262
0
LINE
8
BLACK
6
CONTINUOUS
10
167.897
20
-148.262
11
167.612
21
-148.119
0
LINE
8
BLACK
6
CONTINUOUS
10
167.612
20
-148.119
11
167.469
21
-147.834
0
LINE
8
BLACK
6
CONTINUOUS
10
167.469
20
-147.834
11
167.469
21
-147.691
0
LINE
8
BLACK
6
CONTINUOUS
10
167.469
20
-147.691
11
167.612
21
-147.405
0
LINE
8
BLACK
6
CONTINUOUS
10
167.612
20
-147.405
11
167.897
21
-147.262
0
LINE
8
BLACK
6
CONTINUOUS
10
167.897
20
-147.262
11
168.326
21
-147.262
0
LINE
8
BLACK
6
CONTINUOUS
10
168.326
20
-147.262
11
168.612
21
-147.405
0
LINE
8
BLACK
6
CONTINUOUS
10
169.754
20
-150.405
11
169.897
21
-150.262
0
LINE
8
BLACK
6
CONTINUOUS
10
169.897
20
-150.262
11
170.183
21
-149.834
0
LINE
8
BLACK
6
CONTINUOUS
10
170.183
20
-149.834
11
170.326
21
-149.548
0
LINE
8
BLACK
6
CONTINUOUS
10
170.326
20
-149.548
11
170.469
21
-149.119
0
LINE
8
BLACK
6
CONTINUOUS
10
170.469
20
-149.119
11
170.612
21
-148.405
0
LINE
8
BLACK
6
CONTINUOUS
10
170.612
20
-148.405
11
170.612
21
-147.834
0
LINE
8
BLACK
6
CONTINUOUS
10
170.612
20
-147.834
11
170.469
21
-147.119
0
LINE
8
BLACK
6
CONTINUOUS
10
170.469
20
-147.119
11
170.326
21
-146.691
0
LINE
8
BLACK
6
CONTINUOUS
10
170.326
20
-146.691
11
170.183
21
-146.405
0
LINE
8
BLACK
6
CONTINUOUS
10
170.183
20
-146.405
11
169.897
21
-145.976
0
LINE
8
BLACK
6
CONTINUOUS
10
169.897
20
-145.976
11
169.754
21
-145.834
0
LINE
8
BLACK
6
CONTINUOUS
10
101.403
20
-153.385
11
101.403
21
-150.345
0
LINE
8
BLACK
6
CONTINUOUS
10
101.403
20
-150.345
11
98.3627
21
-150.345
0
LINE
8
BLACK
6
CONTINUOUS
10
98.3627
20
-150.345
11
98.3627
21
-153.385
0
LINE
8
BLACK
6
CONTINUOUS
10
98.3627
20
-153.385
11
101.403
21
-153.385
0
LINE
8
BLACK
6
CONTINUOUS
10
106.183
20
-151.222
11
106.183
21
-153.222
0
LINE
8
BLACK
6
CONTINUOUS
10
105.469
20
-150.079
11
104.754
21
-152.222
0
LINE
8
BLACK
6
CONTINUOUS
10
104.754
20
-152.222
11
106.612
21
-152.222
0
LINE
8
BLACK
6
CONTINUOUS
10
107.754
20
-152.936
11
107.897
21
-153.079
0
LINE
8
BLACK
6
CONTINUOUS
10
107.897
20
-153.079
11
107.754
21
-153.222
0
LINE
8
BLACK
6
CONTINUOUS
10
107.754
20
-153.222
11
107.612
21
-153.079
0
LINE
8
BLACK
6
CONTINUOUS
10
107.612
20
-153.079
11
107.754
21
-152.936
0
LINE
8
BLACK
6
CONTINUOUS
10
107.754
20
-152.936
11
107.754
21
-153.222
0
LINE
8
BLACK
6
CONTINUOUS
10
108.897
20
-150.222
11
110.754
21
-150.222
0
LINE
8
BLACK
6
CONTINUOUS
10
110.754
20
-150.222
11
109.754
21
-151.365
0
LINE
8
BLACK
6
CONTINUOUS
10
109.754
20
-151.365
11
110.183
21
-151.365
0
LINE
8
BLACK
6
CONTINUOUS
10
110.183
20
-151.365
11
110.469
21
-151.508
0
LINE
8
BLACK
6
CONTINUOUS
10
110.469
20
-151.508
11
110.612
21
-151.651
0
LINE
8
BLACK
6
CONTINUOUS
10
110.612
20
-151.651
11
110.754
21
-151.936
0
LINE
8
BLACK
6
CONTINUOUS
10
110.754
20
-151.936
11
110.754
21
-152.651
0
LINE
8
BLACK
6
CONTINUOUS
10
110.754
20
-152.651
11
110.612
21
-152.936
0
LINE
8
BLACK
6
CONTINUOUS
10
110.612
20
-152.936
11
110.469
21
-153.079
0
LINE
8
BLACK
6
CONTINUOUS
10
110.469
20
-153.079
11
110.183
21
-153.222
0
LINE
8
BLACK
6
CONTINUOUS
10
110.183
20
-153.222
11
109.326
21
-153.222
0
LINE
8
BLACK
6
CONTINUOUS
10
109.326
20
-153.222
11
109.04
21
-153.079
0
LINE
8
BLACK
6
CONTINUOUS
10
109.04
20
-153.079
11
108.897
21
-152.936
0
LINE
8
BLACK
6
CONTINUOUS
10
112.612
20
-150.222
11
112.897
21
-150.222
0
LINE
8
BLACK
6
CONTINUOUS
10
112.897
20
-150.222
11
113.183
21
-150.365
0
LINE
8
BLACK
6
CONTINUOUS
10
113.183
20
-150.365
11
113.326
21
-150.508
0
LINE
8
BLACK
6
CONTINUOUS
10
113.326
20
-150.508
11
113.469
21
-150.794
0
LINE
8
BLACK
6
CONTINUOUS
10
113.469
20
-150.794
11
113.612
21
-151.365
0
LINE
8
BLACK
6
CONTINUOUS
10
113.612
20
-151.365
11
113.612
21
-152.079
0
LINE
8
BLACK
6
CONTINUOUS
10
113.612
20
-152.079
11
113.469
21
-152.651
0
LINE
8
BLACK
6
CONTINUOUS
10
113.469
20
-152.651
11
113.326
21
-152.936
0
LINE
8
BLACK
6
CONTINUOUS
10
113.326
20
-152.936
11
113.183
21
-153.079
0
LINE
8
BLACK
6
CONTINUOUS
10
113.183
20
-153.079
11
112.897
21
-153.222
0
LINE
8
BLACK
6
CONTINUOUS
10
112.897
20
-153.222
11
112.612
21
-153.222
0
LINE
8
BLACK
6
CONTINUOUS
10
112.612
20
-153.222
11
112.326
21
-153.079
0
LINE
8
BLACK
6
CONTINUOUS
10
112.326
20
-153.079
11
112.183
21
-152.936
0
LINE
8
BLACK
6
CONTINUOUS
10
112.183
20
-152.936
11
112.04
21
-152.651
0
LINE
8
BLACK
6
CONTINUOUS
10
112.04
20
-152.651
11
111.897
21
-152.079
0
LINE
8
BLACK
6
CONTINUOUS
10
111.897
20
-152.079
11
111.897
21
-151.365
0
LINE
8
BLACK
6
CONTINUOUS
10
111.897
20
-151.365
11
112.04
21
-150.794
0
LINE
8
BLACK
6
CONTINUOUS
10
112.04
20
-150.794
11
112.183
21
-150.508
0
LINE
8
BLACK
6
CONTINUOUS
10
112.183
20
-150.508
11
112.326
21
-150.365
0
LINE
8
BLACK
6
CONTINUOUS
10
112.326
20
-150.365
11
112.612
21
-150.222
0
LINE
8
BLACK
6
CONTINUOUS
10
114.897
20
-153.222
11
114.897
21
-151.222
0
LINE
8
BLACK
6
CONTINUOUS
10
114.897
20
-151.508
11
115.04
21
-151.365
0
LINE
8
BLACK
6
CONTINUOUS
10
115.04
20
-151.365
11
115.326
21
-151.222
0
LINE
8
BLACK
6
CONTINUOUS
10
115.326
20
-151.222
11
115.754
21
-151.222
0
LINE
8
BLACK
6
CONTINUOUS
10
115.754
20
-151.222
11
116.04
21
-151.365
0
LINE
8
BLACK
6
CONTINUOUS
10
116.04
20
-151.365
11
116.183
21
-151.651
0
LINE
8
BLACK
6
CONTINUOUS
10
116.183
20
-151.651
11
116.183
21
-153.222
0
LINE
8
BLACK
6
CONTINUOUS
10
116.183
20
-151.651
11
116.326
21
-151.365
0
LINE
8
BLACK
6
CONTINUOUS
10
116.326
20
-151.365
11
116.612
21
-151.222
0
LINE
8
BLACK
6
CONTINUOUS
10
116.612
20
-151.222
11
117.04
21
-151.222
0
LINE
8
BLACK
6
CONTINUOUS
10
117.04
20
-151.222
11
117.326
21
-151.365
0
LINE
8
BLACK
6
CONTINUOUS
10
117.326
20
-151.365
11
117.469
21
-151.651
0
LINE
8
BLACK
6
CONTINUOUS
10
117.469
20
-151.651
11
117.469
21
-153.222
0
LINE
8
BLACK
6
CONTINUOUS
10
118.897
20
-153.222
11
118.897
21
-151.222
0
LINE
8
BLACK
6
CONTINUOUS
10
118.897
20
-151.508
11
119.04
21
-151.365
0
LINE
8
BLACK
6
CONTINUOUS
10
119.04
20
-151.365
11
119.326
21
-151.222
0
LINE
8
BLACK
6
CONTINUOUS
10
119.326
20
-151.222
11
119.754
21
-151.222
0
LINE
8
BLACK
6
CONTINUOUS
10
119.754
20
-151.222
11
120.04
21
-151.365
0
LINE
8
BLACK
6
CONTINUOUS
10
120.04
20
-151.365
11
120.183
21
-151.651
0
LINE
8
BLACK
6
CONTINUOUS
10
120.183
20
-151.651
11
120.183
21
-153.222
0
LINE
8
BLACK
6
CONTINUOUS
10
120.183
20
-151.651
11
120.326
21
-151.365
0
LINE
8
BLACK
6
CONTINUOUS
10
120.326
20
-151.365
11
120.612
21
-151.222
0
LINE
8
BLACK
6
CONTINUOUS
10
120.612
20
-151.222
11
121.04
21
-151.222
0
LINE
8
BLACK
6
CONTINUOUS
10
121.04
20
-151.222
11
121.326
21
-151.365
0
LINE
8
BLACK
6
CONTINUOUS
10
121.326
20
-151.365
11
121.469
21
-151.651
0
LINE
8
BLACK
6
CONTINUOUS
10
121.469
20
-151.651
11
121.469
21
-153.222
0
LINE
8
BLACK
6
CONTINUOUS
10
127.326
20
-150.079
11
124.754
21
-153.936
0
LINE
8
BLACK
6
CONTINUOUS
10
131.183
20
-150.222
11
131.469
21
-150.222
0
LINE
8
BLACK
6
CONTINUOUS
10
131.469
20
-150.222
11
131.754
21
-150.365
0
LINE
8
BLACK
6
CONTINUOUS
10
131.754
20
-150.365
11
131.897
21
-150.508
0
LINE
8
BLACK
6
CONTINUOUS
10
131.897
20
-150.508
11
132.04
21
-150.794
0
LINE
8
BLACK
6
CONTINUOUS
10
132.04
20
-150.794
11
132.183
21
-151.365
0
LINE
8
BLACK
6
CONTINUOUS
10
132.183
20
-151.365
11
132.183
21
-152.079
0
LINE
8
BLACK
6
CONTINUOUS
10
132.183
20
-152.079
11
132.04
21
-152.651
0
LINE
8
BLACK
6
CONTINUOUS
10
132.04
20
-152.651
11
131.897
21
-152.936
0
LINE
8
BLACK
6
CONTINUOUS
10
131.897
20
-152.936
11
131.754
21
-153.079
0
LINE
8
BLACK
6
CONTINUOUS
10
131.754
20
-153.079
11
131.469
21
-153.222
0
LINE
8
BLACK
6
CONTINUOUS
10
131.469
20
-153.222
11
131.183
21
-153.222
0
LINE
8
BLACK
6
CONTINUOUS
10
131.183
20
-153.222
11
130.897
21
-153.079
0
LINE
8
BLACK
6
CONTINUOUS
10
130.897
20
-153.079
11
130.754
21
-152.936
0
LINE
8
BLACK
6
CONTINUOUS
10
130.754
20
-152.936
11
130.612
21
-152.651
0
LINE
8
BLACK
6
CONTINUOUS
10
130.612
20
-152.651
11
130.469
21
-152.079
0
LINE
8
BLACK
6
CONTINUOUS
10
130.469
20
-152.079
11
130.469
21
-151.365
0
LINE
8
BLACK
6
CONTINUOUS
10
130.469
20
-151.365
11
130.612
21
-150.794
0
LINE
8
BLACK
6
CONTINUOUS
10
130.612
20
-150.794
11
130.754
21
-150.508
0
LINE
8
BLACK
6
CONTINUOUS
10
130.754
20
-150.508
11
130.897
21
-150.365
0
LINE
8
BLACK
6
CONTINUOUS
10
130.897
20
-150.365
11
131.183
21
-150.222
0
LINE
8
BLACK
6
CONTINUOUS
10
133.469
20
-152.936
11
133.612
21
-153.079
0
LINE
8
BLACK
6
CONTINUOUS
10
133.612
20
-153.079
11
133.469
21
-153.222
0
LINE
8
BLACK
6
CONTINUOUS
10
133.469
20
-153.222
11
133.326
21
-153.079
0
LINE
8
BLACK
6
CONTINUOUS
10
133.326
20
-153.079
11
133.469
21
-152.936
0
LINE
8
BLACK
6
CONTINUOUS
10
133.469
20
-152.936
11
133.469
21
-153.222
0
LINE
8
BLACK
6
CONTINUOUS
10
136.469
20
-153.222
11
134.754
21
-153.222
0
LINE
8
BLACK
6
CONTINUOUS
10
135.612
20
-153.222
11
135.612
21
-150.222
0
LINE
8
BLACK
6
CONTINUOUS
10
135.612
20
-150.222
11
135.326
21
-150.651
0
LINE
8
BLACK
6
CONTINUOUS
10
135.326
20
-150.651
11
135.04
21
-150.936
0
LINE
8
BLACK
6
CONTINUOUS
10
135.04
20
-150.936
11
134.754
21
-151.079
0
LINE
8
BLACK
6
CONTINUOUS
10
139.04
20
-150.222
11
138.469
21
-150.222
0
LINE
8
BLACK
6
CONTINUOUS
10
138.469
20
-150.222
11
138.183
21
-150.365
0
LINE
8
BLACK
6
CONTINUOUS
10
138.183
20
-150.365
11
138.04
21
-150.508
0
LINE
8
BLACK
6
CONTINUOUS
10
138.04
20
-150.508
11
137.754
21
-150.936
0
LINE
8
BLACK
6
CONTINUOUS
10
137.754
20
-150.936
11
137.612
21
-151.508
0
LINE
8
BLACK
6
CONTINUOUS
10
137.612
20
-151.508
11
137.612
21
-152.651
0
LINE
8
BLACK
6
CONTINUOUS
10
137.612
20
-152.651
11
137.754
21
-152.936
0
LINE
8
BLACK
6
CONTINUOUS
10
137.754
20
-152.936
11
137.897
21
-153.079
0
LINE
8
BLACK
6
CONTINUOUS
10
137.897
20
-153.079
11
138.183
21
-153.222
0
LINE
8
BLACK
6
CONTINUOUS
10
138.183
20
-153.222
11
138.754
21
-153.222
0
LINE
8
BLACK
6
CONTINUOUS
10
138.754
20
-153.222
11
139.04
21
-153.079
0
LINE
8
BLACK
6
CONTINUOUS
10
139.04
20
-153.079
11
139.183
21
-152.936
0
LINE
8
BLACK
6
CONTINUOUS
10
139.183
20
-152.936
11
139.326
21
-152.651
0
LINE
8
BLACK
6
CONTINUOUS
10
139.326
20
-152.651
11
139.326
21
-151.936
0
LINE
8
BLACK
6
CONTINUOUS
10
139.326
20
-151.936
11
139.183
21
-151.651
0
LINE
8
BLACK
6
CONTINUOUS
10
139.183
20
-151.651
11
139.04
21
-151.508
0
LINE
8
BLACK
6
CONTINUOUS
10
139.04
20
-151.508
11
138.754
21
-151.365
0
LINE
8
BLACK
6
CONTINUOUS
10
138.754
20
-151.365
11
138.183
21
-151.365
0
LINE
8
BLACK
6
CONTINUOUS
10
138.183
20
-151.365
11
137.897
21
-151.508
0
LINE
8
BLACK
6
CONTINUOUS
10
137.897
20
-151.508
11
137.754
21
-151.651
0
LINE
8
BLACK
6
CONTINUOUS
10
137.754
20
-151.651
11
137.612
21
-151.936
0
LINE
8
BLACK
6
CONTINUOUS
10
140.754
20
-153.222
11
141.326
21
-153.222
0
LINE
8
BLACK
6
CONTINUOUS
10
141.326
20
-153.222
11
141.612
21
-153.079
0
LINE
8
BLACK
6
CONTINUOUS
10
141.612
20
-153.079
11
141.754
21
-152.936
0
LINE
8
BLACK
6
CONTINUOUS
10
141.754
20
-152.936
11
142.04
21
-152.508
0
LINE
8
BLACK
6
CONTINUOUS
10
142.04
20
-152.508
11
142.183
21
-151.936
0
LINE
8
BLACK
6
CONTINUOUS
10
142.183
20
-151.936
11
142.183
21
-150.794
0
LINE
8
BLACK
6
CONTINUOUS
10
142.183
20
-150.794
11
142.04
21
-150.508
0
LINE
8
BLACK
6
CONTINUOUS
10
142.04
20
-150.508
11
141.897
21
-150.365
0
LINE
8
BLACK
6
CONTINUOUS
10
141.897
20
-150.365
11
141.612
21
-150.222
0
LINE
8
BLACK
6
CONTINUOUS
10
141.612
20
-150.222
11
141.04
21
-150.222
0
LINE
8
BLACK
6
CONTINUOUS
10
141.04
20
-150.222
11
140.754
21
-150.365
0
LINE
8
BLACK
6
CONTINUOUS
10
140.754
20
-150.365
11
140.612
21
-150.508
0
LINE
8
BLACK
6
CONTINUOUS
10
140.612
20
-150.508
11
140.469
21
-150.794
0
LINE
8
BLACK
6
CONTINUOUS
10
140.469
20
-150.794
11
140.469
21
-151.508
0
LINE
8
BLACK
6
CONTINUOUS
10
140.469
20
-151.508
11
140.612
21
-151.794
0
LINE
8
BLACK
6
CONTINUOUS
10
140.612
20
-151.794
11
140.754
21
-151.936
0
LINE
8
BLACK
6
CONTINUOUS
10
140.754
20
-151.936
11
141.04
21
-152.079
0
LINE
8
BLACK
6
CONTINUOUS
10
141.04
20
-152.079
11
141.612
21
-152.079
0
LINE
8
BLACK
6
CONTINUOUS
10
141.612
20
-152.079
11
141.897
21
-151.936
0
LINE
8
BLACK
6
CONTINUOUS
10
141.897
20
-151.936
11
142.04
21
-151.794
0
LINE
8
BLACK
6
CONTINUOUS
10
142.04
20
-151.794
11
142.183
21
-151.508
0
LINE
8
BLACK
6
CONTINUOUS
10
143.326
20
-150.222
11
143.326
21
-150.794
0
LINE
8
BLACK
6
CONTINUOUS
10
144.469
20
-150.222
11
144.469
21
-150.794
0
LINE
8
BLACK
6
CONTINUOUS
10
148.897
20
-154.365
11
148.754
21
-154.222
0
LINE
8
BLACK
6
CONTINUOUS
10
148.754
20
-154.222
11
148.469
21
-153.794
0
LINE
8
BLACK
6
CONTINUOUS
10
148.469
20
-153.794
11
148.326
21
-153.508
0
LINE
8
BLACK
6
CONTINUOUS
10
148.326
20
-153.508
11
148.183
21
-153.079
0
LINE
8
BLACK
6
CONTINUOUS
10
148.183
20
-153.079
11
148.04
21
-152.365
0
LINE
8
BLACK
6
CONTINUOUS
10
148.04
20
-152.365
11
148.04
21
-151.794
0
LINE
8
BLACK
6
CONTINUOUS
10
148.04
20
-151.794
11
148.183
21
-151.079
0
LINE
8
BLACK
6
CONTINUOUS
10
148.183
20
-151.079
11
148.326
21
-150.651
0
LINE
8
BLACK
6
CONTINUOUS
10
148.326
20
-150.651
11
148.469
21
-150.365
0
LINE
8
BLACK
6
CONTINUOUS
10
148.469
20
-150.365
11
148.754
21
-149.936
0
LINE
8
BLACK
6
CONTINUOUS
10
148.754
20
-149.936
11
148.897
21
-149.794
0
LINE
8
BLACK
6
CONTINUOUS
10
151.326
20
-150.222
11
150.754
21
-150.222
0
LINE
8
BLACK
6
CONTINUOUS
10
150.754
20
-150.222
11
150.469
21
-150.365
0
LINE
8
BLACK
6
CONTINUOUS
10
150.469
20
-150.365
11
150.326
21
-150.508
0
LINE
8
BLACK
6
CONTINUOUS
10
150.326
20
-150.508
11
150.04
21
-150.936
0
LINE
8
BLACK
6
CONTINUOUS
10
150.04
20
-150.936
11
149.897
21
-151.508
0
LINE
8
BLACK
6
CONTINUOUS
10
149.897
20
-151.508
11
149.897
21
-152.651
0
LINE
8
BLACK
6
CONTINUOUS
10
149.897
20
-152.651
11
150.04
21
-152.936
0
LINE
8
BLACK
6
CONTINUOUS
10
150.04
20
-152.936
11
150.183
21
-153.079
0
LINE
8
BLACK
6
CONTINUOUS
10
150.183
20
-153.079
11
150.469
21
-153.222
0
LINE
8
BLACK
6
CONTINUOUS
10
150.469
20
-153.222
11
151.04
21
-153.222
0
LINE
8
BLACK
6
CONTINUOUS
10
151.04
20
-153.222
11
151.326
21
-153.079
0
LINE
8
BLACK
6
CONTINUOUS
10
151.326
20
-153.079
11
151.469
21
-152.936
0
LINE
8
BLACK
6
CONTINUOUS
10
151.469
20
-152.936
11
151.612
21
-152.651
0
LINE
8
BLACK
6
CONTINUOUS
10
151.612
20
-152.651
11
151.612
21
-151.936
0
LINE
8
BLACK
6
CONTINUOUS
10
151.612
20
-151.936
11
151.469
21
-151.651
0
LINE
8
BLACK
6
CONTINUOUS
10
151.469
20
-151.651
11
151.326
21
-151.508
0
LINE
8
BLACK
6
CONTINUOUS
10
151.326
20
-151.508
11
151.04
21
-151.365
0
LINE
8
BLACK
6
CONTINUOUS
10
151.04
20
-151.365
11
150.469
21
-151.365
0
LINE
8
BLACK
6
CONTINUOUS
10
150.469
20
-151.365
11
150.183
21
-151.508
0
LINE
8
BLACK
6
CONTINUOUS
10
150.183
20
-151.508
11
150.04
21
-151.651
0
LINE
8
BLACK
6
CONTINUOUS
10
150.04
20
-151.651
11
149.897
21
-151.936
0
LINE
8
BLACK
6
CONTINUOUS
10
155.183
20
-153.222
11
155.183
21
-150.222
0
LINE
8
BLACK
6
CONTINUOUS
10
156.469
20
-153.222
11
156.469
21
-151.651
0
LINE
8
BLACK
6
CONTINUOUS
10
156.469
20
-151.651
11
156.326
21
-151.365
0
LINE
8
BLACK
6
CONTINUOUS
10
156.326
20
-151.365
11
156.04
21
-151.222
0
LINE
8
BLACK
6
CONTINUOUS
10
156.04
20
-151.222
11
155.612
21
-151.222
0
LINE
8
BLACK
6
CONTINUOUS
10
155.612
20
-151.222
11
155.326
21
-151.365
0
LINE
8
BLACK
6
CONTINUOUS
10
155.326
20
-151.365
11
155.183
21
-151.508
0
LINE
8
BLACK
6
CONTINUOUS
10
158.326
20
-153.222
11
158.04
21
-153.079
0
LINE
8
BLACK
6
CONTINUOUS
10
158.04
20
-153.079
11
157.897
21
-152.936
0
LINE
8
BLACK
6
CONTINUOUS
10
157.897
20
-152.936
11
157.754
21
-152.651
0
LINE
8
BLACK
6
CONTINUOUS
10
157.754
20
-152.651
11
157.754
21
-151.794
0
LINE
8
BLACK
6
CONTINUOUS
10
157.754
20
-151.794
11
157.897
21
-151.508
0
LINE
8
BLACK
6
CONTINUOUS
10
157.897
20
-151.508
11
158.04
21
-151.365
0
LINE
8
BLACK
6
CONTINUOUS
10
158.04
20
-151.365
11
158.326
21
-151.222
0
LINE
8
BLACK
6
CONTINUOUS
10
158.326
20
-151.222
11
158.754
21
-151.222
0
LINE
8
BLACK
6
CONTINUOUS
10
158.754
20
-151.222
11
159.04
21
-151.365
0
LINE
8
BLACK
6
CONTINUOUS
10
159.04
20
-151.365
11
159.183
21
-151.508
0
LINE
8
BLACK
6
CONTINUOUS
10
159.183
20
-151.508
11
159.326
21
-151.794
0
LINE
8
BLACK
6
CONTINUOUS
10
159.326
20
-151.794
11
159.326
21
-152.651
0
LINE
8
BLACK
6
CONTINUOUS
10
159.326
20
-152.651
11
159.183
21
-152.936
0
LINE
8
BLACK
6
CONTINUOUS
10
159.183
20
-152.936
11
159.04
21
-153.079
0
LINE
8
BLACK
6
CONTINUOUS
10
159.04
20
-153.079
11
158.754
21
-153.222
0
LINE
8
BLACK
6
CONTINUOUS
10
158.754
20
-153.222
11
158.326
21
-153.222
0
LINE
8
BLACK
6
CONTINUOUS
10
161.04
20
-153.222
11
160.754
21
-153.079
0
LINE
8
BLACK
6
CONTINUOUS
10
160.754
20
-153.079
11
160.612
21
-152.794
0
LINE
8
BLACK
6
CONTINUOUS
10
160.612
20
-152.794
11
160.612
21
-150.222
0
LINE
8
BLACK
6
CONTINUOUS
10
163.326
20
-153.079
11
163.04
21
-153.222
0
LINE
8
BLACK
6
CONTINUOUS
10
163.04
20
-153.222
11
162.469
21
-153.222
0
LINE
8
BLACK
6
CONTINUOUS
10
162.469
20
-153.222
11
162.183
21
-153.079
0
LINE
8
BLACK
6
CONTINUOUS
10
162.183
20
-153.079
11
162.04
21
-152.794
0
LINE
8
BLACK
6
CONTINUOUS
10
162.04
20
-152.794
11
162.04
21
-151.651
0
LINE
8
BLACK
6
CONTINUOUS
10
162.04
20
-151.651
11
162.183
21
-151.365
0
LINE
8
BLACK
6
CONTINUOUS
10
162.183
20
-151.365
11
162.469
21
-151.222
0
LINE
8
BLACK
6
CONTINUOUS
10
162.469
20
-151.222
11
163.04
21
-151.222
0
LINE
8
BLACK
6
CONTINUOUS
10
163.04
20
-151.222
11
163.326
21
-151.365
0
LINE
8
BLACK
6
CONTINUOUS
10
163.326
20
-151.365
11
163.469
21
-151.651
0
LINE
8
BLACK
6
CONTINUOUS
10
163.469
20
-151.651
11
163.469
21
-151.936
0
LINE
8
BLACK
6
CONTINUOUS
10
163.469
20
-151.936
11
162.04
21
-152.222
0
LINE
8
BLACK
6
CONTINUOUS
10
164.612
20
-153.079
11
164.897
21
-153.222
0
LINE
8
BLACK
6
CONTINUOUS
10
164.897
20
-153.222
11
165.469
21
-153.222
0
LINE
8
BLACK
6
CONTINUOUS
10
165.469
20
-153.222
11
165.754
21
-153.079
0
LINE
8
BLACK
6
CONTINUOUS
10
165.754
20
-153.079
11
165.897
21
-152.794
0
LINE
8
BLACK
6
CONTINUOUS
10
165.897
20
-152.794
11
165.897
21
-152.651
0
LINE
8
BLACK
6
CONTINUOUS
10
165.897
20
-152.651
11
165.754
21
-152.365
0
LINE
8
BLACK
6
CONTINUOUS
10
165.754
20
-152.365
11
165.469
21
-152.222
0
LINE
8
BLACK
6
CONTINUOUS
10
165.469
20
-152.222
11
165.04
21
-152.222
0
LINE
8
BLACK
6
CONTINUOUS
10
165.04
20
-152.222
11
164.754
21
-152.079
0
LINE
8
BLACK
6
CONTINUOUS
10
164.754
20
-152.079
11
164.612
21
-151.794
0
LINE
8
BLACK
6
CONTINUOUS
10
164.612
20
-151.794
11
164.612
21
-151.651
0
LINE
8
BLACK
6
CONTINUOUS
10
164.612
20
-151.651
11
164.754
21
-151.365
0
LINE
8
BLACK
6
CONTINUOUS
10
164.754
20
-151.365
11
165.04
21
-151.222
0
LINE
8
BLACK
6
CONTINUOUS
10
165.04
20
-151.222
11
165.469
21
-151.222
0
LINE
8
BLACK
6
CONTINUOUS
10
165.469
20
-151.222
11
165.754
21
-151.365
0
LINE
8
BLACK
6
CONTINUOUS
10
166.897
20
-154.365
11
167.04
21
-154.222
0
LINE
8
BLACK
6
CONTINUOUS
10
167.04
20
-154.222
11
167.326
21
-153.794
0
LINE
8
BLACK
6
CONTINUOUS
10
167.326
20
-153.794
11
167.469
21
-153.508
0
LINE
8
BLACK
6
CONTINUOUS
10
167.469
20
-153.508
11
167.612
21
-153.079
0
LINE
8
BLACK
6
CONTINUOUS
10
167.612
20
-153.079
11
167.754
21
-152.365
0
LINE
8
BLACK
6
CONTINUOUS
10
167.754
20
-152.365
11
167.754
21
-151.794
0
LINE
8
BLACK
6
CONTINUOUS
10
167.754
20
-151.794
11
167.612
21
-151.079
0
LINE
8
BLACK
6
CONTINUOUS
10
167.612
20
-151.079
11
167.469
21
-150.651
0
LINE
8
BLACK
6
CONTINUOUS
10
167.469
20
-150.651
11
167.326
21
-150.365
0
LINE
8
BLACK
6
CONTINUOUS
10
167.326
20
-150.365
11
167.04
21
-149.936
0
LINE
8
BLACK
6
CONTINUOUS
10
167.04
20
-149.936
11
166.897
21
-149.794
  0
ENDSEC
  0
EOF
