G04 #@! TF.GenerationSoftware,KiCad,Pcbnew,5.0.0-rc3-unknown-3e22e5c~65~ubuntu16.04.1*
G04 #@! TF.CreationDate,2018-07-12T16:40:26-04:00*
G04 #@! TF.ProjectId,Phoenix_schema_ver3,50686F656E69785F736368656D615F76,rev?*
G04 #@! TF.SameCoordinates,Original*
G04 #@! TF.FileFunction,Other,Fab,Top*
%FSLAX46Y46*%
G04 Gerber Fmt 4.6, Leading zero omitted, Abs format (unit mm)*
G04 Created by KiCad (PCBNEW 5.0.0-rc3-unknown-3e22e5c~65~ubuntu16.04.1) date Thu Jul 12 16:40:26 2018*
%MOMM*%
%LPD*%
G01*
G04 APERTURE LIST*
%ADD10C,0.100000*%
%ADD11C,0.152400*%
%ADD12C,0.150000*%
G04 APERTURE END LIST*
D10*
G04 #@! TO.C,J9\002CJ15*
X141232000Y-120888000D02*
X140732000Y-120388000D01*
X154732000Y-120888000D02*
X141232000Y-120888000D01*
X154732000Y-118888000D02*
X154732000Y-120888000D01*
X140732000Y-118888000D02*
X154732000Y-118888000D01*
X140732000Y-120388000D02*
X140732000Y-118888000D01*
G04 #@! TO.C,To ESCs*
X113300000Y-72636000D02*
X113300000Y-71136000D01*
X113300000Y-71136000D02*
X123300000Y-71136000D01*
X123300000Y-71136000D02*
X123300000Y-73136000D01*
X123300000Y-73136000D02*
X113800000Y-73136000D01*
X113800000Y-73136000D02*
X113300000Y-72636000D01*
G04 #@! TO.C,J16*
X132000000Y-71636000D02*
X132000000Y-73136000D01*
X132000000Y-73136000D02*
X124000000Y-73136000D01*
X124000000Y-73136000D02*
X124000000Y-71136000D01*
X124000000Y-71136000D02*
X131500000Y-71136000D01*
X131500000Y-71136000D02*
X132000000Y-71636000D01*
G04 #@! TO.C,J3*
X123174000Y-119388000D02*
X123174000Y-120888000D01*
X123174000Y-120888000D02*
X119174000Y-120888000D01*
X119174000Y-120888000D02*
X119174000Y-118888000D01*
X119174000Y-118888000D02*
X122674000Y-118888000D01*
X122674000Y-118888000D02*
X123174000Y-119388000D01*
G04 #@! TO.C,J4*
X124476000Y-120388000D02*
X124476000Y-118888000D01*
X124476000Y-118888000D02*
X128476000Y-118888000D01*
X128476000Y-118888000D02*
X128476000Y-120888000D01*
X128476000Y-120888000D02*
X124976000Y-120888000D01*
X124976000Y-120888000D02*
X124476000Y-120388000D01*
G04 #@! TO.C,J5*
X129810000Y-120388000D02*
X129810000Y-118888000D01*
X129810000Y-118888000D02*
X133810000Y-118888000D01*
X133810000Y-118888000D02*
X133810000Y-120888000D01*
X133810000Y-120888000D02*
X130310000Y-120888000D01*
X130310000Y-120888000D02*
X129810000Y-120388000D01*
D11*
G04 #@! TO.C,*
X125069600Y-109816900D02*
X124155200Y-109816900D01*
X124155200Y-109816900D02*
X124155200Y-114846100D01*
X124155200Y-114846100D02*
X125069600Y-114846100D01*
X125069600Y-114846100D02*
X125069600Y-109816900D01*
X126771400Y-109816900D02*
X125857000Y-109816900D01*
X125857000Y-109816900D02*
X125857000Y-114846100D01*
X125857000Y-114846100D02*
X126771400Y-114846100D01*
X126771400Y-114846100D02*
X126771400Y-109816900D01*
X128473200Y-109816900D02*
X127558800Y-109816900D01*
X127558800Y-109816900D02*
X127558800Y-114846100D01*
X127558800Y-114846100D02*
X128473200Y-114846100D01*
X128473200Y-114846100D02*
X128473200Y-109816900D01*
X130175000Y-109816900D02*
X129260600Y-109816900D01*
X129260600Y-109816900D02*
X129260600Y-114846100D01*
X129260600Y-114846100D02*
X130175000Y-114846100D01*
X130175000Y-114846100D02*
X130175000Y-109816900D01*
X131876800Y-109816900D02*
X130962400Y-109816900D01*
X130962400Y-109816900D02*
X130962400Y-114846100D01*
X130962400Y-114846100D02*
X131876800Y-114846100D01*
X131876800Y-114846100D02*
X131876800Y-109816900D01*
X122682000Y-109816900D02*
X133350000Y-109816900D01*
X133350000Y-109816900D02*
X133350000Y-98971100D01*
X133350000Y-98971100D02*
X122682000Y-98971100D01*
X122682000Y-98971100D02*
X122682000Y-109816900D01*
D10*
X104640000Y-79740000D02*
X103140000Y-79740000D01*
X103140000Y-79740000D02*
X103140000Y-73740000D01*
X103140000Y-73740000D02*
X105140000Y-73740000D01*
X105140000Y-73740000D02*
X105140000Y-79240000D01*
X105140000Y-79240000D02*
X104640000Y-79740000D01*
G04 #@! TD*
G04 #@! TO.C,To ESCs*
D12*
G04 #@! TO.C,*
G04 #@! TD*
M02*
