G04 #@! TF.GenerationSoftware,KiCad,Pcbnew,5.0.0-rc3-unknown-3e22e5c~65~ubuntu16.04.1*
G04 #@! TF.CreationDate,2018-07-12T16:40:26-04:00*
G04 #@! TF.ProjectId,Phoenix_schema_ver3,50686F656E69785F736368656D615F76,rev?*
G04 #@! TF.SameCoordinates,Original*
G04 #@! TF.FileFunction,Legend,Top*
G04 #@! TF.FilePolarity,Positive*
%FSLAX46Y46*%
G04 Gerber Fmt 4.6, Leading zero omitted, Abs format (unit mm)*
G04 Created by KiCad (PCBNEW 5.0.0-rc3-unknown-3e22e5c~65~ubuntu16.04.1) date Thu Jul 12 16:40:26 2018*
%MOMM*%
%LPD*%
G01*
G04 APERTURE LIST*
%ADD10C,0.200000*%
%ADD11C,0.150000*%
%ADD12C,0.120000*%
%ADD13C,0.152400*%
%ADD14C,0.100000*%
%ADD15C,0.050000*%
G04 APERTURE END LIST*
D10*
X133858000Y-73914000D02*
X112014000Y-73914000D01*
X133858000Y-96774000D02*
X133858000Y-73914000D01*
X112014000Y-96774000D02*
X133858000Y-96774000D01*
X112014000Y-73914000D02*
X112014000Y-96774000D01*
X104556000Y-86258285D02*
X104498857Y-86372571D01*
X104498857Y-86544000D01*
X104556000Y-86715428D01*
X104670285Y-86829714D01*
X104784571Y-86886857D01*
X105013142Y-86944000D01*
X105184571Y-86944000D01*
X105413142Y-86886857D01*
X105527428Y-86829714D01*
X105641714Y-86715428D01*
X105698857Y-86544000D01*
X105698857Y-86429714D01*
X105641714Y-86258285D01*
X105584571Y-86201142D01*
X105184571Y-86201142D01*
X105184571Y-86429714D01*
X105698857Y-85686857D02*
X104498857Y-85686857D01*
X105698857Y-85001142D01*
X104498857Y-85001142D01*
X105698857Y-84429714D02*
X104498857Y-84429714D01*
X104498857Y-84144000D01*
X104556000Y-83972571D01*
X104670285Y-83858285D01*
X104784571Y-83801142D01*
X105013142Y-83744000D01*
X105184571Y-83744000D01*
X105413142Y-83801142D01*
X105527428Y-83858285D01*
X105641714Y-83972571D01*
X105698857Y-84144000D01*
X105698857Y-84429714D01*
X104556000Y-109626285D02*
X104498857Y-109740571D01*
X104498857Y-109912000D01*
X104556000Y-110083428D01*
X104670285Y-110197714D01*
X104784571Y-110254857D01*
X105013142Y-110312000D01*
X105184571Y-110312000D01*
X105413142Y-110254857D01*
X105527428Y-110197714D01*
X105641714Y-110083428D01*
X105698857Y-109912000D01*
X105698857Y-109797714D01*
X105641714Y-109626285D01*
X105584571Y-109569142D01*
X105184571Y-109569142D01*
X105184571Y-109797714D01*
X105698857Y-109054857D02*
X104498857Y-109054857D01*
X105698857Y-108369142D01*
X104498857Y-108369142D01*
X105698857Y-107797714D02*
X104498857Y-107797714D01*
X104498857Y-107512000D01*
X104556000Y-107340571D01*
X104670285Y-107226285D01*
X104784571Y-107169142D01*
X105013142Y-107112000D01*
X105184571Y-107112000D01*
X105413142Y-107169142D01*
X105527428Y-107226285D01*
X105641714Y-107340571D01*
X105698857Y-107512000D01*
X105698857Y-107797714D01*
X106019714Y-114462000D02*
X105905428Y-114404857D01*
X105734000Y-114404857D01*
X105562571Y-114462000D01*
X105448285Y-114576285D01*
X105391142Y-114690571D01*
X105334000Y-114919142D01*
X105334000Y-115090571D01*
X105391142Y-115319142D01*
X105448285Y-115433428D01*
X105562571Y-115547714D01*
X105734000Y-115604857D01*
X105848285Y-115604857D01*
X106019714Y-115547714D01*
X106076857Y-115490571D01*
X106076857Y-115090571D01*
X105848285Y-115090571D01*
X106591142Y-115604857D02*
X106591142Y-114404857D01*
X107276857Y-115604857D01*
X107276857Y-114404857D01*
X107848285Y-115604857D02*
X107848285Y-114404857D01*
X108134000Y-114404857D01*
X108305428Y-114462000D01*
X108419714Y-114576285D01*
X108476857Y-114690571D01*
X108534000Y-114919142D01*
X108534000Y-115090571D01*
X108476857Y-115319142D01*
X108419714Y-115433428D01*
X108305428Y-115547714D01*
X108134000Y-115604857D01*
X107848285Y-115604857D01*
D11*
G04 #@! TO.C,Zigbee*
X162712400Y-77774800D02*
X162712400Y-97129600D01*
X162712400Y-97129600D02*
X138176000Y-97129600D01*
X138176000Y-97129600D02*
X138176000Y-77825600D01*
X154990800Y-71221600D02*
X162712400Y-77774800D01*
X138176000Y-77825600D02*
X145745200Y-71170800D01*
X145745200Y-71170800D02*
X154990800Y-71170800D01*
D12*
G04 #@! TO.C,J9\002CJ15*
X140672000Y-120948000D02*
X140672000Y-119888000D01*
X141732000Y-120948000D02*
X140672000Y-120948000D01*
X142732000Y-120948000D02*
X142732000Y-118828000D01*
X142732000Y-118828000D02*
X154792000Y-118828000D01*
X142732000Y-120948000D02*
X154792000Y-120948000D01*
X154792000Y-120948000D02*
X154792000Y-118828000D01*
D11*
G04 #@! TO.C,R1*
X165201600Y-114858800D02*
X165201600Y-114604800D01*
X163880800Y-114858800D02*
X165201600Y-114858800D01*
X163880800Y-114655600D02*
X163880800Y-114858800D01*
X163880800Y-111048800D02*
X163880800Y-114655600D01*
X165201600Y-111048800D02*
X163880800Y-111048800D01*
X165201600Y-111048800D02*
X165201600Y-114655600D01*
X160324800Y-97840800D02*
X134264400Y-97840800D01*
X160324800Y-117856000D02*
X160324800Y-97840800D01*
X134264400Y-117856000D02*
X160324800Y-117856000D01*
X134264400Y-97840800D02*
X134264400Y-117856000D01*
D12*
G04 #@! TO.C,To ESCs*
X123360000Y-73196000D02*
X123360000Y-71076000D01*
X115300000Y-73196000D02*
X123360000Y-73196000D01*
X115300000Y-71076000D02*
X123360000Y-71076000D01*
X115300000Y-73196000D02*
X115300000Y-71076000D01*
X114300000Y-73196000D02*
X113240000Y-73196000D01*
X113240000Y-73196000D02*
X113240000Y-72136000D01*
D11*
G04 #@! TO.C,To EScs*
X110744000Y-81280000D02*
X102616000Y-81280000D01*
X102616000Y-81280000D02*
X102616000Y-81407000D01*
X110744000Y-81280000D02*
X110744000Y-97028000D01*
X110744000Y-97028000D02*
X102616000Y-97028000D01*
X102616000Y-97028000D02*
X102616000Y-81407000D01*
G04 #@! TO.C,J1*
X102616000Y-113284000D02*
X110744000Y-113284000D01*
X110744000Y-113284000D02*
X110744000Y-113157000D01*
X102616000Y-113284000D02*
X102616000Y-97536000D01*
X102616000Y-97536000D02*
X110744000Y-97536000D01*
X110744000Y-97536000D02*
X110744000Y-113157000D01*
D12*
G04 #@! TO.C,J16*
X123940000Y-71076000D02*
X123940000Y-73196000D01*
X130000000Y-71076000D02*
X123940000Y-71076000D01*
X130000000Y-73196000D02*
X123940000Y-73196000D01*
X130000000Y-71076000D02*
X130000000Y-73196000D01*
X131000000Y-71076000D02*
X132060000Y-71076000D01*
X132060000Y-71076000D02*
X132060000Y-72136000D01*
G04 #@! TO.C,J3*
X119114000Y-118828000D02*
X119114000Y-120948000D01*
X121174000Y-118828000D02*
X119114000Y-118828000D01*
X121174000Y-120948000D02*
X119114000Y-120948000D01*
X121174000Y-118828000D02*
X121174000Y-120948000D01*
X122174000Y-118828000D02*
X123234000Y-118828000D01*
X123234000Y-118828000D02*
X123234000Y-119888000D01*
G04 #@! TO.C,J4*
X128536000Y-120948000D02*
X128536000Y-118828000D01*
X126476000Y-120948000D02*
X128536000Y-120948000D01*
X126476000Y-118828000D02*
X128536000Y-118828000D01*
X126476000Y-120948000D02*
X126476000Y-118828000D01*
X125476000Y-120948000D02*
X124416000Y-120948000D01*
X124416000Y-120948000D02*
X124416000Y-119888000D01*
G04 #@! TO.C,J5*
X133870000Y-120948000D02*
X133870000Y-118828000D01*
X131810000Y-120948000D02*
X133870000Y-120948000D01*
X131810000Y-118828000D02*
X133870000Y-118828000D01*
X131810000Y-120948000D02*
X131810000Y-118828000D01*
X130810000Y-120948000D02*
X129750000Y-120948000D01*
X129750000Y-120948000D02*
X129750000Y-119888000D01*
D11*
G04 #@! TO.C,J6*
X102616000Y-113284000D02*
X102616000Y-121412000D01*
X102616000Y-121412000D02*
X102743000Y-121412000D01*
X102616000Y-113284000D02*
X118364000Y-113284000D01*
X118364000Y-113284000D02*
X118364000Y-121412000D01*
X118364000Y-121412000D02*
X102743000Y-121412000D01*
D13*
G04 #@! TO.C,*
X124155200Y-110426500D02*
X124155200Y-111340900D01*
X125857000Y-110426500D02*
X125857000Y-111340900D01*
X127558800Y-110426500D02*
X127558800Y-111340900D01*
X129260600Y-110426500D02*
X129260600Y-111340900D01*
X130962400Y-110426500D02*
X130962400Y-111340900D01*
X125069600Y-110426500D02*
X125069600Y-111340900D01*
X126771400Y-110426500D02*
X126771400Y-111340900D01*
X128473200Y-110426500D02*
X128473200Y-111340900D01*
X130175000Y-110426500D02*
X130175000Y-111340900D01*
X131876800Y-110426500D02*
X131876800Y-111340900D01*
X122555000Y-109943900D02*
X133477000Y-109943900D01*
X133477000Y-109943900D02*
X133477000Y-98844100D01*
X133477000Y-98844100D02*
X131625340Y-98844100D01*
X122555000Y-98844100D02*
X122555000Y-109943900D01*
X124406660Y-98844100D02*
X122555000Y-98844100D01*
D14*
X112740000Y-108632000D02*
G75*
G03X112740000Y-108632000I-150000J0D01*
G01*
D12*
X105200000Y-73680000D02*
X103080000Y-73680000D01*
X105200000Y-77740000D02*
X105200000Y-73680000D01*
X103080000Y-77740000D02*
X103080000Y-73680000D01*
X105200000Y-77740000D02*
X103080000Y-77740000D01*
X105200000Y-78740000D02*
X105200000Y-79800000D01*
X105200000Y-79800000D02*
X104140000Y-79800000D01*
G04 #@! TO.C,ELKA*
D15*
X121035142Y-85780571D02*
X121335142Y-85780571D01*
X121463714Y-86304380D02*
X121035142Y-86304380D01*
X121035142Y-85304380D01*
X121463714Y-85304380D01*
X122278000Y-86304380D02*
X121849428Y-86304380D01*
X121849428Y-85304380D01*
X122578000Y-86304380D02*
X122578000Y-85304380D01*
X123092285Y-86304380D02*
X122706571Y-85732952D01*
X123092285Y-85304380D02*
X122578000Y-85875809D01*
X123435142Y-86018666D02*
X123863714Y-86018666D01*
X123349428Y-86304380D02*
X123649428Y-85304380D01*
X123949428Y-86304380D01*
G04 #@! TO.C,Zigbee*
X148471200Y-83780380D02*
X149071200Y-83780380D01*
X148471200Y-84780380D01*
X149071200Y-84780380D01*
X149414057Y-84780380D02*
X149414057Y-84113714D01*
X149414057Y-83780380D02*
X149371200Y-83828000D01*
X149414057Y-83875619D01*
X149456914Y-83828000D01*
X149414057Y-83780380D01*
X149414057Y-83875619D01*
X150228342Y-84113714D02*
X150228342Y-84923238D01*
X150185485Y-85018476D01*
X150142628Y-85066095D01*
X150056914Y-85113714D01*
X149928342Y-85113714D01*
X149842628Y-85066095D01*
X150228342Y-84732761D02*
X150142628Y-84780380D01*
X149971200Y-84780380D01*
X149885485Y-84732761D01*
X149842628Y-84685142D01*
X149799771Y-84589904D01*
X149799771Y-84304190D01*
X149842628Y-84208952D01*
X149885485Y-84161333D01*
X149971200Y-84113714D01*
X150142628Y-84113714D01*
X150228342Y-84161333D01*
X150656914Y-84780380D02*
X150656914Y-83780380D01*
X150656914Y-84161333D02*
X150742628Y-84113714D01*
X150914057Y-84113714D01*
X150999771Y-84161333D01*
X151042628Y-84208952D01*
X151085485Y-84304190D01*
X151085485Y-84589904D01*
X151042628Y-84685142D01*
X150999771Y-84732761D01*
X150914057Y-84780380D01*
X150742628Y-84780380D01*
X150656914Y-84732761D01*
X151814057Y-84732761D02*
X151728342Y-84780380D01*
X151556914Y-84780380D01*
X151471200Y-84732761D01*
X151428342Y-84637523D01*
X151428342Y-84256571D01*
X151471200Y-84161333D01*
X151556914Y-84113714D01*
X151728342Y-84113714D01*
X151814057Y-84161333D01*
X151856914Y-84256571D01*
X151856914Y-84351809D01*
X151428342Y-84447047D01*
X152585485Y-84732761D02*
X152499771Y-84780380D01*
X152328342Y-84780380D01*
X152242628Y-84732761D01*
X152199771Y-84637523D01*
X152199771Y-84256571D01*
X152242628Y-84161333D01*
X152328342Y-84113714D01*
X152499771Y-84113714D01*
X152585485Y-84161333D01*
X152628342Y-84256571D01*
X152628342Y-84351809D01*
X152199771Y-84447047D01*
G04 #@! TO.C,J9\002CJ15*
D11*
X136017238Y-119340380D02*
X136017238Y-120054666D01*
X135969619Y-120197523D01*
X135874380Y-120292761D01*
X135731523Y-120340380D01*
X135636285Y-120340380D01*
X136541047Y-120340380D02*
X136731523Y-120340380D01*
X136826761Y-120292761D01*
X136874380Y-120245142D01*
X136969619Y-120102285D01*
X137017238Y-119911809D01*
X137017238Y-119530857D01*
X136969619Y-119435619D01*
X136922000Y-119388000D01*
X136826761Y-119340380D01*
X136636285Y-119340380D01*
X136541047Y-119388000D01*
X136493428Y-119435619D01*
X136445809Y-119530857D01*
X136445809Y-119768952D01*
X136493428Y-119864190D01*
X136541047Y-119911809D01*
X136636285Y-119959428D01*
X136826761Y-119959428D01*
X136922000Y-119911809D01*
X136969619Y-119864190D01*
X137017238Y-119768952D01*
X137493428Y-120292761D02*
X137493428Y-120340380D01*
X137445809Y-120435619D01*
X137398190Y-120483238D01*
X138207714Y-119340380D02*
X138207714Y-120054666D01*
X138160095Y-120197523D01*
X138064857Y-120292761D01*
X137922000Y-120340380D01*
X137826761Y-120340380D01*
X139207714Y-120340380D02*
X138636285Y-120340380D01*
X138922000Y-120340380D02*
X138922000Y-119340380D01*
X138826761Y-119483238D01*
X138731523Y-119578476D01*
X138636285Y-119626095D01*
X140112476Y-119340380D02*
X139636285Y-119340380D01*
X139588666Y-119816571D01*
X139636285Y-119768952D01*
X139731523Y-119721333D01*
X139969619Y-119721333D01*
X140064857Y-119768952D01*
X140112476Y-119816571D01*
X140160095Y-119911809D01*
X140160095Y-120149904D01*
X140112476Y-120245142D01*
X140064857Y-120292761D01*
X139969619Y-120340380D01*
X139731523Y-120340380D01*
X139636285Y-120292761D01*
X139588666Y-120245142D01*
X154496190Y-119340380D02*
X155067619Y-119340380D01*
X154781904Y-120340380D02*
X154781904Y-119340380D01*
X155543809Y-120340380D02*
X155448571Y-120292761D01*
X155400952Y-120245142D01*
X155353333Y-120149904D01*
X155353333Y-119864190D01*
X155400952Y-119768952D01*
X155448571Y-119721333D01*
X155543809Y-119673714D01*
X155686666Y-119673714D01*
X155781904Y-119721333D01*
X155829523Y-119768952D01*
X155877142Y-119864190D01*
X155877142Y-120149904D01*
X155829523Y-120245142D01*
X155781904Y-120292761D01*
X155686666Y-120340380D01*
X155543809Y-120340380D01*
X157020000Y-120292761D02*
X157162857Y-120340380D01*
X157400952Y-120340380D01*
X157496190Y-120292761D01*
X157543809Y-120245142D01*
X157591428Y-120149904D01*
X157591428Y-120054666D01*
X157543809Y-119959428D01*
X157496190Y-119911809D01*
X157400952Y-119864190D01*
X157210476Y-119816571D01*
X157115238Y-119768952D01*
X157067619Y-119721333D01*
X157020000Y-119626095D01*
X157020000Y-119530857D01*
X157067619Y-119435619D01*
X157115238Y-119388000D01*
X157210476Y-119340380D01*
X157448571Y-119340380D01*
X157591428Y-119388000D01*
X158020000Y-119673714D02*
X158020000Y-120340380D01*
X158020000Y-119768952D02*
X158067619Y-119721333D01*
X158162857Y-119673714D01*
X158305714Y-119673714D01*
X158400952Y-119721333D01*
X158448571Y-119816571D01*
X158448571Y-120340380D01*
X159353333Y-120340380D02*
X159353333Y-119816571D01*
X159305714Y-119721333D01*
X159210476Y-119673714D01*
X159020000Y-119673714D01*
X158924761Y-119721333D01*
X159353333Y-120292761D02*
X159258095Y-120340380D01*
X159020000Y-120340380D01*
X158924761Y-120292761D01*
X158877142Y-120197523D01*
X158877142Y-120102285D01*
X158924761Y-120007047D01*
X159020000Y-119959428D01*
X159258095Y-119959428D01*
X159353333Y-119911809D01*
X159829523Y-119673714D02*
X159829523Y-120673714D01*
X159829523Y-119721333D02*
X159924761Y-119673714D01*
X160115238Y-119673714D01*
X160210476Y-119721333D01*
X160258095Y-119768952D01*
X160305714Y-119864190D01*
X160305714Y-120149904D01*
X160258095Y-120245142D01*
X160210476Y-120292761D01*
X160115238Y-120340380D01*
X159924761Y-120340380D01*
X159829523Y-120292761D01*
X161162857Y-120340380D02*
X161162857Y-119340380D01*
X161162857Y-120292761D02*
X161067619Y-120340380D01*
X160877142Y-120340380D01*
X160781904Y-120292761D01*
X160734285Y-120245142D01*
X160686666Y-120149904D01*
X160686666Y-119864190D01*
X160734285Y-119768952D01*
X160781904Y-119721333D01*
X160877142Y-119673714D01*
X161067619Y-119673714D01*
X161162857Y-119721333D01*
X161639047Y-120340380D02*
X161639047Y-119673714D01*
X161639047Y-119864190D02*
X161686666Y-119768952D01*
X161734285Y-119721333D01*
X161829523Y-119673714D01*
X161924761Y-119673714D01*
X162686666Y-120340380D02*
X162686666Y-119816571D01*
X162639047Y-119721333D01*
X162543809Y-119673714D01*
X162353333Y-119673714D01*
X162258095Y-119721333D01*
X162686666Y-120292761D02*
X162591428Y-120340380D01*
X162353333Y-120340380D01*
X162258095Y-120292761D01*
X162210476Y-120197523D01*
X162210476Y-120102285D01*
X162258095Y-120007047D01*
X162353333Y-119959428D01*
X162591428Y-119959428D01*
X162686666Y-119911809D01*
X163591428Y-119673714D02*
X163591428Y-120483238D01*
X163543809Y-120578476D01*
X163496190Y-120626095D01*
X163400952Y-120673714D01*
X163258095Y-120673714D01*
X163162857Y-120626095D01*
X163591428Y-120292761D02*
X163496190Y-120340380D01*
X163305714Y-120340380D01*
X163210476Y-120292761D01*
X163162857Y-120245142D01*
X163115238Y-120149904D01*
X163115238Y-119864190D01*
X163162857Y-119768952D01*
X163210476Y-119721333D01*
X163305714Y-119673714D01*
X163496190Y-119673714D01*
X163591428Y-119721333D01*
X164210476Y-120340380D02*
X164115238Y-120292761D01*
X164067619Y-120245142D01*
X164020000Y-120149904D01*
X164020000Y-119864190D01*
X164067619Y-119768952D01*
X164115238Y-119721333D01*
X164210476Y-119673714D01*
X164353333Y-119673714D01*
X164448571Y-119721333D01*
X164496190Y-119768952D01*
X164543809Y-119864190D01*
X164543809Y-120149904D01*
X164496190Y-120245142D01*
X164448571Y-120292761D01*
X164353333Y-120340380D01*
X164210476Y-120340380D01*
X164972380Y-119673714D02*
X164972380Y-120340380D01*
X164972380Y-119768952D02*
X165020000Y-119721333D01*
X165115238Y-119673714D01*
X165258095Y-119673714D01*
X165353333Y-119721333D01*
X165400952Y-119816571D01*
X165400952Y-120340380D01*
G04 #@! TO.C,R1*
X146756380Y-109521333D02*
X146280190Y-109854666D01*
X146756380Y-110092761D02*
X145756380Y-110092761D01*
X145756380Y-109711809D01*
X145804000Y-109616571D01*
X145851619Y-109568952D01*
X145946857Y-109521333D01*
X146089714Y-109521333D01*
X146184952Y-109568952D01*
X146232571Y-109616571D01*
X146280190Y-109711809D01*
X146280190Y-110092761D01*
X146708761Y-108711809D02*
X146756380Y-108807047D01*
X146756380Y-108997523D01*
X146708761Y-109092761D01*
X146613523Y-109140380D01*
X146232571Y-109140380D01*
X146137333Y-109092761D01*
X146089714Y-108997523D01*
X146089714Y-108807047D01*
X146137333Y-108711809D01*
X146232571Y-108664190D01*
X146327809Y-108664190D01*
X146423047Y-109140380D01*
X146708761Y-107807047D02*
X146756380Y-107902285D01*
X146756380Y-108092761D01*
X146708761Y-108188000D01*
X146661142Y-108235619D01*
X146565904Y-108283238D01*
X146280190Y-108283238D01*
X146184952Y-108235619D01*
X146137333Y-108188000D01*
X146089714Y-108092761D01*
X146089714Y-107902285D01*
X146137333Y-107807047D01*
X146708761Y-106997523D02*
X146756380Y-107092761D01*
X146756380Y-107283238D01*
X146708761Y-107378476D01*
X146613523Y-107426095D01*
X146232571Y-107426095D01*
X146137333Y-107378476D01*
X146089714Y-107283238D01*
X146089714Y-107092761D01*
X146137333Y-106997523D01*
X146232571Y-106949904D01*
X146327809Y-106949904D01*
X146423047Y-107426095D01*
X146756380Y-106521333D02*
X146089714Y-106521333D01*
X145756380Y-106521333D02*
X145804000Y-106568952D01*
X145851619Y-106521333D01*
X145804000Y-106473714D01*
X145756380Y-106521333D01*
X145851619Y-106521333D01*
X146089714Y-106140380D02*
X146756380Y-105902285D01*
X146089714Y-105664190D01*
X146708761Y-104902285D02*
X146756380Y-104997523D01*
X146756380Y-105188000D01*
X146708761Y-105283238D01*
X146613523Y-105330857D01*
X146232571Y-105330857D01*
X146137333Y-105283238D01*
X146089714Y-105188000D01*
X146089714Y-104997523D01*
X146137333Y-104902285D01*
X146232571Y-104854666D01*
X146327809Y-104854666D01*
X146423047Y-105330857D01*
X146756380Y-104426095D02*
X146089714Y-104426095D01*
X146280190Y-104426095D02*
X146184952Y-104378476D01*
X146137333Y-104330857D01*
X146089714Y-104235619D01*
X146089714Y-104140380D01*
G04 #@! TO.C,To ESCs*
X106521619Y-71334380D02*
X107093047Y-71334380D01*
X106807333Y-72334380D02*
X106807333Y-71334380D01*
X107569238Y-72334380D02*
X107474000Y-72286761D01*
X107426380Y-72239142D01*
X107378761Y-72143904D01*
X107378761Y-71858190D01*
X107426380Y-71762952D01*
X107474000Y-71715333D01*
X107569238Y-71667714D01*
X107712095Y-71667714D01*
X107807333Y-71715333D01*
X107854952Y-71762952D01*
X107902571Y-71858190D01*
X107902571Y-72143904D01*
X107854952Y-72239142D01*
X107807333Y-72286761D01*
X107712095Y-72334380D01*
X107569238Y-72334380D01*
X109093047Y-71810571D02*
X109426380Y-71810571D01*
X109569238Y-72334380D02*
X109093047Y-72334380D01*
X109093047Y-71334380D01*
X109569238Y-71334380D01*
X109950190Y-72286761D02*
X110093047Y-72334380D01*
X110331142Y-72334380D01*
X110426380Y-72286761D01*
X110474000Y-72239142D01*
X110521619Y-72143904D01*
X110521619Y-72048666D01*
X110474000Y-71953428D01*
X110426380Y-71905809D01*
X110331142Y-71858190D01*
X110140666Y-71810571D01*
X110045428Y-71762952D01*
X109997809Y-71715333D01*
X109950190Y-71620095D01*
X109950190Y-71524857D01*
X109997809Y-71429619D01*
X110045428Y-71382000D01*
X110140666Y-71334380D01*
X110378761Y-71334380D01*
X110521619Y-71382000D01*
X111521619Y-72239142D02*
X111474000Y-72286761D01*
X111331142Y-72334380D01*
X111235904Y-72334380D01*
X111093047Y-72286761D01*
X110997809Y-72191523D01*
X110950190Y-72096285D01*
X110902571Y-71905809D01*
X110902571Y-71762952D01*
X110950190Y-71572476D01*
X110997809Y-71477238D01*
X111093047Y-71382000D01*
X111235904Y-71334380D01*
X111331142Y-71334380D01*
X111474000Y-71382000D01*
X111521619Y-71429619D01*
X111902571Y-72286761D02*
X111997809Y-72334380D01*
X112188285Y-72334380D01*
X112283523Y-72286761D01*
X112331142Y-72191523D01*
X112331142Y-72143904D01*
X112283523Y-72048666D01*
X112188285Y-72001047D01*
X112045428Y-72001047D01*
X111950190Y-71953428D01*
X111902571Y-71858190D01*
X111902571Y-71810571D01*
X111950190Y-71715333D01*
X112045428Y-71667714D01*
X112188285Y-71667714D01*
X112283523Y-71715333D01*
G04 #@! TO.C,To EScs*
X103084380Y-91780952D02*
X103084380Y-91209523D01*
X104084380Y-91495238D02*
X103084380Y-91495238D01*
X104084380Y-90733333D02*
X104036761Y-90828571D01*
X103989142Y-90876190D01*
X103893904Y-90923809D01*
X103608190Y-90923809D01*
X103512952Y-90876190D01*
X103465333Y-90828571D01*
X103417714Y-90733333D01*
X103417714Y-90590476D01*
X103465333Y-90495238D01*
X103512952Y-90447619D01*
X103608190Y-90400000D01*
X103893904Y-90400000D01*
X103989142Y-90447619D01*
X104036761Y-90495238D01*
X104084380Y-90590476D01*
X104084380Y-90733333D01*
X103560571Y-89209523D02*
X103560571Y-88876190D01*
X104084380Y-88733333D02*
X104084380Y-89209523D01*
X103084380Y-89209523D01*
X103084380Y-88733333D01*
X104036761Y-88352380D02*
X104084380Y-88209523D01*
X104084380Y-87971428D01*
X104036761Y-87876190D01*
X103989142Y-87828571D01*
X103893904Y-87780952D01*
X103798666Y-87780952D01*
X103703428Y-87828571D01*
X103655809Y-87876190D01*
X103608190Y-87971428D01*
X103560571Y-88161904D01*
X103512952Y-88257142D01*
X103465333Y-88304761D01*
X103370095Y-88352380D01*
X103274857Y-88352380D01*
X103179619Y-88304761D01*
X103132000Y-88257142D01*
X103084380Y-88161904D01*
X103084380Y-87923809D01*
X103132000Y-87780952D01*
X104036761Y-86923809D02*
X104084380Y-87019047D01*
X104084380Y-87209523D01*
X104036761Y-87304761D01*
X103989142Y-87352380D01*
X103893904Y-87400000D01*
X103608190Y-87400000D01*
X103512952Y-87352380D01*
X103465333Y-87304761D01*
X103417714Y-87209523D01*
X103417714Y-87019047D01*
X103465333Y-86923809D01*
X104036761Y-86542857D02*
X104084380Y-86447619D01*
X104084380Y-86257142D01*
X104036761Y-86161904D01*
X103941523Y-86114285D01*
X103893904Y-86114285D01*
X103798666Y-86161904D01*
X103751047Y-86257142D01*
X103751047Y-86400000D01*
X103703428Y-86495238D01*
X103608190Y-86542857D01*
X103560571Y-86542857D01*
X103465333Y-86495238D01*
X103417714Y-86400000D01*
X103417714Y-86257142D01*
X103465333Y-86161904D01*
G04 #@! TO.C,J1*
X106521714Y-119340380D02*
X107093142Y-119340380D01*
X106807428Y-120340380D02*
X106807428Y-119340380D01*
X107569333Y-120340380D02*
X107474095Y-120292761D01*
X107426476Y-120245142D01*
X107378857Y-120149904D01*
X107378857Y-119864190D01*
X107426476Y-119768952D01*
X107474095Y-119721333D01*
X107569333Y-119673714D01*
X107712190Y-119673714D01*
X107807428Y-119721333D01*
X107855047Y-119768952D01*
X107902666Y-119864190D01*
X107902666Y-120149904D01*
X107855047Y-120245142D01*
X107807428Y-120292761D01*
X107712190Y-120340380D01*
X107569333Y-120340380D01*
X109093142Y-120340380D02*
X109093142Y-119340380D01*
X109093142Y-119721333D02*
X109188380Y-119673714D01*
X109378857Y-119673714D01*
X109474095Y-119721333D01*
X109521714Y-119768952D01*
X109569333Y-119864190D01*
X109569333Y-120149904D01*
X109521714Y-120245142D01*
X109474095Y-120292761D01*
X109378857Y-120340380D01*
X109188380Y-120340380D01*
X109093142Y-120292761D01*
X110426476Y-120340380D02*
X110426476Y-119816571D01*
X110378857Y-119721333D01*
X110283619Y-119673714D01*
X110093142Y-119673714D01*
X109997904Y-119721333D01*
X110426476Y-120292761D02*
X110331238Y-120340380D01*
X110093142Y-120340380D01*
X109997904Y-120292761D01*
X109950285Y-120197523D01*
X109950285Y-120102285D01*
X109997904Y-120007047D01*
X110093142Y-119959428D01*
X110331238Y-119959428D01*
X110426476Y-119911809D01*
X110759809Y-119673714D02*
X111140761Y-119673714D01*
X110902666Y-119340380D02*
X110902666Y-120197523D01*
X110950285Y-120292761D01*
X111045523Y-120340380D01*
X111140761Y-120340380D01*
X111331238Y-119673714D02*
X111712190Y-119673714D01*
X111474095Y-119340380D02*
X111474095Y-120197523D01*
X111521714Y-120292761D01*
X111616952Y-120340380D01*
X111712190Y-120340380D01*
X112426476Y-120292761D02*
X112331238Y-120340380D01*
X112140761Y-120340380D01*
X112045523Y-120292761D01*
X111997904Y-120197523D01*
X111997904Y-119816571D01*
X112045523Y-119721333D01*
X112140761Y-119673714D01*
X112331238Y-119673714D01*
X112426476Y-119721333D01*
X112474095Y-119816571D01*
X112474095Y-119911809D01*
X111997904Y-120007047D01*
X112902666Y-120340380D02*
X112902666Y-119673714D01*
X112902666Y-119864190D02*
X112950285Y-119768952D01*
X112997904Y-119721333D01*
X113093142Y-119673714D01*
X113188380Y-119673714D01*
X113426476Y-119673714D02*
X113664571Y-120340380D01*
X113902666Y-119673714D02*
X113664571Y-120340380D01*
X113569333Y-120578476D01*
X113521714Y-120626095D01*
X113426476Y-120673714D01*
G04 #@! TO.C,J16*
D12*
X132842095Y-72064571D02*
X132575428Y-72064571D01*
X132575428Y-72588380D02*
X132575428Y-71588380D01*
X132956380Y-71588380D01*
X133375428Y-72588380D02*
X133299238Y-72540761D01*
X133261142Y-72493142D01*
X133223047Y-72397904D01*
X133223047Y-72112190D01*
X133261142Y-72016952D01*
X133299238Y-71969333D01*
X133375428Y-71921714D01*
X133489714Y-71921714D01*
X133565904Y-71969333D01*
X133604000Y-72016952D01*
X133642095Y-72112190D01*
X133642095Y-72397904D01*
X133604000Y-72493142D01*
X133565904Y-72540761D01*
X133489714Y-72588380D01*
X133375428Y-72588380D01*
X133984952Y-72588380D02*
X133984952Y-71921714D01*
X133984952Y-72112190D02*
X134023047Y-72016952D01*
X134061142Y-71969333D01*
X134137333Y-71921714D01*
X134213523Y-71921714D01*
X135089714Y-72588380D02*
X135089714Y-71588380D01*
X135394476Y-71588380D01*
X135470666Y-71636000D01*
X135508761Y-71683619D01*
X135546857Y-71778857D01*
X135546857Y-71921714D01*
X135508761Y-72016952D01*
X135470666Y-72064571D01*
X135394476Y-72112190D01*
X135089714Y-72112190D01*
X135889714Y-72588380D02*
X135889714Y-71921714D01*
X135889714Y-72112190D02*
X135927809Y-72016952D01*
X135965904Y-71969333D01*
X136042095Y-71921714D01*
X136118285Y-71921714D01*
X136499238Y-72588380D02*
X136423047Y-72540761D01*
X136384952Y-72493142D01*
X136346857Y-72397904D01*
X136346857Y-72112190D01*
X136384952Y-72016952D01*
X136423047Y-71969333D01*
X136499238Y-71921714D01*
X136613523Y-71921714D01*
X136689714Y-71969333D01*
X136727809Y-72016952D01*
X136765904Y-72112190D01*
X136765904Y-72397904D01*
X136727809Y-72493142D01*
X136689714Y-72540761D01*
X136613523Y-72588380D01*
X136499238Y-72588380D01*
X137451619Y-71921714D02*
X137451619Y-72731238D01*
X137413523Y-72826476D01*
X137375428Y-72874095D01*
X137299238Y-72921714D01*
X137184952Y-72921714D01*
X137108761Y-72874095D01*
X137451619Y-72540761D02*
X137375428Y-72588380D01*
X137223047Y-72588380D01*
X137146857Y-72540761D01*
X137108761Y-72493142D01*
X137070666Y-72397904D01*
X137070666Y-72112190D01*
X137108761Y-72016952D01*
X137146857Y-71969333D01*
X137223047Y-71921714D01*
X137375428Y-71921714D01*
X137451619Y-71969333D01*
X137832571Y-72588380D02*
X137832571Y-71921714D01*
X137832571Y-72112190D02*
X137870666Y-72016952D01*
X137908761Y-71969333D01*
X137984952Y-71921714D01*
X138061142Y-71921714D01*
X138670666Y-72588380D02*
X138670666Y-72064571D01*
X138632571Y-71969333D01*
X138556380Y-71921714D01*
X138404000Y-71921714D01*
X138327809Y-71969333D01*
X138670666Y-72540761D02*
X138594476Y-72588380D01*
X138404000Y-72588380D01*
X138327809Y-72540761D01*
X138289714Y-72445523D01*
X138289714Y-72350285D01*
X138327809Y-72255047D01*
X138404000Y-72207428D01*
X138594476Y-72207428D01*
X138670666Y-72159809D01*
X139051619Y-72588380D02*
X139051619Y-71921714D01*
X139051619Y-72016952D02*
X139089714Y-71969333D01*
X139165904Y-71921714D01*
X139280190Y-71921714D01*
X139356380Y-71969333D01*
X139394476Y-72064571D01*
X139394476Y-72588380D01*
X139394476Y-72064571D02*
X139432571Y-71969333D01*
X139508761Y-71921714D01*
X139623047Y-71921714D01*
X139699238Y-71969333D01*
X139737333Y-72064571D01*
X139737333Y-72588380D01*
X140118285Y-72588380D02*
X140118285Y-71921714D01*
X140118285Y-72016952D02*
X140156380Y-71969333D01*
X140232571Y-71921714D01*
X140346857Y-71921714D01*
X140423047Y-71969333D01*
X140461142Y-72064571D01*
X140461142Y-72588380D01*
X140461142Y-72064571D02*
X140499238Y-71969333D01*
X140575428Y-71921714D01*
X140689714Y-71921714D01*
X140765904Y-71969333D01*
X140804000Y-72064571D01*
X140804000Y-72588380D01*
X141184952Y-72588380D02*
X141184952Y-71921714D01*
X141184952Y-71588380D02*
X141146857Y-71636000D01*
X141184952Y-71683619D01*
X141223047Y-71636000D01*
X141184952Y-71588380D01*
X141184952Y-71683619D01*
X141565904Y-71921714D02*
X141565904Y-72588380D01*
X141565904Y-72016952D02*
X141604000Y-71969333D01*
X141680190Y-71921714D01*
X141794476Y-71921714D01*
X141870666Y-71969333D01*
X141908761Y-72064571D01*
X141908761Y-72588380D01*
X142632571Y-71921714D02*
X142632571Y-72731238D01*
X142594476Y-72826476D01*
X142556380Y-72874095D01*
X142480190Y-72921714D01*
X142365904Y-72921714D01*
X142289714Y-72874095D01*
X142632571Y-72540761D02*
X142556380Y-72588380D01*
X142404000Y-72588380D01*
X142327809Y-72540761D01*
X142289714Y-72493142D01*
X142251619Y-72397904D01*
X142251619Y-72112190D01*
X142289714Y-72016952D01*
X142327809Y-71969333D01*
X142404000Y-71921714D01*
X142556380Y-71921714D01*
X142632571Y-71969333D01*
G04 #@! TO.C,J3*
D11*
X119046857Y-117308380D02*
X119665904Y-117308380D01*
X119332571Y-117689333D01*
X119475428Y-117689333D01*
X119570666Y-117736952D01*
X119618285Y-117784571D01*
X119665904Y-117879809D01*
X119665904Y-118117904D01*
X119618285Y-118213142D01*
X119570666Y-118260761D01*
X119475428Y-118308380D01*
X119189714Y-118308380D01*
X119094476Y-118260761D01*
X119046857Y-118213142D01*
X120094476Y-118213142D02*
X120142095Y-118260761D01*
X120094476Y-118308380D01*
X120046857Y-118260761D01*
X120094476Y-118213142D01*
X120094476Y-118308380D01*
X120475428Y-117308380D02*
X121094476Y-117308380D01*
X120761142Y-117689333D01*
X120904000Y-117689333D01*
X120999238Y-117736952D01*
X121046857Y-117784571D01*
X121094476Y-117879809D01*
X121094476Y-118117904D01*
X121046857Y-118213142D01*
X120999238Y-118260761D01*
X120904000Y-118308380D01*
X120618285Y-118308380D01*
X120523047Y-118260761D01*
X120475428Y-118213142D01*
X122142095Y-117308380D02*
X122475428Y-118308380D01*
X122808761Y-117308380D01*
G04 #@! TO.C,J4*
X125984095Y-117356000D02*
X125888857Y-117308380D01*
X125746000Y-117308380D01*
X125603142Y-117356000D01*
X125507904Y-117451238D01*
X125460285Y-117546476D01*
X125412666Y-117736952D01*
X125412666Y-117879809D01*
X125460285Y-118070285D01*
X125507904Y-118165523D01*
X125603142Y-118260761D01*
X125746000Y-118308380D01*
X125841238Y-118308380D01*
X125984095Y-118260761D01*
X126031714Y-118213142D01*
X126031714Y-117879809D01*
X125841238Y-117879809D01*
X126460285Y-118308380D02*
X126460285Y-117308380D01*
X127031714Y-118308380D01*
X127031714Y-117308380D01*
X127507904Y-118308380D02*
X127507904Y-117308380D01*
X127746000Y-117308380D01*
X127888857Y-117356000D01*
X127984095Y-117451238D01*
X128031714Y-117546476D01*
X128079333Y-117736952D01*
X128079333Y-117879809D01*
X128031714Y-118070285D01*
X127984095Y-118165523D01*
X127888857Y-118260761D01*
X127746000Y-118308380D01*
X127507904Y-118308380D01*
G04 #@! TO.C,J5*
X131508571Y-117308380D02*
X131032380Y-117308380D01*
X130984761Y-117784571D01*
X131032380Y-117736952D01*
X131127619Y-117689333D01*
X131365714Y-117689333D01*
X131460952Y-117736952D01*
X131508571Y-117784571D01*
X131556190Y-117879809D01*
X131556190Y-118117904D01*
X131508571Y-118213142D01*
X131460952Y-118260761D01*
X131365714Y-118308380D01*
X131127619Y-118308380D01*
X131032380Y-118260761D01*
X130984761Y-118213142D01*
X132603809Y-117308380D02*
X132937142Y-118308380D01*
X133270476Y-117308380D01*
G04 #@! TO.C,J6*
X108632666Y-111720380D02*
X108632666Y-112434666D01*
X108585047Y-112577523D01*
X108489809Y-112672761D01*
X108346952Y-112720380D01*
X108251714Y-112720380D01*
X109537428Y-111720380D02*
X109346952Y-111720380D01*
X109251714Y-111768000D01*
X109204095Y-111815619D01*
X109108857Y-111958476D01*
X109061238Y-112148952D01*
X109061238Y-112529904D01*
X109108857Y-112625142D01*
X109156476Y-112672761D01*
X109251714Y-112720380D01*
X109442190Y-112720380D01*
X109537428Y-112672761D01*
X109585047Y-112625142D01*
X109632666Y-112529904D01*
X109632666Y-112291809D01*
X109585047Y-112196571D01*
X109537428Y-112148952D01*
X109442190Y-112101333D01*
X109251714Y-112101333D01*
X109156476Y-112148952D01*
X109108857Y-112196571D01*
X109061238Y-112291809D01*
X103084380Y-107854380D02*
X103084380Y-107282952D01*
X104084380Y-107568666D02*
X103084380Y-107568666D01*
X104084380Y-106806761D02*
X104036761Y-106902000D01*
X103989142Y-106949619D01*
X103893904Y-106997238D01*
X103608190Y-106997238D01*
X103512952Y-106949619D01*
X103465333Y-106902000D01*
X103417714Y-106806761D01*
X103417714Y-106663904D01*
X103465333Y-106568666D01*
X103512952Y-106521047D01*
X103608190Y-106473428D01*
X103893904Y-106473428D01*
X103989142Y-106521047D01*
X104036761Y-106568666D01*
X104084380Y-106663904D01*
X104084380Y-106806761D01*
X103560571Y-105282952D02*
X103560571Y-104949619D01*
X104084380Y-104806761D02*
X104084380Y-105282952D01*
X103084380Y-105282952D01*
X103084380Y-104806761D01*
X104036761Y-104425809D02*
X104084380Y-104282952D01*
X104084380Y-104044857D01*
X104036761Y-103949619D01*
X103989142Y-103902000D01*
X103893904Y-103854380D01*
X103798666Y-103854380D01*
X103703428Y-103902000D01*
X103655809Y-103949619D01*
X103608190Y-104044857D01*
X103560571Y-104235333D01*
X103512952Y-104330571D01*
X103465333Y-104378190D01*
X103370095Y-104425809D01*
X103274857Y-104425809D01*
X103179619Y-104378190D01*
X103132000Y-104330571D01*
X103084380Y-104235333D01*
X103084380Y-103997238D01*
X103132000Y-103854380D01*
X103989142Y-102854380D02*
X104036761Y-102902000D01*
X104084380Y-103044857D01*
X104084380Y-103140095D01*
X104036761Y-103282952D01*
X103941523Y-103378190D01*
X103846285Y-103425809D01*
X103655809Y-103473428D01*
X103512952Y-103473428D01*
X103322476Y-103425809D01*
X103227238Y-103378190D01*
X103132000Y-103282952D01*
X103084380Y-103140095D01*
X103084380Y-103044857D01*
X103132000Y-102902000D01*
X103179619Y-102854380D01*
X104036761Y-102473428D02*
X104084380Y-102378190D01*
X104084380Y-102187714D01*
X104036761Y-102092476D01*
X103941523Y-102044857D01*
X103893904Y-102044857D01*
X103798666Y-102092476D01*
X103751047Y-102187714D01*
X103751047Y-102330571D01*
X103703428Y-102425809D01*
X103608190Y-102473428D01*
X103560571Y-102473428D01*
X103465333Y-102425809D01*
X103417714Y-102330571D01*
X103417714Y-102187714D01*
X103465333Y-102092476D01*
G04 #@! TO.C,*
D14*
X126015904Y-107168190D02*
X125777809Y-107168190D01*
X125754000Y-107406285D01*
X125777809Y-107382476D01*
X125825428Y-107358666D01*
X125944476Y-107358666D01*
X125992095Y-107382476D01*
X126015904Y-107406285D01*
X126039714Y-107453904D01*
X126039714Y-107572952D01*
X126015904Y-107620571D01*
X125992095Y-107644380D01*
X125944476Y-107668190D01*
X125825428Y-107668190D01*
X125777809Y-107644380D01*
X125754000Y-107620571D01*
X126182571Y-107168190D02*
X126349238Y-107668190D01*
X126515904Y-107168190D01*
X127063523Y-107668190D02*
X127063523Y-107334857D01*
X127063523Y-107430095D02*
X127087333Y-107382476D01*
X127111142Y-107358666D01*
X127158761Y-107334857D01*
X127206380Y-107334857D01*
X127563523Y-107644380D02*
X127515904Y-107668190D01*
X127420666Y-107668190D01*
X127373047Y-107644380D01*
X127349238Y-107596761D01*
X127349238Y-107406285D01*
X127373047Y-107358666D01*
X127420666Y-107334857D01*
X127515904Y-107334857D01*
X127563523Y-107358666D01*
X127587333Y-107406285D01*
X127587333Y-107453904D01*
X127349238Y-107501523D01*
X128015904Y-107334857D02*
X128015904Y-107739619D01*
X127992095Y-107787238D01*
X127968285Y-107811047D01*
X127920666Y-107834857D01*
X127849238Y-107834857D01*
X127801619Y-107811047D01*
X128015904Y-107644380D02*
X127968285Y-107668190D01*
X127873047Y-107668190D01*
X127825428Y-107644380D01*
X127801619Y-107620571D01*
X127777809Y-107572952D01*
X127777809Y-107430095D01*
X127801619Y-107382476D01*
X127825428Y-107358666D01*
X127873047Y-107334857D01*
X127968285Y-107334857D01*
X128015904Y-107358666D01*
X128468285Y-107334857D02*
X128468285Y-107668190D01*
X128254000Y-107334857D02*
X128254000Y-107596761D01*
X128277809Y-107644380D01*
X128325428Y-107668190D01*
X128396857Y-107668190D01*
X128444476Y-107644380D01*
X128468285Y-107620571D01*
X128777809Y-107668190D02*
X128730190Y-107644380D01*
X128706380Y-107596761D01*
X128706380Y-107168190D01*
D15*
X111721292Y-109818002D02*
X112021476Y-109818002D01*
X111859838Y-110002731D01*
X111929112Y-110002731D01*
X111975294Y-110025822D01*
X111998385Y-110048913D01*
X112021476Y-110095095D01*
X112021476Y-110210551D01*
X111998385Y-110256733D01*
X111975294Y-110279824D01*
X111929112Y-110302915D01*
X111790565Y-110302915D01*
X111744383Y-110279824D01*
X111721292Y-110256733D01*
X112229296Y-110256733D02*
X112252387Y-110279824D01*
X112229296Y-110302915D01*
X112206205Y-110279824D01*
X112229296Y-110256733D01*
X112229296Y-110302915D01*
X112414025Y-109818002D02*
X112714209Y-109818002D01*
X112552571Y-110002731D01*
X112621844Y-110002731D01*
X112668027Y-110025822D01*
X112691118Y-110048913D01*
X112714209Y-110095095D01*
X112714209Y-110210551D01*
X112691118Y-110256733D01*
X112668027Y-110279824D01*
X112621844Y-110302915D01*
X112483298Y-110302915D01*
X112437116Y-110279824D01*
X112414025Y-110256733D01*
X112852755Y-109818002D02*
X113014393Y-110302915D01*
X113176031Y-109818002D01*
X113337668Y-110302915D02*
X113337668Y-109979640D01*
X113337668Y-110072004D02*
X113360760Y-110025822D01*
X113383851Y-110002731D01*
X113430033Y-109979640D01*
X113476215Y-109979640D01*
X113822581Y-110279824D02*
X113776399Y-110302915D01*
X113684035Y-110302915D01*
X113637853Y-110279824D01*
X113614762Y-110233642D01*
X113614762Y-110048913D01*
X113637853Y-110002731D01*
X113684035Y-109979640D01*
X113776399Y-109979640D01*
X113822581Y-110002731D01*
X113845673Y-110048913D01*
X113845673Y-110095095D01*
X113614762Y-110141277D01*
X114261312Y-109979640D02*
X114261312Y-110372188D01*
X114238221Y-110418370D01*
X114215130Y-110441461D01*
X114168948Y-110464553D01*
X114099675Y-110464553D01*
X114053492Y-110441461D01*
X114261312Y-110279824D02*
X114215130Y-110302915D01*
X114122766Y-110302915D01*
X114076583Y-110279824D01*
X114053492Y-110256733D01*
X114030401Y-110210551D01*
X114030401Y-110072004D01*
X114053492Y-110025822D01*
X114076583Y-110002731D01*
X114122766Y-109979640D01*
X114215130Y-109979640D01*
X114261312Y-110002731D01*
X114700043Y-109979640D02*
X114700043Y-110302915D01*
X114492223Y-109979640D02*
X114492223Y-110233642D01*
X114515314Y-110279824D01*
X114561496Y-110302915D01*
X114630770Y-110302915D01*
X114676952Y-110279824D01*
X114700043Y-110256733D01*
X115000227Y-110302915D02*
X114954045Y-110279824D01*
X114930954Y-110233642D01*
X114930954Y-109818002D01*
G04 #@! TD*
M02*
