%FSLAX45Y45*%
G04 Gerber Fmt 4.5, Leading zero omitted, Abs format (unit mm)*
G04 Created by KiCad (PCBNEW 5.0.0-rc3-unknown-3e22e5c~65~ubuntu16.04.1) date Thu Jul 12 16:40:39 2018*
%MOMM*%
%LPD*%
G01*
G04 APERTURE LIST*
%ADD10C,0.150000*%
%ADD11C,0.200000*%
%ADD12C,0.300000*%
G04 APERTURE END LIST*
D10*
X16179800Y-13030200D02*
G75*
G03X16560800Y-12598400I-25400J406400D01*
G01*
X15748000Y-12420600D02*
X15748000Y-12649200D01*
X15748000Y-12420600D02*
G75*
G03X15519400Y-12192000I-228600J0D01*
G01*
X16560800Y-12598400D02*
X16560800Y-12192000D01*
X15748000Y-12649200D02*
G75*
G03X16179800Y-13030200I406400J25400D01*
G01*
X11303000Y-12192000D02*
X15519400Y-12192000D01*
X11125200Y-7061200D02*
X15671800Y-7061200D01*
X11023600Y-12420600D02*
X11023600Y-12598400D01*
X11303000Y-12192000D02*
G75*
G03X11023600Y-12420600I-25400J-254000D01*
G01*
X15849600Y-6604000D02*
X15849600Y-6883400D01*
X15671800Y-7061200D02*
G75*
G03X15849600Y-6883400I0J177800D01*
G01*
X10922000Y-6654800D02*
X10922000Y-6858000D01*
X10922000Y-6858000D02*
G75*
G03X11125200Y-7061200I203200J0D01*
G01*
X10210800Y-12192000D02*
X10210800Y-12649200D01*
X10210800Y-12649200D02*
G75*
G03X10642600Y-13030200I406400J25400D01*
G01*
X10642600Y-13030200D02*
G75*
G03X11023600Y-12598400I-25400J406400D01*
G01*
X16560800Y-6654800D02*
X16560800Y-7061200D01*
X16230600Y-6273800D02*
G75*
G03X15849600Y-6604000I-25400J-355600D01*
G01*
X16560800Y-6654800D02*
G75*
G03X16230600Y-6273800I-355600J25400D01*
G01*
X10210800Y-6654800D02*
X10210800Y-7061200D01*
X10922000Y-6654800D02*
G75*
G03X10566400Y-6299200I-355600J0D01*
G01*
X10566400Y-6299200D02*
G75*
G03X10210800Y-6654800I0J-355600D01*
G01*
X10210800Y-7061200D02*
X10210800Y-12192000D01*
X16560800Y-12192000D02*
X16560800Y-7061200D01*
D11*
X16005200Y-6439560D02*
X16405200Y-6839560D01*
X16405200Y-6439560D02*
X16005200Y-6839560D01*
X15954400Y-12408560D02*
X16354400Y-12808560D01*
X16354400Y-12408560D02*
X15954400Y-12808560D01*
X10366400Y-6439560D02*
X10766400Y-6839560D01*
X10766400Y-6439560D02*
X10366400Y-6839560D01*
X10417200Y-12408560D02*
X10817200Y-12808560D01*
X10817200Y-12408560D02*
X10417200Y-12808560D01*
D12*
X10489728Y-13504207D02*
X10489728Y-13204207D01*
X10561157Y-13204207D01*
X10604014Y-13218493D01*
X10632586Y-13247064D01*
X10646871Y-13275636D01*
X10661157Y-13332779D01*
X10661157Y-13375636D01*
X10646871Y-13432779D01*
X10632586Y-13461350D01*
X10604014Y-13489922D01*
X10561157Y-13504207D01*
X10489728Y-13504207D01*
X10789728Y-13504207D02*
X10789728Y-13304207D01*
X10789728Y-13361350D02*
X10804014Y-13332779D01*
X10818300Y-13318493D01*
X10846871Y-13304207D01*
X10875443Y-13304207D01*
X10975443Y-13504207D02*
X10975443Y-13304207D01*
X10975443Y-13204207D02*
X10961157Y-13218493D01*
X10975443Y-13232779D01*
X10989728Y-13218493D01*
X10975443Y-13204207D01*
X10975443Y-13232779D01*
X11161157Y-13504207D02*
X11132586Y-13489922D01*
X11118300Y-13461350D01*
X11118300Y-13204207D01*
X11318300Y-13504207D02*
X11289728Y-13489922D01*
X11275443Y-13461350D01*
X11275443Y-13204207D01*
X11661157Y-13504207D02*
X11661157Y-13204207D01*
X11761157Y-13418493D01*
X11861157Y-13204207D01*
X11861157Y-13504207D01*
X12132586Y-13504207D02*
X12132586Y-13347064D01*
X12118300Y-13318493D01*
X12089728Y-13304207D01*
X12032586Y-13304207D01*
X12004014Y-13318493D01*
X12132586Y-13489922D02*
X12104014Y-13504207D01*
X12032586Y-13504207D01*
X12004014Y-13489922D01*
X11989728Y-13461350D01*
X11989728Y-13432779D01*
X12004014Y-13404207D01*
X12032586Y-13389922D01*
X12104014Y-13389922D01*
X12132586Y-13375636D01*
X12275443Y-13304207D02*
X12275443Y-13604207D01*
X12275443Y-13318493D02*
X12304014Y-13304207D01*
X12361157Y-13304207D01*
X12389728Y-13318493D01*
X12404014Y-13332779D01*
X12418300Y-13361350D01*
X12418300Y-13447064D01*
X12404014Y-13475636D01*
X12389728Y-13489922D01*
X12361157Y-13504207D01*
X12304014Y-13504207D01*
X12275443Y-13489922D01*
X12546871Y-13475636D02*
X12561157Y-13489922D01*
X12546871Y-13504207D01*
X12532586Y-13489922D01*
X12546871Y-13475636D01*
X12546871Y-13504207D01*
X12546871Y-13318493D02*
X12561157Y-13332779D01*
X12546871Y-13347064D01*
X12532586Y-13332779D01*
X12546871Y-13318493D01*
X12546871Y-13347064D01*
X9803300Y-13798493D02*
X10203300Y-14198493D01*
X10203300Y-13798493D02*
X9803300Y-14198493D01*
X10618300Y-13934207D02*
X10618300Y-14134207D01*
X10546871Y-13819922D02*
X10475443Y-14034207D01*
X10661157Y-14034207D01*
X10775443Y-14105636D02*
X10789728Y-14119922D01*
X10775443Y-14134207D01*
X10761157Y-14119922D01*
X10775443Y-14105636D01*
X10775443Y-14134207D01*
X10975443Y-13834207D02*
X11004014Y-13834207D01*
X11032586Y-13848493D01*
X11046871Y-13862779D01*
X11061157Y-13891350D01*
X11075443Y-13948493D01*
X11075443Y-14019922D01*
X11061157Y-14077064D01*
X11046871Y-14105636D01*
X11032586Y-14119922D01*
X11004014Y-14134207D01*
X10975443Y-14134207D01*
X10946871Y-14119922D01*
X10932586Y-14105636D01*
X10918300Y-14077064D01*
X10904014Y-14019922D01*
X10904014Y-13948493D01*
X10918300Y-13891350D01*
X10932586Y-13862779D01*
X10946871Y-13848493D01*
X10975443Y-13834207D01*
X11261157Y-13834207D02*
X11289728Y-13834207D01*
X11318300Y-13848493D01*
X11332586Y-13862779D01*
X11346871Y-13891350D01*
X11361157Y-13948493D01*
X11361157Y-14019922D01*
X11346871Y-14077064D01*
X11332586Y-14105636D01*
X11318300Y-14119922D01*
X11289728Y-14134207D01*
X11261157Y-14134207D01*
X11232586Y-14119922D01*
X11218300Y-14105636D01*
X11204014Y-14077064D01*
X11189728Y-14019922D01*
X11189728Y-13948493D01*
X11204014Y-13891350D01*
X11218300Y-13862779D01*
X11232586Y-13848493D01*
X11261157Y-13834207D01*
X11489728Y-14134207D02*
X11489728Y-13934207D01*
X11489728Y-13962779D02*
X11504014Y-13948493D01*
X11532586Y-13934207D01*
X11575443Y-13934207D01*
X11604014Y-13948493D01*
X11618300Y-13977064D01*
X11618300Y-14134207D01*
X11618300Y-13977064D02*
X11632586Y-13948493D01*
X11661157Y-13934207D01*
X11704014Y-13934207D01*
X11732586Y-13948493D01*
X11746871Y-13977064D01*
X11746871Y-14134207D01*
X11889728Y-14134207D02*
X11889728Y-13934207D01*
X11889728Y-13962779D02*
X11904014Y-13948493D01*
X11932586Y-13934207D01*
X11975443Y-13934207D01*
X12004014Y-13948493D01*
X12018300Y-13977064D01*
X12018300Y-14134207D01*
X12018300Y-13977064D02*
X12032586Y-13948493D01*
X12061157Y-13934207D01*
X12104014Y-13934207D01*
X12132586Y-13948493D01*
X12146871Y-13977064D01*
X12146871Y-14134207D01*
X12732586Y-13819922D02*
X12475443Y-14205636D01*
X13118300Y-13834207D02*
X13146871Y-13834207D01*
X13175443Y-13848493D01*
X13189728Y-13862779D01*
X13204014Y-13891350D01*
X13218300Y-13948493D01*
X13218300Y-14019922D01*
X13204014Y-14077064D01*
X13189728Y-14105636D01*
X13175443Y-14119922D01*
X13146871Y-14134207D01*
X13118300Y-14134207D01*
X13089728Y-14119922D01*
X13075443Y-14105636D01*
X13061157Y-14077064D01*
X13046871Y-14019922D01*
X13046871Y-13948493D01*
X13061157Y-13891350D01*
X13075443Y-13862779D01*
X13089728Y-13848493D01*
X13118300Y-13834207D01*
X13346871Y-14105636D02*
X13361157Y-14119922D01*
X13346871Y-14134207D01*
X13332586Y-14119922D01*
X13346871Y-14105636D01*
X13346871Y-14134207D01*
X13646871Y-14134207D02*
X13475443Y-14134207D01*
X13561157Y-14134207D02*
X13561157Y-13834207D01*
X13532586Y-13877064D01*
X13504014Y-13905636D01*
X13475443Y-13919922D01*
X13918300Y-13834207D02*
X13775443Y-13834207D01*
X13761157Y-13977064D01*
X13775443Y-13962779D01*
X13804014Y-13948493D01*
X13875443Y-13948493D01*
X13904014Y-13962779D01*
X13918300Y-13977064D01*
X13932586Y-14005636D01*
X13932586Y-14077064D01*
X13918300Y-14105636D01*
X13904014Y-14119922D01*
X13875443Y-14134207D01*
X13804014Y-14134207D01*
X13775443Y-14119922D01*
X13761157Y-14105636D01*
X14032586Y-13834207D02*
X14232586Y-13834207D01*
X14104014Y-14134207D01*
X14332586Y-13834207D02*
X14332586Y-13891350D01*
X14446871Y-13834207D02*
X14446871Y-13891350D01*
X14889728Y-14248493D02*
X14875443Y-14234207D01*
X14846871Y-14191350D01*
X14832586Y-14162779D01*
X14818300Y-14119922D01*
X14804014Y-14048493D01*
X14804014Y-13991350D01*
X14818300Y-13919922D01*
X14832586Y-13877064D01*
X14846871Y-13848493D01*
X14875443Y-13805636D01*
X14889728Y-13791350D01*
X15132586Y-13934207D02*
X15132586Y-14134207D01*
X15061157Y-13819922D02*
X14989728Y-14034207D01*
X15175443Y-14034207D01*
X15518300Y-14134207D02*
X15518300Y-13834207D01*
X15646871Y-14134207D02*
X15646871Y-13977064D01*
X15632586Y-13948493D01*
X15604014Y-13934207D01*
X15561157Y-13934207D01*
X15532586Y-13948493D01*
X15518300Y-13962779D01*
X15832586Y-14134207D02*
X15804014Y-14119922D01*
X15789728Y-14105636D01*
X15775443Y-14077064D01*
X15775443Y-13991350D01*
X15789728Y-13962779D01*
X15804014Y-13948493D01*
X15832586Y-13934207D01*
X15875443Y-13934207D01*
X15904014Y-13948493D01*
X15918300Y-13962779D01*
X15932586Y-13991350D01*
X15932586Y-14077064D01*
X15918300Y-14105636D01*
X15904014Y-14119922D01*
X15875443Y-14134207D01*
X15832586Y-14134207D01*
X16104014Y-14134207D02*
X16075443Y-14119922D01*
X16061157Y-14091350D01*
X16061157Y-13834207D01*
X16332586Y-14119922D02*
X16304014Y-14134207D01*
X16246871Y-14134207D01*
X16218300Y-14119922D01*
X16204014Y-14091350D01*
X16204014Y-13977064D01*
X16218300Y-13948493D01*
X16246871Y-13934207D01*
X16304014Y-13934207D01*
X16332586Y-13948493D01*
X16346871Y-13977064D01*
X16346871Y-14005636D01*
X16204014Y-14034207D01*
X16461157Y-14119922D02*
X16489728Y-14134207D01*
X16546871Y-14134207D01*
X16575443Y-14119922D01*
X16589728Y-14091350D01*
X16589728Y-14077064D01*
X16575443Y-14048493D01*
X16546871Y-14034207D01*
X16504014Y-14034207D01*
X16475443Y-14019922D01*
X16461157Y-13991350D01*
X16461157Y-13977064D01*
X16475443Y-13948493D01*
X16504014Y-13934207D01*
X16546871Y-13934207D01*
X16575443Y-13948493D01*
X16689728Y-14248493D02*
X16704014Y-14234207D01*
X16732586Y-14191350D01*
X16746871Y-14162779D01*
X16761157Y-14119922D01*
X16775443Y-14048493D01*
X16775443Y-13991350D01*
X16761157Y-13919922D01*
X16746871Y-13877064D01*
X16732586Y-13848493D01*
X16704014Y-13805636D01*
X16689728Y-13791350D01*
X17232586Y-14248493D02*
X17218300Y-14234207D01*
X17189728Y-14191350D01*
X17175443Y-14162779D01*
X17161157Y-14119922D01*
X17146871Y-14048493D01*
X17146871Y-13991350D01*
X17161157Y-13919922D01*
X17175443Y-13877064D01*
X17189728Y-13848493D01*
X17218300Y-13805636D01*
X17232586Y-13791350D01*
X17346871Y-13934207D02*
X17346871Y-14134207D01*
X17346871Y-13962779D02*
X17361157Y-13948493D01*
X17389728Y-13934207D01*
X17432586Y-13934207D01*
X17461157Y-13948493D01*
X17475443Y-13977064D01*
X17475443Y-14134207D01*
X17661157Y-14134207D02*
X17632586Y-14119922D01*
X17618300Y-14105636D01*
X17604014Y-14077064D01*
X17604014Y-13991350D01*
X17618300Y-13962779D01*
X17632586Y-13948493D01*
X17661157Y-13934207D01*
X17704014Y-13934207D01*
X17732586Y-13948493D01*
X17746871Y-13962779D01*
X17761157Y-13991350D01*
X17761157Y-14077064D01*
X17746871Y-14105636D01*
X17732586Y-14119922D01*
X17704014Y-14134207D01*
X17661157Y-14134207D01*
X17846871Y-13934207D02*
X17961157Y-13934207D01*
X17889728Y-13834207D02*
X17889728Y-14091350D01*
X17904014Y-14119922D01*
X17932586Y-14134207D01*
X17961157Y-14134207D01*
X18289728Y-13934207D02*
X18289728Y-14234207D01*
X18289728Y-13948493D02*
X18318300Y-13934207D01*
X18375443Y-13934207D01*
X18404014Y-13948493D01*
X18418300Y-13962779D01*
X18432586Y-13991350D01*
X18432586Y-14077064D01*
X18418300Y-14105636D01*
X18404014Y-14119922D01*
X18375443Y-14134207D01*
X18318300Y-14134207D01*
X18289728Y-14119922D01*
X18604014Y-14134207D02*
X18575443Y-14119922D01*
X18561157Y-14091350D01*
X18561157Y-13834207D01*
X18846871Y-14134207D02*
X18846871Y-13977064D01*
X18832586Y-13948493D01*
X18804014Y-13934207D01*
X18746871Y-13934207D01*
X18718300Y-13948493D01*
X18846871Y-14119922D02*
X18818300Y-14134207D01*
X18746871Y-14134207D01*
X18718300Y-14119922D01*
X18704014Y-14091350D01*
X18704014Y-14062779D01*
X18718300Y-14034207D01*
X18746871Y-14019922D01*
X18818300Y-14019922D01*
X18846871Y-14005636D01*
X18946871Y-13934207D02*
X19061157Y-13934207D01*
X18989728Y-13834207D02*
X18989728Y-14091350D01*
X19004014Y-14119922D01*
X19032586Y-14134207D01*
X19061157Y-14134207D01*
X19275443Y-14119922D02*
X19246871Y-14134207D01*
X19189728Y-14134207D01*
X19161157Y-14119922D01*
X19146871Y-14091350D01*
X19146871Y-13977064D01*
X19161157Y-13948493D01*
X19189728Y-13934207D01*
X19246871Y-13934207D01*
X19275443Y-13948493D01*
X19289728Y-13977064D01*
X19289728Y-14005636D01*
X19146871Y-14034207D01*
X19546871Y-14134207D02*
X19546871Y-13834207D01*
X19546871Y-14119922D02*
X19518300Y-14134207D01*
X19461157Y-14134207D01*
X19432586Y-14119922D01*
X19418300Y-14105636D01*
X19404014Y-14077064D01*
X19404014Y-13991350D01*
X19418300Y-13962779D01*
X19432586Y-13948493D01*
X19461157Y-13934207D01*
X19518300Y-13934207D01*
X19546871Y-13948493D01*
X19661157Y-14248493D02*
X19675443Y-14234207D01*
X19704014Y-14191350D01*
X19718300Y-14162779D01*
X19732586Y-14119922D01*
X19746871Y-14048493D01*
X19746871Y-13991350D01*
X19732586Y-13919922D01*
X19718300Y-13877064D01*
X19704014Y-13848493D01*
X19675443Y-13805636D01*
X19661157Y-13791350D01*
M02*
