G04 #@! TF.GenerationSoftware,KiCad,Pcbnew,5.0.0-rc3-unknown-3e22e5c~65~ubuntu16.04.1*
G04 #@! TF.CreationDate,2018-07-12T16:40:26-04:00*
G04 #@! TF.ProjectId,Phoenix_schema_ver3,50686F656E69785F736368656D615F76,rev?*
G04 #@! TF.SameCoordinates,Original*
G04 #@! TF.FileFunction,Paste,Top*
G04 #@! TF.FilePolarity,Positive*
%FSLAX46Y46*%
G04 Gerber Fmt 4.6, Leading zero omitted, Abs format (unit mm)*
G04 Created by KiCad (PCBNEW 5.0.0-rc3-unknown-3e22e5c~65~ubuntu16.04.1) date Thu Jul 12 16:40:26 2018*
%MOMM*%
%LPD*%
G01*
G04 APERTURE LIST*
%ADD10C,0.100000*%
%ADD11R,0.965200X3.505200*%
%ADD12R,6.553200X8.458200*%
%ADD13R,1.060000X1.920000*%
%ADD14R,9.090000X8.120000*%
G04 APERTURE END LIST*
D10*
G04 #@! TO.C,*
G36*
X116187569Y-101669430D02*
X116187569Y-100261240D01*
X117484244Y-100261240D01*
X117484244Y-101669430D01*
X116187569Y-101669430D01*
G37*
G36*
X114357400Y-101679600D02*
X114357400Y-100254800D01*
X115657800Y-100254800D01*
X115657800Y-101679600D01*
X114357400Y-101679600D01*
G37*
G36*
X118020830Y-101656170D02*
X118020830Y-100271150D01*
X119314150Y-100271150D01*
X119314150Y-101656170D01*
X118020830Y-101656170D01*
G37*
G36*
X112527950Y-101689050D02*
X112527950Y-100244470D01*
X113827470Y-100244470D01*
X113827470Y-101689050D01*
X112527950Y-101689050D01*
G37*
G36*
X119844330Y-101652670D02*
X119844330Y-100281660D01*
X121144660Y-100281660D01*
X121144660Y-101652670D01*
X119844330Y-101652670D01*
G37*
G36*
X112516230Y-103730771D02*
X112516230Y-102283610D01*
X113836610Y-102283610D01*
X113836610Y-103730771D01*
X112516230Y-103730771D01*
G37*
G36*
X112491930Y-105785070D02*
X112491930Y-104319930D01*
X113842930Y-104319930D01*
X113842930Y-105785070D01*
X112491930Y-105785070D01*
G37*
G36*
X112537880Y-99649120D02*
X112537880Y-98190760D01*
X113803760Y-98190760D01*
X113803760Y-99649120D01*
X112537880Y-99649120D01*
G37*
G36*
X114367510Y-99639490D02*
X114367510Y-98214320D01*
X115647320Y-98214320D01*
X115647320Y-99639490D01*
X114367510Y-99639490D01*
G37*
G36*
X116197695Y-99629310D02*
X116197695Y-98221850D01*
X117474854Y-98221850D01*
X117474854Y-99629310D01*
X116197695Y-99629310D01*
G37*
G36*
X118031030Y-99615970D02*
X118031030Y-98229490D01*
X119302490Y-98229490D01*
X119302490Y-99615970D01*
X118031030Y-99615970D01*
G37*
G36*
X119862210Y-99604790D02*
X119862210Y-98240430D01*
X121133430Y-98240430D01*
X121133430Y-99604790D01*
X119862210Y-99604790D01*
G37*
G36*
X119832630Y-103694371D02*
X119832630Y-102319930D01*
X121152930Y-102319930D01*
X121152930Y-103694371D01*
X119832630Y-103694371D01*
G37*
G36*
X119825110Y-105731890D02*
X119825110Y-104366298D01*
X121169300Y-104366298D01*
X121169300Y-105731890D01*
X119825110Y-105731890D01*
G37*
G36*
X118004720Y-103702276D02*
X118004720Y-102312030D01*
X119325030Y-102312030D01*
X119325030Y-103702276D01*
X118004720Y-103702276D01*
G37*
G36*
X117995650Y-105741350D02*
X117995650Y-104351665D01*
X119334670Y-104351665D01*
X119334670Y-105741350D01*
X117995650Y-105741350D01*
G37*
G36*
X114347280Y-103719721D02*
X114347280Y-102294630D01*
X115667630Y-102294630D01*
X115667630Y-103719721D01*
X114347280Y-103719721D01*
G37*
G36*
X114337210Y-105759790D02*
X114337210Y-104334730D01*
X115677730Y-104334730D01*
X115677730Y-105759790D01*
X114337210Y-105759790D01*
G37*
G36*
X116176338Y-103710662D02*
X116176338Y-102303690D01*
X117496687Y-102303690D01*
X117496687Y-103710662D01*
X116176338Y-103710662D01*
G37*
G36*
X116167079Y-105749920D02*
X116167079Y-104343378D01*
X117506378Y-104343378D01*
X117506378Y-105749920D01*
X116167079Y-105749920D01*
G37*
G04 #@! TD*
D11*
G04 #@! TO.C,*
X124612400Y-113449100D03*
X126314200Y-113449100D03*
X128016000Y-113449100D03*
X129717800Y-113449100D03*
X131419600Y-113449100D03*
D12*
X128016000Y-101650800D03*
G04 #@! TD*
D13*
G04 #@! TO.C,*
X113400000Y-108372000D03*
X115120000Y-108372000D03*
X116840000Y-108372000D03*
X118560000Y-108372000D03*
X120280000Y-108372000D03*
D14*
X116840000Y-101992000D03*
G04 #@! TD*
M02*
