M48
;DRILL file {KiCad 5.0.0-rc3-unknown-3e22e5c~65~ubuntu16.04.1} date Thu Jul 12 16:40:43 2018
;FORMAT={-:-/ absolute / inch / decimal}
FMAT,2
INCH,TZ
T1C0.0157
T2C0.0197
T3C0.0315
T4C0.1693
%
G90
G05
M72
T1
X4.6Y-4.41
X4.74Y-4.5
X4.74Y-4.6
X5.04Y-4.28
X5.04Y-4.59
T2
X6.478Y-4.3981
X6.478Y-4.446
X6.478Y-4.4939
T3
X5.15Y-4.72
X5.2287Y-4.72
X4.9213Y-2.84
X5.Y-2.84
X5.0787Y-2.84
X5.1575Y-2.84
X4.5Y-2.84
X4.5787Y-2.84
X4.6575Y-2.84
X4.7362Y-2.84
X4.815Y-2.84
X5.4894Y-3.1548
X5.4894Y-3.2335
X5.4894Y-3.3122
X5.4894Y-3.391
X5.4894Y-3.4697
X5.4894Y-3.5485
X5.4894Y-3.6272
X5.4894Y-3.7059
X5.4894Y-3.7847
X5.49Y-3.076
X6.3555Y-3.1548
X6.3555Y-3.2335
X6.3555Y-3.3122
X6.3555Y-3.391
X6.3555Y-3.4697
X6.3555Y-3.5485
X6.3555Y-3.6272
X6.3555Y-3.7059
X6.3555Y-3.7847
X6.356Y-3.074
X4.458Y-2.948
X4.458Y-3.028
X4.458Y-3.103
X4.458Y-3.703
X4.528Y-3.773
X4.5378Y-2.9474
X4.6165Y-2.9474
X4.6952Y-2.9474
X4.774Y-2.9474
X4.8527Y-2.9474
X5.083Y-3.773
X5.163Y-3.773
X5.2429Y-3.1365
X5.2429Y-3.2152
X5.2429Y-3.294
X5.2429Y-3.3727
X5.243Y-3.453
X5.243Y-3.533
X5.243Y-3.613
X5.243Y-3.693
X5.243Y-3.773
X4.1Y-2.9425
X4.1Y-3.0213
X4.1Y-3.1
X4.7313Y-4.72
X4.81Y-4.72
X4.94Y-4.72
X5.0187Y-4.72
X5.58Y-4.72
X5.6587Y-4.72
X5.7375Y-4.72
X5.8162Y-4.72
X5.895Y-4.72
X5.9737Y-4.72
X6.0524Y-4.72
T4
X4.195Y-3.375
X4.195Y-3.64
X4.205Y-4.02
X4.205Y-4.285
X4.215Y-4.625
X4.48Y-4.625
T0
M30
