G04 #@! TF.GenerationSoftware,KiCad,Pcbnew,5.0.0-rc3-unknown-3e22e5c~65~ubuntu16.04.1*
G04 #@! TF.CreationDate,2018-07-12T16:40:26-04:00*
G04 #@! TF.ProjectId,Phoenix_schema_ver3,50686F656E69785F736368656D615F76,rev?*
G04 #@! TF.SameCoordinates,Original*
G04 #@! TF.FileFunction,Soldermask,Bot*
G04 #@! TF.FilePolarity,Negative*
%FSLAX46Y46*%
G04 Gerber Fmt 4.6, Leading zero omitted, Abs format (unit mm)*
G04 Created by KiCad (PCBNEW 5.0.0-rc3-unknown-3e22e5c~65~ubuntu16.04.1) date Thu Jul 12 16:40:26 2018*
%MOMM*%
%LPD*%
G01*
G04 APERTURE LIST*
%ADD10C,1.924000*%
%ADD11O,1.750000X1.750000*%
%ADD12R,1.750000X1.750000*%
%ADD13C,1.400000*%
%ADD14C,4.400000*%
%ADD15C,5.400000*%
G04 APERTURE END LIST*
D10*
G04 #@! TO.C,ELKA*
X133170477Y-85667204D03*
X133170477Y-83667204D03*
X133170477Y-81667204D03*
X133170477Y-79667204D03*
X115011200Y-95834200D03*
X113233200Y-94056200D03*
X133172200Y-87706200D03*
X133172200Y-89738200D03*
X133172200Y-91770200D03*
X133172200Y-93802200D03*
X129108200Y-95834200D03*
X131140200Y-95834200D03*
X133172200Y-95834200D03*
X113233200Y-78816200D03*
X113233200Y-76911200D03*
X123259200Y-74863200D03*
X121259200Y-74863200D03*
X119259200Y-74863200D03*
X117259200Y-74863200D03*
X115259200Y-74863200D03*
X113233200Y-74879200D03*
G04 #@! TD*
G04 #@! TO.C,Zigbee*
X139446000Y-78130400D03*
X139430000Y-80131000D03*
X139430000Y-82131000D03*
X139430000Y-84131000D03*
X139430000Y-86131000D03*
X139430000Y-88131000D03*
X139430000Y-90131000D03*
X139430000Y-92131000D03*
X139430000Y-94131000D03*
X139430000Y-96131000D03*
X161442400Y-78079600D03*
X161430000Y-80131000D03*
X161430000Y-82131000D03*
X161430000Y-84131000D03*
X161430000Y-86131000D03*
X161430000Y-88131000D03*
X161430000Y-90131000D03*
X161430000Y-92131000D03*
X161430000Y-94131000D03*
X161430000Y-96131000D03*
G04 #@! TD*
D11*
G04 #@! TO.C,J9\002CJ15*
X153732000Y-119888000D03*
X151732000Y-119888000D03*
X149732000Y-119888000D03*
X147732000Y-119888000D03*
X145732000Y-119888000D03*
X143732000Y-119888000D03*
D12*
X141732000Y-119888000D03*
G04 #@! TD*
D13*
G04 #@! TO.C,R1*
X164541200Y-114144400D03*
X164541200Y-112928400D03*
X164541200Y-111712400D03*
G04 #@! TD*
D14*
G04 #@! TO.C,REF\002A\002A*
X161544000Y-126085600D03*
G04 #@! TD*
D12*
G04 #@! TO.C,To ESCs*
X114300000Y-72136000D03*
D11*
X116300000Y-72136000D03*
X118300000Y-72136000D03*
X120300000Y-72136000D03*
X122300000Y-72136000D03*
G04 #@! TD*
D14*
G04 #@! TO.C,REF\002A\002A*
X105664000Y-66395600D03*
G04 #@! TD*
D15*
G04 #@! TO.C,To EScs*
X106553000Y-85725000D03*
X106553000Y-92456000D03*
G04 #@! TD*
G04 #@! TO.C,J1*
X106807000Y-108839000D03*
X106807000Y-102108000D03*
G04 #@! TD*
D12*
G04 #@! TO.C,J16*
X131000000Y-72136000D03*
D11*
X129000000Y-72136000D03*
X127000000Y-72136000D03*
X125000000Y-72136000D03*
G04 #@! TD*
D12*
G04 #@! TO.C,J3*
X122174000Y-119888000D03*
D11*
X120174000Y-119888000D03*
G04 #@! TD*
D12*
G04 #@! TO.C,J4*
X125476000Y-119888000D03*
D11*
X127476000Y-119888000D03*
G04 #@! TD*
D12*
G04 #@! TO.C,J5*
X130810000Y-119888000D03*
D11*
X132810000Y-119888000D03*
G04 #@! TD*
D15*
G04 #@! TO.C,J6*
X107061000Y-117475000D03*
X113792000Y-117475000D03*
G04 #@! TD*
D12*
G04 #@! TO.C,*
X104140000Y-78740000D03*
D11*
X104140000Y-76740000D03*
X104140000Y-74740000D03*
G04 #@! TD*
D14*
G04 #@! TO.C,REF\002A\002A*
X162052000Y-66395600D03*
G04 #@! TD*
G04 #@! TO.C,REF\002A\002A*
X106172000Y-126085600D03*
G04 #@! TD*
M02*
