G04 #@! TF.GenerationSoftware,KiCad,Pcbnew,5.0.0-rc3-unknown-3e22e5c~65~ubuntu16.04.1*
G04 #@! TF.CreationDate,2018-07-12T16:40:26-04:00*
G04 #@! TF.ProjectId,Phoenix_schema_ver3,50686F656E69785F736368656D615F76,rev?*
G04 #@! TF.SameCoordinates,Original*
G04 #@! TF.FileFunction,Copper,L2,Bot,Signal*
G04 #@! TF.FilePolarity,Positive*
%FSLAX46Y46*%
G04 Gerber Fmt 4.6, Leading zero omitted, Abs format (unit mm)*
G04 Created by KiCad (PCBNEW 5.0.0-rc3-unknown-3e22e5c~65~ubuntu16.04.1) date Thu Jul 12 16:40:26 2018*
%MOMM*%
%LPD*%
G01*
G04 APERTURE LIST*
G04 #@! TA.AperFunction,ComponentPad*
%ADD10C,1.524000*%
G04 #@! TD*
G04 #@! TA.AperFunction,ComponentPad*
%ADD11O,1.350000X1.350000*%
G04 #@! TD*
G04 #@! TA.AperFunction,ComponentPad*
%ADD12R,1.350000X1.350000*%
G04 #@! TD*
G04 #@! TA.AperFunction,ComponentPad*
%ADD13C,1.000000*%
G04 #@! TD*
G04 #@! TA.AperFunction,ComponentPad*
%ADD14C,5.000000*%
G04 #@! TD*
G04 #@! TA.AperFunction,ViaPad*
%ADD15C,0.600000*%
G04 #@! TD*
G04 #@! TA.AperFunction,Conductor*
%ADD16C,0.250000*%
G04 #@! TD*
G04 #@! TA.AperFunction,Conductor*
%ADD17C,0.500000*%
G04 #@! TD*
G04 #@! TA.AperFunction,Conductor*
%ADD18C,2.500000*%
G04 #@! TD*
G04 #@! TA.AperFunction,Conductor*
%ADD19C,1.500000*%
G04 #@! TD*
G04 APERTURE END LIST*
D10*
G04 #@! TO.P,ELKA,D*
G04 #@! TO.N,Net-(E1-PadD)*
X133170477Y-85667204D03*
G04 #@! TO.P,ELKA,C*
G04 #@! TO.N,Net-(E1-PadC)*
X133170477Y-83667204D03*
G04 #@! TO.P,ELKA,B*
G04 #@! TO.N,Net-(E1-PadB)*
X133170477Y-81667204D03*
G04 #@! TO.P,ELKA,A*
G04 #@! TO.N,Net-(E1-PadA)*
X133170477Y-79667204D03*
G04 #@! TO.P,ELKA,12*
G04 #@! TO.N,Net-(E1-Pad12)*
X115011200Y-95834200D03*
G04 #@! TO.P,ELKA,11*
G04 #@! TO.N,Net-(E1-Pad11)*
X113233200Y-94056200D03*
G04 #@! TO.P,ELKA,E*
G04 #@! TO.N,Net-(E1-PadE)*
X133172200Y-87706200D03*
G04 #@! TO.P,ELKA,F*
G04 #@! TO.N,Net-(E1-PadF)*
X133172200Y-89738200D03*
G04 #@! TO.P,ELKA,G*
G04 #@! TO.N,Net-(E1-PadG)*
X133172200Y-91770200D03*
G04 #@! TO.P,ELKA,H*
G04 #@! TO.N,Net-(E1-PadH)*
X133172200Y-93802200D03*
G04 #@! TO.P,ELKA,10*
G04 #@! TO.N,Net-(E1-Pad10)*
X129108200Y-95834200D03*
G04 #@! TO.P,ELKA,9*
G04 #@! TO.N,Net-(E1-Pad9)*
X131140200Y-95834200D03*
G04 #@! TO.P,ELKA,I*
G04 #@! TO.N,Net-(E1-PadI)*
X133172200Y-95834200D03*
G04 #@! TO.P,ELKA,1*
G04 #@! TO.N,Net-(E1-Pad1)*
X113233200Y-78816200D03*
G04 #@! TO.P,ELKA,2*
G04 #@! TO.N,Net-(E1-Pad2)*
X113233200Y-76911200D03*
G04 #@! TO.P,ELKA,8*
G04 #@! TO.N,Net-(E1-Pad8)*
X123259200Y-74863200D03*
G04 #@! TO.P,ELKA,7*
G04 #@! TO.N,Net-(E1-Pad7)*
X121259200Y-74863200D03*
G04 #@! TO.P,ELKA,6*
G04 #@! TO.N,Net-(E1-Pad6)*
X119259200Y-74863200D03*
G04 #@! TO.P,ELKA,5*
G04 #@! TO.N,Net-(E1-Pad5)*
X117259200Y-74863200D03*
G04 #@! TO.P,ELKA,4*
G04 #@! TO.N,Net-(E1-Pad4)*
X115259200Y-74863200D03*
G04 #@! TO.P,ELKA,3*
G04 #@! TO.N,Net-(E1-Pad3)*
X113233200Y-74879200D03*
G04 #@! TD*
G04 #@! TO.P,Zigbee,1*
G04 #@! TO.N,Net-(E1-PadC)*
X139446000Y-78130400D03*
G04 #@! TO.P,Zigbee,2*
G04 #@! TO.N,Net-(E1-PadB)*
X139430000Y-80131000D03*
G04 #@! TO.P,Zigbee,3*
G04 #@! TO.N,Net-(E1-PadA)*
X139430000Y-82131000D03*
G04 #@! TO.P,Zigbee,4*
G04 #@! TO.N,Net-(U1-Pad4)*
X139430000Y-84131000D03*
G04 #@! TO.P,Zigbee,5*
G04 #@! TO.N,Net-(U1-Pad5)*
X139430000Y-86131000D03*
G04 #@! TO.P,Zigbee,6*
G04 #@! TO.N,Net-(U1-Pad6)*
X139430000Y-88131000D03*
G04 #@! TO.P,Zigbee,7*
G04 #@! TO.N,Net-(U1-Pad7)*
X139430000Y-90131000D03*
G04 #@! TO.P,Zigbee,8*
G04 #@! TO.N,Net-(U1-Pad8)*
X139430000Y-92131000D03*
G04 #@! TO.P,Zigbee,9*
G04 #@! TO.N,Net-(U1-Pad9)*
X139430000Y-94131000D03*
G04 #@! TO.P,Zigbee,10*
G04 #@! TO.N,Net-(E1-PadD)*
X139430000Y-96131000D03*
G04 #@! TO.P,Zigbee,20*
G04 #@! TO.N,Net-(U1-Pad20)*
X161442400Y-78079600D03*
G04 #@! TO.P,Zigbee,19*
G04 #@! TO.N,Net-(U1-Pad19)*
X161430000Y-80131000D03*
G04 #@! TO.P,Zigbee,18*
G04 #@! TO.N,Net-(U1-Pad18)*
X161430000Y-82131000D03*
G04 #@! TO.P,Zigbee,17*
G04 #@! TO.N,Net-(U1-Pad17)*
X161430000Y-84131000D03*
G04 #@! TO.P,Zigbee,16*
G04 #@! TO.N,Net-(U1-Pad16)*
X161430000Y-86131000D03*
G04 #@! TO.P,Zigbee,15*
G04 #@! TO.N,Net-(U1-Pad15)*
X161430000Y-88131000D03*
G04 #@! TO.P,Zigbee,14*
G04 #@! TO.N,Net-(U1-Pad14)*
X161430000Y-90131000D03*
G04 #@! TO.P,Zigbee,13*
G04 #@! TO.N,Net-(U1-Pad13)*
X161430000Y-92131000D03*
G04 #@! TO.P,Zigbee,12*
G04 #@! TO.N,Net-(U1-Pad12)*
X161430000Y-94131000D03*
G04 #@! TO.P,Zigbee,11*
G04 #@! TO.N,Net-(U1-Pad11)*
X161430000Y-96131000D03*
G04 #@! TD*
D11*
G04 #@! TO.P,J9\002CJ15,5*
G04 #@! TO.N,Net-(J9\002CJ15-Pad5)*
X153732000Y-119888000D03*
G04 #@! TO.P,J9\002CJ15,4*
G04 #@! TO.N,Net-(J9\002CJ15-Pad4)*
X151732000Y-119888000D03*
G04 #@! TO.P,J9\002CJ15,3*
G04 #@! TO.N,Net-(J9\002CJ15-Pad3)*
X149732000Y-119888000D03*
G04 #@! TO.P,J9\002CJ15,6*
G04 #@! TO.N,Net-(E1-PadG)*
X147732000Y-119888000D03*
G04 #@! TO.P,J9\002CJ15,7*
G04 #@! TO.N,Net-(E1-PadH)*
X145732000Y-119888000D03*
G04 #@! TO.P,J9\002CJ15,2*
G04 #@! TO.N,Net-(E1-Pad11)*
X143732000Y-119888000D03*
D12*
G04 #@! TO.P,J9\002CJ15,1*
G04 #@! TO.N,Net-(J5-Pad1)*
X141732000Y-119888000D03*
G04 #@! TD*
D13*
G04 #@! TO.P,R1,3*
G04 #@! TO.N,Net-(J9\002CJ15-Pad5)*
X164541200Y-114144400D03*
G04 #@! TO.P,R1,2*
G04 #@! TO.N,Net-(J9\002CJ15-Pad4)*
X164541200Y-112928400D03*
G04 #@! TO.P,R1,1*
G04 #@! TO.N,Net-(J9\002CJ15-Pad3)*
X164541200Y-111712400D03*
G04 #@! TD*
D12*
G04 #@! TO.P,To ESCs,1*
G04 #@! TO.N,Net-(E1-Pad4)*
X114300000Y-72136000D03*
D11*
G04 #@! TO.P,To ESCs,2*
G04 #@! TO.N,Net-(E1-Pad5)*
X116300000Y-72136000D03*
G04 #@! TO.P,To ESCs,3*
G04 #@! TO.N,Net-(E1-Pad6)*
X118300000Y-72136000D03*
G04 #@! TO.P,To ESCs,4*
G04 #@! TO.N,Net-(E1-Pad7)*
X120300000Y-72136000D03*
G04 #@! TO.P,To ESCs,5*
G04 #@! TO.N,Net-(E1-Pad8)*
X122300000Y-72136000D03*
G04 #@! TD*
D14*
G04 #@! TO.P,To EScs,1*
G04 #@! TO.N,Net-(E1-Pad11)*
X106553000Y-85725000D03*
G04 #@! TO.P,To EScs,2*
G04 #@! TO.N,Net-(J1-Pad2)*
X106553000Y-92456000D03*
G04 #@! TD*
G04 #@! TO.P,J1,1*
G04 #@! TO.N,Net-(E1-Pad11)*
X106807000Y-108839000D03*
G04 #@! TO.P,J1,2*
G04 #@! TO.N,Net-(J1-Pad2)*
X106807000Y-102108000D03*
G04 #@! TD*
D12*
G04 #@! TO.P,J16,1*
G04 #@! TO.N,Net-(E1-PadC)*
X131000000Y-72136000D03*
D11*
G04 #@! TO.P,J16,2*
G04 #@! TO.N,Net-(E1-PadD)*
X129000000Y-72136000D03*
G04 #@! TO.P,J16,3*
G04 #@! TO.N,Net-(E1-PadE)*
X127000000Y-72136000D03*
G04 #@! TO.P,J16,4*
G04 #@! TO.N,Net-(E1-PadF)*
X125000000Y-72136000D03*
G04 #@! TD*
D12*
G04 #@! TO.P,J3,1*
G04 #@! TO.N,Net-(E1-Pad12)*
X122174000Y-119888000D03*
D11*
G04 #@! TO.P,J3,2*
X120174000Y-119888000D03*
G04 #@! TD*
D12*
G04 #@! TO.P,J4,1*
G04 #@! TO.N,Net-(E1-Pad11)*
X125476000Y-119888000D03*
D11*
G04 #@! TO.P,J4,2*
X127476000Y-119888000D03*
G04 #@! TD*
D12*
G04 #@! TO.P,J5,1*
G04 #@! TO.N,Net-(J5-Pad1)*
X130810000Y-119888000D03*
D11*
G04 #@! TO.P,J5,2*
X132810000Y-119888000D03*
G04 #@! TD*
D14*
G04 #@! TO.P,J6,1*
G04 #@! TO.N,Net-(E1-Pad11)*
X107061000Y-117475000D03*
G04 #@! TO.P,J6,2*
G04 #@! TO.N,Net-(J1-Pad2)*
X113792000Y-117475000D03*
G04 #@! TD*
D12*
G04 #@! TO.P,,1*
G04 #@! TO.N,Net-(E1-Pad1)*
X104140000Y-78740000D03*
D11*
G04 #@! TO.P,,2*
G04 #@! TO.N,Net-(E1-Pad2)*
X104140000Y-76740000D03*
G04 #@! TO.P,,3*
G04 #@! TO.N,Net-(E1-Pad3)*
X104140000Y-74740000D03*
G04 #@! TD*
D15*
G04 #@! TO.N,Net-(E1-Pad12)*
X120396000Y-114300000D03*
X120396000Y-116840000D03*
G04 #@! TO.N,Net-(E1-Pad11)*
X128016000Y-108712000D03*
X128016000Y-116586000D03*
X116840000Y-112014000D03*
G04 #@! TD*
D16*
G04 #@! TO.N,Net-(E1-PadB)*
X138055000Y-80131000D02*
X139430000Y-80131000D01*
X136518796Y-81667204D02*
X138055000Y-80131000D01*
X133170477Y-81667204D02*
X136518796Y-81667204D01*
G04 #@! TO.N,Net-(E1-Pad12)*
X120396000Y-114300000D02*
X120396000Y-116840000D01*
D17*
G04 #@! TO.N,Net-(E1-Pad11)*
X116840000Y-112014000D02*
X123698000Y-112014000D01*
X123698000Y-112014000D02*
X123952000Y-111760000D01*
X123952000Y-111760000D02*
X123952000Y-108966000D01*
X123952000Y-108966000D02*
X124206000Y-108712000D01*
X124206000Y-108712000D02*
X128016000Y-108712000D01*
X125476000Y-119888000D02*
X127476000Y-119888000D01*
X127476000Y-117126000D02*
X127476000Y-119888000D01*
X128016000Y-116586000D02*
X127476000Y-117126000D01*
D18*
X106807000Y-108839000D02*
X106807000Y-117221000D01*
D17*
X106807000Y-117221000D02*
X107061000Y-117475000D01*
X106807000Y-108839000D02*
X109093000Y-108839000D01*
X112268000Y-112014000D02*
X116840000Y-112014000D01*
X107315000Y-117221000D02*
X107061000Y-117475000D01*
X107188000Y-108458000D02*
X106807000Y-108839000D01*
X143732000Y-118332000D02*
X143732000Y-119888000D01*
X128016000Y-116586000D02*
X128315999Y-116885999D01*
X128315999Y-116885999D02*
X142285999Y-116885999D01*
X142285999Y-116885999D02*
X143732000Y-118332000D01*
D19*
X106553000Y-85725000D02*
X106553000Y-86802630D01*
D17*
X111252000Y-110998000D02*
X112268000Y-112014000D01*
X109093000Y-108839000D02*
X111252000Y-110998000D01*
D19*
X110088533Y-85725000D02*
X111252000Y-86888467D01*
X106553000Y-85725000D02*
X110088533Y-85725000D01*
X111252000Y-104394000D02*
X106807000Y-108839000D01*
D16*
X111252000Y-90997370D02*
X111252000Y-89408000D01*
D17*
X113233200Y-94056200D02*
X113233200Y-92978570D01*
X113233200Y-92978570D02*
X111252000Y-90997370D01*
D19*
X111252000Y-86888467D02*
X111252000Y-89408000D01*
X111252000Y-89408000D02*
X111252000Y-104394000D01*
D16*
G04 #@! TO.N,Net-(J9\002CJ15-Pad3)*
X150406999Y-119213001D02*
X150406999Y-119087001D01*
X149732000Y-119888000D02*
X150406999Y-119213001D01*
X150406999Y-119087001D02*
X152400000Y-117094000D01*
X158905600Y-117094000D02*
X164287200Y-111712400D01*
X152400000Y-117094000D02*
X158905600Y-117094000D01*
G04 #@! TO.N,Net-(J9\002CJ15-Pad4)*
X158851600Y-118364000D02*
X164287200Y-112928400D01*
X152301406Y-118364000D02*
X158851600Y-118364000D01*
X151732000Y-118933406D02*
X152301406Y-118364000D01*
X151732000Y-119888000D02*
X151732000Y-118933406D01*
G04 #@! TO.N,Net-(J9\002CJ15-Pad5)*
X158543600Y-119888000D02*
X164287200Y-114144400D01*
X153732000Y-119888000D02*
X158543600Y-119888000D01*
G04 #@! TD*
M02*
