  0
SECTION
  2
HEADER
  9
$ANGBASE
  50
0.0
  9
$ANGDIR
  70
  1
  9
$MEASUREMENT
  70
0
  0
ENDSEC
  0
SECTION
  2
TABLES
  0
TABLE
  2
LTYPE
  70
4
  0
LTYPE
  5
40F
  2
CONTINUOUS
  70
0
  3
Solid line
  72
65
  73
0
  40
0.0
  0
LTYPE
  5
410
  2
DASHDOT
 70
0
  3
Dash Dot ____ _ ____ _
 72
65
 73
4
 40
2.0
 49
1.25
 49
-0.25
 49
0.25
 49
-0.25
  0
LTYPE
  5
411
  2
DASHED
 70
0
  3
Dashed __ __ __ __ __
 72
65
 73
2
 40
0.75
 49
0.5
 49
-0.25
  0
LTYPE
  5
43B
  2
DOTTED
 70
0
  3
Dotted .  .  .  .
 72
65
 73
2
 40
0.2
 49
0.0
 49
-0.2
  0
ENDTAB
  0
TABLE
  2
STYLE
  70
4
  0
STYLE
  2
KICAD
  70
0
  40
0
  41
1
  42
1
  50
0
  71
0
  3
isocp.shx
  0
STYLE
  2
KICADB
  70
0
  40
0
  41
1
  42
1
  50
0
  71
0
  3
isocp.shx
  0
STYLE
  2
KICADI
  70
0
  40
0
  41
1
  42
1
  50
15
  71
0
  3
isocp.shx
  0
STYLE
  2
KICADBI
  70
0
  40
0
  41
1
  42
1
  50
15
  71
0
  3
isocp.shx
  0
ENDTAB
  0
TABLE
  2
LAYER
  70
30
  0
LAYER
  2
BLACK
  70
0
  62
7
  6
CONTINUOUS
  0
LAYER
  2
GRAY1
  70
0
  62
251
  6
CONTINUOUS
  0
LAYER
  2
GRAY2
  70
0
  62
8
  6
CONTINUOUS
  0
LAYER
  2
GRAY3
  70
0
  62
9
  6
CONTINUOUS
  0
LAYER
  2
WHITE
  70
0
  62
7
  6
CONTINUOUS
  0
LAYER
  2
LYELLOW
  70
0
  62
51
  6
CONTINUOUS
  0
LAYER
  2
BLUE1
  70
0
  62
178
  6
CONTINUOUS
  0
LAYER
  2
GREEN1
  70
0
  62
98
  6
CONTINUOUS
  0
LAYER
  2
CYAN1
  70
0
  62
138
  6
CONTINUOUS
  0
LAYER
  2
RED1
  70
0
  62
18
  6
CONTINUOUS
  0
LAYER
  2
MAGENTA1
  70
0
  62
228
  6
CONTINUOUS
  0
LAYER
  2
BROWN1
  70
0
  62
58
  6
CONTINUOUS
  0
LAYER
  2
BLUE2
  70
0
  62
5
  6
CONTINUOUS
  0
LAYER
  2
GREEN2
  70
0
  62
3
  6
CONTINUOUS
  0
LAYER
  2
CYAN2
  70
0
  62
4
  6
CONTINUOUS
  0
LAYER
  2
RED2
  70
0
  62
1
  6
CONTINUOUS
  0
LAYER
  2
MAGENTA2
  70
0
  62
6
  6
CONTINUOUS
  0
LAYER
  2
BROWN2
  70
0
  62
54
  6
CONTINUOUS
  0
LAYER
  2
BLUE3
  70
0
  62
171
  6
CONTINUOUS
  0
LAYER
  2
GREEN3
  70
0
  62
91
  6
CONTINUOUS
  0
LAYER
  2
CYAN3
  70
0
  62
131
  6
CONTINUOUS
  0
LAYER
  2
RED3
  70
0
  62
11
  6
CONTINUOUS
  0
LAYER
  2
MAGENTA3
  70
0
  62
221
  6
CONTINUOUS
  0
LAYER
  2
YELLOW3
  70
0
  62
2
  6
CONTINUOUS
  0
LAYER
  2
BLUE4
  70
0
  62
5
  6
CONTINUOUS
  0
LAYER
  2
GREEN4
  70
0
  62
3
  6
CONTINUOUS
  0
LAYER
  2
CYAN4
  70
0
  62
4
  6
CONTINUOUS
  0
LAYER
  2
RED4
  70
0
  62
1
  6
CONTINUOUS
  0
LAYER
  2
MAGENTA4
  70
0
  62
6
  6
CONTINUOUS
  0
LAYER
  2
YELLOW4
  70
0
  62
2
  6
CONTINUOUS
  0
ENDTAB
  0
ENDSEC
  0
SECTION
  2
ENTITIES
0
ARC
8
BLACK
10
161.544
20
-126.238
40
4.07193
50
-86.4237
51
3.57633
0
LINE
8
BLACK
6
CONTINUOUS
10
157.48
20
-124.206
11
157.48
21
-126.492
0
ARC
8
BLACK
10
155.194
20
-124.206
40
2.286
50
-0
51
90
0
LINE
8
BLACK
6
CONTINUOUS
10
165.608
20
-125.984
11
165.608
21
-121.92
0
ARC
8
BLACK
10
161.544
20
-126.238
40
4.07193
50
-176.424
51
-86.4237
0
LINE
8
BLACK
6
CONTINUOUS
10
113.03
20
-121.92
11
155.194
21
-121.92
0
LINE
8
BLACK
6
CONTINUOUS
10
111.252
20
-70.612
11
156.718
21
-70.612
0
LINE
8
BLACK
6
CONTINUOUS
10
110.236
20
-124.206
11
110.236
21
-125.984
0
ARC
8
BLACK
10
112.776
20
-124.46
40
2.55267
50
84.2894
51
174.289
0
LINE
8
BLACK
6
CONTINUOUS
10
158.496
20
-66.04
11
158.496
21
-68.834
0
ARC
8
BLACK
10
156.718
20
-68.834
40
1.778
50
-90
51
-0
0
LINE
8
BLACK
6
CONTINUOUS
10
109.22
20
-66.548
11
109.22
21
-68.58
0
ARC
8
BLACK
10
111.252
20
-68.58
40
2.032
50
-180
51
-90
0
LINE
8
BLACK
6
CONTINUOUS
10
102.108
20
-121.92
11
102.108
21
-126.492
0
ARC
8
BLACK
10
106.172
20
-126.238
40
4.07193
50
-176.424
51
-86.4237
0
ARC
8
BLACK
10
106.172
20
-126.238
40
4.07193
50
-86.4237
51
3.57633
0
LINE
8
BLACK
6
CONTINUOUS
10
165.608
20
-66.548
11
165.608
21
-70.612
0
ARC
8
BLACK
10
162.052
20
-66.294
40
3.56506
50
85.9144
51
175.914
0
ARC
8
BLACK
10
162.052
20
-66.294
40
3.56506
50
-4.08562
51
85.9144
0
LINE
8
BLACK
6
CONTINUOUS
10
102.108
20
-66.548
11
102.108
21
-70.612
0
ARC
8
BLACK
10
105.664
20
-66.548
40
3.556
50
-0
51
90
0
ARC
8
BLACK
10
105.664
20
-66.548
40
3.556
50
90
51
180
0
LINE
8
BLACK
6
CONTINUOUS
10
102.108
20
-70.612
11
102.108
21
-121.92
0
LINE
8
BLACK
6
CONTINUOUS
10
165.608
20
-121.92
11
165.608
21
-70.612
0
LINE
8
BLACK
6
CONTINUOUS
10
160.052
20
-64.3956
11
164.052
21
-68.3956
0
LINE
8
BLACK
6
CONTINUOUS
10
164.052
20
-64.3956
11
160.052
21
-68.3956
0
LINE
8
BLACK
6
CONTINUOUS
10
159.544
20
-124.086
11
163.544
21
-128.086
0
LINE
8
BLACK
6
CONTINUOUS
10
163.544
20
-124.086
11
159.544
21
-128.086
0
LINE
8
BLACK
6
CONTINUOUS
10
103.664
20
-64.3956
11
107.664
21
-68.3956
0
LINE
8
BLACK
6
CONTINUOUS
10
107.664
20
-64.3956
11
103.664
21
-68.3956
0
LINE
8
BLACK
6
CONTINUOUS
10
104.172
20
-124.086
11
108.172
21
-128.086
0
LINE
8
BLACK
6
CONTINUOUS
10
108.172
20
-124.086
11
104.172
21
-128.086
0
LINE
8
BLACK
6
CONTINUOUS
10
104.897
20
-135.042
11
104.897
21
-132.042
0
LINE
8
BLACK
6
CONTINUOUS
10
104.897
20
-132.042
11
105.612
21
-132.042
0
LINE
8
BLACK
6
CONTINUOUS
10
105.612
20
-132.042
11
106.04
21
-132.185
0
LINE
8
BLACK
6
CONTINUOUS
10
106.04
20
-132.185
11
106.326
21
-132.471
0
LINE
8
BLACK
6
CONTINUOUS
10
106.326
20
-132.471
11
106.469
21
-132.756
0
LINE
8
BLACK
6
CONTINUOUS
10
106.469
20
-132.756
11
106.612
21
-133.328
0
LINE
8
BLACK
6
CONTINUOUS
10
106.612
20
-133.328
11
106.612
21
-133.756
0
LINE
8
BLACK
6
CONTINUOUS
10
106.612
20
-133.756
11
106.469
21
-134.328
0
LINE
8
BLACK
6
CONTINUOUS
10
106.469
20
-134.328
11
106.326
21
-134.614
0
LINE
8
BLACK
6
CONTINUOUS
10
106.326
20
-134.614
11
106.04
21
-134.899
0
LINE
8
BLACK
6
CONTINUOUS
10
106.04
20
-134.899
11
105.612
21
-135.042
0
LINE
8
BLACK
6
CONTINUOUS
10
105.612
20
-135.042
11
104.897
21
-135.042
0
LINE
8
BLACK
6
CONTINUOUS
10
107.897
20
-135.042
11
107.897
21
-133.042
0
LINE
8
BLACK
6
CONTINUOUS
10
107.897
20
-133.614
11
108.04
21
-133.328
0
LINE
8
BLACK
6
CONTINUOUS
10
108.04
20
-133.328
11
108.183
21
-133.185
0
LINE
8
BLACK
6
CONTINUOUS
10
108.183
20
-133.185
11
108.469
21
-133.042
0
LINE
8
BLACK
6
CONTINUOUS
10
108.469
20
-133.042
11
108.754
21
-133.042
0
LINE
8
BLACK
6
CONTINUOUS
10
109.754
20
-135.042
11
109.754
21
-133.042
0
LINE
8
BLACK
6
CONTINUOUS
10
109.754
20
-132.042
11
109.612
21
-132.185
0
LINE
8
BLACK
6
CONTINUOUS
10
109.612
20
-132.185
11
109.754
21
-132.328
0
LINE
8
BLACK
6
CONTINUOUS
10
109.754
20
-132.328
11
109.897
21
-132.185
0
LINE
8
BLACK
6
CONTINUOUS
10
109.897
20
-132.185
11
109.754
21
-132.042
0
LINE
8
BLACK
6
CONTINUOUS
10
109.754
20
-132.042
11
109.754
21
-132.328
0
LINE
8
BLACK
6
CONTINUOUS
10
111.612
20
-135.042
11
111.326
21
-134.899
0
LINE
8
BLACK
6
CONTINUOUS
10
111.326
20
-134.899
11
111.183
21
-134.614
0
LINE
8
BLACK
6
CONTINUOUS
10
111.183
20
-134.614
11
111.183
21
-132.042
0
LINE
8
BLACK
6
CONTINUOUS
10
113.183
20
-135.042
11
112.897
21
-134.899
0
LINE
8
BLACK
6
CONTINUOUS
10
112.897
20
-134.899
11
112.754
21
-134.614
0
LINE
8
BLACK
6
CONTINUOUS
10
112.754
20
-134.614
11
112.754
21
-132.042
0
LINE
8
BLACK
6
CONTINUOUS
10
116.612
20
-135.042
11
116.612
21
-132.042
0
LINE
8
BLACK
6
CONTINUOUS
10
116.612
20
-132.042
11
117.612
21
-134.185
0
LINE
8
BLACK
6
CONTINUOUS
10
117.612
20
-134.185
11
118.612
21
-132.042
0
LINE
8
BLACK
6
CONTINUOUS
10
118.612
20
-132.042
11
118.612
21
-135.042
0
LINE
8
BLACK
6
CONTINUOUS
10
121.326
20
-135.042
11
121.326
21
-133.471
0
LINE
8
BLACK
6
CONTINUOUS
10
121.326
20
-133.471
11
121.183
21
-133.185
0
LINE
8
BLACK
6
CONTINUOUS
10
121.183
20
-133.185
11
120.897
21
-133.042
0
LINE
8
BLACK
6
CONTINUOUS
10
120.897
20
-133.042
11
120.326
21
-133.042
0
LINE
8
BLACK
6
CONTINUOUS
10
120.326
20
-133.042
11
120.04
21
-133.185
0
LINE
8
BLACK
6
CONTINUOUS
10
121.326
20
-134.899
11
121.04
21
-135.042
0
LINE
8
BLACK
6
CONTINUOUS
10
121.04
20
-135.042
11
120.326
21
-135.042
0
LINE
8
BLACK
6
CONTINUOUS
10
120.326
20
-135.042
11
120.04
21
-134.899
0
LINE
8
BLACK
6
CONTINUOUS
10
120.04
20
-134.899
11
119.897
21
-134.614
0
LINE
8
BLACK
6
CONTINUOUS
10
119.897
20
-134.614
11
119.897
21
-134.328
0
LINE
8
BLACK
6
CONTINUOUS
10
119.897
20
-134.328
11
120.04
21
-134.042
0
LINE
8
BLACK
6
CONTINUOUS
10
120.04
20
-134.042
11
120.326
21
-133.899
0
LINE
8
BLACK
6
CONTINUOUS
10
120.326
20
-133.899
11
121.04
21
-133.899
0
LINE
8
BLACK
6
CONTINUOUS
10
121.04
20
-133.899
11
121.326
21
-133.756
0
LINE
8
BLACK
6
CONTINUOUS
10
122.754
20
-133.042
11
122.754
21
-136.042
0
LINE
8
BLACK
6
CONTINUOUS
10
122.754
20
-133.185
11
123.04
21
-133.042
0
LINE
8
BLACK
6
CONTINUOUS
10
123.04
20
-133.042
11
123.612
21
-133.042
0
LINE
8
BLACK
6
CONTINUOUS
10
123.612
20
-133.042
11
123.897
21
-133.185
0
LINE
8
BLACK
6
CONTINUOUS
10
123.897
20
-133.185
11
124.04
21
-133.328
0
LINE
8
BLACK
6
CONTINUOUS
10
124.04
20
-133.328
11
124.183
21
-133.614
0
LINE
8
BLACK
6
CONTINUOUS
10
124.183
20
-133.614
11
124.183
21
-134.471
0
LINE
8
BLACK
6
CONTINUOUS
10
124.183
20
-134.471
11
124.04
21
-134.756
0
LINE
8
BLACK
6
CONTINUOUS
10
124.04
20
-134.756
11
123.897
21
-134.899
0
LINE
8
BLACK
6
CONTINUOUS
10
123.897
20
-134.899
11
123.612
21
-135.042
0
LINE
8
BLACK
6
CONTINUOUS
10
123.612
20
-135.042
11
123.04
21
-135.042
0
LINE
8
BLACK
6
CONTINUOUS
10
123.04
20
-135.042
11
122.754
21
-134.899
0
LINE
8
BLACK
6
CONTINUOUS
10
125.469
20
-134.756
11
125.612
21
-134.899
0
LINE
8
BLACK
6
CONTINUOUS
10
125.612
20
-134.899
11
125.469
21
-135.042
0
LINE
8
BLACK
6
CONTINUOUS
10
125.469
20
-135.042
11
125.326
21
-134.899
0
LINE
8
BLACK
6
CONTINUOUS
10
125.326
20
-134.899
11
125.469
21
-134.756
0
LINE
8
BLACK
6
CONTINUOUS
10
125.469
20
-134.756
11
125.469
21
-135.042
0
LINE
8
BLACK
6
CONTINUOUS
10
125.469
20
-133.185
11
125.612
21
-133.328
0
LINE
8
BLACK
6
CONTINUOUS
10
125.612
20
-133.328
11
125.469
21
-133.471
0
LINE
8
BLACK
6
CONTINUOUS
10
125.469
20
-133.471
11
125.326
21
-133.328
0
LINE
8
BLACK
6
CONTINUOUS
10
125.326
20
-133.328
11
125.469
21
-133.185
0
LINE
8
BLACK
6
CONTINUOUS
10
125.469
20
-133.185
11
125.469
21
-133.471
0
LINE
8
BLACK
6
CONTINUOUS
10
98.033
20
-137.985
11
102.033
21
-141.985
0
LINE
8
BLACK
6
CONTINUOUS
10
102.033
20
-137.985
11
98.033
21
-141.985
0
LINE
8
BLACK
6
CONTINUOUS
10
106.183
20
-139.342
11
106.183
21
-141.342
0
LINE
8
BLACK
6
CONTINUOUS
10
105.469
20
-138.199
11
104.754
21
-140.342
0
LINE
8
BLACK
6
CONTINUOUS
10
104.754
20
-140.342
11
106.612
21
-140.342
0
LINE
8
BLACK
6
CONTINUOUS
10
107.754
20
-141.056
11
107.897
21
-141.199
0
LINE
8
BLACK
6
CONTINUOUS
10
107.897
20
-141.199
11
107.754
21
-141.342
0
LINE
8
BLACK
6
CONTINUOUS
10
107.754
20
-141.342
11
107.612
21
-141.199
0
LINE
8
BLACK
6
CONTINUOUS
10
107.612
20
-141.199
11
107.754
21
-141.056
0
LINE
8
BLACK
6
CONTINUOUS
10
107.754
20
-141.056
11
107.754
21
-141.342
0
LINE
8
BLACK
6
CONTINUOUS
10
109.754
20
-138.342
11
110.04
21
-138.342
0
LINE
8
BLACK
6
CONTINUOUS
10
110.04
20
-138.342
11
110.326
21
-138.485
0
LINE
8
BLACK
6
CONTINUOUS
10
110.326
20
-138.485
11
110.469
21
-138.628
0
LINE
8
BLACK
6
CONTINUOUS
10
110.469
20
-138.628
11
110.612
21
-138.914
0
LINE
8
BLACK
6
CONTINUOUS
10
110.612
20
-138.914
11
110.754
21
-139.485
0
LINE
8
BLACK
6
CONTINUOUS
10
110.754
20
-139.485
11
110.754
21
-140.199
0
LINE
8
BLACK
6
CONTINUOUS
10
110.754
20
-140.199
11
110.612
21
-140.771
0
LINE
8
BLACK
6
CONTINUOUS
10
110.612
20
-140.771
11
110.469
21
-141.056
0
LINE
8
BLACK
6
CONTINUOUS
10
110.469
20
-141.056
11
110.326
21
-141.199
0
LINE
8
BLACK
6
CONTINUOUS
10
110.326
20
-141.199
11
110.04
21
-141.342
0
LINE
8
BLACK
6
CONTINUOUS
10
110.04
20
-141.342
11
109.754
21
-141.342
0
LINE
8
BLACK
6
CONTINUOUS
10
109.754
20
-141.342
11
109.469
21
-141.199
0
LINE
8
BLACK
6
CONTINUOUS
10
109.469
20
-141.199
11
109.326
21
-141.056
0
LINE
8
BLACK
6
CONTINUOUS
10
109.326
20
-141.056
11
109.183
21
-140.771
0
LINE
8
BLACK
6
CONTINUOUS
10
109.183
20
-140.771
11
109.04
21
-140.199
0
LINE
8
BLACK
6
CONTINUOUS
10
109.04
20
-140.199
11
109.04
21
-139.485
0
LINE
8
BLACK
6
CONTINUOUS
10
109.04
20
-139.485
11
109.183
21
-138.914
0
LINE
8
BLACK
6
CONTINUOUS
10
109.183
20
-138.914
11
109.326
21
-138.628
0
LINE
8
BLACK
6
CONTINUOUS
10
109.326
20
-138.628
11
109.469
21
-138.485
0
LINE
8
BLACK
6
CONTINUOUS
10
109.469
20
-138.485
11
109.754
21
-138.342
0
LINE
8
BLACK
6
CONTINUOUS
10
112.612
20
-138.342
11
112.897
21
-138.342
0
LINE
8
BLACK
6
CONTINUOUS
10
112.897
20
-138.342
11
113.183
21
-138.485
0
LINE
8
BLACK
6
CONTINUOUS
10
113.183
20
-138.485
11
113.326
21
-138.628
0
LINE
8
BLACK
6
CONTINUOUS
10
113.326
20
-138.628
11
113.469
21
-138.914
0
LINE
8
BLACK
6
CONTINUOUS
10
113.469
20
-138.914
11
113.612
21
-139.485
0
LINE
8
BLACK
6
CONTINUOUS
10
113.612
20
-139.485
11
113.612
21
-140.199
0
LINE
8
BLACK
6
CONTINUOUS
10
113.612
20
-140.199
11
113.469
21
-140.771
0
LINE
8
BLACK
6
CONTINUOUS
10
113.469
20
-140.771
11
113.326
21
-141.056
0
LINE
8
BLACK
6
CONTINUOUS
10
113.326
20
-141.056
11
113.183
21
-141.199
0
LINE
8
BLACK
6
CONTINUOUS
10
113.183
20
-141.199
11
112.897
21
-141.342
0
LINE
8
BLACK
6
CONTINUOUS
10
112.897
20
-141.342
11
112.612
21
-141.342
0
LINE
8
BLACK
6
CONTINUOUS
10
112.612
20
-141.342
11
112.326
21
-141.199
0
LINE
8
BLACK
6
CONTINUOUS
10
112.326
20
-141.199
11
112.183
21
-141.056
0
LINE
8
BLACK
6
CONTINUOUS
10
112.183
20
-141.056
11
112.04
21
-140.771
0
LINE
8
BLACK
6
CONTINUOUS
10
112.04
20
-140.771
11
111.897
21
-140.199
0
LINE
8
BLACK
6
CONTINUOUS
10
111.897
20
-140.199
11
111.897
21
-139.485
0
LINE
8
BLACK
6
CONTINUOUS
10
111.897
20
-139.485
11
112.04
21
-138.914
0
LINE
8
BLACK
6
CONTINUOUS
10
112.04
20
-138.914
11
112.183
21
-138.628
0
LINE
8
BLACK
6
CONTINUOUS
10
112.183
20
-138.628
11
112.326
21
-138.485
0
LINE
8
BLACK
6
CONTINUOUS
10
112.326
20
-138.485
11
112.612
21
-138.342
0
LINE
8
BLACK
6
CONTINUOUS
10
114.897
20
-141.342
11
114.897
21
-139.342
0
LINE
8
BLACK
6
CONTINUOUS
10
114.897
20
-139.628
11
115.04
21
-139.485
0
LINE
8
BLACK
6
CONTINUOUS
10
115.04
20
-139.485
11
115.326
21
-139.342
0
LINE
8
BLACK
6
CONTINUOUS
10
115.326
20
-139.342
11
115.754
21
-139.342
0
LINE
8
BLACK
6
CONTINUOUS
10
115.754
20
-139.342
11
116.04
21
-139.485
0
LINE
8
BLACK
6
CONTINUOUS
10
116.04
20
-139.485
11
116.183
21
-139.771
0
LINE
8
BLACK
6
CONTINUOUS
10
116.183
20
-139.771
11
116.183
21
-141.342
0
LINE
8
BLACK
6
CONTINUOUS
10
116.183
20
-139.771
11
116.326
21
-139.485
0
LINE
8
BLACK
6
CONTINUOUS
10
116.326
20
-139.485
11
116.612
21
-139.342
0
LINE
8
BLACK
6
CONTINUOUS
10
116.612
20
-139.342
11
117.04
21
-139.342
0
LINE
8
BLACK
6
CONTINUOUS
10
117.04
20
-139.342
11
117.326
21
-139.485
0
LINE
8
BLACK
6
CONTINUOUS
10
117.326
20
-139.485
11
117.469
21
-139.771
0
LINE
8
BLACK
6
CONTINUOUS
10
117.469
20
-139.771
11
117.469
21
-141.342
0
LINE
8
BLACK
6
CONTINUOUS
10
118.897
20
-141.342
11
118.897
21
-139.342
0
LINE
8
BLACK
6
CONTINUOUS
10
118.897
20
-139.628
11
119.04
21
-139.485
0
LINE
8
BLACK
6
CONTINUOUS
10
119.04
20
-139.485
11
119.326
21
-139.342
0
LINE
8
BLACK
6
CONTINUOUS
10
119.326
20
-139.342
11
119.754
21
-139.342
0
LINE
8
BLACK
6
CONTINUOUS
10
119.754
20
-139.342
11
120.04
21
-139.485
0
LINE
8
BLACK
6
CONTINUOUS
10
120.04
20
-139.485
11
120.183
21
-139.771
0
LINE
8
BLACK
6
CONTINUOUS
10
120.183
20
-139.771
11
120.183
21
-141.342
0
LINE
8
BLACK
6
CONTINUOUS
10
120.183
20
-139.771
11
120.326
21
-139.485
0
LINE
8
BLACK
6
CONTINUOUS
10
120.326
20
-139.485
11
120.612
21
-139.342
0
LINE
8
BLACK
6
CONTINUOUS
10
120.612
20
-139.342
11
121.04
21
-139.342
0
LINE
8
BLACK
6
CONTINUOUS
10
121.04
20
-139.342
11
121.326
21
-139.485
0
LINE
8
BLACK
6
CONTINUOUS
10
121.326
20
-139.485
11
121.469
21
-139.771
0
LINE
8
BLACK
6
CONTINUOUS
10
121.469
20
-139.771
11
121.469
21
-141.342
0
LINE
8
BLACK
6
CONTINUOUS
10
127.326
20
-138.199
11
124.754
21
-142.056
0
LINE
8
BLACK
6
CONTINUOUS
10
131.183
20
-138.342
11
131.469
21
-138.342
0
LINE
8
BLACK
6
CONTINUOUS
10
131.469
20
-138.342
11
131.754
21
-138.485
0
LINE
8
BLACK
6
CONTINUOUS
10
131.754
20
-138.485
11
131.897
21
-138.628
0
LINE
8
BLACK
6
CONTINUOUS
10
131.897
20
-138.628
11
132.04
21
-138.914
0
LINE
8
BLACK
6
CONTINUOUS
10
132.04
20
-138.914
11
132.183
21
-139.485
0
LINE
8
BLACK
6
CONTINUOUS
10
132.183
20
-139.485
11
132.183
21
-140.199
0
LINE
8
BLACK
6
CONTINUOUS
10
132.183
20
-140.199
11
132.04
21
-140.771
0
LINE
8
BLACK
6
CONTINUOUS
10
132.04
20
-140.771
11
131.897
21
-141.056
0
LINE
8
BLACK
6
CONTINUOUS
10
131.897
20
-141.056
11
131.754
21
-141.199
0
LINE
8
BLACK
6
CONTINUOUS
10
131.754
20
-141.199
11
131.469
21
-141.342
0
LINE
8
BLACK
6
CONTINUOUS
10
131.469
20
-141.342
11
131.183
21
-141.342
0
LINE
8
BLACK
6
CONTINUOUS
10
131.183
20
-141.342
11
130.897
21
-141.199
0
LINE
8
BLACK
6
CONTINUOUS
10
130.897
20
-141.199
11
130.754
21
-141.056
0
LINE
8
BLACK
6
CONTINUOUS
10
130.754
20
-141.056
11
130.612
21
-140.771
0
LINE
8
BLACK
6
CONTINUOUS
10
130.612
20
-140.771
11
130.469
21
-140.199
0
LINE
8
BLACK
6
CONTINUOUS
10
130.469
20
-140.199
11
130.469
21
-139.485
0
LINE
8
BLACK
6
CONTINUOUS
10
130.469
20
-139.485
11
130.612
21
-138.914
0
LINE
8
BLACK
6
CONTINUOUS
10
130.612
20
-138.914
11
130.754
21
-138.628
0
LINE
8
BLACK
6
CONTINUOUS
10
130.754
20
-138.628
11
130.897
21
-138.485
0
LINE
8
BLACK
6
CONTINUOUS
10
130.897
20
-138.485
11
131.183
21
-138.342
0
LINE
8
BLACK
6
CONTINUOUS
10
133.469
20
-141.056
11
133.612
21
-141.199
0
LINE
8
BLACK
6
CONTINUOUS
10
133.612
20
-141.199
11
133.469
21
-141.342
0
LINE
8
BLACK
6
CONTINUOUS
10
133.469
20
-141.342
11
133.326
21
-141.199
0
LINE
8
BLACK
6
CONTINUOUS
10
133.326
20
-141.199
11
133.469
21
-141.056
0
LINE
8
BLACK
6
CONTINUOUS
10
133.469
20
-141.056
11
133.469
21
-141.342
0
LINE
8
BLACK
6
CONTINUOUS
10
136.469
20
-141.342
11
134.754
21
-141.342
0
LINE
8
BLACK
6
CONTINUOUS
10
135.612
20
-141.342
11
135.612
21
-138.342
0
LINE
8
BLACK
6
CONTINUOUS
10
135.612
20
-138.342
11
135.326
21
-138.771
0
LINE
8
BLACK
6
CONTINUOUS
10
135.326
20
-138.771
11
135.04
21
-139.056
0
LINE
8
BLACK
6
CONTINUOUS
10
135.04
20
-139.056
11
134.754
21
-139.199
0
LINE
8
BLACK
6
CONTINUOUS
10
139.183
20
-138.342
11
137.754
21
-138.342
0
LINE
8
BLACK
6
CONTINUOUS
10
137.754
20
-138.342
11
137.612
21
-139.771
0
LINE
8
BLACK
6
CONTINUOUS
10
137.612
20
-139.771
11
137.754
21
-139.628
0
LINE
8
BLACK
6
CONTINUOUS
10
137.754
20
-139.628
11
138.04
21
-139.485
0
LINE
8
BLACK
6
CONTINUOUS
10
138.04
20
-139.485
11
138.754
21
-139.485
0
LINE
8
BLACK
6
CONTINUOUS
10
138.754
20
-139.485
11
139.04
21
-139.628
0
LINE
8
BLACK
6
CONTINUOUS
10
139.04
20
-139.628
11
139.183
21
-139.771
0
LINE
8
BLACK
6
CONTINUOUS
10
139.183
20
-139.771
11
139.326
21
-140.056
0
LINE
8
BLACK
6
CONTINUOUS
10
139.326
20
-140.056
11
139.326
21
-140.771
0
LINE
8
BLACK
6
CONTINUOUS
10
139.326
20
-140.771
11
139.183
21
-141.056
0
LINE
8
BLACK
6
CONTINUOUS
10
139.183
20
-141.056
11
139.04
21
-141.199
0
LINE
8
BLACK
6
CONTINUOUS
10
139.04
20
-141.199
11
138.754
21
-141.342
0
LINE
8
BLACK
6
CONTINUOUS
10
138.754
20
-141.342
11
138.04
21
-141.342
0
LINE
8
BLACK
6
CONTINUOUS
10
138.04
20
-141.342
11
137.754
21
-141.199
0
LINE
8
BLACK
6
CONTINUOUS
10
137.754
20
-141.199
11
137.612
21
-141.056
0
LINE
8
BLACK
6
CONTINUOUS
10
140.326
20
-138.342
11
142.326
21
-138.342
0
LINE
8
BLACK
6
CONTINUOUS
10
142.326
20
-138.342
11
141.04
21
-141.342
0
LINE
8
BLACK
6
CONTINUOUS
10
143.326
20
-138.342
11
143.326
21
-138.914
0
LINE
8
BLACK
6
CONTINUOUS
10
144.469
20
-138.342
11
144.469
21
-138.914
0
LINE
8
BLACK
6
CONTINUOUS
10
148.897
20
-142.485
11
148.754
21
-142.342
0
LINE
8
BLACK
6
CONTINUOUS
10
148.754
20
-142.342
11
148.469
21
-141.914
0
LINE
8
BLACK
6
CONTINUOUS
10
148.469
20
-141.914
11
148.326
21
-141.628
0
LINE
8
BLACK
6
CONTINUOUS
10
148.326
20
-141.628
11
148.183
21
-141.199
0
LINE
8
BLACK
6
CONTINUOUS
10
148.183
20
-141.199
11
148.04
21
-140.485
0
LINE
8
BLACK
6
CONTINUOUS
10
148.04
20
-140.485
11
148.04
21
-139.914
0
LINE
8
BLACK
6
CONTINUOUS
10
148.04
20
-139.914
11
148.183
21
-139.199
0
LINE
8
BLACK
6
CONTINUOUS
10
148.183
20
-139.199
11
148.326
21
-138.771
0
LINE
8
BLACK
6
CONTINUOUS
10
148.326
20
-138.771
11
148.469
21
-138.485
0
LINE
8
BLACK
6
CONTINUOUS
10
148.469
20
-138.485
11
148.754
21
-138.056
0
LINE
8
BLACK
6
CONTINUOUS
10
148.754
20
-138.056
11
148.897
21
-137.914
0
LINE
8
BLACK
6
CONTINUOUS
10
151.326
20
-139.342
11
151.326
21
-141.342
0
LINE
8
BLACK
6
CONTINUOUS
10
150.612
20
-138.199
11
149.897
21
-140.342
0
LINE
8
BLACK
6
CONTINUOUS
10
149.897
20
-140.342
11
151.754
21
-140.342
0
LINE
8
BLACK
6
CONTINUOUS
10
155.183
20
-141.342
11
155.183
21
-138.342
0
LINE
8
BLACK
6
CONTINUOUS
10
156.469
20
-141.342
11
156.469
21
-139.771
0
LINE
8
BLACK
6
CONTINUOUS
10
156.469
20
-139.771
11
156.326
21
-139.485
0
LINE
8
BLACK
6
CONTINUOUS
10
156.326
20
-139.485
11
156.04
21
-139.342
0
LINE
8
BLACK
6
CONTINUOUS
10
156.04
20
-139.342
11
155.612
21
-139.342
0
LINE
8
BLACK
6
CONTINUOUS
10
155.612
20
-139.342
11
155.326
21
-139.485
0
LINE
8
BLACK
6
CONTINUOUS
10
155.326
20
-139.485
11
155.183
21
-139.628
0
LINE
8
BLACK
6
CONTINUOUS
10
158.326
20
-141.342
11
158.04
21
-141.199
0
LINE
8
BLACK
6
CONTINUOUS
10
158.04
20
-141.199
11
157.897
21
-141.056
0
LINE
8
BLACK
6
CONTINUOUS
10
157.897
20
-141.056
11
157.754
21
-140.771
0
LINE
8
BLACK
6
CONTINUOUS
10
157.754
20
-140.771
11
157.754
21
-139.914
0
LINE
8
BLACK
6
CONTINUOUS
10
157.754
20
-139.914
11
157.897
21
-139.628
0
LINE
8
BLACK
6
CONTINUOUS
10
157.897
20
-139.628
11
158.04
21
-139.485
0
LINE
8
BLACK
6
CONTINUOUS
10
158.04
20
-139.485
11
158.326
21
-139.342
0
LINE
8
BLACK
6
CONTINUOUS
10
158.326
20
-139.342
11
158.754
21
-139.342
0
LINE
8
BLACK
6
CONTINUOUS
10
158.754
20
-139.342
11
159.04
21
-139.485
0
LINE
8
BLACK
6
CONTINUOUS
10
159.04
20
-139.485
11
159.183
21
-139.628
0
LINE
8
BLACK
6
CONTINUOUS
10
159.183
20
-139.628
11
159.326
21
-139.914
0
LINE
8
BLACK
6
CONTINUOUS
10
159.326
20
-139.914
11
159.326
21
-140.771
0
LINE
8
BLACK
6
CONTINUOUS
10
159.326
20
-140.771
11
159.183
21
-141.056
0
LINE
8
BLACK
6
CONTINUOUS
10
159.183
20
-141.056
11
159.04
21
-141.199
0
LINE
8
BLACK
6
CONTINUOUS
10
159.04
20
-141.199
11
158.754
21
-141.342
0
LINE
8
BLACK
6
CONTINUOUS
10
158.754
20
-141.342
11
158.326
21
-141.342
0
LINE
8
BLACK
6
CONTINUOUS
10
161.04
20
-141.342
11
160.754
21
-141.199
0
LINE
8
BLACK
6
CONTINUOUS
10
160.754
20
-141.199
11
160.612
21
-140.914
0
LINE
8
BLACK
6
CONTINUOUS
10
160.612
20
-140.914
11
160.612
21
-138.342
0
LINE
8
BLACK
6
CONTINUOUS
10
163.326
20
-141.199
11
163.04
21
-141.342
0
LINE
8
BLACK
6
CONTINUOUS
10
163.04
20
-141.342
11
162.469
21
-141.342
0
LINE
8
BLACK
6
CONTINUOUS
10
162.469
20
-141.342
11
162.183
21
-141.199
0
LINE
8
BLACK
6
CONTINUOUS
10
162.183
20
-141.199
11
162.04
21
-140.914
0
LINE
8
BLACK
6
CONTINUOUS
10
162.04
20
-140.914
11
162.04
21
-139.771
0
LINE
8
BLACK
6
CONTINUOUS
10
162.04
20
-139.771
11
162.183
21
-139.485
0
LINE
8
BLACK
6
CONTINUOUS
10
162.183
20
-139.485
11
162.469
21
-139.342
0
LINE
8
BLACK
6
CONTINUOUS
10
162.469
20
-139.342
11
163.04
21
-139.342
0
LINE
8
BLACK
6
CONTINUOUS
10
163.04
20
-139.342
11
163.326
21
-139.485
0
LINE
8
BLACK
6
CONTINUOUS
10
163.326
20
-139.485
11
163.469
21
-139.771
0
LINE
8
BLACK
6
CONTINUOUS
10
163.469
20
-139.771
11
163.469
21
-140.056
0
LINE
8
BLACK
6
CONTINUOUS
10
163.469
20
-140.056
11
162.04
21
-140.342
0
LINE
8
BLACK
6
CONTINUOUS
10
164.612
20
-141.199
11
164.897
21
-141.342
0
LINE
8
BLACK
6
CONTINUOUS
10
164.897
20
-141.342
11
165.469
21
-141.342
0
LINE
8
BLACK
6
CONTINUOUS
10
165.469
20
-141.342
11
165.754
21
-141.199
0
LINE
8
BLACK
6
CONTINUOUS
10
165.754
20
-141.199
11
165.897
21
-140.914
0
LINE
8
BLACK
6
CONTINUOUS
10
165.897
20
-140.914
11
165.897
21
-140.771
0
LINE
8
BLACK
6
CONTINUOUS
10
165.897
20
-140.771
11
165.754
21
-140.485
0
LINE
8
BLACK
6
CONTINUOUS
10
165.754
20
-140.485
11
165.469
21
-140.342
0
LINE
8
BLACK
6
CONTINUOUS
10
165.469
20
-140.342
11
165.04
21
-140.342
0
LINE
8
BLACK
6
CONTINUOUS
10
165.04
20
-140.342
11
164.754
21
-140.199
0
LINE
8
BLACK
6
CONTINUOUS
10
164.754
20
-140.199
11
164.612
21
-139.914
0
LINE
8
BLACK
6
CONTINUOUS
10
164.612
20
-139.914
11
164.612
21
-139.771
0
LINE
8
BLACK
6
CONTINUOUS
10
164.612
20
-139.771
11
164.754
21
-139.485
0
LINE
8
BLACK
6
CONTINUOUS
10
164.754
20
-139.485
11
165.04
21
-139.342
0
LINE
8
BLACK
6
CONTINUOUS
10
165.04
20
-139.342
11
165.469
21
-139.342
0
LINE
8
BLACK
6
CONTINUOUS
10
165.469
20
-139.342
11
165.754
21
-139.485
0
LINE
8
BLACK
6
CONTINUOUS
10
166.897
20
-142.485
11
167.04
21
-142.342
0
LINE
8
BLACK
6
CONTINUOUS
10
167.04
20
-142.342
11
167.326
21
-141.914
0
LINE
8
BLACK
6
CONTINUOUS
10
167.326
20
-141.914
11
167.469
21
-141.628
0
LINE
8
BLACK
6
CONTINUOUS
10
167.469
20
-141.628
11
167.612
21
-141.199
0
LINE
8
BLACK
6
CONTINUOUS
10
167.612
20
-141.199
11
167.754
21
-140.485
0
LINE
8
BLACK
6
CONTINUOUS
10
167.754
20
-140.485
11
167.754
21
-139.914
0
LINE
8
BLACK
6
CONTINUOUS
10
167.754
20
-139.914
11
167.612
21
-139.199
0
LINE
8
BLACK
6
CONTINUOUS
10
167.612
20
-139.199
11
167.469
21
-138.771
0
LINE
8
BLACK
6
CONTINUOUS
10
167.469
20
-138.771
11
167.326
21
-138.485
0
LINE
8
BLACK
6
CONTINUOUS
10
167.326
20
-138.485
11
167.04
21
-138.056
0
LINE
8
BLACK
6
CONTINUOUS
10
167.04
20
-138.056
11
166.897
21
-137.914
0
LINE
8
BLACK
6
CONTINUOUS
10
172.326
20
-142.485
11
172.183
21
-142.342
0
LINE
8
BLACK
6
CONTINUOUS
10
172.183
20
-142.342
11
171.897
21
-141.914
0
LINE
8
BLACK
6
CONTINUOUS
10
171.897
20
-141.914
11
171.754
21
-141.628
0
LINE
8
BLACK
6
CONTINUOUS
10
171.754
20
-141.628
11
171.612
21
-141.199
0
LINE
8
BLACK
6
CONTINUOUS
10
171.612
20
-141.199
11
171.469
21
-140.485
0
LINE
8
BLACK
6
CONTINUOUS
10
171.469
20
-140.485
11
171.469
21
-139.914
0
LINE
8
BLACK
6
CONTINUOUS
10
171.469
20
-139.914
11
171.612
21
-139.199
0
LINE
8
BLACK
6
CONTINUOUS
10
171.612
20
-139.199
11
171.754
21
-138.771
0
LINE
8
BLACK
6
CONTINUOUS
10
171.754
20
-138.771
11
171.897
21
-138.485
0
LINE
8
BLACK
6
CONTINUOUS
10
171.897
20
-138.485
11
172.183
21
-138.056
0
LINE
8
BLACK
6
CONTINUOUS
10
172.183
20
-138.056
11
172.326
21
-137.914
0
LINE
8
BLACK
6
CONTINUOUS
10
173.469
20
-139.342
11
173.469
21
-141.342
0
LINE
8
BLACK
6
CONTINUOUS
10
173.469
20
-139.628
11
173.612
21
-139.485
0
LINE
8
BLACK
6
CONTINUOUS
10
173.612
20
-139.485
11
173.897
21
-139.342
0
LINE
8
BLACK
6
CONTINUOUS
10
173.897
20
-139.342
11
174.326
21
-139.342
0
LINE
8
BLACK
6
CONTINUOUS
10
174.326
20
-139.342
11
174.612
21
-139.485
0
LINE
8
BLACK
6
CONTINUOUS
10
174.612
20
-139.485
11
174.754
21
-139.771
0
LINE
8
BLACK
6
CONTINUOUS
10
174.754
20
-139.771
11
174.754
21
-141.342
0
LINE
8
BLACK
6
CONTINUOUS
10
176.612
20
-141.342
11
176.326
21
-141.199
0
LINE
8
BLACK
6
CONTINUOUS
10
176.326
20
-141.199
11
176.183
21
-141.056
0
LINE
8
BLACK
6
CONTINUOUS
10
176.183
20
-141.056
11
176.04
21
-140.771
0
LINE
8
BLACK
6
CONTINUOUS
10
176.04
20
-140.771
11
176.04
21
-139.914
0
LINE
8
BLACK
6
CONTINUOUS
10
176.04
20
-139.914
11
176.183
21
-139.628
0
LINE
8
BLACK
6
CONTINUOUS
10
176.183
20
-139.628
11
176.326
21
-139.485
0
LINE
8
BLACK
6
CONTINUOUS
10
176.326
20
-139.485
11
176.612
21
-139.342
0
LINE
8
BLACK
6
CONTINUOUS
10
176.612
20
-139.342
11
177.04
21
-139.342
0
LINE
8
BLACK
6
CONTINUOUS
10
177.04
20
-139.342
11
177.326
21
-139.485
0
LINE
8
BLACK
6
CONTINUOUS
10
177.326
20
-139.485
11
177.469
21
-139.628
0
LINE
8
BLACK
6
CONTINUOUS
10
177.469
20
-139.628
11
177.612
21
-139.914
0
LINE
8
BLACK
6
CONTINUOUS
10
177.612
20
-139.914
11
177.612
21
-140.771
0
LINE
8
BLACK
6
CONTINUOUS
10
177.612
20
-140.771
11
177.469
21
-141.056
0
LINE
8
BLACK
6
CONTINUOUS
10
177.469
20
-141.056
11
177.326
21
-141.199
0
LINE
8
BLACK
6
CONTINUOUS
10
177.326
20
-141.199
11
177.04
21
-141.342
0
LINE
8
BLACK
6
CONTINUOUS
10
177.04
20
-141.342
11
176.612
21
-141.342
0
LINE
8
BLACK
6
CONTINUOUS
10
178.469
20
-139.342
11
179.612
21
-139.342
0
LINE
8
BLACK
6
CONTINUOUS
10
178.897
20
-138.342
11
178.897
21
-140.914
0
LINE
8
BLACK
6
CONTINUOUS
10
178.897
20
-140.914
11
179.04
21
-141.199
0
LINE
8
BLACK
6
CONTINUOUS
10
179.04
20
-141.199
11
179.326
21
-141.342
0
LINE
8
BLACK
6
CONTINUOUS
10
179.326
20
-141.342
11
179.612
21
-141.342
0
LINE
8
BLACK
6
CONTINUOUS
10
182.897
20
-139.342
11
182.897
21
-142.342
0
LINE
8
BLACK
6
CONTINUOUS
10
182.897
20
-139.485
11
183.183
21
-139.342
0
LINE
8
BLACK
6
CONTINUOUS
10
183.183
20
-139.342
11
183.754
21
-139.342
0
LINE
8
BLACK
6
CONTINUOUS
10
183.754
20
-139.342
11
184.04
21
-139.485
0
LINE
8
BLACK
6
CONTINUOUS
10
184.04
20
-139.485
11
184.183
21
-139.628
0
LINE
8
BLACK
6
CONTINUOUS
10
184.183
20
-139.628
11
184.326
21
-139.914
0
LINE
8
BLACK
6
CONTINUOUS
10
184.326
20
-139.914
11
184.326
21
-140.771
0
LINE
8
BLACK
6
CONTINUOUS
10
184.326
20
-140.771
11
184.183
21
-141.056
0
LINE
8
BLACK
6
CONTINUOUS
10
184.183
20
-141.056
11
184.04
21
-141.199
0
LINE
8
BLACK
6
CONTINUOUS
10
184.04
20
-141.199
11
183.754
21
-141.342
0
LINE
8
BLACK
6
CONTINUOUS
10
183.754
20
-141.342
11
183.183
21
-141.342
0
LINE
8
BLACK
6
CONTINUOUS
10
183.183
20
-141.342
11
182.897
21
-141.199
0
LINE
8
BLACK
6
CONTINUOUS
10
186.04
20
-141.342
11
185.754
21
-141.199
0
LINE
8
BLACK
6
CONTINUOUS
10
185.754
20
-141.199
11
185.612
21
-140.914
0
LINE
8
BLACK
6
CONTINUOUS
10
185.612
20
-140.914
11
185.612
21
-138.342
0
LINE
8
BLACK
6
CONTINUOUS
10
188.469
20
-141.342
11
188.469
21
-139.771
0
LINE
8
BLACK
6
CONTINUOUS
10
188.469
20
-139.771
11
188.326
21
-139.485
0
LINE
8
BLACK
6
CONTINUOUS
10
188.326
20
-139.485
11
188.04
21
-139.342
0
LINE
8
BLACK
6
CONTINUOUS
10
188.04
20
-139.342
11
187.469
21
-139.342
0
LINE
8
BLACK
6
CONTINUOUS
10
187.469
20
-139.342
11
187.183
21
-139.485
0
LINE
8
BLACK
6
CONTINUOUS
10
188.469
20
-141.199
11
188.183
21
-141.342
0
LINE
8
BLACK
6
CONTINUOUS
10
188.183
20
-141.342
11
187.469
21
-141.342
0
LINE
8
BLACK
6
CONTINUOUS
10
187.469
20
-141.342
11
187.183
21
-141.199
0
LINE
8
BLACK
6
CONTINUOUS
10
187.183
20
-141.199
11
187.04
21
-140.914
0
LINE
8
BLACK
6
CONTINUOUS
10
187.04
20
-140.914
11
187.04
21
-140.628
0
LINE
8
BLACK
6
CONTINUOUS
10
187.04
20
-140.628
11
187.183
21
-140.342
0
LINE
8
BLACK
6
CONTINUOUS
10
187.183
20
-140.342
11
187.469
21
-140.199
0
LINE
8
BLACK
6
CONTINUOUS
10
187.469
20
-140.199
11
188.183
21
-140.199
0
LINE
8
BLACK
6
CONTINUOUS
10
188.183
20
-140.199
11
188.469
21
-140.056
0
LINE
8
BLACK
6
CONTINUOUS
10
189.469
20
-139.342
11
190.612
21
-139.342
0
LINE
8
BLACK
6
CONTINUOUS
10
189.897
20
-138.342
11
189.897
21
-140.914
0
LINE
8
BLACK
6
CONTINUOUS
10
189.897
20
-140.914
11
190.04
21
-141.199
0
LINE
8
BLACK
6
CONTINUOUS
10
190.04
20
-141.199
11
190.326
21
-141.342
0
LINE
8
BLACK
6
CONTINUOUS
10
190.326
20
-141.342
11
190.612
21
-141.342
0
LINE
8
BLACK
6
CONTINUOUS
10
192.754
20
-141.199
11
192.469
21
-141.342
0
LINE
8
BLACK
6
CONTINUOUS
10
192.469
20
-141.342
11
191.897
21
-141.342
0
LINE
8
BLACK
6
CONTINUOUS
10
191.897
20
-141.342
11
191.612
21
-141.199
0
LINE
8
BLACK
6
CONTINUOUS
10
191.612
20
-141.199
11
191.469
21
-140.914
0
LINE
8
BLACK
6
CONTINUOUS
10
191.469
20
-140.914
11
191.469
21
-139.771
0
LINE
8
BLACK
6
CONTINUOUS
10
191.469
20
-139.771
11
191.612
21
-139.485
0
LINE
8
BLACK
6
CONTINUOUS
10
191.612
20
-139.485
11
191.897
21
-139.342
0
LINE
8
BLACK
6
CONTINUOUS
10
191.897
20
-139.342
11
192.469
21
-139.342
0
LINE
8
BLACK
6
CONTINUOUS
10
192.469
20
-139.342
11
192.754
21
-139.485
0
LINE
8
BLACK
6
CONTINUOUS
10
192.754
20
-139.485
11
192.897
21
-139.771
0
LINE
8
BLACK
6
CONTINUOUS
10
192.897
20
-139.771
11
192.897
21
-140.056
0
LINE
8
BLACK
6
CONTINUOUS
10
192.897
20
-140.056
11
191.469
21
-140.342
0
LINE
8
BLACK
6
CONTINUOUS
10
195.469
20
-141.342
11
195.469
21
-138.342
0
LINE
8
BLACK
6
CONTINUOUS
10
195.469
20
-141.199
11
195.183
21
-141.342
0
LINE
8
BLACK
6
CONTINUOUS
10
195.183
20
-141.342
11
194.612
21
-141.342
0
LINE
8
BLACK
6
CONTINUOUS
10
194.612
20
-141.342
11
194.326
21
-141.199
0
LINE
8
BLACK
6
CONTINUOUS
10
194.326
20
-141.199
11
194.183
21
-141.056
0
LINE
8
BLACK
6
CONTINUOUS
10
194.183
20
-141.056
11
194.04
21
-140.771
0
LINE
8
BLACK
6
CONTINUOUS
10
194.04
20
-140.771
11
194.04
21
-139.914
0
LINE
8
BLACK
6
CONTINUOUS
10
194.04
20
-139.914
11
194.183
21
-139.628
0
LINE
8
BLACK
6
CONTINUOUS
10
194.183
20
-139.628
11
194.326
21
-139.485
0
LINE
8
BLACK
6
CONTINUOUS
10
194.326
20
-139.485
11
194.612
21
-139.342
0
LINE
8
BLACK
6
CONTINUOUS
10
194.612
20
-139.342
11
195.183
21
-139.342
0
LINE
8
BLACK
6
CONTINUOUS
10
195.183
20
-139.342
11
195.469
21
-139.485
0
LINE
8
BLACK
6
CONTINUOUS
10
196.612
20
-142.485
11
196.754
21
-142.342
0
LINE
8
BLACK
6
CONTINUOUS
10
196.754
20
-142.342
11
197.04
21
-141.914
0
LINE
8
BLACK
6
CONTINUOUS
10
197.04
20
-141.914
11
197.183
21
-141.628
0
LINE
8
BLACK
6
CONTINUOUS
10
197.183
20
-141.628
11
197.326
21
-141.199
0
LINE
8
BLACK
6
CONTINUOUS
10
197.326
20
-141.199
11
197.469
21
-140.485
0
LINE
8
BLACK
6
CONTINUOUS
10
197.469
20
-140.485
11
197.469
21
-139.914
0
LINE
8
BLACK
6
CONTINUOUS
10
197.469
20
-139.914
11
197.326
21
-139.199
0
LINE
8
BLACK
6
CONTINUOUS
10
197.326
20
-139.199
11
197.183
21
-138.771
0
LINE
8
BLACK
6
CONTINUOUS
10
197.183
20
-138.771
11
197.04
21
-138.485
0
LINE
8
BLACK
6
CONTINUOUS
10
197.04
20
-138.485
11
196.754
21
-138.056
0
LINE
8
BLACK
6
CONTINUOUS
10
196.754
20
-138.056
11
196.612
21
-137.914
  0
ENDSEC
  0
EOF
