G04 #@! TF.GenerationSoftware,KiCad,Pcbnew,5.0.0-rc3-unknown-3e22e5c~65~ubuntu16.04.1*
G04 #@! TF.CreationDate,2018-07-12T16:40:26-04:00*
G04 #@! TF.ProjectId,Phoenix_schema_ver3,50686F656E69785F736368656D615F76,rev?*
G04 #@! TF.SameCoordinates,Original*
G04 #@! TF.FileFunction,Copper,L1,Top,Signal*
G04 #@! TF.FilePolarity,Positive*
%FSLAX46Y46*%
G04 Gerber Fmt 4.6, Leading zero omitted, Abs format (unit mm)*
G04 Created by KiCad (PCBNEW 5.0.0-rc3-unknown-3e22e5c~65~ubuntu16.04.1) date Thu Jul 12 16:40:26 2018*
%MOMM*%
%LPD*%
G01*
G04 APERTURE LIST*
G04 #@! TA.AperFunction,ComponentPad*
%ADD10C,1.524000*%
G04 #@! TD*
G04 #@! TA.AperFunction,ComponentPad*
%ADD11O,1.350000X1.350000*%
G04 #@! TD*
G04 #@! TA.AperFunction,ComponentPad*
%ADD12R,1.350000X1.350000*%
G04 #@! TD*
G04 #@! TA.AperFunction,ComponentPad*
%ADD13C,1.000000*%
G04 #@! TD*
G04 #@! TA.AperFunction,ComponentPad*
%ADD14C,5.000000*%
G04 #@! TD*
G04 #@! TA.AperFunction,SMDPad,CuDef*
%ADD15R,0.965200X3.505200*%
G04 #@! TD*
G04 #@! TA.AperFunction,SMDPad,CuDef*
%ADD16R,6.553200X8.458200*%
G04 #@! TD*
G04 #@! TA.AperFunction,SMDPad,CuDef*
%ADD17R,1.060000X1.920000*%
G04 #@! TD*
G04 #@! TA.AperFunction,SMDPad,CuDef*
%ADD18R,9.090000X8.120000*%
G04 #@! TD*
G04 #@! TA.AperFunction,ViaPad*
%ADD19C,0.600000*%
G04 #@! TD*
G04 #@! TA.AperFunction,Conductor*
%ADD20C,0.250000*%
G04 #@! TD*
G04 #@! TA.AperFunction,Conductor*
%ADD21C,0.500000*%
G04 #@! TD*
G04 #@! TA.AperFunction,Conductor*
%ADD22C,1.500000*%
G04 #@! TD*
G04 #@! TA.AperFunction,Conductor*
%ADD23C,2.000000*%
G04 #@! TD*
G04 APERTURE END LIST*
D10*
G04 #@! TO.P,ELKA,D*
G04 #@! TO.N,Net-(E1-PadD)*
X133170477Y-85667204D03*
G04 #@! TO.P,ELKA,C*
G04 #@! TO.N,Net-(E1-PadC)*
X133170477Y-83667204D03*
G04 #@! TO.P,ELKA,B*
G04 #@! TO.N,Net-(E1-PadB)*
X133170477Y-81667204D03*
G04 #@! TO.P,ELKA,A*
G04 #@! TO.N,Net-(E1-PadA)*
X133170477Y-79667204D03*
G04 #@! TO.P,ELKA,12*
G04 #@! TO.N,Net-(E1-Pad12)*
X115011200Y-95834200D03*
G04 #@! TO.P,ELKA,11*
G04 #@! TO.N,Net-(E1-Pad11)*
X113233200Y-94056200D03*
G04 #@! TO.P,ELKA,E*
G04 #@! TO.N,Net-(E1-PadE)*
X133172200Y-87706200D03*
G04 #@! TO.P,ELKA,F*
G04 #@! TO.N,Net-(E1-PadF)*
X133172200Y-89738200D03*
G04 #@! TO.P,ELKA,G*
G04 #@! TO.N,Net-(E1-PadG)*
X133172200Y-91770200D03*
G04 #@! TO.P,ELKA,H*
G04 #@! TO.N,Net-(E1-PadH)*
X133172200Y-93802200D03*
G04 #@! TO.P,ELKA,10*
G04 #@! TO.N,Net-(E1-Pad10)*
X129108200Y-95834200D03*
G04 #@! TO.P,ELKA,9*
G04 #@! TO.N,Net-(E1-Pad9)*
X131140200Y-95834200D03*
G04 #@! TO.P,ELKA,I*
G04 #@! TO.N,Net-(E1-PadI)*
X133172200Y-95834200D03*
G04 #@! TO.P,ELKA,1*
G04 #@! TO.N,Net-(E1-Pad1)*
X113233200Y-78816200D03*
G04 #@! TO.P,ELKA,2*
G04 #@! TO.N,Net-(E1-Pad2)*
X113233200Y-76911200D03*
G04 #@! TO.P,ELKA,8*
G04 #@! TO.N,Net-(E1-Pad8)*
X123259200Y-74863200D03*
G04 #@! TO.P,ELKA,7*
G04 #@! TO.N,Net-(E1-Pad7)*
X121259200Y-74863200D03*
G04 #@! TO.P,ELKA,6*
G04 #@! TO.N,Net-(E1-Pad6)*
X119259200Y-74863200D03*
G04 #@! TO.P,ELKA,5*
G04 #@! TO.N,Net-(E1-Pad5)*
X117259200Y-74863200D03*
G04 #@! TO.P,ELKA,4*
G04 #@! TO.N,Net-(E1-Pad4)*
X115259200Y-74863200D03*
G04 #@! TO.P,ELKA,3*
G04 #@! TO.N,Net-(E1-Pad3)*
X113233200Y-74879200D03*
G04 #@! TD*
G04 #@! TO.P,Zigbee,1*
G04 #@! TO.N,Net-(E1-PadC)*
X139446000Y-78130400D03*
G04 #@! TO.P,Zigbee,2*
G04 #@! TO.N,Net-(E1-PadB)*
X139430000Y-80131000D03*
G04 #@! TO.P,Zigbee,3*
G04 #@! TO.N,Net-(E1-PadA)*
X139430000Y-82131000D03*
G04 #@! TO.P,Zigbee,4*
G04 #@! TO.N,Net-(U1-Pad4)*
X139430000Y-84131000D03*
G04 #@! TO.P,Zigbee,5*
G04 #@! TO.N,Net-(U1-Pad5)*
X139430000Y-86131000D03*
G04 #@! TO.P,Zigbee,6*
G04 #@! TO.N,Net-(U1-Pad6)*
X139430000Y-88131000D03*
G04 #@! TO.P,Zigbee,7*
G04 #@! TO.N,Net-(U1-Pad7)*
X139430000Y-90131000D03*
G04 #@! TO.P,Zigbee,8*
G04 #@! TO.N,Net-(U1-Pad8)*
X139430000Y-92131000D03*
G04 #@! TO.P,Zigbee,9*
G04 #@! TO.N,Net-(U1-Pad9)*
X139430000Y-94131000D03*
G04 #@! TO.P,Zigbee,10*
G04 #@! TO.N,Net-(E1-PadD)*
X139430000Y-96131000D03*
G04 #@! TO.P,Zigbee,20*
G04 #@! TO.N,Net-(U1-Pad20)*
X161442400Y-78079600D03*
G04 #@! TO.P,Zigbee,19*
G04 #@! TO.N,Net-(U1-Pad19)*
X161430000Y-80131000D03*
G04 #@! TO.P,Zigbee,18*
G04 #@! TO.N,Net-(U1-Pad18)*
X161430000Y-82131000D03*
G04 #@! TO.P,Zigbee,17*
G04 #@! TO.N,Net-(U1-Pad17)*
X161430000Y-84131000D03*
G04 #@! TO.P,Zigbee,16*
G04 #@! TO.N,Net-(U1-Pad16)*
X161430000Y-86131000D03*
G04 #@! TO.P,Zigbee,15*
G04 #@! TO.N,Net-(U1-Pad15)*
X161430000Y-88131000D03*
G04 #@! TO.P,Zigbee,14*
G04 #@! TO.N,Net-(U1-Pad14)*
X161430000Y-90131000D03*
G04 #@! TO.P,Zigbee,13*
G04 #@! TO.N,Net-(U1-Pad13)*
X161430000Y-92131000D03*
G04 #@! TO.P,Zigbee,12*
G04 #@! TO.N,Net-(U1-Pad12)*
X161430000Y-94131000D03*
G04 #@! TO.P,Zigbee,11*
G04 #@! TO.N,Net-(U1-Pad11)*
X161430000Y-96131000D03*
G04 #@! TD*
D11*
G04 #@! TO.P,J9\002CJ15,5*
G04 #@! TO.N,Net-(J9\002CJ15-Pad5)*
X153732000Y-119888000D03*
G04 #@! TO.P,J9\002CJ15,4*
G04 #@! TO.N,Net-(J9\002CJ15-Pad4)*
X151732000Y-119888000D03*
G04 #@! TO.P,J9\002CJ15,3*
G04 #@! TO.N,Net-(J9\002CJ15-Pad3)*
X149732000Y-119888000D03*
G04 #@! TO.P,J9\002CJ15,6*
G04 #@! TO.N,Net-(E1-PadG)*
X147732000Y-119888000D03*
G04 #@! TO.P,J9\002CJ15,7*
G04 #@! TO.N,Net-(E1-PadH)*
X145732000Y-119888000D03*
G04 #@! TO.P,J9\002CJ15,2*
G04 #@! TO.N,Net-(E1-Pad11)*
X143732000Y-119888000D03*
D12*
G04 #@! TO.P,J9\002CJ15,1*
G04 #@! TO.N,Net-(J5-Pad1)*
X141732000Y-119888000D03*
G04 #@! TD*
D13*
G04 #@! TO.P,R1,3*
G04 #@! TO.N,Net-(J9\002CJ15-Pad5)*
X164541200Y-114144400D03*
G04 #@! TO.P,R1,2*
G04 #@! TO.N,Net-(J9\002CJ15-Pad4)*
X164541200Y-112928400D03*
G04 #@! TO.P,R1,1*
G04 #@! TO.N,Net-(J9\002CJ15-Pad3)*
X164541200Y-111712400D03*
G04 #@! TD*
D12*
G04 #@! TO.P,To ESCs,1*
G04 #@! TO.N,Net-(E1-Pad4)*
X114300000Y-72136000D03*
D11*
G04 #@! TO.P,To ESCs,2*
G04 #@! TO.N,Net-(E1-Pad5)*
X116300000Y-72136000D03*
G04 #@! TO.P,To ESCs,3*
G04 #@! TO.N,Net-(E1-Pad6)*
X118300000Y-72136000D03*
G04 #@! TO.P,To ESCs,4*
G04 #@! TO.N,Net-(E1-Pad7)*
X120300000Y-72136000D03*
G04 #@! TO.P,To ESCs,5*
G04 #@! TO.N,Net-(E1-Pad8)*
X122300000Y-72136000D03*
G04 #@! TD*
D14*
G04 #@! TO.P,To EScs,1*
G04 #@! TO.N,Net-(E1-Pad11)*
X106553000Y-85725000D03*
G04 #@! TO.P,To EScs,2*
G04 #@! TO.N,Net-(J1-Pad2)*
X106553000Y-92456000D03*
G04 #@! TD*
G04 #@! TO.P,J1,1*
G04 #@! TO.N,Net-(E1-Pad11)*
X106807000Y-108839000D03*
G04 #@! TO.P,J1,2*
G04 #@! TO.N,Net-(J1-Pad2)*
X106807000Y-102108000D03*
G04 #@! TD*
D12*
G04 #@! TO.P,J16,1*
G04 #@! TO.N,Net-(E1-PadC)*
X131000000Y-72136000D03*
D11*
G04 #@! TO.P,J16,2*
G04 #@! TO.N,Net-(E1-PadD)*
X129000000Y-72136000D03*
G04 #@! TO.P,J16,3*
G04 #@! TO.N,Net-(E1-PadE)*
X127000000Y-72136000D03*
G04 #@! TO.P,J16,4*
G04 #@! TO.N,Net-(E1-PadF)*
X125000000Y-72136000D03*
G04 #@! TD*
D12*
G04 #@! TO.P,J3,1*
G04 #@! TO.N,Net-(E1-Pad12)*
X122174000Y-119888000D03*
D11*
G04 #@! TO.P,J3,2*
X120174000Y-119888000D03*
G04 #@! TD*
D12*
G04 #@! TO.P,J4,1*
G04 #@! TO.N,Net-(E1-Pad11)*
X125476000Y-119888000D03*
D11*
G04 #@! TO.P,J4,2*
X127476000Y-119888000D03*
G04 #@! TD*
D12*
G04 #@! TO.P,J5,1*
G04 #@! TO.N,Net-(J5-Pad1)*
X130810000Y-119888000D03*
D11*
G04 #@! TO.P,J5,2*
X132810000Y-119888000D03*
G04 #@! TD*
D14*
G04 #@! TO.P,J6,1*
G04 #@! TO.N,Net-(E1-Pad11)*
X107061000Y-117475000D03*
G04 #@! TO.P,J6,2*
G04 #@! TO.N,Net-(J1-Pad2)*
X113792000Y-117475000D03*
G04 #@! TD*
D15*
G04 #@! TO.P,,1*
G04 #@! TO.N,Net-(J1-Pad2)*
X124612400Y-113449100D03*
G04 #@! TO.P,,2*
X126314200Y-113449100D03*
G04 #@! TO.P,,3*
G04 #@! TO.N,Net-(E1-Pad11)*
X128016000Y-113449100D03*
G04 #@! TO.P,,4*
G04 #@! TO.N,Net-(J5-Pad1)*
X129717800Y-113449100D03*
G04 #@! TO.P,,5*
G04 #@! TO.N,Net-(U2-Pad5)*
X131419600Y-113449100D03*
D16*
G04 #@! TO.P,,6*
G04 #@! TO.N,Net-(U2-Pad6)*
X128016000Y-101650800D03*
G04 #@! TD*
D17*
G04 #@! TO.P,,1*
G04 #@! TO.N,Net-(J1-Pad2)*
X113400000Y-108372000D03*
G04 #@! TO.P,,2*
X115120000Y-108372000D03*
G04 #@! TO.P,,3*
G04 #@! TO.N,Net-(E1-Pad11)*
X116840000Y-108372000D03*
G04 #@! TO.P,,4*
G04 #@! TO.N,Net-(E1-Pad12)*
X118560000Y-108372000D03*
G04 #@! TO.P,,5*
G04 #@! TO.N,Net-(U3-Pad5)*
X120280000Y-108372000D03*
D18*
G04 #@! TO.P,,6*
G04 #@! TO.N,Net-(E1-Pad11)*
X116840000Y-101992000D03*
G04 #@! TD*
D12*
G04 #@! TO.P,,1*
G04 #@! TO.N,Net-(E1-Pad1)*
X104140000Y-78740000D03*
D11*
G04 #@! TO.P,,2*
G04 #@! TO.N,Net-(E1-Pad2)*
X104140000Y-76740000D03*
G04 #@! TO.P,,3*
G04 #@! TO.N,Net-(E1-Pad3)*
X104140000Y-74740000D03*
G04 #@! TD*
D19*
G04 #@! TO.N,Net-(E1-Pad12)*
X120396000Y-114300000D03*
X120396000Y-116840000D03*
G04 #@! TO.N,Net-(E1-Pad11)*
X128016000Y-108712000D03*
X128016000Y-116586000D03*
X116840000Y-112014000D03*
G04 #@! TD*
D20*
G04 #@! TO.N,Net-(E1-PadH)*
X145034000Y-119190000D02*
X145732000Y-119888000D01*
X145034000Y-99822000D02*
X145034000Y-119190000D01*
X133172200Y-93802200D02*
X134442200Y-93802200D01*
X137160000Y-98552000D02*
X138430000Y-99822000D01*
X138430000Y-99822000D02*
X145034000Y-99822000D01*
X134442200Y-93802200D02*
X137160000Y-96520000D01*
X137160000Y-96520000D02*
X137160000Y-98552000D01*
G04 #@! TO.N,Net-(E1-PadG)*
X138176000Y-98298000D02*
X147574000Y-98298000D01*
X137668000Y-97790000D02*
X138176000Y-98298000D01*
X147574000Y-98298000D02*
X147732000Y-98456000D01*
X134950199Y-92532199D02*
X137668000Y-95250000D01*
X147732000Y-98456000D02*
X147732000Y-119888000D01*
X137668000Y-95250000D02*
X137668000Y-97790000D01*
X134950199Y-92532199D02*
X133934199Y-92532199D01*
X133172200Y-91770200D02*
X133934199Y-92532199D01*
G04 #@! TO.N,Net-(E1-PadF)*
X125000000Y-73090594D02*
X124968000Y-73122594D01*
X125000000Y-72136000D02*
X125000000Y-73090594D01*
X124968000Y-82296000D02*
X132410200Y-89738200D01*
X124968000Y-73122594D02*
X124968000Y-82296000D01*
G04 #@! TO.N,Net-(E1-PadE)*
X127000000Y-82296000D02*
X132410200Y-87706200D01*
X127000000Y-72136000D02*
X127000000Y-82296000D01*
G04 #@! TO.N,Net-(E1-PadD)*
X129000000Y-73090594D02*
X129032000Y-73122594D01*
X129000000Y-72136000D02*
X129000000Y-73090594D01*
X129032000Y-82290727D02*
X132408477Y-85667204D01*
X129032000Y-73122594D02*
X129032000Y-82290727D01*
X134689204Y-85667204D02*
X136906000Y-87884000D01*
X136906000Y-93607000D02*
X139430000Y-96131000D01*
X136906000Y-87884000D02*
X136906000Y-93607000D01*
X134689204Y-85667204D02*
X133170477Y-85667204D01*
G04 #@! TO.N,Net-(E1-PadC)*
X131000000Y-73061000D02*
X131064000Y-73125000D01*
X131000000Y-72136000D02*
X131000000Y-73061000D01*
X131064000Y-82322727D02*
X132408477Y-83667204D01*
X131165600Y-78130400D02*
X131064000Y-78232000D01*
X139446000Y-78130400D02*
X131165600Y-78130400D01*
X131064000Y-78232000D02*
X131064000Y-82322727D01*
X131064000Y-73125000D02*
X131064000Y-78232000D01*
G04 #@! TO.N,Net-(E1-PadA)*
X136966204Y-79667204D02*
X139430000Y-82131000D01*
X133170477Y-79667204D02*
X136966204Y-79667204D01*
G04 #@! TO.N,Net-(E1-Pad3)*
X112332000Y-74740000D02*
X112471200Y-74879200D01*
X104140000Y-74740000D02*
X112332000Y-74740000D01*
G04 #@! TO.N,Net-(E1-Pad2)*
X112300000Y-76740000D02*
X112471200Y-76911200D01*
X104140000Y-76740000D02*
X112300000Y-76740000D01*
G04 #@! TO.N,Net-(E1-Pad1)*
X112395000Y-78740000D02*
X112471200Y-78816200D01*
X104140000Y-78740000D02*
X112395000Y-78740000D01*
G04 #@! TO.N,Net-(E1-Pad4)*
X114497200Y-72333200D02*
X114300000Y-72136000D01*
X114300000Y-73904000D02*
X115259200Y-74863200D01*
X114300000Y-72136000D02*
X114300000Y-73904000D01*
G04 #@! TO.N,Net-(E1-Pad5)*
X116300000Y-73904000D02*
X117259200Y-74863200D01*
X116300000Y-72136000D02*
X116300000Y-73904000D01*
G04 #@! TO.N,Net-(E1-Pad6)*
X118300000Y-73904000D02*
X119259200Y-74863200D01*
X118300000Y-72136000D02*
X118300000Y-73904000D01*
G04 #@! TO.N,Net-(E1-Pad7)*
X120300000Y-73904000D02*
X121259200Y-74863200D01*
X120300000Y-72136000D02*
X120300000Y-73904000D01*
G04 #@! TO.N,Net-(E1-Pad8)*
X122300000Y-73904000D02*
X123259200Y-74863200D01*
X122300000Y-72136000D02*
X122300000Y-73904000D01*
G04 #@! TO.N,Net-(E1-Pad12)*
X120174000Y-119888000D02*
X122174000Y-119888000D01*
X118560000Y-110432000D02*
X118560000Y-108372000D01*
X119380000Y-111252000D02*
X118560000Y-110432000D01*
X122682000Y-111252000D02*
X121666000Y-111252000D01*
X122936000Y-110998000D02*
X122682000Y-111252000D01*
X122936000Y-95758000D02*
X122936000Y-110998000D01*
X122682000Y-95504000D02*
X122936000Y-95758000D01*
X120396000Y-111252000D02*
X120396000Y-114300000D01*
X121666000Y-111252000D02*
X120396000Y-111252000D01*
X120396000Y-111252000D02*
X119380000Y-111252000D01*
X120396000Y-119666000D02*
X120174000Y-119888000D01*
X120396000Y-116840000D02*
X120396000Y-119666000D01*
X115011200Y-95834200D02*
X122097800Y-95834200D01*
X122428000Y-95504000D02*
X122682000Y-95504000D01*
X122097800Y-95834200D02*
X122428000Y-95504000D01*
D21*
G04 #@! TO.N,Net-(E1-Pad11)*
X128016000Y-108712000D02*
X128016000Y-113449100D01*
X128016000Y-113449100D02*
X128016000Y-116586000D01*
X116840000Y-108372000D02*
X116840000Y-112014000D01*
X116840000Y-108372000D02*
X116840000Y-101992000D01*
D22*
G04 #@! TO.N,Net-(J1-Pad2)*
X106553000Y-92456000D02*
X106553000Y-101854000D01*
D20*
X106553000Y-101854000D02*
X106807000Y-102108000D01*
D21*
X124612400Y-113449100D02*
X126314200Y-113449100D01*
X115120000Y-108372000D02*
X115120000Y-112464000D01*
X115120000Y-112464000D02*
X116105100Y-113449100D01*
X113400000Y-108372000D02*
X115120000Y-108372000D01*
X113400000Y-108372000D02*
X113400000Y-117083000D01*
D20*
X113400000Y-117083000D02*
X113792000Y-117475000D01*
X106807000Y-102108000D02*
X106807000Y-102287000D01*
X124612400Y-114719100D02*
X124612400Y-113449100D01*
D21*
X116105100Y-113449100D02*
X116105100Y-115089100D01*
X116105100Y-115089100D02*
X116840000Y-115824000D01*
X116840000Y-115824000D02*
X123507500Y-115824000D01*
X123507500Y-115824000D02*
X124612400Y-114719100D01*
D20*
X109306999Y-104607999D02*
X109306999Y-104734999D01*
D23*
X106807000Y-102108000D02*
X109306999Y-104607999D01*
X109306999Y-104734999D02*
X110744000Y-106172000D01*
X110744000Y-114427000D02*
X113792000Y-117475000D01*
X110744000Y-106172000D02*
X110744000Y-114427000D01*
D20*
G04 #@! TO.N,Net-(J5-Pad1)*
X129717800Y-113449100D02*
X129717800Y-118795800D01*
X129717800Y-118795800D02*
X130810000Y-119888000D01*
X130987800Y-119710200D02*
X130810000Y-119888000D01*
X130810000Y-119888000D02*
X132810000Y-119888000D01*
X132810000Y-119888000D02*
X142240000Y-119888000D01*
G04 #@! TD*
M02*
